<svg width="18" height="18" viewBox="0 0 18 18" fill="none" xmlns="http://www.w3.org/2000/svg">
<circle cx="9" cy="9" r="9" fill="#FD5E5E"/>
<path d="M12.6749 5.33076C12.4474 5.10326 12.0799 5.10326 11.8524 5.33076L8.99992 8.17742L6.14742 5.32492C5.91992 5.09742 5.55242 5.09742 5.32492 5.32492C5.09742 5.55242 5.09742 5.91992 5.32492 6.14742L8.17742 8.99992L5.32492 11.8524C5.09742 12.0799 5.09742 12.4474 5.32492 12.6749C5.55242 12.9024 5.91992 12.9024 6.14742 12.6749L8.99992 9.82242L11.8524 12.6749C12.0799 12.9024 12.4474 12.9024 12.6749 12.6749C12.9024 12.4474 12.9024 12.0799 12.6749 11.8524L9.82242 8.99992L12.6749 6.14742C12.8966 5.92576 12.8966 5.55242 12.6749 5.33076V5.33076Z" fill="white"/>
</svg>
