<svg width="72" height="72" viewBox="0 0 72 72" fill="none" xmlns="http://www.w3.org/2000/svg">
<rect width="72" height="72" rx="36" fill="#3D445E"/>
<path d="M51.5202 38.6978C51.386 38.7155 51.2567 38.7332 51.1299 38.7484C50.849 38.7838 50.5855 38.8166 50.3145 38.8672C48.5917 39.1831 46.8887 39.7391 45.2579 40.5175C43.5625 41.3262 42.0708 42.3396 40.8229 43.5274C39.3884 44.8921 38.2275 46.5171 37.2902 48.4758V36.5674C38.9708 36.6937 40.5221 36.211 41.9117 35.1319C42.9782 34.3004 43.8533 33.2112 44.5842 31.801C45.33 30.363 45.7676 29.1095 45.964 27.8509C46.225 26.1854 46.1902 24.4366 45.8546 22.3541C45.5115 20.2262 44.9198 18.0806 44.0423 15.7985C43.8707 15.3511 43.6868 14.9164 43.4904 14.4565C43.4009 14.2442 43.3064 14.0243 43.2144 13.7994L43.0454 13.3976L39.1498 15.7656C38.1156 14.3579 37.2107 13.2788 36.2436 12.2932L35.9577 12L32.8626 15.7681C31.6246 14.9367 30.5382 14.2594 29.3698 13.6857L29.1212 13.5922L28.9347 13.7665C28.9099 13.7868 28.8651 13.8272 28.8254 13.8954C28.7955 13.9485 28.7682 14.0016 28.7433 14.0597C27.1299 17.7217 26.225 21.0956 25.9789 24.3709C25.8173 26.4988 26.0385 28.3235 26.6501 29.946C27.4183 31.9804 28.3331 33.4589 29.5264 34.5986C30.9758 35.981 32.6663 36.6508 34.5382 36.5876C34.6128 36.5851 34.6899 36.58 34.7644 36.5749V48.405C32.0845 42.9512 27.4034 39.7568 20.5096 38.6599L20 38.574L20.0845 39.0921C20.1193 39.3069 20.1516 39.5141 20.1815 39.7138C20.2461 40.1434 20.3083 40.5478 20.3953 40.9547C20.8477 43.0826 21.606 45.0918 22.6451 46.9215C23.5525 48.5187 24.5693 49.8202 25.7551 50.8943C28.2063 53.1183 31.1572 54.5664 34.7794 55.3221C34.7744 56.3229 34.7744 57.3211 34.7769 58.3219V59.9975H35.6047H36.6861C36.7334 59.9975 36.7831 59.9949 36.8403 59.9899L37.2753 59.9671V58.375C37.2753 57.3565 37.2753 56.3355 37.2728 55.317C39.4208 54.9025 41.4841 54.1267 43.4058 53.0147C45.5264 51.7864 47.2666 50.1867 48.5792 48.2584C50.2275 45.8398 51.3163 43.0826 51.821 40.0651C51.8583 39.8503 51.8807 39.6304 51.903 39.4181C51.913 39.3195 51.9254 39.2184 51.9378 39.1174L51.9975 38.6296L51.5202 38.6978ZM33.959 52.7771C31.0727 51.9381 28.8776 50.7402 27.0901 49.0317C25.1287 47.1565 23.7688 44.743 22.8415 41.4778C25.2704 42.1753 27.2716 43.1812 28.9397 44.5434C31.2965 46.4641 32.8999 49.0924 33.959 52.7771ZM37.3375 17.1278L36.0298 18.2271L34.7172 17.1303L36.0249 15.4421L37.3375 17.1278ZM30.0932 16.6931C30.1802 16.7487 30.2672 16.8068 30.3543 16.8624C30.8191 17.1632 31.2592 17.4462 31.6992 17.7495C33.4394 18.9423 34.8614 20.1453 36.0472 21.4266C37.3101 22.7913 38.0709 23.9665 38.5158 25.2428C39.0876 26.8804 39.3039 28.2755 39.202 29.6275C39.11 30.8229 38.7371 31.7959 38.0559 32.6046C37.5339 33.2238 36.8403 33.6812 35.9329 34.0022C34.5954 34.4748 33.3723 34.399 32.1964 33.7722C31.3337 33.3123 30.6053 32.6046 29.9739 31.6114C29.0988 30.2366 28.5569 28.882 28.3182 27.4693C28.1467 26.4559 28.1268 25.3792 28.2561 24.0802C28.4848 21.7855 29.0715 19.4301 30.0932 16.6931ZM41.2057 31.1995C41.8421 28.7026 41.2579 26.3649 40.6787 24.6084C40.1666 23.0592 39.2492 21.5858 37.7924 19.9709L37.6631 19.8294C38.9086 18.7427 40.3232 17.7116 41.9664 16.6931C41.9913 16.7639 42.0162 16.8346 42.0435 16.9054C42.2101 17.3729 42.3692 17.8152 42.5183 18.2676C43.1001 20.0265 43.4854 21.644 43.7017 23.2134C43.9006 24.664 44.0472 26.3725 43.6196 28.0632C43.0503 30.32 42.0634 32.0183 40.6016 33.2541C40.4574 33.3755 40.3058 33.4867 40.1492 33.5903C40.6165 32.9357 40.9621 32.1523 41.2057 31.1995ZM49.2007 41.4803C47.5799 47.4371 43.9403 51.1344 38.1032 52.7594C38.8639 50.0224 39.9975 47.8212 41.5587 46.042C43.4282 43.9166 45.867 42.4559 49.2007 41.4803Z" fill="#F9F9F9"/>
</svg>
