<svg width="145" height="168" viewBox="0 0 145 168" fill="none" xmlns="http://www.w3.org/2000/svg">
<path d="M138.648 43.8683C135.011 35.3086 129.804 27.6132 123.192 21.0288C116.58 14.4444 108.852 9.25926 100.256 5.63786C91.3711 1.893 81.9075 0 72.1547 0C62.4018 0 52.9382 1.893 44.0532 5.63786C35.4574 9.25926 27.7295 14.4444 21.1174 21.0288C14.5053 27.6132 9.29828 35.3086 5.66162 43.8683C1.90098 52.716 0 62.1399 0 71.8518C0 81.5638 1.90098 90.9876 5.66162 99.8354C9.29828 108.395 14.5053 116.091 21.1174 122.675C27.7295 129.259 35.4574 134.444 44.0532 138.066C52.9382 141.811 62.4018 143.704 72.1547 143.704C81.9075 143.704 91.3711 141.811 100.256 138.066C108.852 134.444 116.58 129.259 123.192 122.675C129.804 116.091 135.011 108.395 138.648 99.8354C142.408 90.9876 144.309 81.5638 144.309 71.8518C144.351 62.1399 142.408 52.716 138.648 43.8683Z" fill="url(#paint0_linear_1023_13627)"/>
<path d="M88.2031 127.405C88.2031 127.405 76.1922 113.781 75.4723 103.392L77.1773 99.6626C77.0637 98.6732 77.0258 97.6456 77.0258 96.5801H71.5318H68.5765H66.0379C66.0379 98.6732 65.8106 100.652 65.4317 102.517C65.318 103.164 65.1665 103.773 64.977 104.382C60.9608 119.376 46.4492 127.405 46.4492 127.405H68.5386H88.2031Z" fill="url(#paint1_linear_1023_13627)"/>
<path d="M96.539 127.405H88.2034C88.2034 127.405 77.405 115.189 75.6621 105.066C75.5484 104.495 75.5105 103.962 75.4727 103.392L76.5335 101.07L77.1777 99.6621C77.1777 99.8143 77.2156 100.005 77.2156 100.157C77.3292 100.956 77.4429 101.755 77.5945 102.516C77.746 103.239 77.8976 103.924 78.087 104.609C82.2169 119.489 96.539 127.405 96.539 127.405Z" fill="url(#paint2_linear_1023_13627)"/>
<path d="M60.0123 86.4197C55.0109 86.4197 50.3127 85.8108 46.0312 84.6311C42.0907 83.5275 38.4534 81.9291 35.157 79.836C29.6252 76.2968 25.0785 71.4257 21.6306 65.2987C20.3045 62.9011 19.1299 60.3133 18.1448 57.6113C17.3491 55.4422 16.705 53.1969 16.2125 50.9516C15.341 47.0698 15.1516 44.444 15.1516 44.3298L15 41.5137H38.4155L39.0217 46.8035H20.797C20.9486 47.6787 21.138 48.7443 21.4033 49.924C22.161 53.1588 23.6008 57.9919 26.3289 62.825C33.2247 74.9649 44.5535 81.1299 60.0123 81.1299V86.4197Z" fill="#C1C1C1"/>
<path d="M82.9746 86.4197C87.976 86.4197 92.6742 85.8108 96.9557 84.6311C100.896 83.5275 104.534 81.9291 107.83 79.836C113.362 76.2968 117.908 71.4257 121.356 65.2987C122.682 62.9011 123.857 60.3133 124.842 57.6113C125.638 55.4422 126.282 53.1969 126.774 50.9516C127.646 47.0698 127.835 44.444 127.835 44.3298L127.987 41.5137H104.571L103.965 46.8035H122.228C122.076 47.6787 121.887 48.7443 121.622 49.924C120.864 53.1588 119.424 57.9919 116.696 62.825C109.8 74.9649 98.4713 81.1299 83.0125 81.1299V86.4197H82.9746Z" fill="url(#paint3_linear_1023_13627)"/>
<path opacity="0.05" d="M86.0028 95.4023C85.8134 95.6687 85.586 95.8971 85.3966 96.1254C85.3587 96.2015 85.2829 96.2396 85.245 96.3157C84.904 96.6962 84.6009 97.0768 84.2599 97.4193C84.222 97.4574 84.1462 97.5335 84.1083 97.5715C84.0326 97.6476 83.9947 97.6857 83.9189 97.7618C83.881 97.8379 83.8052 97.876 83.7673 97.914C83.5779 98.1043 83.3885 98.2946 83.199 98.4849C83.1232 98.561 83.0853 98.599 83.0096 98.6752C82.8959 98.7893 82.8201 98.8654 82.7065 98.9796C82.6686 99.0177 82.5928 99.0557 82.5549 99.1318C82.3276 99.3221 82.1381 99.5124 81.9108 99.7027C81.835 99.7407 81.7971 99.8168 81.7213 99.8549C81.6077 99.931 81.494 100.045 81.3803 100.121C81.3424 100.159 81.3045 100.197 81.2667 100.197C80.9257 100.464 80.5847 100.73 80.2437 100.997C80.2058 101.035 80.13 101.073 80.0921 101.111C80.0542 101.149 79.9784 101.187 79.9405 101.225C79.9027 101.263 79.8269 101.301 79.789 101.339C79.7511 101.377 79.6753 101.415 79.6374 101.453C79.3343 101.644 79.0691 101.834 78.766 101.986C78.7281 102.024 78.6902 102.024 78.6523 102.062C78.6144 102.1 78.5386 102.138 78.5008 102.138C78.4629 102.176 78.3871 102.214 78.3492 102.214C78.1219 102.329 77.8945 102.443 77.7051 102.557C77.6672 102.557 77.6672 102.595 77.6293 102.595C77.7809 103.318 77.9324 104.003 78.1219 104.688C77.2883 104.878 76.4926 104.992 75.697 105.107C74.2193 105.297 72.8553 105.335 71.567 105.335C69.0285 105.297 66.8309 104.916 65.0501 104.46C65.2017 103.851 65.3532 103.242 65.5048 102.595C62.6631 101.187 59.9729 98.8654 57.3965 95.859L80.3194 95.5165L86.0028 95.4023Z" fill="black"/>
<path d="M105.061 32.1523C105.061 32.3046 105.061 32.4187 105.061 32.571C105.061 32.6471 105.061 32.6851 105.061 32.7612C105.061 32.8754 105.061 33.0276 105.061 33.1418C105.061 33.1799 105.061 33.2179 105.061 33.256C105.061 33.4082 105.061 33.5224 105.061 33.6746C105.061 33.7126 105.061 33.7507 105.061 33.7888C105.061 33.941 105.061 34.0932 105.061 34.2454C105.061 34.3976 105.061 34.5499 105.061 34.7021C105.061 35.0827 105.023 35.4632 105.023 35.8438C105.023 35.996 105.023 36.1482 105.023 36.2624C105.023 36.3004 105.023 36.3004 105.023 36.3385C105.023 36.4907 105.023 36.681 104.985 36.8332C104.985 36.9855 104.985 37.1757 104.947 37.328C104.947 37.5182 104.909 37.7085 104.909 37.9369C104.909 38.051 104.909 38.1652 104.871 38.2794C104.871 38.3555 104.871 38.4696 104.871 38.5457C104.871 38.6599 104.871 38.7741 104.833 38.8883C104.833 39.0785 104.795 39.3069 104.795 39.4971C104.795 39.6494 104.758 39.8397 104.758 39.9919C104.758 40.1441 104.72 40.2963 104.72 40.4866V40.5247C104.72 40.7149 104.682 40.8672 104.682 41.0574C104.682 41.2097 104.644 41.3619 104.644 41.5522C104.644 41.5902 104.644 41.5902 104.644 41.6283C104.644 41.8186 104.606 41.9708 104.606 42.1611C104.568 42.6938 104.492 43.2266 104.454 43.7975C104.417 43.9878 104.417 44.14 104.379 44.3303C104.379 44.3683 104.379 44.4064 104.379 44.4444C104.379 44.5966 104.341 44.7489 104.341 44.9011C104.303 45.0914 104.303 45.2817 104.265 45.4339C104.227 45.6242 104.227 45.8144 104.189 45.9667C104.151 46.1569 104.151 46.3092 104.113 46.4994C104.076 46.6517 104.076 46.8039 104.038 46.9561C104.038 47.0322 104 47.1083 104 47.1845C104 47.2986 103.962 47.4508 103.962 47.565C103.886 47.9836 103.848 48.4022 103.772 48.7828C103.735 48.935 103.735 49.0873 103.697 49.2775C103.697 49.3536 103.659 49.4678 103.659 49.5439C103.659 49.6581 103.621 49.7723 103.621 49.8864C103.621 49.9245 103.621 49.9625 103.621 50.0006C103.583 50.1148 103.583 50.267 103.545 50.3812C103.507 50.5714 103.469 50.7617 103.469 50.9139C103.469 50.952 103.469 50.952 103.469 50.9901C103.431 51.1423 103.431 51.3326 103.394 51.4848C103.356 51.6751 103.318 51.8273 103.318 52.0176C103.318 52.0556 103.318 52.0556 103.318 52.0937C103.28 52.2459 103.242 52.4362 103.242 52.5884C103.204 52.7787 103.166 52.969 103.128 53.1212C103.09 53.3115 103.053 53.4637 103.015 53.654C102.977 53.8442 102.939 54.0726 102.901 54.2629C102.863 54.4151 102.825 54.6054 102.787 54.7576C102.749 54.9479 102.712 55.1001 102.674 55.2904C102.636 55.4807 102.598 55.6709 102.56 55.8993C102.484 56.2798 102.408 56.6223 102.333 57.0029C102.295 57.1551 102.257 57.2693 102.257 57.4215C102.257 57.4596 102.219 57.5357 102.219 57.5737C102.143 57.9543 102.067 58.3349 101.954 58.6774C101.916 58.8676 101.878 59.0199 101.84 59.2101C101.802 59.4004 101.764 59.5907 101.726 59.7429C101.689 59.9332 101.651 60.1235 101.613 60.2757C101.575 60.466 101.537 60.6182 101.499 60.8085C101.423 61.1891 101.31 61.5316 101.234 61.9121C101.196 62.1024 101.158 62.2546 101.12 62.4449V62.483C101.082 62.6352 101.044 62.8255 101.007 62.9777C100.969 63.168 100.893 63.3202 100.855 63.5105C100.817 63.7007 100.779 63.853 100.703 64.0433C100.59 64.4238 100.514 64.7663 100.4 65.1469C100.362 65.3372 100.287 65.4894 100.249 65.6797C100.211 65.8319 100.135 66.0222 100.097 66.1744V66.2124C100.059 66.4027 99.9835 66.5549 99.9456 66.7452C99.9456 66.7833 99.9077 66.8213 99.9077 66.8974C99.8699 67.0116 99.832 67.1638 99.7941 67.278C99.7562 67.4683 99.6804 67.6205 99.6425 67.8108C99.6046 67.963 99.5289 68.1152 99.491 68.3055V68.3436C99.4531 68.4958 99.4152 68.61 99.3773 68.7622C99.3394 68.8383 99.3394 68.9144 99.3015 68.9905C99.3015 69.0286 99.2636 69.0666 99.2636 69.1047C99.2257 69.2189 99.1879 69.295 99.1879 69.4091C99.15 69.5994 99.0742 69.7516 99.0363 69.9419C98.9984 70.0942 98.9226 70.2464 98.8847 70.3986C98.8847 70.4367 98.8468 70.4747 98.8468 70.4747C98.809 70.6269 98.7332 70.8172 98.6953 70.9694C98.6574 71.1217 98.5816 71.2739 98.5437 71.4261C98.5437 71.4642 98.5437 71.4642 98.5058 71.5022C98.468 71.6544 98.3922 71.8447 98.3543 71.9969C98.3164 72.1492 98.2406 72.3014 98.2027 72.4536C98.1648 72.5678 98.127 72.6439 98.0891 72.7581C98.0512 72.8342 98.0133 72.9483 97.9754 73.0245C97.8996 73.1767 97.8617 73.367 97.786 73.5192C97.7102 73.6714 97.6723 73.8617 97.5965 74.0139C97.2934 74.8892 96.9524 75.7264 96.6493 76.5637C96.5735 76.7159 96.5356 76.8681 96.4598 77.0203C96.3841 77.1726 96.3462 77.3628 96.2704 77.5151C96.1946 77.6673 96.1567 77.8576 96.0809 78.0098C96.0431 78.124 96.0052 78.2381 95.9294 78.3523V78.3904C95.8915 78.4665 95.8536 78.5806 95.8157 78.6567C95.702 78.8851 95.6263 79.1134 95.5126 79.3418C95.4747 79.4179 95.4368 79.494 95.4368 79.532C95.3989 79.6462 95.3232 79.7984 95.2853 79.9126C95.2474 80.0268 95.1716 80.1409 95.1337 80.2551C95.0958 80.3312 95.0579 80.4073 95.0201 80.4834C94.9822 80.5595 94.9443 80.6737 94.9064 80.7498C94.679 81.2065 94.4896 81.7012 94.2623 82.1579C94.2244 82.234 94.1865 82.3482 94.1486 82.4243C93.4287 83.9465 92.7088 85.3927 91.9131 86.8007C91.8752 86.8768 91.7995 86.991 91.7616 87.0671C91.3827 87.7141 91.0417 88.361 90.6628 88.9699C90.6249 89.046 90.5491 89.1602 90.5112 89.2363C90.3976 89.3885 90.3218 89.5408 90.2081 89.731C89.7156 90.5302 89.223 91.2913 88.6926 92.0524C88.6547 92.1286 88.5789 92.2047 88.541 92.2808C88.5031 92.3569 88.4273 92.433 88.3895 92.5091C88.3516 92.5852 88.2758 92.6613 88.2379 92.7375C88.1242 92.9277 87.9727 93.08 87.859 93.2702C87.7832 93.3844 87.6696 93.4986 87.5938 93.6127C87.518 93.7269 87.4043 93.8411 87.3285 93.9933C87.2528 94.1075 87.177 94.1836 87.1012 94.2978C86.836 94.6403 86.5708 94.9828 86.3055 95.3253C86.1161 95.5917 85.8888 95.82 85.6993 96.0483C85.6614 96.1244 85.5857 96.1625 85.5478 96.2386C85.2068 96.6192 84.9036 96.9997 84.5626 97.3422C84.5248 97.3803 84.449 97.4564 84.4111 97.4945C84.3353 97.5706 84.2974 97.6086 84.2216 97.6847C84.1838 97.7608 84.108 97.7989 84.0701 97.837C83.8806 98.0272 83.6912 98.2175 83.5017 98.4078C83.426 98.4839 83.3881 98.522 83.3123 98.5981C83.1986 98.7122 83.1229 98.7884 83.0092 98.9025C82.9713 98.9406 82.8955 98.9786 82.8576 99.0547C82.6303 99.245 82.4408 99.4353 82.2135 99.6256C82.1377 99.6636 82.0998 99.7398 82.0241 99.7778C81.9104 99.8539 81.7967 99.9681 81.6831 100.044C81.6452 100.082 81.6073 100.12 81.5694 100.12C81.2284 100.387 80.8874 100.653 80.5464 100.919C80.5085 100.958 80.4327 100.996 80.3948 101.034C80.3569 101.072 80.2812 101.11 80.2433 101.148C80.2054 101.186 80.1296 101.224 80.0917 101.262C80.0538 101.3 79.9781 101.338 79.9402 101.376C79.637 101.566 79.3718 101.757 79.0687 101.909C79.0308 101.947 78.9929 101.947 78.955 101.985C78.9172 102.023 78.8414 102.061 78.8035 102.061C78.7656 102.099 78.6898 102.137 78.6519 102.137C78.4246 102.251 78.1973 102.366 78.0078 102.48C77.9699 102.48 77.9699 102.518 77.932 102.518C77.8941 102.518 77.8563 102.556 77.8184 102.556C77.7426 102.594 77.7047 102.594 77.6289 102.632H77.591C77.5532 102.67 77.5153 102.67 77.4774 102.708C77.4395 102.708 77.4016 102.746 77.3637 102.746C77.0227 102.898 76.6438 103.051 76.3028 103.165C76.2649 103.165 76.227 103.203 76.1891 103.203H76.1512C76.1134 103.203 76.0755 103.241 75.9997 103.241C75.9997 103.241 75.9997 103.241 75.9618 103.241C75.9239 103.241 75.8481 103.279 75.8102 103.279C75.6587 103.317 75.4692 103.393 75.3177 103.431C75.2798 103.431 75.2419 103.469 75.1661 103.469H75.1282C75.0904 103.469 75.0525 103.507 75.0146 103.507C74.9767 103.507 74.9009 103.545 74.863 103.545C74.8251 103.545 74.7872 103.583 74.7115 103.583C74.6357 103.583 74.5599 103.621 74.4841 103.621C73.6506 103.812 72.7791 103.888 71.9077 103.888C69.8238 103.888 67.8156 103.355 65.8454 102.404C63.0037 100.996 60.3136 98.6742 57.7371 95.6678C45.8778 82.1579 37.959 54.1868 37.959 32.1523H105.061Z" fill="url(#paint4_linear_1023_13627)"/>
<path d="M105.063 32.1522C105.063 32.3044 105.063 32.4186 105.063 32.5708C105.063 32.647 105.063 32.685 105.063 32.7611C105.063 32.8753 105.063 33.0275 105.063 33.1417C105.063 33.1797 105.063 33.2178 105.063 33.2558C105.063 33.4081 105.063 33.5222 105.063 33.6745C105.063 33.7125 105.063 33.7506 105.063 33.7886C105.063 33.9409 105.063 34.0931 105.063 34.2453C105.063 34.3975 105.063 34.5498 105.063 34.702C105.063 35.0825 105.025 35.4631 105.025 35.8437C105.025 35.9959 105.025 36.1481 105.025 36.2623C105.025 36.3003 105.025 36.3003 105.025 36.3384C105.025 36.4906 105.025 36.6809 104.987 36.8331C104.987 36.9853 104.987 37.1756 104.949 37.3278C104.949 37.5181 104.911 37.7084 104.911 37.9367C104.911 38.0509 104.911 38.1651 104.873 38.2792C104.873 38.3553 104.873 38.4695 104.873 38.5456C104.873 38.6598 104.873 38.774 104.836 38.8881C104.836 39.0784 104.798 39.3067 104.798 39.497C104.798 39.6493 104.76 39.8395 104.76 39.9918C104.76 40.144 104.722 40.2962 104.722 40.4865V40.5245C104.722 40.7148 104.684 40.867 104.684 41.0573C104.684 41.2095 104.646 41.3618 104.646 41.552C104.646 41.5901 104.646 41.5901 104.646 41.6282C104.646 41.8184 104.608 41.9707 104.608 42.1609C104.57 42.6937 104.495 43.2265 104.457 43.7973C104.419 43.9876 104.419 44.1399 104.381 44.3301C104.381 44.3682 104.381 44.4062 104.381 44.4443C104.381 44.5965 104.343 44.7487 104.343 44.901C104.305 45.0913 104.305 45.2815 104.267 45.4338C104.229 45.624 104.229 45.8143 104.191 45.9665C104.154 46.1568 104.154 46.309 104.116 46.4993C104.078 46.6515 104.078 46.8038 104.04 46.956C104.04 47.0321 104.002 47.1082 104.002 47.1843C104.002 47.2985 103.964 47.4507 103.964 47.5649C103.888 47.9835 103.85 48.4021 103.775 48.7827C103.737 48.9349 103.737 49.0871 103.699 49.2774C103.699 49.3535 103.661 49.4677 103.661 49.5438C103.661 49.658 103.623 49.7721 103.623 49.8863C103.623 49.9244 103.623 49.9624 103.623 50.0005C103.585 50.1146 103.585 50.2669 103.547 50.381C103.509 50.5713 103.472 50.7616 103.472 50.9138C103.472 50.9519 103.472 50.9519 103.472 50.9899C103.434 51.1422 103.434 51.3324 103.396 51.4847C103.358 51.6749 103.32 51.8272 103.32 52.0174C103.32 52.0555 103.32 52.0555 103.32 52.0936C103.282 52.2458 103.244 52.4361 103.244 52.5883C103.206 52.7786 103.168 52.9688 103.131 53.1211C103.093 53.3113 103.055 53.4636 103.017 53.6538C102.979 53.8441 102.941 54.0725 102.903 54.2627C102.865 54.415 102.827 54.6052 102.79 54.7575C102.752 54.9478 102.714 55.1 102.676 55.2903C102.638 55.4805 102.6 55.6708 102.562 55.8991C102.486 56.2797 102.411 56.6222 102.335 57.0028C102.297 57.155 102.259 57.2692 102.259 57.4214C102.259 57.4594 102.221 57.5356 102.221 57.5736C102.145 57.9542 102.07 58.3347 101.956 58.6772C101.918 58.8675 101.88 59.0197 101.842 59.21C101.804 59.4003 101.766 59.5906 101.729 59.7428C101.691 59.9331 101.653 60.1234 101.615 60.2756C101.577 60.4659 101.539 60.6181 101.501 60.8084C101.425 61.1889 101.312 61.5314 101.236 61.912C101.198 62.1023 101.16 62.2545 101.122 62.4448V62.4828C101.084 62.6351 101.047 62.8253 101.009 62.9776C100.971 63.1678 100.895 63.3201 100.857 63.5103C100.819 63.7006 100.781 63.8528 100.706 64.0431C100.592 64.4237 100.516 64.7662 100.402 65.1467C100.365 65.337 100.289 65.4893 100.251 65.6795C100.213 65.8318 100.137 66.022 100.099 66.1743V66.2123C100.061 66.4026 99.9857 66.5548 99.9478 66.7451C99.9478 66.7832 99.9099 66.8212 99.9099 66.8973C99.872 67.0115 99.8341 67.1637 99.7963 67.2779C99.7584 67.4682 99.6826 67.6204 99.6447 67.8107C99.6068 67.9629 99.531 68.1151 99.4932 68.3054V68.3435C99.4553 68.4957 99.4174 68.6098 99.3795 68.7621C99.3416 68.8382 99.3416 68.9143 99.3037 68.9904C99.3037 69.0285 99.2658 69.0665 99.2658 69.1046C99.2279 69.2187 99.19 69.2948 99.19 69.409C99.1522 69.5993 99.0764 69.7515 99.0385 69.9418C99.0006 70.094 98.9248 70.2463 98.8869 70.3985C98.8869 70.4365 98.849 70.4746 98.849 70.4746C98.8111 70.6268 98.7354 70.8171 98.6975 70.9693C98.6596 71.1215 98.5838 71.2738 98.5459 71.426C98.5459 71.464 98.5459 71.464 98.508 71.5021C98.4701 71.6543 98.3944 71.8446 98.3565 71.9968C98.3186 72.149 98.2428 72.3013 98.2049 72.4535C98.167 72.5677 98.1291 72.6438 98.0912 72.7579C98.0534 72.8341 98.0155 72.9482 97.9776 73.0243C97.9018 73.1766 97.8639 73.3668 97.7881 73.5191C97.7124 73.6713 97.6745 73.8616 97.5987 74.0138C97.2956 74.8891 96.9546 75.7263 96.6515 76.5635C96.5757 76.7158 96.5378 76.868 96.462 77.0202C96.3862 77.1724 96.3484 77.3627 96.2726 77.5149C96.1968 77.6672 96.1589 77.8574 96.0831 78.0097C96.0452 78.1238 96.0074 78.238 95.9316 78.3522V78.3902C95.8937 78.4663 95.8558 78.5805 95.8179 78.6566C95.7042 78.885 95.6285 79.1133 95.5148 79.3416C95.4769 79.4177 95.439 79.4939 95.439 79.5319C95.4011 79.6461 95.3253 79.7983 95.2875 79.9125C95.2496 80.0266 95.1738 80.1408 95.1359 80.255C95.098 80.3311 95.0601 80.4072 95.0222 80.4833C94.9844 80.5594 94.9465 80.6736 94.9086 80.7497C94.6812 81.2064 94.4918 81.7011 94.2645 82.1578C94.2266 82.2339 94.1887 82.348 94.1508 82.4242C93.4309 83.9464 92.711 85.3925 91.9153 86.8006C91.8774 86.8767 91.8017 86.9909 91.7638 87.067C91.3849 87.7139 91.0439 88.3609 90.665 88.9698C90.6271 89.0459 90.5513 89.1601 90.5134 89.2362C90.3998 89.3884 90.324 89.5406 90.2103 89.7309C89.7178 90.5301 89.2252 91.2912 88.6948 92.0523C88.6569 92.1284 88.5811 92.2045 88.5432 92.2807C88.5053 92.3568 88.4295 92.4329 88.3916 92.509C88.3538 92.5851 88.278 92.6612 88.2401 92.7373C88.1264 92.9276 87.9749 93.0798 87.8612 93.2701C87.7854 93.3843 87.6717 93.4984 87.596 93.6126C87.5202 93.7268 87.4065 93.8409 87.3307 93.9932C87.255 94.1073 87.1792 94.1835 87.1034 94.2976C86.8382 94.6401 86.573 94.9826 86.3077 95.3251C86.1183 95.5915 85.891 95.8199 85.7015 96.0482C85.6636 96.1243 85.5878 96.1624 85.55 96.2385C85.209 96.619 84.9058 96.9996 84.5648 97.3421C84.5269 97.3802 84.4512 97.4563 84.4133 97.4943C84.3375 97.5704 84.2996 97.6085 84.2238 97.6846C84.1859 97.7607 84.1102 97.7988 84.0723 97.8368C83.8828 98.0271 83.6934 98.2174 83.5039 98.4077C83.4282 98.4838 83.3903 98.5218 83.3145 98.5979C83.2008 98.7121 83.125 98.7882 83.0114 98.9024C82.9735 98.9404 82.8977 98.9785 82.8598 99.0546C82.6325 99.2449 82.443 99.4352 82.2157 99.6255C82.1399 99.6635 82.102 99.7396 82.0263 99.7777C81.9126 99.8538 81.7989 99.968 81.6853 100.044C81.6474 100.082 81.6095 100.12 81.5716 100.12C81.2306 100.387 80.8896 100.653 80.5486 100.919C80.5107 100.957 80.4349 100.995 80.397 101.034C80.3591 101.072 80.2834 101.11 80.2455 101.148C80.2076 101.186 80.1318 101.224 80.0939 101.262C80.056 101.3 79.9802 101.338 79.9424 101.376C79.6392 101.566 79.374 101.757 79.0709 101.909C79.033 101.947 78.9951 101.947 78.9572 101.985C78.9194 102.023 78.8436 102.061 78.8057 102.061C78.7678 102.099 78.692 102.137 78.6541 102.137C78.4268 102.251 78.1995 102.365 78.01 102.48C77.9721 102.48 77.9721 102.518 77.9342 102.518C77.8964 102.518 77.8585 102.556 77.8206 102.556C77.7448 102.594 77.7069 102.594 77.6311 102.632H77.5932C77.5554 102.67 77.5175 102.67 77.4796 102.708C77.4417 102.708 77.4038 102.746 77.3659 102.746C77.0249 102.898 76.646 103.05 76.305 103.165C76.2671 103.165 76.2292 103.203 76.1913 103.203H76.1534C76.1156 103.203 76.0777 103.241 76.0019 103.241C76.0019 103.241 76.0019 103.241 75.964 103.241C75.9261 103.241 75.8503 103.279 75.8124 103.279C75.6609 103.317 75.4715 103.393 75.3199 103.431C75.282 103.431 75.2441 103.469 75.1683 103.469H75.1304C75.0926 103.469 75.0547 103.507 75.0168 103.507C74.9789 103.507 74.9031 103.545 74.8652 103.545C74.8273 103.545 74.7894 103.583 74.7137 103.583C74.6379 103.583 74.5621 103.621 74.4863 103.621C74.4863 103.621 75.4336 102.784 76.9112 100.957C77.1386 100.691 77.3659 100.387 77.5932 100.044C78.5026 98.8263 79.5256 97.266 80.6244 95.3251C86.232 85.5067 93.3172 66.0601 91.4607 32H105.063V32.1522Z" fill="url(#paint5_linear_1023_13627)"/>
<path d="M60.0138 89.4647C48.3061 76.8301 44.7824 43.9878 43.873 32.1523H51.072C48.6092 60.1235 59.9759 89.3505 60.0138 89.4647Z" fill="url(#paint6_linear_1023_13627)"/>
<path d="M62.322 127.407H55.6914C59.2909 123.83 66.9445 115.191 67.3234 105.867C67.2855 105.905 69.0284 119.567 62.322 127.407Z" fill="url(#paint7_linear_1023_13627)"/>
<path d="M100.389 161.721H43.9609V167.259H100.389V161.721Z" fill="url(#paint8_linear_1023_13627)"/>
<path d="M96.7787 127H47.573C47.1864 127 46.873 127.313 46.873 127.7V161.021C46.873 161.407 47.1864 161.721 47.573 161.721H96.7787C97.1653 161.721 97.4787 161.407 97.4787 161.021V127.7C97.4787 127.313 97.1653 127 96.7787 127Z" fill="url(#paint9_linear_1023_13627)"/>
<rect x="55" y="135" width="34" height="19" rx="4" fill="url(#paint10_linear_1023_13627)"/>
<path d="M70.85 45.6C71.0862 45.0173 71.9111 45.0172 72.1475 45.5998L75.6263 54.1767C75.7259 54.4224 75.9557 54.5907 76.22 54.6115L85.3321 55.3287C85.9514 55.3774 86.205 56.1488 85.7355 56.5556L78.7603 62.5993C78.5632 62.7701 78.4774 63.0363 78.5376 63.29L80.6851 72.3404C80.8296 72.9493 80.1634 73.4274 79.6328 73.0955L71.8698 68.2398C71.6427 68.0978 71.3544 68.0978 71.1273 68.2399L63.3673 73.0951C62.8367 73.4271 62.1705 72.9491 62.315 72.3401L64.4624 63.29C64.5226 63.0363 64.4368 62.7701 64.2397 62.5993L57.2645 56.5556C56.7949 56.1488 57.0486 55.3774 57.6679 55.3287L66.7799 54.6115C67.0442 54.5907 67.2741 54.4223 67.3737 54.1766L70.85 45.6Z" fill="url(#paint11_linear_1023_13627)"/>
<defs>
<linearGradient id="paint0_linear_1023_13627" x1="-0.0994296" y1="71.8462" x2="144.334" y2="71.8462" gradientUnits="userSpaceOnUse">
<stop offset="0.0111732" stop-color="#E9E9E9"/>
<stop offset="0.9106" stop-color="#E9E9E9"/>
</linearGradient>
<linearGradient id="paint1_linear_1023_13627" x1="67.3368" y1="127.416" x2="67.3368" y2="96.5967" gradientUnits="userSpaceOnUse">
<stop offset="0.0001" stop-color="#DEDEDE"/>
<stop offset="0.0002" stop-color="#F0F0F0"/>
<stop offset="0.0003" stop-color="#CFCFCF"/>
<stop offset="0.807292" stop-color="#B8B8B8"/>
</linearGradient>
<linearGradient id="paint2_linear_1023_13627" x1="85.999" y1="127.415" x2="85.999" y2="99.6853" gradientUnits="userSpaceOnUse">
<stop offset="0.0167598" stop-color="#CBCBCB"/>
<stop offset="0.5978" stop-color="#AAAAAA"/>
</linearGradient>
<linearGradient id="paint3_linear_1023_13627" x1="82.9831" y1="63.9675" x2="128.008" y2="63.9675" gradientUnits="userSpaceOnUse">
<stop offset="0.0111732" stop-color="#E4E4E4"/>
<stop offset="0.7151" stop-color="#C2C2C2"/>
</linearGradient>
<linearGradient id="paint4_linear_1023_13627" x1="34.601" y1="38.0194" x2="98.5976" y2="74.8059" gradientUnits="userSpaceOnUse">
<stop offset="0.0111732" stop-color="#F0F0F0"/>
<stop offset="0.9106" stop-color="#B3B3B3"/>
</linearGradient>
<linearGradient id="paint5_linear_1023_13627" x1="89.5685" y1="32.1682" x2="89.5685" y2="103.775" gradientUnits="userSpaceOnUse">
<stop offset="0.0167598" stop-color="#CBCBCB" stop-opacity="0.1"/>
<stop offset="0.064392" stop-color="#C6C6C6" stop-opacity="0.1552"/>
<stop offset="0.3373" stop-color="#ADADAD" stop-opacity="0.4715"/>
<stop offset="0.5878" stop-color="#9E9E9E" stop-opacity="0.7619"/>
<stop offset="0.7933" stop-color="#999999"/>
</linearGradient>
<linearGradient id="paint6_linear_1023_13627" x1="51.9462" y1="89.4608" x2="51.9462" y2="32.168" gradientUnits="userSpaceOnUse">
<stop offset="0.0167598" stop-color="#CBCBCB" stop-opacity="0.1"/>
<stop offset="0.0594742" stop-color="#D5D5D5" stop-opacity="0.1418"/>
<stop offset="0.1586" stop-color="#E5E5E5" stop-opacity="0.2389"/>
<stop offset="0.282" stop-color="#F1F1F1" stop-opacity="0.3597"/>
<stop offset="0.4551" stop-color="#F8F8F8" stop-opacity="0.5293"/>
<stop offset="0.9358" stop-color="#FAFAFA"/>
</linearGradient>
<linearGradient id="paint7_linear_1023_13627" x1="55.6588" y1="116.656" x2="67.5059" y2="116.656" gradientUnits="userSpaceOnUse">
<stop offset="0.0167598" stop-color="#CBCBCB" stop-opacity="0.1"/>
<stop offset="0.0594742" stop-color="#D5D5D5" stop-opacity="0.1418"/>
<stop offset="0.1586" stop-color="#E5E5E5" stop-opacity="0.2389"/>
<stop offset="0.282" stop-color="#F1F1F1" stop-opacity="0.3597"/>
<stop offset="0.4551" stop-color="#F8F8F8" stop-opacity="0.5293"/>
<stop offset="0.9358" stop-color="#FAFAFA"/>
</linearGradient>
<linearGradient id="paint8_linear_1023_13627" x1="41.1371" y1="162.174" x2="42.9182" y2="173.325" gradientUnits="userSpaceOnUse">
<stop offset="0.0111732" stop-color="#F0F0F0"/>
<stop offset="0.9106" stop-color="#B3B3B3"/>
</linearGradient>
<linearGradient id="paint9_linear_1023_13627" x1="97.4787" y1="172.716" x2="48.5767" y2="128.822" gradientUnits="userSpaceOnUse">
<stop offset="0.260417" stop-color="#3D445E"/>
<stop offset="1" stop-color="#919BC1"/>
</linearGradient>
<linearGradient id="paint10_linear_1023_13627" x1="53.2985" y1="136.554" x2="72.826" y2="158.027" gradientUnits="userSpaceOnUse">
<stop offset="0.0111732" stop-color="#F0F0F0"/>
<stop offset="0.9106" stop-color="#B3B3B3"/>
</linearGradient>
<linearGradient id="paint11_linear_1023_13627" x1="87" y1="83.5" x2="48.5" y2="59" gradientUnits="userSpaceOnUse">
<stop offset="0.260417" stop-color="#3D445E"/>
<stop offset="1" stop-color="#919BC1"/>
</linearGradient>
</defs>
</svg>
