<svg width="64" height="64" viewBox="0 0 64 64" fill="none" xmlns="http://www.w3.org/2000/svg">
<path d="M50.6667 13.3333H45.3333V8H18.6667V13.3333H13.3333C10.4 13.3333 8 15.7333 8 18.6667V21.3333C8 28.1333 13.12 33.68 19.7067 34.5067C21.3867 38.5067 24.9867 41.52 29.3333 42.4V50.6667H18.6667V56H45.3333V50.6667H34.6667V42.4C39.0133 41.52 42.6133 38.5067 44.2933 34.5067C50.88 33.68 56 28.1333 56 21.3333V18.6667C56 15.7333 53.6 13.3333 50.6667 13.3333ZM13.3333 21.3333V18.6667H18.6667V28.8533C15.5733 27.7333 13.3333 24.8 13.3333 21.3333ZM32 37.3333C27.6 37.3333 24 33.7333 24 29.3333V13.3333H40V29.3333C40 33.7333 36.4 37.3333 32 37.3333ZM50.6667 21.3333C50.6667 24.8 48.4267 27.7333 45.3333 28.8533V18.6667H50.6667V21.3333Z" fill="#EFAD2D"/>
</svg>
