<svg width="145" height="168" viewBox="0 0 145 168" fill="none" xmlns="http://www.w3.org/2000/svg">
<path d="M138.648 43.8683C135.011 35.3086 129.804 27.6132 123.192 21.0288C116.58 14.4444 108.852 9.25926 100.256 5.63786C91.3711 1.893 81.9075 0 72.1547 0C62.4018 0 52.9382 1.893 44.0532 5.63786C35.4574 9.25926 27.7295 14.4444 21.1174 21.0288C14.5053 27.6132 9.29828 35.3086 5.66162 43.8683C1.90098 52.716 0 62.1399 0 71.8518C0 81.5638 1.90098 90.9876 5.66162 99.8354C9.29828 108.395 14.5053 116.091 21.1174 122.675C27.7295 129.259 35.4574 134.444 44.0532 138.066C52.9382 141.811 62.4018 143.704 72.1547 143.704C81.9075 143.704 91.3711 141.811 100.256 138.066C108.852 134.444 116.58 129.259 123.192 122.675C129.804 116.091 135.011 108.395 138.648 99.8354C142.408 90.9876 144.309 81.5638 144.309 71.8518C144.351 62.1399 142.408 52.716 138.648 43.8683Z" fill="url(#paint0_linear_1023_13632)"/>
<path d="M88.8353 127.407C88.8353 127.407 76.7207 113.783 75.9945 103.394L77.7143 99.6646C77.5996 98.6751 77.5614 97.6476 77.5614 96.582H72.02H68.1602H66.4786C66.4786 98.6751 66.2493 100.654 65.8672 102.519C65.7525 103.166 65.5997 103.775 65.4086 104.384C61.3576 119.378 46.7207 127.407 46.7207 127.407H68.1219H88.8353Z" fill="url(#paint1_linear_1023_13632)"/>
<path d="M97.2406 127.405H88.8329C88.8329 127.405 77.9412 115.189 76.1833 105.066C76.0686 104.495 76.0304 103.962 75.9922 103.392L77.0622 101.07L77.7119 99.6621C77.7119 99.8143 77.7501 100.005 77.7501 100.157C77.8648 100.956 77.9794 101.755 78.1323 102.516C78.2852 103.239 78.438 103.924 78.6291 104.609C82.7947 119.451 97.2406 127.405 97.2406 127.405Z" fill="url(#paint2_linear_1023_13632)"/>
<path d="M60.4012 86.4199C55.3566 86.4199 50.6178 85.811 46.2993 84.6312C42.3248 83.5276 38.656 81.9293 35.3312 79.8362C29.7516 76.297 25.1656 71.4258 21.6879 65.2987C20.3503 62.9012 19.1656 60.3134 18.172 57.6114C17.3694 55.4422 16.7197 53.1969 16.2229 50.9516C15.3439 47.0699 15.1529 44.444 15.1529 44.3298L15 41.5137H38.6178L39.2293 46.8035H20.8471C21 47.6788 21.1911 48.7443 21.4586 49.9241C22.2229 53.1588 23.6751 57.992 26.4267 62.8251C33.3821 74.965 44.8089 81.1301 60.4012 81.1301V86.4199Z" fill="#EC7E33"/>
<path d="M83.5605 86.4199C88.6051 86.4199 93.344 85.811 97.6624 84.6312C101.637 83.5276 105.306 81.9293 108.631 79.8362C114.21 76.297 118.796 71.4258 122.274 65.2987C123.611 62.9012 124.796 60.3134 125.79 57.6114C126.592 55.4422 127.242 53.1969 127.739 50.9516C128.618 47.0699 128.809 44.444 128.809 44.3298L128.962 41.5137H105.344L104.732 46.8035H123.115C122.962 47.6788 122.771 48.7443 122.503 49.9241C121.739 53.1588 120.287 57.992 117.535 62.8251C110.58 74.965 99.1529 81.1301 83.5605 81.1301V86.4199Z" fill="url(#paint3_linear_1023_13632)"/>
<path d="M105.84 32.1523C105.84 32.3046 105.84 32.4187 105.84 32.571C105.84 32.6471 105.84 32.6851 105.84 32.7612C105.84 32.8754 105.84 33.0276 105.84 33.1418C105.84 33.1799 105.84 33.2179 105.84 33.256C105.84 33.4082 105.84 33.5224 105.84 33.6746C105.84 33.7126 105.84 33.7507 105.84 33.7888C105.84 33.941 105.84 34.0932 105.84 34.2454C105.84 34.3977 105.84 34.5499 105.84 34.7021C105.84 35.0827 105.801 35.4632 105.801 35.8438C105.801 35.996 105.801 36.1482 105.801 36.2624C105.801 36.3005 105.801 36.3005 105.801 36.3385C105.801 36.4907 105.801 36.681 105.763 36.8332C105.763 36.9855 105.763 37.1758 105.725 37.328C105.725 37.5183 105.687 37.7085 105.687 37.9369C105.687 38.051 105.687 38.1652 105.649 38.2794C105.649 38.3555 105.649 38.4697 105.649 38.5458C105.649 38.6599 105.649 38.7741 105.61 38.8883C105.61 39.0786 105.572 39.3069 105.572 39.4972C105.572 39.6494 105.534 39.8397 105.534 39.9919C105.534 40.1441 105.496 40.2964 105.496 40.4866V40.5247C105.496 40.715 105.457 40.8672 105.457 41.0575C105.457 41.2097 105.419 41.3619 105.419 41.5522C105.419 41.5903 105.419 41.5903 105.419 41.6283C105.419 41.8186 105.381 41.9708 105.381 42.1611C105.343 42.6939 105.266 43.2267 105.228 43.7975C105.19 43.9878 105.19 44.14 105.152 44.3303C105.152 44.3684 105.152 44.4064 105.152 44.4445C105.152 44.5967 105.114 44.7489 105.114 44.9011C105.075 45.0914 105.075 45.2817 105.037 45.4339C104.999 45.6242 104.999 45.8145 104.961 45.9667C104.922 46.157 104.922 46.3092 104.884 46.4995C104.846 46.6517 104.846 46.8039 104.808 46.9562C104.808 47.0323 104.77 47.1084 104.77 47.1845C104.77 47.2987 104.731 47.4509 104.731 47.5651C104.655 47.9837 104.617 48.4023 104.54 48.7829C104.502 48.9351 104.502 49.0873 104.464 49.2776C104.464 49.3537 104.426 49.4679 104.426 49.544C104.426 49.6582 104.387 49.7723 104.387 49.8865C104.387 49.9246 104.387 49.9626 104.387 50.0007C104.349 50.1148 104.349 50.2671 104.311 50.3812C104.273 50.5715 104.235 50.7618 104.235 50.914C104.235 50.9521 104.235 50.9521 104.235 50.9901C104.196 51.1423 104.196 51.3326 104.158 51.4849C104.12 51.6751 104.082 51.8274 104.082 52.0176C104.082 52.0557 104.082 52.0557 104.082 52.0937C104.043 52.246 104.005 52.4363 104.005 52.5885C103.967 52.7788 103.929 52.969 103.891 53.1213C103.852 53.3115 103.814 53.4638 103.776 53.654C103.738 53.8443 103.7 54.0727 103.661 54.2629C103.623 54.4152 103.585 54.6055 103.547 54.7577C103.508 54.948 103.47 55.1002 103.432 55.2905C103.394 55.4807 103.356 55.671 103.317 55.8994C103.241 56.2799 103.164 56.6224 103.088 57.003C103.05 57.1552 103.012 57.2694 103.012 57.4216C103.012 57.4597 102.973 57.5358 102.973 57.5738C102.897 57.9544 102.821 58.335 102.706 58.6775C102.668 58.8677 102.629 59.02 102.591 59.2102C102.553 59.4005 102.515 59.5908 102.477 59.743C102.438 59.9333 102.4 60.1236 102.362 60.2758C102.324 60.4661 102.285 60.6183 102.247 60.8086C102.171 61.1892 102.056 61.5317 101.98 61.9122C101.942 62.1025 101.903 62.2547 101.865 62.445V62.4831C101.827 62.6353 101.789 62.8256 101.75 62.9778C101.712 63.1681 101.636 63.3203 101.598 63.5106C101.559 63.7009 101.521 63.8531 101.445 64.0434C101.33 64.4239 101.254 64.7664 101.139 65.147C101.101 65.3373 101.024 65.4895 100.986 65.6798C100.948 65.832 100.871 66.0223 100.833 66.1745V66.2126C100.795 66.4029 100.719 66.5551 100.68 66.7454C100.68 66.7834 100.642 66.8215 100.642 66.8976C100.604 67.0117 100.566 67.164 100.528 67.2781C100.489 67.4684 100.413 67.6206 100.375 67.8109C100.336 67.9632 100.26 68.1154 100.222 68.3057V68.3437C100.184 68.4959 100.145 68.6101 100.107 68.7623C100.069 68.8384 100.069 68.9146 100.031 68.9907C100.031 69.0287 99.9925 69.0668 99.9925 69.1048C99.9543 69.219 99.9161 69.2951 99.9161 69.4093C99.8779 69.5996 99.8014 69.7518 99.7632 69.9421C99.725 70.0943 99.6485 70.2465 99.6103 70.3987C99.6103 70.4368 99.5721 70.4749 99.5721 70.4749C99.5339 70.6271 99.4575 70.8174 99.4193 70.9696C99.381 71.1218 99.3046 71.274 99.2664 71.4263C99.2664 71.4643 99.2664 71.4643 99.2282 71.5024C99.19 71.6546 99.1135 71.8449 99.0753 71.9971C99.0371 72.1493 98.9607 72.3016 98.9224 72.4538C98.8842 72.5679 98.846 72.6441 98.8078 72.7582C98.7696 72.8343 98.7314 72.9485 98.6931 73.0246C98.6167 73.1768 98.5785 73.3671 98.5021 73.5193C98.4256 73.6716 98.3874 73.8618 98.311 74.0141C98.0052 74.8894 97.6613 75.7266 97.3556 76.5638C97.2791 76.7161 97.2409 76.8683 97.1645 77.0205C97.088 77.1727 97.0498 77.363 96.9734 77.5152C96.897 77.6675 96.8587 77.8577 96.7823 78.01C96.7441 78.1241 96.7059 78.2383 96.6295 78.3525V78.3905C96.5912 78.4666 96.553 78.5808 96.5148 78.6569C96.4001 78.8853 96.3237 79.1136 96.2091 79.3419C96.1708 79.418 96.1326 79.4942 96.1326 79.5322C96.0944 79.6464 96.018 79.7986 95.9798 79.9128C95.9415 80.0269 95.8651 80.1411 95.8269 80.2553C95.7887 80.3314 95.7505 80.4075 95.7123 80.4836C95.674 80.5597 95.6358 80.6739 95.5976 80.75C95.3683 81.2067 95.1772 81.7014 94.9479 82.1581C94.9097 82.2342 94.8715 82.3484 94.8333 82.4245C94.1072 83.9467 93.381 85.3929 92.5785 86.8009C92.5403 86.877 92.4639 86.9912 92.4256 87.0673C92.0435 87.7143 91.6995 88.3612 91.3174 88.9701C91.2791 89.0462 91.2027 89.1604 91.1645 89.2365C91.0498 89.3887 90.9734 89.541 90.8588 89.7313C90.3619 90.5304 89.8651 91.2916 89.3301 92.0527C89.2919 92.1288 89.2155 92.2049 89.1772 92.281C89.139 92.3571 89.0626 92.4332 89.0244 92.5093C88.9862 92.5855 88.9097 92.6616 88.8715 92.7377C88.7568 92.928 88.604 93.0802 88.4893 93.2705C88.4129 93.3846 88.2983 93.4988 88.2218 93.613C88.1454 93.7271 88.0307 93.8413 87.9543 93.9935C87.8779 94.1077 87.8014 94.1838 87.725 94.298C87.4575 94.6405 87.19 94.983 86.9225 95.3255C86.7314 95.5919 86.5021 95.8202 86.311 96.0486C86.2728 96.1247 86.1963 96.1627 86.1581 96.2388C85.8142 96.6194 85.5084 97 85.1645 97.3425C85.1263 97.3805 85.0499 97.4566 85.0116 97.4947C84.9352 97.5708 84.897 97.6089 84.8206 97.685C84.7823 97.7611 84.7059 97.7991 84.6677 97.8372C84.4766 98.0275 84.2855 98.2178 84.0944 98.408C84.018 98.4842 83.9798 98.5222 83.9033 98.5983C83.7887 98.7125 83.7123 98.7886 83.5976 98.9028C83.5594 98.9408 83.483 98.9789 83.4448 99.055C83.2155 99.2453 83.0244 99.4356 82.7951 99.6258C82.7186 99.6639 82.6804 99.74 82.604 99.7781C82.4893 99.8542 82.3747 99.9683 82.26 100.044C82.2218 100.083 82.1836 100.121 82.1454 100.121C81.8014 100.387 81.4575 100.653 81.1135 100.92C81.0753 100.958 80.9989 100.996 80.9607 101.034C80.9225 101.072 80.846 101.11 80.8078 101.148C80.7696 101.186 80.6932 101.224 80.6549 101.262C80.6167 101.3 80.5403 101.338 80.5021 101.376C80.1964 101.567 79.9288 101.757 79.6231 101.909C79.5849 101.947 79.5467 101.947 79.5084 101.985C79.4702 102.023 79.3938 102.061 79.3556 102.061C79.3174 102.099 79.2409 102.138 79.2027 102.138C78.9734 102.252 78.7441 102.366 78.553 102.48C78.5148 102.48 78.5148 102.518 78.4766 102.518C78.4384 102.518 78.4002 102.556 78.362 102.556C78.2855 102.594 78.2473 102.594 78.1709 102.632H78.1327C78.0944 102.67 78.0562 102.67 78.018 102.708C77.9798 102.708 77.9416 102.746 77.9034 102.746C77.5594 102.899 77.1772 103.051 76.8333 103.165C76.7951 103.165 76.7569 103.203 76.7187 103.203H76.6804C76.6422 103.203 76.604 103.241 76.5276 103.241C76.5276 103.241 76.5276 103.241 76.4893 103.241C76.4511 103.241 76.3747 103.279 76.3365 103.279C76.1836 103.317 75.9925 103.393 75.8397 103.431C75.8015 103.431 75.7632 103.47 75.6868 103.47H75.6486C75.6104 103.47 75.5722 103.508 75.5339 103.508C75.4957 103.508 75.4193 103.546 75.3811 103.546C75.3429 103.546 75.3046 103.584 75.2282 103.584C75.1518 103.584 75.0753 103.622 74.9989 103.622C74.1581 103.812 73.2792 103.888 72.4002 103.888C70.2983 103.888 68.2728 103.355 66.2855 102.404C63.4193 100.996 60.7059 98.6744 58.1072 95.668C46.1455 82.12 38.1582 54.1488 38.1582 32.1523H105.84Z" fill="url(#paint4_linear_1023_13632)"/>
<path d="M70.85 45.6C71.0862 45.0173 71.9111 45.0172 72.1475 45.5998L75.6263 54.1767C75.7259 54.4224 75.9557 54.5907 76.22 54.6115L85.3321 55.3287C85.9514 55.3774 86.205 56.1488 85.7355 56.5556L78.7603 62.5993C78.5632 62.7701 78.4774 63.0363 78.5376 63.29L80.6851 72.3404C80.8296 72.9493 80.1634 73.4274 79.6328 73.0955L71.8698 68.2398C71.6427 68.0978 71.3544 68.0978 71.1273 68.2399L63.3673 73.0951C62.8367 73.4271 62.1705 72.9491 62.315 72.3401L64.4624 63.29C64.5226 63.0363 64.4368 62.7701 64.2397 62.5993L57.2645 56.5556C56.7949 56.1488 57.0486 55.3774 57.6679 55.3287L66.7799 54.6115C67.0442 54.5907 67.2741 54.4223 67.3737 54.1766L70.85 45.6Z" fill="url(#paint5_linear_1023_13632)"/>
<path d="M105.841 32.1522C105.841 32.3044 105.841 32.4186 105.841 32.5708C105.841 32.647 105.841 32.685 105.841 32.7611C105.841 32.8753 105.841 33.0275 105.841 33.1417C105.841 33.1797 105.841 33.2178 105.841 33.2559C105.841 33.4081 105.841 33.5222 105.841 33.6745C105.841 33.7125 105.841 33.7506 105.841 33.7886C105.841 33.9409 105.841 34.0931 105.841 34.2453C105.841 34.3975 105.841 34.5498 105.841 34.702C105.841 35.0825 105.803 35.4631 105.803 35.8437C105.803 35.9959 105.803 36.1481 105.803 36.2623C105.803 36.3003 105.803 36.3003 105.803 36.3384C105.803 36.4906 105.802 36.6809 105.764 36.8331C105.764 36.9853 105.764 37.1756 105.726 37.3279C105.726 37.5181 105.688 37.7084 105.688 37.9368C105.688 38.0509 105.688 38.1651 105.65 38.2793C105.65 38.3554 105.65 38.4695 105.65 38.5457C105.65 38.6598 105.65 38.774 105.611 38.8882C105.611 39.0784 105.573 39.3068 105.573 39.4971C105.573 39.6493 105.535 39.8396 105.535 39.9918C105.535 40.144 105.497 40.2962 105.497 40.4865V40.5246C105.497 40.7148 105.459 40.8671 105.459 41.0574C105.459 41.2096 105.42 41.3618 105.42 41.5521C105.42 41.5901 105.42 41.5901 105.42 41.6282C105.42 41.8185 105.382 41.9707 105.382 42.161C105.344 42.6938 105.267 43.2266 105.229 43.7974C105.191 43.9877 105.191 44.1399 105.153 44.3302C105.153 44.3682 105.153 44.4063 105.153 44.4443C105.153 44.5966 105.115 44.7488 105.115 44.901C105.076 45.0913 105.076 45.2816 105.038 45.4338C105 45.6241 105 45.8144 104.962 45.9666C104.924 46.1569 104.924 46.3091 104.885 46.4994C104.847 46.6516 104.847 46.8038 104.809 46.956C104.809 47.0322 104.771 47.1083 104.771 47.1844C104.771 47.2986 104.732 47.4508 104.732 47.5649C104.656 47.9836 104.618 48.4022 104.541 48.7827C104.503 48.935 104.503 49.0872 104.465 49.2775C104.465 49.3536 104.427 49.4678 104.427 49.5439C104.427 49.658 104.388 49.7722 104.388 49.8864C104.388 49.9244 104.388 49.9625 104.388 50.0005C104.35 50.1147 104.35 50.2669 104.312 50.3811C104.274 50.5714 104.236 50.7617 104.236 50.9139C104.236 50.9519 104.236 50.9519 104.236 50.99C104.197 51.1422 104.197 51.3325 104.159 51.4847C104.121 51.675 104.083 51.8272 104.083 52.0175C104.083 52.0556 104.083 52.0556 104.083 52.0936C104.045 52.2458 104.006 52.4361 104.006 52.5884C103.968 52.7786 103.93 52.9689 103.892 53.1211C103.853 53.3114 103.815 53.4636 103.777 53.6539C103.739 53.8442 103.701 54.0725 103.662 54.2628C103.624 54.415 103.586 54.6053 103.548 54.7575C103.51 54.9478 103.471 55.1001 103.433 55.2903C103.395 55.4806 103.357 55.6709 103.318 55.8992C103.242 56.2798 103.166 56.6223 103.089 57.0029C103.051 57.1551 103.013 57.2693 103.013 57.4215C103.013 57.4595 102.974 57.5356 102.974 57.5737C102.898 57.9543 102.822 58.3348 102.707 58.6773C102.669 58.8676 102.631 59.0198 102.592 59.2101C102.554 59.4004 102.516 59.5907 102.478 59.7429C102.439 59.9332 102.401 60.1235 102.363 60.2757C102.325 60.466 102.287 60.6182 102.248 60.8085C102.172 61.189 102.057 61.5315 101.981 61.9121C101.943 62.1024 101.904 62.2546 101.866 62.4449V62.4829C101.828 62.6352 101.79 62.8254 101.752 62.9777C101.713 63.1679 101.637 63.3202 101.599 63.5105C101.56 63.7007 101.522 63.853 101.446 64.0432C101.331 64.4238 101.255 64.7663 101.14 65.1469C101.102 65.3371 101.025 65.4894 100.987 65.6796C100.949 65.8319 100.873 66.0222 100.834 66.1744V66.2124C100.796 66.4027 100.72 66.5549 100.681 66.7452C100.681 66.7833 100.643 66.8213 100.643 66.8974C100.605 67.0116 100.567 67.1638 100.529 67.278C100.49 67.4683 100.414 67.6205 100.376 67.8108C100.338 67.963 100.261 68.1152 100.223 68.3055V68.3436C100.185 68.4958 100.146 68.61 100.108 68.7622C100.07 68.8383 100.07 68.9144 100.032 68.9905C100.032 69.0286 99.9936 69.0666 99.9936 69.1047C99.9554 69.2189 99.9172 69.295 99.9172 69.4091C99.8789 69.5994 99.8025 69.7517 99.7643 69.9419C99.7261 70.0942 99.6496 70.2464 99.6114 70.3986C99.6114 70.4367 99.5732 70.4747 99.5732 70.4747C99.535 70.6269 99.4586 70.8172 99.4203 70.9694C99.3821 71.1217 99.3057 71.2739 99.2675 71.4261C99.2675 71.4642 99.2675 71.4642 99.2293 71.5022C99.191 71.6545 99.1146 71.8447 99.0764 71.997C99.0382 72.1492 98.9617 72.3014 98.9235 72.4536C98.8853 72.5678 98.8471 72.6439 98.8089 72.7581C98.7707 72.8342 98.7324 72.9484 98.6942 73.0245C98.6178 73.1767 98.5796 73.367 98.5031 73.5192C98.4267 73.6714 98.3885 73.8617 98.3121 74.0139C98.0063 74.8892 97.6624 75.7265 97.3567 76.5637C97.2802 76.7159 97.242 76.8681 97.1656 77.0204C97.0891 77.1726 97.0509 77.3629 96.9745 77.5151C96.8981 77.6673 96.8598 77.8576 96.7834 78.0098C96.7452 78.124 96.707 78.2382 96.6305 78.3523V78.3904C96.5923 78.4665 96.5541 78.5807 96.5159 78.6568C96.4012 78.8851 96.3248 79.1135 96.2102 79.3418C96.1719 79.4179 96.1337 79.494 96.1337 79.5321C96.0955 79.6462 96.0191 79.7985 95.9809 79.9126C95.9426 80.0268 95.8662 80.141 95.828 80.2551C95.7898 80.3313 95.7516 80.4074 95.7133 80.4835C95.6751 80.5596 95.6369 80.6738 95.5987 80.7499C95.3694 81.2065 95.1783 81.7013 94.949 82.1579C94.9108 82.2341 94.8726 82.3482 94.8344 82.4243C94.1082 83.9466 93.3821 85.3927 92.5796 86.8008C92.5414 86.8769 92.4649 86.9911 92.4267 87.0672C92.0446 87.7141 91.7006 88.3611 91.3185 88.97C91.2802 89.0461 91.2038 89.1603 91.1656 89.2364C91.0509 89.3886 90.9745 89.5408 90.8598 89.7311C90.363 90.5303 89.8662 91.2914 89.3312 92.0525C89.293 92.1286 89.2165 92.2048 89.1783 92.2809C89.1401 92.357 89.0637 92.4331 89.0255 92.5092C88.9872 92.5853 88.9108 92.6614 88.8726 92.7375C88.7579 92.9278 88.6051 93.08 88.4904 93.2703C88.414 93.3845 88.2993 93.4987 88.2229 93.6128C88.1465 93.727 88.0318 93.8412 87.9554 93.9934C87.879 94.1076 87.8025 94.1837 87.7261 94.2978C87.4586 94.6403 87.1911 94.9828 86.9236 95.3254C86.7325 95.5917 86.5032 95.8201 86.3121 96.0484C86.2739 96.1245 86.1974 96.1626 86.1592 96.2387C85.8153 96.6193 85.5095 96.9998 85.1656 97.3423C85.1274 97.3804 85.0509 97.4565 85.0127 97.4945C84.9363 97.5707 84.8981 97.6087 84.8216 97.6848C84.7834 97.7609 84.707 97.799 84.6688 97.8371C84.4777 98.0273 84.2866 98.2176 84.0955 98.4079C84.0191 98.484 83.9809 98.5221 83.9044 98.5982C83.7898 98.7123 83.7134 98.7885 83.5987 98.9026C83.5605 98.9407 83.4841 98.9787 83.4458 99.0548C83.2165 99.2451 83.0255 99.4354 82.7962 99.6257C82.7197 99.6637 82.6815 99.7399 82.6051 99.7779C82.4904 99.854 82.3758 99.9682 82.2611 100.044C82.2229 100.082 82.1847 100.12 82.1465 100.12C81.8025 100.387 81.4586 100.653 81.1146 100.92C81.0764 100.958 81 100.996 80.9618 101.034C80.9236 101.072 80.8471 101.11 80.8089 101.148C80.7707 101.186 80.6943 101.224 80.656 101.262C80.6178 101.3 80.5414 101.338 80.5032 101.376C80.1974 101.567 79.9299 101.757 79.6242 101.909C79.586 101.947 79.5478 101.947 79.5095 101.985C79.4713 102.023 79.3949 102.061 79.3567 102.061C79.3185 102.099 79.242 102.137 79.2038 102.137C78.9745 102.252 78.7452 102.366 78.5541 102.48C78.5159 102.48 78.5159 102.518 78.4777 102.518C78.4395 102.518 78.4013 102.556 78.363 102.556C78.2866 102.594 78.2484 102.594 78.172 102.632H78.1338C78.0955 102.67 78.0573 102.67 78.0191 102.708C77.9809 102.708 77.9427 102.746 77.9045 102.746C77.5605 102.899 77.1783 103.051 76.8344 103.165C76.7962 103.165 76.758 103.203 76.7197 103.203H76.6815C76.6433 103.203 76.6051 103.241 76.5287 103.241C76.5287 103.241 76.5287 103.241 76.4904 103.241C76.4522 103.241 76.3758 103.279 76.3376 103.279C76.1847 103.317 75.9936 103.393 75.8408 103.431C75.8025 103.431 75.7643 103.469 75.6879 103.469H75.6497C75.6115 103.469 75.5732 103.507 75.535 103.507C75.4968 103.507 75.4204 103.545 75.3822 103.545C75.3439 103.545 75.3057 103.584 75.2293 103.584C75.1529 103.584 75.0764 103.622 75 103.622C75 103.622 75.9554 102.784 77.4459 100.958C77.6752 100.691 77.9045 100.387 78.1338 100.044C79.051 98.8265 80.0828 97.2662 81.1911 95.3254C86.8471 85.5069 93.9936 66.0602 92.121 32H105.841V32.1522Z" fill="url(#paint6_linear_1023_13632)"/>
<path d="M60.4013 89.4268C48.5924 76.7922 45.0383 43.9497 44.1211 32.1523H51.3822C48.8982 60.0855 60.3631 89.3507 60.4013 89.4268Z" fill="url(#paint7_linear_1023_13632)"/>
<path d="M62.7309 127.407H56.043C59.6735 123.83 67.3933 115.191 67.7754 105.867C67.7372 105.867 69.4952 119.567 62.7309 127.407Z" fill="url(#paint8_linear_1023_13632)"/>
<path d="M100.389 161.721H43.9609V167.259H100.389V161.721Z" fill="url(#paint9_linear_1023_13632)"/>
<path d="M96.7787 127H47.573C47.1864 127 46.873 127.313 46.873 127.7V161.021C46.873 161.407 47.1864 161.721 47.573 161.721H96.7787C97.1653 161.721 97.4787 161.407 97.4787 161.021V127.7C97.4787 127.313 97.1653 127 96.7787 127Z" fill="url(#paint10_linear_1023_13632)"/>
<rect x="55" y="135" width="34" height="19" rx="4" fill="url(#paint11_linear_1023_13632)"/>
<defs>
<linearGradient id="paint0_linear_1023_13632" x1="-0.0994296" y1="71.8462" x2="144.334" y2="71.8462" gradientUnits="userSpaceOnUse">
<stop offset="0.0111732" stop-color="#E9E9E9"/>
<stop offset="0.9106" stop-color="#E9E9E9"/>
</linearGradient>
<linearGradient id="paint1_linear_1023_13632" x1="67.7876" y1="96.5791" x2="67.7876" y2="127.398" gradientUnits="userSpaceOnUse">
<stop offset="0.0111732" stop-color="#F7A95B"/>
<stop offset="0.0132889" stop-color="#F7A95B"/>
<stop offset="0.1691" stop-color="#F29446"/>
<stop offset="0.3434" stop-color="#EF8538"/>
<stop offset="0.5513" stop-color="#ED7D30"/>
<stop offset="0.8771" stop-color="#EC7A2D"/>
</linearGradient>
<linearGradient id="paint2_linear_1023_13632" x1="86.6083" y1="99.6658" x2="86.6083" y2="127.395" gradientUnits="userSpaceOnUse">
<stop offset="0.0167598" stop-color="#EC7E33"/>
<stop offset="0.7095" stop-color="#E85F0F"/>
</linearGradient>
<linearGradient id="paint3_linear_1023_13632" x1="83.5679" y1="63.948" x2="128.982" y2="63.948" gradientUnits="userSpaceOnUse">
<stop offset="0.0111732" stop-color="#F7A95B"/>
<stop offset="0.1474" stop-color="#F3984B"/>
<stop offset="0.3271" stop-color="#EF893E"/>
<stop offset="0.5414" stop-color="#ED8135"/>
<stop offset="0.8771" stop-color="#EC7E33"/>
</linearGradient>
<linearGradient id="paint4_linear_1023_13632" x1="34.7701" y1="37.9999" x2="99.0427" y2="75.2641" gradientUnits="userSpaceOnUse">
<stop offset="0.0111732" stop-color="#F7A95B"/>
<stop offset="0.8771" stop-color="#EB7523"/>
</linearGradient>
<linearGradient id="paint5_linear_1023_13632" x1="87" y1="83.5" x2="48.5" y2="59" gradientUnits="userSpaceOnUse">
<stop offset="0.260417" stop-color="#3D445E"/>
<stop offset="1" stop-color="#919BC1"/>
</linearGradient>
<linearGradient id="paint6_linear_1023_13632" x1="90.2113" y1="32.1486" x2="90.2113" y2="103.756" gradientUnits="userSpaceOnUse">
<stop offset="0.1173" stop-color="#EC7E33"/>
<stop offset="0.7933" stop-color="#E85F0F"/>
</linearGradient>
<linearGradient id="paint7_linear_1023_13632" x1="52.2629" y1="89.4415" x2="52.2629" y2="32.1485" gradientUnits="userSpaceOnUse">
<stop offset="0.0167598" stop-color="#F9D47E" stop-opacity="0.1"/>
<stop offset="0.0264344" stop-color="#F9D57F" stop-opacity="0.1095"/>
<stop offset="0.213" stop-color="#FCE296" stop-opacity="0.2922"/>
<stop offset="0.4138" stop-color="#FEEBA6" stop-opacity="0.4888"/>
<stop offset="0.6388" stop-color="#FFF0B0" stop-opacity="0.7092"/>
<stop offset="0.9358" stop-color="#FFF2B3"/>
</linearGradient>
<linearGradient id="paint8_linear_1023_13632" x1="61.9837" y1="127.398" x2="61.9837" y2="105.876" gradientUnits="userSpaceOnUse">
<stop offset="0.0167598" stop-color="#F9D47E" stop-opacity="0.1"/>
<stop offset="0.9358" stop-color="#FFF2B3"/>
</linearGradient>
<linearGradient id="paint9_linear_1023_13632" x1="41.1371" y1="162.174" x2="42.9182" y2="173.325" gradientUnits="userSpaceOnUse">
<stop offset="0.0111732" stop-color="#F0F0F0"/>
<stop offset="0.9106" stop-color="#B3B3B3"/>
</linearGradient>
<linearGradient id="paint10_linear_1023_13632" x1="97.4787" y1="172.716" x2="48.5767" y2="128.822" gradientUnits="userSpaceOnUse">
<stop offset="0.260417" stop-color="#3D445E"/>
<stop offset="1" stop-color="#919BC1"/>
</linearGradient>
<linearGradient id="paint11_linear_1023_13632" x1="53.298" y1="136.549" x2="72.8254" y2="158.022" gradientUnits="userSpaceOnUse">
<stop offset="0.0111732" stop-color="#F7A95B"/>
<stop offset="0.8771" stop-color="#EB7523"/>
</linearGradient>
</defs>
</svg>
