<svg width="145" height="169" viewBox="0 0 145 169" fill="none" xmlns="http://www.w3.org/2000/svg">
<path d="M138.648 43.8683C135.011 35.3086 129.804 27.6132 123.192 21.0288C116.58 14.4444 108.852 9.25926 100.256 5.63786C91.3711 1.893 81.9075 0 72.1547 0C62.4018 0 52.9382 1.893 44.0532 5.63786C35.4574 9.25926 27.7295 14.4444 21.1174 21.0288C14.5053 27.6132 9.29828 35.3086 5.66162 43.8683C1.90098 52.716 0 62.1399 0 71.8518C0 81.5638 1.90098 90.9876 5.66162 99.8354C9.29828 108.395 14.5053 116.091 21.1174 122.675C27.7295 129.259 35.4574 134.444 44.0532 138.066C52.9382 141.811 62.4018 143.704 72.1547 143.704C81.9075 143.704 91.3711 141.811 100.256 138.066C108.852 134.444 116.58 129.259 123.192 122.675C129.804 116.091 135.011 108.395 138.648 99.8354C142.408 90.9876 144.309 81.5638 144.309 71.8518C144.351 62.1399 142.408 52.716 138.648 43.8683Z" fill="url(#paint0_linear_1023_13631)"/>
<path d="M89.05 127.76C89.05 127.76 76.9062 114.085 76.1783 103.658L77.9022 99.9142C77.7873 98.9211 77.749 97.8898 77.749 96.8203H71.3132H66.6395C66.6395 98.9211 66.4097 100.907 66.0266 102.779C65.9116 103.428 65.7584 104.039 65.5669 104.651C61.5062 119.7 46.834 127.76 46.834 127.76H71.3132H89.05Z" fill="url(#paint1_linear_1023_13631)"/>
<path d="M97.4793 127.759H89.0514C89.0514 127.759 78.1334 115.498 76.3712 105.338C76.2563 104.765 76.218 104.23 76.1797 103.657L77.2523 101.327L77.9036 99.9141C77.9036 100.067 77.9419 100.258 77.9419 100.411C78.0568 101.213 78.1717 102.015 78.325 102.779C78.4782 103.505 78.6314 104.192 78.823 104.88C82.9986 119.815 97.4793 127.759 97.4793 127.759Z" fill="url(#paint2_linear_1023_13631)"/>
<path d="M60.5489 86.6208C55.4921 86.6208 50.7419 86.0097 46.413 84.8256C42.4289 83.7179 38.7513 82.1136 35.4185 80.0128C29.8254 76.4605 25.2284 71.5714 21.7423 65.4217C20.4015 63.0153 19.2139 60.418 18.2179 57.706C17.4134 55.5288 16.7622 53.2752 16.2642 51.0216C15.3831 47.1255 15.1915 44.49 15.1915 44.3754L15 41.5488H38.6747L39.2876 46.8582H20.8612C21.0144 47.7367 21.206 48.8062 21.4741 49.9903C22.2403 53.237 23.696 58.088 26.4543 62.9389C33.4264 75.1237 44.8807 81.3115 60.5106 81.3115V86.6208H60.5489Z" fill="#FFCA10"/>
<path d="M83.7637 86.6208C88.8204 86.6208 93.5707 86.0097 97.8995 84.8256C101.884 83.7179 105.561 82.1136 108.894 80.0128C114.487 76.4605 119.084 71.5714 122.57 65.4217C123.911 63.0153 125.099 60.418 126.095 57.706C126.899 55.5288 127.55 53.2752 128.048 51.0216C128.929 47.1255 129.121 44.49 129.121 44.3754L129.274 41.5488H105.6L105.025 46.8582H123.451C123.298 47.7367 123.107 48.8062 122.838 49.9903C122.072 53.237 120.617 58.088 117.858 62.9389C110.886 75.1237 99.4319 81.3115 83.802 81.3115V86.6208H83.7637Z" fill="url(#paint3_linear_1023_13631)"/>
<path d="M100.389 162.48H43.9609V168.019H100.389V162.48Z" fill="url(#paint4_linear_1023_13631)"/>
<path opacity="0.05" d="M86.8292 95.5977C86.6377 95.865 86.4078 96.0942 86.2163 96.3234C86.178 96.3998 86.1013 96.438 86.063 96.5144C85.7183 96.8963 85.4118 97.2783 85.067 97.6221C85.0287 97.6603 84.9521 97.7367 84.9138 97.7749C84.8372 97.8513 84.7989 97.8895 84.7222 97.9658C84.6839 98.0422 84.6073 98.0804 84.569 98.1186C84.3775 98.3096 84.1859 98.5006 83.9944 98.6916C83.9178 98.768 83.8795 98.8062 83.8028 98.8826C83.6879 98.9972 83.6113 99.0735 83.4964 99.1881C83.4581 99.2263 83.3814 99.2645 83.3431 99.3409C83.1133 99.5319 82.9217 99.7229 82.6919 99.9139C82.6153 99.9521 82.577 100.028 82.5003 100.067C82.3854 100.143 82.2705 100.258 82.1556 100.334C82.1173 100.372 82.0789 100.41 82.0406 100.41C81.6959 100.678 81.3511 100.945 81.0063 101.213C80.968 101.251 80.8914 101.289 80.8531 101.327C80.8148 101.365 80.7381 101.404 80.6998 101.442C80.6615 101.48 80.5849 101.518 80.5466 101.556C80.5083 101.595 80.4317 101.633 80.3934 101.671C80.0869 101.862 79.8187 102.053 79.5123 102.206C79.474 102.244 79.4357 102.244 79.3974 102.282C79.359 102.32 79.2824 102.358 79.2441 102.358C79.2058 102.397 79.1292 102.435 79.0909 102.435C78.861 102.549 78.6312 102.664 78.4396 102.779C78.4013 102.779 78.4013 102.817 78.363 102.817C78.5163 103.543 78.6695 104.23 78.861 104.918C78.0182 105.109 77.2138 105.223 76.4093 105.338C74.9152 105.529 73.5361 105.567 72.2336 105.567C69.667 105.529 67.4451 105.147 65.6446 104.688C65.7978 104.077 65.951 103.466 66.1043 102.817C63.2311 101.404 60.5112 99.0735 57.9062 96.056L81.0829 95.7122L86.8292 95.5977Z" fill="black"/>
<path d="M106.06 32.1523C106.06 32.3051 106.06 32.4197 106.06 32.5725C106.06 32.6489 106.06 32.6871 106.06 32.7635C106.06 32.8781 106.06 33.0309 106.06 33.1455C106.06 33.1837 106.06 33.2218 106.06 33.26C106.06 33.4128 106.06 33.5274 106.06 33.6802C106.06 33.7184 106.06 33.7566 106.06 33.7948C106.06 33.9476 106.06 34.1004 106.06 34.2532C106.06 34.4059 106.06 34.5587 106.06 34.7115C106.06 35.0935 106.022 35.4754 106.022 35.8574C106.022 36.0102 106.022 36.163 106.022 36.2776C106.022 36.3158 106.022 36.3158 106.022 36.354C106.022 36.5068 106.022 36.6977 105.983 36.8505C105.983 37.0033 105.983 37.1943 105.945 37.3471C105.945 37.5381 105.907 37.729 105.907 37.9582C105.907 38.0728 105.907 38.1874 105.869 38.302C105.869 38.3784 105.869 38.493 105.869 38.5694C105.869 38.684 105.869 38.7986 105.83 38.9131C105.83 39.1041 105.792 39.3333 105.792 39.5243C105.792 39.6771 105.754 39.8681 105.754 40.0208C105.754 40.1736 105.715 40.3264 105.715 40.5174V40.5556C105.715 40.7466 105.677 40.8994 105.677 41.0904C105.677 41.2431 105.639 41.3959 105.639 41.5869C105.639 41.6251 105.639 41.6251 105.639 41.6633C105.639 41.8543 105.6 42.0071 105.6 42.1981C105.562 42.7328 105.485 43.2676 105.447 43.8405C105.409 44.0315 105.409 44.1843 105.37 44.3753C105.37 44.4135 105.37 44.4517 105.37 44.4899C105.37 44.6426 105.332 44.7954 105.332 44.9482C105.294 45.1392 105.294 45.3302 105.256 45.483C105.217 45.6739 105.217 45.8649 105.179 46.0177C105.141 46.2087 105.141 46.3615 105.102 46.5525C105.064 46.7053 105.064 46.858 105.026 47.0108C105.026 47.0872 104.987 47.1636 104.987 47.24C104.987 47.3546 104.949 47.5074 104.949 47.622C104.872 48.0421 104.834 48.4623 104.758 48.8443C104.719 48.9971 104.719 49.1498 104.681 49.3408C104.681 49.4172 104.643 49.5318 104.643 49.6082C104.643 49.7228 104.604 49.8374 104.604 49.952C104.604 49.9902 104.604 50.0284 104.604 50.0666C104.566 50.1811 104.566 50.3339 104.528 50.4485C104.489 50.6395 104.451 50.8305 104.451 50.9833C104.451 51.0215 104.451 51.0215 104.451 51.0597C104.413 51.2125 104.413 51.4034 104.374 51.5562C104.336 51.7472 104.298 51.9 104.298 52.091C104.298 52.1292 104.298 52.1292 104.298 52.1674C104.26 52.3202 104.221 52.5111 104.221 52.6639C104.183 52.8549 104.145 53.0459 104.106 53.1987C104.068 53.3897 104.03 53.5424 103.991 53.7334C103.953 53.9244 103.915 54.1536 103.876 54.3446C103.838 54.4974 103.8 54.6883 103.762 54.8411C103.723 55.0321 103.685 55.1849 103.647 55.3759C103.608 55.5669 103.57 55.7579 103.532 55.987C103.455 56.369 103.378 56.7128 103.302 57.0947C103.264 57.2475 103.225 57.3621 103.225 57.5149C103.225 57.5531 103.187 57.6295 103.187 57.6677C103.11 58.0497 103.034 58.4316 102.919 58.7754C102.88 58.9664 102.842 59.1192 102.804 59.3101C102.766 59.5011 102.727 59.6921 102.689 59.8449C102.651 60.0359 102.612 60.2269 102.574 60.3796C102.536 60.5706 102.497 60.7234 102.459 60.9144C102.382 61.2964 102.268 61.6401 102.191 62.0221C102.153 62.2131 102.114 62.3659 102.076 62.5569V62.595C102.038 62.7478 101.999 62.9388 101.961 63.0916C101.923 63.2826 101.846 63.4354 101.808 63.6264C101.769 63.8173 101.731 63.9701 101.655 64.1611C101.54 64.5431 101.463 64.8868 101.348 65.2688C101.31 65.4598 101.233 65.6126 101.195 65.8036C101.157 65.9563 101.08 66.1473 101.042 66.3001V66.3383C101.003 66.5293 100.927 66.6821 100.888 66.8731C100.888 66.9113 100.85 66.9495 100.85 67.0259C100.812 67.1404 100.773 67.2932 100.735 67.4078C100.697 67.5988 100.62 67.7516 100.582 67.9426C100.544 68.0954 100.467 68.2481 100.429 68.4391V68.4773C100.39 68.6301 100.352 68.7447 100.314 68.8975C100.275 68.9739 100.275 69.0503 100.237 69.1267C100.237 69.1649 100.199 69.2031 100.199 69.2413C100.161 69.3559 100.122 69.4322 100.122 69.5468C100.084 69.7378 100.007 69.8906 99.969 70.0816C99.9307 70.2344 99.8541 70.3872 99.8158 70.5399C99.8158 70.5781 99.7774 70.6163 99.7774 70.6163C99.7391 70.7691 99.6625 70.9601 99.6242 71.1129C99.5859 71.2657 99.5093 71.4185 99.471 71.5713C99.471 71.6094 99.471 71.6095 99.4327 71.6476C99.3944 71.8004 99.3177 71.9914 99.2794 72.1442C99.2411 72.297 99.1645 72.4498 99.1262 72.6026C99.0879 72.7172 99.0496 72.7935 99.0113 72.9081C98.973 72.9845 98.9347 73.0991 98.8964 73.1755C98.8197 73.3283 98.7814 73.5193 98.7048 73.6721C98.6282 73.8249 98.5899 74.0158 98.5133 74.1686C98.2068 75.0471 97.862 75.8875 97.5556 76.7278C97.4789 76.8806 97.4406 77.0334 97.364 77.1862C97.2874 77.3389 97.2491 77.5299 97.1725 77.6827C97.0959 77.8355 97.0575 78.0265 96.9809 78.1793C96.9426 78.2939 96.9043 78.4084 96.8277 78.523V78.5612C96.7894 78.6376 96.7511 78.7522 96.7128 78.8286C96.5978 79.0578 96.5212 79.287 96.4063 79.5161C96.368 79.5925 96.3297 79.6689 96.3297 79.7071C96.2914 79.8217 96.2148 79.9745 96.1764 80.0891C96.1381 80.2037 96.0615 80.3183 96.0232 80.4329C95.9849 80.5093 95.9466 80.5857 95.9083 80.662C95.87 80.7384 95.8317 80.853 95.7934 80.9294C95.5635 81.3878 95.372 81.8843 95.1421 82.3427C95.1038 82.4191 95.0655 82.5337 95.0272 82.6101C94.2993 84.1379 93.5715 85.5894 92.767 87.0027C92.7287 87.0791 92.6521 87.1937 92.6138 87.2701C92.2307 87.9194 91.8859 88.5687 91.5028 89.1799C91.4645 89.2563 91.3879 89.3709 91.3496 89.4473C91.2346 89.6001 91.158 89.7528 91.0431 89.9438C90.5451 90.746 90.0471 91.5099 89.5108 92.2738C89.4725 92.3502 89.3958 92.4266 89.3575 92.503C89.3192 92.5794 89.2426 92.6558 89.2043 92.7322C89.166 92.8086 89.0894 92.885 89.0511 92.9614C88.9361 93.1523 88.7829 93.3051 88.668 93.4961C88.5913 93.6107 88.4764 93.7253 88.3998 93.8399C88.3232 93.9545 88.2083 94.0691 88.1316 94.2218C88.055 94.3364 87.9784 94.4128 87.9018 94.5274C87.6336 94.8712 87.3655 95.215 87.0973 95.5587C86.9058 95.8261 86.6759 96.0553 86.4844 96.2845C86.4461 96.3609 86.3695 96.3991 86.3312 96.4754C85.9864 96.8574 85.6799 97.2394 85.3351 97.5832C85.2968 97.6213 85.2202 97.6977 85.1819 97.7359C85.1053 97.8123 85.067 97.8505 84.9904 97.9269C84.952 98.0033 84.8754 98.0415 84.8371 98.0797C84.6456 98.2707 84.454 98.4617 84.2625 98.6527C84.1859 98.729 84.1476 98.7673 84.0709 98.8436C83.956 98.9582 83.8794 99.0346 83.7645 99.1492C83.7262 99.1874 83.6496 99.2256 83.6112 99.302C83.3814 99.493 83.1898 99.684 82.96 99.8749C82.8834 99.9131 82.8451 99.9895 82.7684 100.028C82.6535 100.104 82.5386 100.219 82.4237 100.295C82.3854 100.333 82.3471 100.372 82.3088 100.372C81.964 100.639 81.6192 100.906 81.2744 101.174C81.2361 101.212 81.1595 101.25 81.1212 101.288C81.0829 101.326 81.0063 101.365 80.968 101.403C80.9296 101.441 80.853 101.479 80.8147 101.517C80.7764 101.556 80.6998 101.594 80.6615 101.632C80.355 101.823 80.0869 102.014 79.7804 102.167C79.7421 102.205 79.7038 102.205 79.6655 102.243C79.6271 102.281 79.5505 102.32 79.5122 102.32C79.4739 102.358 79.3973 102.396 79.359 102.396C79.1291 102.511 78.8993 102.625 78.7077 102.74C78.6694 102.74 78.6694 102.778 78.6311 102.778C78.5928 102.778 78.5545 102.816 78.5162 102.816C78.4396 102.854 78.4013 102.854 78.3247 102.892H78.2864C78.248 102.931 78.2097 102.931 78.1714 102.969C78.1331 102.969 78.0948 103.007 78.0565 103.007C77.7117 103.16 77.3286 103.313 76.9839 103.427C76.9456 103.427 76.9072 103.465 76.8689 103.465H76.8306C76.7923 103.465 76.754 103.504 76.6774 103.504C76.6774 103.504 76.6774 103.504 76.6391 103.504C76.6008 103.504 76.5242 103.542 76.4858 103.542C76.3326 103.58 76.1411 103.656 75.9878 103.695C75.9495 103.695 75.9112 103.733 75.8346 103.733H75.7963C75.758 103.733 75.7197 103.771 75.6814 103.771C75.6431 103.771 75.5664 103.809 75.5281 103.809C75.4898 103.809 75.4515 103.847 75.3749 103.847C75.2983 103.847 75.2217 103.886 75.1451 103.886C74.3023 104.077 73.4212 104.153 72.5401 104.153C70.4331 104.153 68.4027 103.618 66.4107 102.663C63.5376 101.25 60.8176 98.92 58.2127 95.9025C46.2604 82.3427 38.2539 54.23 38.2539 32.1523H106.06Z" fill="url(#paint5_linear_1023_13631)"/>
<path d="M106.06 32.1528C106.06 32.3056 106.06 32.4202 106.06 32.5729C106.06 32.6493 106.06 32.6875 106.06 32.7639C106.06 32.8785 106.06 33.0313 106.06 33.1459C106.06 33.1841 106.06 33.2223 106.06 33.2605C106.06 33.4133 106.06 33.5279 106.06 33.6807C106.06 33.7188 106.06 33.757 106.06 33.7952C106.06 33.948 106.06 34.1008 106.06 34.2536C106.06 34.4064 106.06 34.5592 106.06 34.712C106.06 35.0939 106.021 35.4759 106.021 35.8579C106.021 36.0106 106.021 36.1634 106.021 36.278C106.021 36.3162 106.021 36.3162 106.021 36.3544C106.021 36.5072 106.021 36.6982 105.983 36.851C105.983 37.0038 105.983 37.1947 105.945 37.3475C105.945 37.5385 105.906 37.7295 105.906 37.9587C105.906 38.0733 105.906 38.1879 105.868 38.3024C105.868 38.3788 105.868 38.4934 105.868 38.5698C105.868 38.6844 105.868 38.799 105.83 38.9136C105.83 39.1046 105.791 39.3337 105.791 39.5247C105.791 39.6775 105.753 39.8685 105.753 40.0213C105.753 40.1741 105.715 40.3269 105.715 40.5178V40.556C105.715 40.747 105.676 40.8998 105.676 41.0908C105.676 41.2436 105.638 41.3964 105.638 41.5873C105.638 41.6255 105.638 41.6255 105.638 41.6637C105.638 41.8547 105.6 42.0075 105.6 42.1985C105.562 42.7332 105.485 43.268 105.447 43.841C105.408 44.0319 105.408 44.1847 105.37 44.3757C105.37 44.4139 105.37 44.4521 105.37 44.4903C105.37 44.6431 105.332 44.7959 105.332 44.9487C105.293 45.1396 105.293 45.3306 105.255 45.4834C105.217 45.6744 105.217 45.8654 105.178 46.0182C105.14 46.2091 105.14 46.3619 105.102 46.5529C105.064 46.7057 105.064 46.8585 105.025 47.0113C105.025 47.0877 104.987 47.1641 104.987 47.2404C104.987 47.355 104.949 47.5078 104.949 47.6224C104.872 48.0426 104.834 48.4627 104.757 48.8447C104.719 48.9975 104.719 49.1503 104.68 49.3413C104.68 49.4177 104.642 49.5322 104.642 49.6086C104.642 49.7232 104.604 49.8378 104.604 49.9524C104.604 49.9906 104.604 50.0288 104.604 50.067C104.565 50.1816 104.565 50.3344 104.527 50.449C104.489 50.6399 104.451 50.8309 104.451 50.9837C104.451 51.0219 104.451 51.0219 104.451 51.0601C104.412 51.2129 104.412 51.4039 104.374 51.5567C104.336 51.7477 104.297 51.9004 104.297 52.0914C104.297 52.1296 104.297 52.1296 104.297 52.1678C104.259 52.3206 104.221 52.5116 104.221 52.6644C104.182 52.8554 104.144 53.0463 104.106 53.1991C104.067 53.3901 104.029 53.5429 103.991 53.7339C103.953 53.9249 103.914 54.154 103.876 54.345C103.838 54.4978 103.799 54.6888 103.761 54.8416C103.723 55.0326 103.684 55.1853 103.646 55.3763C103.608 55.5673 103.569 55.7583 103.531 55.9875C103.455 56.3694 103.378 56.7132 103.301 57.0952C103.263 57.248 103.225 57.3626 103.225 57.5153C103.225 57.5535 103.186 57.6299 103.186 57.6681C103.11 58.0501 103.033 58.4321 102.918 58.7758C102.88 58.9668 102.842 59.1196 102.803 59.3106C102.765 59.5016 102.727 59.6925 102.688 59.8453C102.65 60.0363 102.612 60.2273 102.573 60.3801C102.535 60.5711 102.497 60.7239 102.459 60.9148C102.382 61.2968 102.267 61.6406 102.19 62.0225C102.152 62.2135 102.114 62.3663 102.075 62.5573V62.5955C102.037 62.7483 101.999 62.9393 101.961 63.092C101.922 63.283 101.846 63.4358 101.807 63.6268C101.769 63.8178 101.731 63.9706 101.654 64.1616C101.539 64.5435 101.462 64.8873 101.348 65.2692C101.309 65.4602 101.233 65.613 101.194 65.804C101.156 65.9568 101.079 66.1478 101.041 66.3006V66.3388C101.003 66.5297 100.926 66.6825 100.888 66.8735C100.888 66.9117 100.85 66.9499 100.85 67.0263C100.811 67.1409 100.773 67.2937 100.735 67.4083C100.696 67.5992 100.62 67.752 100.581 67.943C100.543 68.0958 100.466 68.2486 100.428 68.4396V68.4778C100.39 68.6306 100.352 68.7451 100.313 68.8979C100.275 68.9743 100.275 69.0507 100.237 69.1271C100.237 69.1653 100.198 69.2035 100.198 69.2417C100.16 69.3563 100.122 69.4327 100.122 69.5473C100.083 69.7383 100.007 69.891 99.9685 70.082C99.9302 70.2348 99.8535 70.3876 99.8152 70.5404C99.8152 70.5786 99.7769 70.6168 99.7769 70.6168C99.7386 70.7696 99.662 70.9605 99.6237 71.1133C99.5854 71.2661 99.5088 71.4189 99.4705 71.5717C99.4705 71.6099 99.4705 71.6099 99.4321 71.6481C99.3938 71.8009 99.3172 71.9919 99.2789 72.1446C99.2406 72.2974 99.164 72.4502 99.1257 72.603C99.0874 72.7176 99.0491 72.794 99.0107 72.9086C98.9724 72.985 98.9341 73.0996 98.8958 73.176C98.8192 73.3287 98.7809 73.5197 98.7043 73.6725C98.6277 73.8253 98.5894 74.0163 98.5127 74.1691C98.2063 75.0476 97.8615 75.8879 97.555 76.7282C97.4784 76.881 97.4401 77.0338 97.3635 77.1866C97.2869 77.3394 97.2486 77.5304 97.1719 77.6832C97.0953 77.8359 97.057 78.0269 96.9804 78.1797C96.9421 78.2943 96.9038 78.4089 96.8272 78.5235V78.5617C96.7889 78.6381 96.7505 78.7527 96.7122 78.829C96.5973 79.0582 96.5207 79.2874 96.4058 79.5166C96.3675 79.593 96.3292 79.6694 96.3292 79.7076C96.2908 79.8222 96.2142 79.9749 96.1759 80.0895C96.1376 80.2041 96.061 80.3187 96.0227 80.4333C95.9844 80.5097 95.9461 80.5861 95.9078 80.6625C95.8695 80.7389 95.8311 80.8535 95.7928 80.9299C95.563 81.3882 95.3714 81.8848 95.1416 82.3431C95.1033 82.4195 95.065 82.5341 95.0267 82.6105C94.2988 84.1384 93.5709 85.5899 92.7665 87.0031C92.7282 87.0795 92.6515 87.1941 92.6132 87.2705C92.2301 87.9198 91.8854 88.5692 91.5023 89.1803C91.464 89.2567 91.3874 89.3713 91.349 89.4477C91.2341 89.6005 91.1575 89.7533 91.0426 89.9443C90.5446 90.7464 90.0466 91.5103 89.5102 92.2743C89.4719 92.3506 89.3953 92.427 89.357 92.5034C89.3187 92.5798 89.2421 92.6562 89.2038 92.7326C89.1655 92.809 89.0888 92.8854 89.0505 92.9618C88.9356 93.1528 88.7824 93.3056 88.6674 93.4965C88.5908 93.6111 88.4759 93.7257 88.3993 93.8403C88.3227 93.9549 88.2077 94.0695 88.1311 94.2223C88.0545 94.3369 87.9779 94.4133 87.9013 94.5279C87.6331 94.8716 87.365 95.2154 87.0968 95.5592C86.9053 95.8265 86.6754 96.0557 86.4839 96.2849C86.4456 96.3613 86.3689 96.3995 86.3306 96.4759C85.9859 96.8578 85.6794 97.2398 85.3346 97.5836C85.2963 97.6218 85.2197 97.6982 85.1814 97.7364C85.1048 97.8128 85.0664 97.851 84.9898 97.9274C84.9515 98.0037 84.8749 98.0419 84.8366 98.0801C84.645 98.2711 84.4535 98.4621 84.262 98.6531C84.1853 98.7295 84.147 98.7677 84.0704 98.8441C83.9555 98.9587 83.8789 99.0351 83.764 99.1496C83.7256 99.1878 83.649 99.226 83.6107 99.3024C83.3809 99.4934 83.1893 99.6844 82.9595 99.8754C82.8829 99.9136 82.8445 99.99 82.7679 100.028C82.653 100.105 82.5381 100.219 82.4232 100.296C82.3848 100.334 82.3465 100.372 82.3082 100.372C81.9635 100.639 81.6187 100.907 81.2739 101.174C81.2356 101.212 81.159 101.25 81.1207 101.289C81.0824 101.327 81.0057 101.365 80.9674 101.403C80.9291 101.441 80.8525 101.48 80.8142 101.518C80.7759 101.556 80.6993 101.594 80.661 101.632C80.3545 101.823 80.0863 102.014 79.7799 102.167C79.7416 102.205 79.7032 102.205 79.6649 102.244C79.6266 102.282 79.55 102.32 79.5117 102.32C79.4734 102.358 79.3968 102.396 79.3585 102.396C79.1286 102.511 78.8988 102.626 78.7072 102.74C78.6689 102.74 78.6689 102.778 78.6306 102.778C78.5923 102.778 78.554 102.817 78.5157 102.817C78.4391 102.855 78.4008 102.855 78.3241 102.893H78.2858C78.2475 102.931 78.2092 102.931 78.1709 102.969C78.1326 102.969 78.0943 103.008 78.056 103.008C77.7112 103.16 77.3281 103.313 76.9833 103.428C76.945 103.428 76.9067 103.466 76.8684 103.466H76.8301C76.7918 103.466 76.7535 103.504 76.6769 103.504C76.6769 103.504 76.6769 103.504 76.6386 103.504C76.6003 103.504 76.5236 103.542 76.4853 103.542C76.3321 103.58 76.1406 103.657 75.9873 103.695C75.949 103.695 75.9107 103.733 75.8341 103.733H75.7958C75.7575 103.733 75.7192 103.771 75.6808 103.771C75.6425 103.771 75.5659 103.81 75.5276 103.81C75.4893 103.81 75.451 103.848 75.3744 103.848C75.2978 103.848 75.2211 103.886 75.1445 103.886C75.1445 103.886 76.1022 103.046 77.5963 101.212C77.8261 100.945 78.056 100.639 78.2858 100.296C79.2052 99.0732 80.2396 97.5072 81.3505 95.5592C87.0202 85.7044 94.1839 66.186 92.3068 32H106.06V32.1528Z" fill="url(#paint6_linear_1023_13631)"/>
<path d="M60.548 89.6383C48.7106 76.9952 45.1479 44.0315 44.2285 32.1523H51.5071C48.9788 60.1887 60.5096 89.5619 60.548 89.6383Z" fill="url(#paint7_linear_1023_13631)"/>
<path d="M62.8466 127.76H56.1426C59.7819 124.169 67.5202 115.499 67.9033 106.141C67.9033 106.141 69.6655 119.891 62.8466 127.76Z" fill="#FBE599"/>
<path d="M96.7787 127.76H47.573C47.1864 127.76 46.873 128.073 46.873 128.46V161.781C46.873 162.167 47.1864 162.481 47.573 162.481H96.7787C97.1653 162.481 97.4787 162.167 97.4787 161.781V128.46C97.4787 128.073 97.1653 127.76 96.7787 127.76Z" fill="url(#paint8_linear_1023_13631)"/>
<rect x="55" y="136" width="34" height="19" rx="4" fill="url(#paint9_linear_1023_13631)"/>
<path d="M70.85 45.6C71.0862 45.0173 71.9111 45.0172 72.1475 45.5998L75.6263 54.1767C75.7259 54.4224 75.9557 54.5907 76.22 54.6115L85.3321 55.3287C85.9514 55.3774 86.205 56.1488 85.7355 56.5556L78.7603 62.5993C78.5632 62.7701 78.4774 63.0362 78.5376 63.29L80.6851 72.3404C80.8296 72.9493 80.1634 73.4274 79.6328 73.0955L71.8698 68.2398C71.6427 68.0978 71.3544 68.0978 71.1273 68.2399L63.3673 73.0951C62.8367 73.4271 62.1705 72.9491 62.315 72.3401L64.4624 63.29C64.5226 63.0363 64.4368 62.7701 64.2397 62.5993L57.2645 56.5556C56.7949 56.1488 57.0486 55.3774 57.6679 55.3287L66.7799 54.6115C67.0442 54.5907 67.2741 54.4223 67.3737 54.1766L70.85 45.6Z" fill="url(#paint10_linear_1023_13631)"/>
<defs>
<linearGradient id="paint0_linear_1023_13631" x1="-0.0994296" y1="71.8462" x2="144.334" y2="71.8462" gradientUnits="userSpaceOnUse">
<stop offset="0.0111732" stop-color="#E9E9E9"/>
<stop offset="0.9106" stop-color="#E9E9E9"/>
</linearGradient>
<linearGradient id="paint1_linear_1023_13631" x1="47.8813" y1="129.528" x2="84.4024" y2="108.38" gradientUnits="userSpaceOnUse">
<stop offset="0.0111732" stop-color="#FFEF31"/>
<stop offset="0.676" stop-color="#FFCA10"/>
</linearGradient>
<linearGradient id="paint2_linear_1023_13631" x1="86.8161" y1="127.754" x2="86.8161" y2="99.9216" gradientUnits="userSpaceOnUse">
<stop stop-color="#F9B01B"/>
<stop offset="0.5223" stop-color="#F9A11B"/>
</linearGradient>
<linearGradient id="paint3_linear_1023_13631" x1="92.106" y1="91.409" x2="122.927" y2="37.8695" gradientUnits="userSpaceOnUse">
<stop offset="0.0111732" stop-color="#FFF731"/>
<stop offset="0.7151" stop-color="#FFC510"/>
</linearGradient>
<linearGradient id="paint4_linear_1023_13631" x1="41.1371" y1="162.933" x2="42.9182" y2="174.085" gradientUnits="userSpaceOnUse">
<stop offset="0.0111732" stop-color="#F0F0F0"/>
<stop offset="0.9106" stop-color="#B3B3B3"/>
</linearGradient>
<linearGradient id="paint5_linear_1023_13631" x1="34.8523" y1="38.0254" x2="99.3212" y2="75.3556" gradientUnits="userSpaceOnUse">
<stop offset="0.0111732" stop-color="#FFF952"/>
<stop offset="1" stop-color="#FFBF10"/>
</linearGradient>
<linearGradient id="paint6_linear_1023_13631" x1="90.4255" y1="32.153" x2="90.4255" y2="104.024" gradientUnits="userSpaceOnUse">
<stop offset="0.0167598" stop-color="#F9D41B" stop-opacity="0.2"/>
<stop offset="0.7933" stop-color="#F99C1B"/>
</linearGradient>
<linearGradient id="paint7_linear_1023_13631" x1="52.3846" y1="89.6569" x2="52.3846" y2="32.1523" gradientUnits="userSpaceOnUse">
<stop offset="0.0167598" stop-color="#F9D41B" stop-opacity="0.1"/>
<stop offset="0.0623279" stop-color="#FADE3D" stop-opacity="0.1446"/>
<stop offset="0.1151" stop-color="#FCE75C" stop-opacity="0.1963"/>
<stop offset="0.1749" stop-color="#FDEE78" stop-opacity="0.2549"/>
<stop offset="0.2424" stop-color="#FEF48E" stop-opacity="0.321"/>
<stop offset="0.3214" stop-color="#FEF99F" stop-opacity="0.3983"/>
<stop offset="0.4189" stop-color="#FFFDAA" stop-opacity="0.4939"/>
<stop offset="0.5558" stop-color="#FFFEB1" stop-opacity="0.6279"/>
<stop offset="0.9358" stop-color="#FFFFB3"/>
</linearGradient>
<linearGradient id="paint8_linear_1023_13631" x1="97.4787" y1="173.475" x2="48.5767" y2="129.582" gradientUnits="userSpaceOnUse">
<stop offset="0.260417" stop-color="#3D445E"/>
<stop offset="1" stop-color="#919BC1"/>
</linearGradient>
<linearGradient id="paint9_linear_1023_13631" x1="53.2944" y1="137.55" x2="72.8208" y2="159.034" gradientUnits="userSpaceOnUse">
<stop offset="0.0111732" stop-color="#FFF952"/>
<stop offset="1" stop-color="#FFBF10"/>
</linearGradient>
<linearGradient id="paint10_linear_1023_13631" x1="87" y1="83.5" x2="48.5" y2="59" gradientUnits="userSpaceOnUse">
<stop offset="0.260417" stop-color="#3D445E"/>
<stop offset="1" stop-color="#919BC1"/>
</linearGradient>
</defs>
</svg>
