<svg width="33" height="43" viewBox="0 0 33 43" fill="none" xmlns="http://www.w3.org/2000/svg">
<path d="M18.8749 33.8819C19.1881 35.3559 21.9202 39.067 26.8688 41.5536C27.2551 41.7486 27.1126 42.3318 26.6794 42.3318H16.996H7.3163C6.88313 42.3318 6.74062 41.7449 7.12878 41.5517C12.2087 39.0145 14.3782 35.2208 14.637 33.8707C14.6876 33.6063 14.6276 33.7882 14.8695 33.9082C15.9159 34.4276 16.8572 35.354 18.8749 33.8819C18.8131 33.595 19.1131 33.7094 18.8749 33.8819Z" fill="#D4B100"/>
<path d="M32.849 6.25195L18.0163 11.4595L1.1472 6.25195C0.565889 12.4066 1.1472 22.8593 12.9571 32.3987C15.5449 34.6678 16.6475 35.7104 17.5213 35.6879C17.7763 35.7104 18.4683 34.1671 21.041 32.3987C32.849 22.8593 33.4304 12.4066 32.849 6.25195Z" fill="#D4B100"/>
<path d="M32.8762 5.90001C32.8762 9.04857 25.7712 11.6008 17.0084 11.6008C8.24569 11.6008 1.14062 9.04857 1.14062 5.90001C1.14062 2.75145 8.24382 0.199219 17.0084 0.199219C25.7712 0.199219 32.8762 2.75145 32.8762 5.90001Z" fill="#BB8F02"/>
<path d="M16.8106 11.0843L1.1472 6.24805C0.565889 12.4026 1.1472 22.8553 12.9571 32.3948C13.604 32.9611 14.1572 33.4524 14.6391 33.8687C14.3785 35.2189 12.2108 39.0107 7.13091 41.5498C6.74274 41.743 6.88526 42.3299 7.31842 42.3299H16.8125V11.0843H16.8106Z" fill="#BB8F02"/>
<path d="M16.8115 0.199219C8.13881 0.238599 1.14062 2.77395 1.14062 5.90001C1.14062 9.02419 8.13881 11.5614 16.8115 11.5989V0.199219Z" fill="#D4B100"/>
<path d="M16.6237 2.87109L19.4159 9.63703L26.7122 10.2015L21.141 14.9459L22.8587 22.0606L16.6237 18.2276L10.3906 22.0606L12.1083 14.9459L6.53711 10.2015L13.8334 9.63703L16.6237 2.87109Z" fill="#FAFAFA"/>
<path d="M16.6237 18.2276V2.87109L13.8334 9.63703L6.53711 10.2015L12.1083 14.9459L10.3906 22.0606L16.6237 18.2276Z" fill="#C6C6C6"/>
</svg>
