<svg width="144" height="144" viewBox="0 0 144 144" fill="none" xmlns="http://www.w3.org/2000/svg">
<circle cx="72" cy="72" r="72" fill="#3D445E"/>
<g clip-path="url(#clip0_990_7876)">
<path d="M76.2215 100.943C76.9261 104.267 83.0735 112.634 94.2078 118.241C95.077 118.681 94.7563 119.996 93.7817 119.996H71.9939H50.2146C49.24 119.996 48.9193 118.672 49.7927 118.237C61.2224 112.516 66.104 103.962 66.6862 100.918C66.8001 100.322 66.6651 100.732 67.2094 101.002C69.5637 102.174 71.6817 104.262 76.2215 100.943C76.7574 100.554 76.0823 100.296 76.2215 100.943Z" fill="#D4B100"/>
<path d="M107.663 38.6443L74.289 50.3861L36.3334 38.6443C35.0254 52.5214 36.3334 76.0895 62.9057 97.5986C68.7281 102.715 71.209 105.066 73.1751 105.015C73.7489 105.066 75.3058 101.586 81.0945 97.5986C107.663 76.0895 108.97 52.5214 107.663 38.6443Z" fill="#D4B100"/>
<path d="M107.722 37.8538C107.722 44.953 91.7353 50.7077 72.0192 50.7077C52.3031 50.7077 36.3167 44.953 36.3167 37.8538C36.3167 30.7546 52.2988 25 72.0192 25C91.7353 25 107.722 30.7546 107.722 37.8538Z" fill="#BB8F02"/>
<path d="M71.5761 49.5452L36.3334 38.6406C35.0254 52.5176 36.3334 76.0858 62.9057 97.5949C64.3613 98.8718 65.6059 99.9796 66.6903 100.918C66.1038 103.963 61.2264 112.512 49.7967 118.237C48.9234 118.673 49.244 119.996 50.2187 119.996H71.5803V49.5452H71.5761Z" fill="#BB8F02"/>
<path d="M71.5762 25C52.0626 25.0888 36.3167 30.8054 36.3167 37.8538C36.3167 44.8981 52.0626 50.6189 71.5762 50.7034V25Z" fill="#D4B100"/>
<path d="M71.1543 31.0251L77.4367 46.2806L93.8534 47.5533L81.3183 58.2507L85.1831 74.2926L71.1543 65.6501L57.1299 74.2926L60.9946 58.2507L48.4595 47.5533L64.8762 46.2806L71.1543 31.0251Z" fill="#FAFAFA"/>
<path d="M71.1543 65.6501V31.0251L64.8762 46.2806L48.4595 47.5533L60.9946 58.2507L57.1299 74.2926L71.1543 65.6501Z" fill="#C6C6C6"/>
</g>
<defs>
<clipPath id="clip0_990_7876">
<rect width="72" height="95" fill="white" transform="translate(36 25)"/>
</clipPath>
</defs>
</svg>
