<svg width="821" height="657" viewBox="0 0 821 657" fill="none" xmlns="http://www.w3.org/2000/svg">
<path d="M224 559H349C350.657 559 352 560.343 352 562V626C352 627.657 350.657 629 349 629H224" stroke="#CED0D6"/>
<path d="M368 417H493C494.657 417 496 418.343 496 420V592C496 593.657 494.657 595 493 595H368" stroke="#CED0D6"/>
<path d="M224 382H349C350.657 382 352 383.343 352 385V449C352 450.657 350.657 452 349 452H224" stroke="#CED0D6"/>
<path d="M647.5 323H733" stroke="#CED0D6"/>
<path d="M224 205H349C350.657 205 352 206.343 352 208V272C352 273.657 350.657 275 349 275H224" stroke="#CED0D6"/>
<path d="M512 159H637C638.657 159 640 160.343 640 162V292V509C640 510.657 638.657 512 637 512H512" stroke="#CED0D6"/>
<path d="M368 63H493C494.657 63 496 64.3431 496 66V238C496 239.657 494.657 241 493 241H368" stroke="#CED0D6"/>
<path d="M224 28H349C350.657 28 352 29.3431 352 31V95C352 96.6569 350.657 98 349 98H224" stroke="#CED0D6"/>
<path d="M73.92 389.712C74.4 389.797 74.784 389.84 75.072 389.84C75.616 389.84 75.9947 389.685 76.208 389.376C76.432 389.077 76.544 388.56 76.544 387.824V376.608H77.856V387.84C77.856 388.949 77.6533 389.749 77.248 390.24C76.8533 390.731 76.1973 390.976 75.28 390.976C74.9173 390.976 74.464 390.933 73.92 390.848V389.712ZM87.3996 379.952V388H86.1356V386.608C85.8796 387.099 85.5223 387.472 85.0636 387.728C84.605 387.984 84.0876 388.112 83.5116 388.112C82.5623 388.112 81.8423 387.845 81.3516 387.312C80.861 386.779 80.6156 385.989 80.6156 384.944V379.952H81.9116V384.912C81.9116 385.637 82.061 386.171 82.3596 386.512C82.6583 386.853 83.1116 387.024 83.7196 387.024C84.4343 387.024 85.0103 386.795 85.4476 386.336C85.885 385.867 86.1036 385.253 86.1036 384.496V379.952H87.3996ZM97.216 379.952V387.936C97.216 389.131 96.9067 390.032 96.288 390.64C95.68 391.259 94.7787 391.568 93.584 391.568C92.3573 391.568 91.3013 391.291 90.416 390.736L90.64 389.68C91.152 389.968 91.632 390.176 92.08 390.304C92.5387 390.432 93.04 390.496 93.584 390.496C94.3627 390.496 94.9493 390.288 95.344 389.872C95.7387 389.467 95.936 388.859 95.936 388.048V386.144C95.6907 386.656 95.328 387.056 94.848 387.344C94.3787 387.621 93.8187 387.76 93.168 387.76C92.464 387.76 91.8347 387.595 91.28 387.264C90.736 386.933 90.3147 386.464 90.016 385.856C89.7173 385.248 89.568 384.549 89.568 383.76C89.568 382.971 89.7173 382.272 90.016 381.664C90.3147 381.056 90.736 380.587 91.28 380.256C91.8347 379.925 92.464 379.76 93.168 379.76C93.808 379.76 94.3627 379.899 94.832 380.176C95.312 380.453 95.6747 380.843 95.92 381.344V379.952H97.216ZM93.424 386.672C94.2027 386.672 94.8107 386.416 95.248 385.904C95.696 385.381 95.92 384.667 95.92 383.76C95.92 382.853 95.696 382.144 95.248 381.632C94.8107 381.109 94.2027 380.848 93.424 380.848C92.6347 380.848 92.0107 381.109 91.552 381.632C91.104 382.144 90.88 382.853 90.88 383.76C90.88 384.667 91.104 385.381 91.552 385.904C92.0107 386.416 92.6347 386.672 93.424 386.672ZM106.942 379.952V388H105.662V386.544C105.428 387.045 105.07 387.435 104.59 387.712C104.121 387.979 103.572 388.112 102.942 388.112C102.228 388.112 101.598 387.941 101.054 387.6C100.521 387.259 100.105 386.779 99.8063 386.16C99.5183 385.531 99.3743 384.8 99.3743 383.968C99.3743 383.136 99.5236 382.405 99.8223 381.776C100.121 381.136 100.537 380.64 101.07 380.288C101.614 379.936 102.238 379.76 102.942 379.76C103.572 379.76 104.121 379.899 104.59 380.176C105.06 380.453 105.417 380.843 105.662 381.344V379.952H106.942ZM103.198 387.04C103.988 387.04 104.596 386.773 105.022 386.24C105.449 385.696 105.662 384.928 105.662 383.936C105.662 382.944 105.449 382.181 105.022 381.648C104.596 381.115 103.988 380.848 103.198 380.848C102.409 380.848 101.79 381.125 101.342 381.68C100.905 382.224 100.686 382.987 100.686 383.968C100.686 384.949 100.905 385.707 101.342 386.24C101.78 386.773 102.398 387.04 103.198 387.04ZM116.686 376.224V388H115.406V386.544C115.171 387.045 114.814 387.435 114.334 387.712C113.865 387.979 113.315 388.112 112.686 388.112C111.982 388.112 111.358 387.936 110.814 387.584C110.281 387.232 109.865 386.741 109.566 386.112C109.267 385.472 109.118 384.736 109.118 383.904C109.118 383.072 109.262 382.347 109.55 381.728C109.849 381.099 110.27 380.613 110.814 380.272C111.358 379.931 111.982 379.76 112.686 379.76C113.315 379.76 113.865 379.899 114.334 380.176C114.803 380.443 115.155 380.821 115.39 381.312V376.224H116.686ZM112.942 387.04C113.731 387.04 114.339 386.773 114.766 386.24C115.193 385.696 115.406 384.928 115.406 383.936C115.406 382.955 115.193 382.197 114.766 381.664C114.339 381.12 113.731 380.848 112.942 380.848C112.153 380.848 111.534 381.115 111.086 381.648C110.649 382.181 110.43 382.933 110.43 383.904C110.43 384.896 110.649 385.669 111.086 386.224C111.534 386.768 112.153 387.04 112.942 387.04ZM122.67 388.112C121.912 388.112 121.246 387.941 120.67 387.6C120.094 387.259 119.646 386.773 119.326 386.144C119.016 385.515 118.862 384.779 118.862 383.936C118.862 383.093 119.016 382.357 119.326 381.728C119.646 381.099 120.094 380.613 120.67 380.272C121.246 379.931 121.912 379.76 122.67 379.76C123.427 379.76 124.094 379.931 124.67 380.272C125.246 380.613 125.688 381.099 125.998 381.728C126.318 382.357 126.478 383.093 126.478 383.936C126.478 384.779 126.318 385.515 125.998 386.144C125.688 386.773 125.246 387.259 124.67 387.6C124.094 387.941 123.427 388.112 122.67 388.112ZM122.67 387.04C123.47 387.04 124.083 386.779 124.51 386.256C124.936 385.723 125.15 384.949 125.15 383.936C125.15 382.955 124.931 382.197 124.494 381.664C124.056 381.12 123.448 380.848 122.67 380.848C121.88 380.848 121.267 381.12 120.83 381.664C120.392 382.197 120.174 382.955 120.174 383.936C120.174 384.949 120.387 385.723 120.814 386.256C121.251 386.779 121.87 387.04 122.67 387.04ZM132.392 379.76C132.659 379.76 132.904 379.792 133.128 379.856L133.096 381.04C132.851 380.955 132.568 380.912 132.248 380.912C131.469 380.912 130.888 381.157 130.504 381.648C130.131 382.128 129.944 382.715 129.944 383.408V388H128.648V382.208C128.648 381.376 128.605 380.624 128.52 379.952H129.752L129.88 381.44C130.083 380.896 130.408 380.48 130.856 380.192C131.304 379.904 131.816 379.76 132.392 379.76ZM142.949 380.848C143.663 380.848 144.287 381.003 144.821 381.312C145.365 381.611 145.781 382.032 146.069 382.576C146.357 383.12 146.501 383.749 146.501 384.464C146.501 385.179 146.341 385.813 146.021 386.368C145.711 386.923 145.263 387.355 144.677 387.664C144.101 387.963 143.423 388.112 142.645 388.112C141.951 388.112 141.269 387.989 140.597 387.744C139.925 387.488 139.359 387.141 138.901 386.704L139.397 385.696C140.453 386.571 141.535 387.008 142.645 387.008C143.445 387.008 144.069 386.784 144.517 386.336C144.975 385.877 145.205 385.259 145.205 384.48C145.205 383.723 144.981 383.115 144.533 382.656C144.085 382.187 143.487 381.952 142.741 381.952C141.653 381.952 140.783 382.395 140.133 383.28H139.221V376.608H146.053V377.696H140.533V381.76C141.162 381.152 141.967 380.848 142.949 380.848Z" fill="white"/>
<g clip-path="url(#clip0_1020_8725)">
<path d="M789.221 350.943C789.926 354.267 796.073 362.634 807.208 368.241C808.077 368.681 807.756 369.996 806.782 369.996H784.994H763.214C762.24 369.996 761.919 368.672 762.793 368.237C774.222 362.516 779.104 353.962 779.686 350.918C779.8 350.322 779.665 350.732 780.209 351.002C782.564 352.174 784.682 354.262 789.221 350.943C789.757 350.554 789.082 350.296 789.221 350.943Z" fill="#D4B100"/>
<path d="M820.662 288.645L787.289 300.386L749.333 288.645C748.025 302.522 749.333 326.09 775.906 347.599C781.728 352.715 784.209 355.066 786.175 355.015C786.749 355.066 788.306 351.586 794.094 347.599C820.662 326.09 821.97 302.522 820.662 288.645Z" fill="#D4B100"/>
<path d="M820.722 287.854C820.722 294.953 804.735 300.708 785.019 300.708C765.303 300.708 749.316 294.953 749.316 287.854C749.316 280.755 765.299 275 785.019 275C804.735 275 820.722 280.755 820.722 287.854Z" fill="#BB8F02"/>
<path d="M784.576 299.545L749.333 288.641C748.025 302.518 749.333 326.086 775.906 347.595C777.361 348.872 778.606 349.98 779.69 350.918C779.104 353.963 774.226 362.512 762.797 368.237C761.923 368.673 762.244 369.996 763.219 369.996H784.58V299.545H784.576Z" fill="#BB8F02"/>
<path d="M784.576 275C765.062 275.089 749.316 280.805 749.316 287.854C749.316 294.898 765.062 300.619 784.576 300.703V275Z" fill="#D4B100"/>
<path d="M784.154 281.025L790.437 296.28L806.853 297.553L794.318 308.251L798.183 324.292L784.154 315.65L770.13 324.292L773.994 308.251L761.459 297.553L777.876 296.28L784.154 281.025Z" fill="#FAFAFA"/>
<path d="M784.154 315.65V281.025L777.876 296.28L761.459 297.553L773.994 308.251L770.13 324.292L784.154 315.65Z" fill="#C6C6C6"/>
</g>
<rect x="14" y="4" width="194" height="48" rx="8" fill="#EFAD2D"/>
<path d="M73.92 35.712C74.4 35.7973 74.784 35.84 75.072 35.84C75.616 35.84 75.9947 35.6853 76.208 35.376C76.432 35.0773 76.544 34.56 76.544 33.824V22.608H77.856V33.84C77.856 34.9493 77.6533 35.7493 77.248 36.24C76.8533 36.7307 76.1973 36.976 75.28 36.976C74.9173 36.976 74.464 36.9333 73.92 36.848V35.712ZM87.3996 25.952V34H86.1356V32.608C85.8796 33.0987 85.5223 33.472 85.0636 33.728C84.605 33.984 84.0876 34.112 83.5116 34.112C82.5623 34.112 81.8423 33.8453 81.3516 33.312C80.861 32.7787 80.6156 31.9893 80.6156 30.944V25.952H81.9116V30.912C81.9116 31.6373 82.061 32.1707 82.3596 32.512C82.6583 32.8533 83.1116 33.024 83.7196 33.024C84.4343 33.024 85.0103 32.7947 85.4476 32.336C85.885 31.8667 86.1036 31.2533 86.1036 30.496V25.952H87.3996ZM97.216 25.952V33.936C97.216 35.1307 96.9067 36.032 96.288 36.64C95.68 37.2587 94.7787 37.568 93.584 37.568C92.3573 37.568 91.3013 37.2907 90.416 36.736L90.64 35.68C91.152 35.968 91.632 36.176 92.08 36.304C92.5387 36.432 93.04 36.496 93.584 36.496C94.3627 36.496 94.9493 36.288 95.344 35.872C95.7387 35.4667 95.936 34.8587 95.936 34.048V32.144C95.6907 32.656 95.328 33.056 94.848 33.344C94.3787 33.6213 93.8187 33.76 93.168 33.76C92.464 33.76 91.8347 33.5947 91.28 33.264C90.736 32.9333 90.3147 32.464 90.016 31.856C89.7173 31.248 89.568 30.5493 89.568 29.76C89.568 28.9707 89.7173 28.272 90.016 27.664C90.3147 27.056 90.736 26.5867 91.28 26.256C91.8347 25.9253 92.464 25.76 93.168 25.76C93.808 25.76 94.3627 25.8987 94.832 26.176C95.312 26.4533 95.6747 26.8427 95.92 27.344V25.952H97.216ZM93.424 32.672C94.2027 32.672 94.8107 32.416 95.248 31.904C95.696 31.3813 95.92 30.6667 95.92 29.76C95.92 28.8533 95.696 28.144 95.248 27.632C94.8107 27.1093 94.2027 26.848 93.424 26.848C92.6347 26.848 92.0107 27.1093 91.552 27.632C91.104 28.144 90.88 28.8533 90.88 29.76C90.88 30.6667 91.104 31.3813 91.552 31.904C92.0107 32.416 92.6347 32.672 93.424 32.672ZM106.942 25.952V34H105.662V32.544C105.428 33.0453 105.07 33.4347 104.59 33.712C104.121 33.9787 103.572 34.112 102.942 34.112C102.228 34.112 101.598 33.9413 101.054 33.6C100.521 33.2587 100.105 32.7787 99.8063 32.16C99.5183 31.5307 99.3743 30.8 99.3743 29.968C99.3743 29.136 99.5236 28.4053 99.8223 27.776C100.121 27.136 100.537 26.64 101.07 26.288C101.614 25.936 102.238 25.76 102.942 25.76C103.572 25.76 104.121 25.8987 104.59 26.176C105.06 26.4533 105.417 26.8427 105.662 27.344V25.952H106.942ZM103.198 33.04C103.988 33.04 104.596 32.7733 105.022 32.24C105.449 31.696 105.662 30.928 105.662 29.936C105.662 28.944 105.449 28.1813 105.022 27.648C104.596 27.1147 103.988 26.848 103.198 26.848C102.409 26.848 101.79 27.1253 101.342 27.68C100.905 28.224 100.686 28.9867 100.686 29.968C100.686 30.9493 100.905 31.7067 101.342 32.24C101.78 32.7733 102.398 33.04 103.198 33.04ZM116.686 22.224V34H115.406V32.544C115.171 33.0453 114.814 33.4347 114.334 33.712C113.865 33.9787 113.315 34.112 112.686 34.112C111.982 34.112 111.358 33.936 110.814 33.584C110.281 33.232 109.865 32.7413 109.566 32.112C109.267 31.472 109.118 30.736 109.118 29.904C109.118 29.072 109.262 28.3467 109.55 27.728C109.849 27.0987 110.27 26.6133 110.814 26.272C111.358 25.9307 111.982 25.76 112.686 25.76C113.315 25.76 113.865 25.8987 114.334 26.176C114.803 26.4427 115.155 26.8213 115.39 27.312V22.224H116.686ZM112.942 33.04C113.731 33.04 114.339 32.7733 114.766 32.24C115.193 31.696 115.406 30.928 115.406 29.936C115.406 28.9547 115.193 28.1973 114.766 27.664C114.339 27.12 113.731 26.848 112.942 26.848C112.153 26.848 111.534 27.1147 111.086 27.648C110.649 28.1813 110.43 28.9333 110.43 29.904C110.43 30.896 110.649 31.6693 111.086 32.224C111.534 32.768 112.153 33.04 112.942 33.04ZM122.67 34.112C121.912 34.112 121.246 33.9413 120.67 33.6C120.094 33.2587 119.646 32.7733 119.326 32.144C119.016 31.5147 118.862 30.7787 118.862 29.936C118.862 29.0933 119.016 28.3573 119.326 27.728C119.646 27.0987 120.094 26.6133 120.67 26.272C121.246 25.9307 121.912 25.76 122.67 25.76C123.427 25.76 124.094 25.9307 124.67 26.272C125.246 26.6133 125.688 27.0987 125.998 27.728C126.318 28.3573 126.478 29.0933 126.478 29.936C126.478 30.7787 126.318 31.5147 125.998 32.144C125.688 32.7733 125.246 33.2587 124.67 33.6C124.094 33.9413 123.427 34.112 122.67 34.112ZM122.67 33.04C123.47 33.04 124.083 32.7787 124.51 32.256C124.936 31.7227 125.15 30.9493 125.15 29.936C125.15 28.9547 124.931 28.1973 124.494 27.664C124.056 27.12 123.448 26.848 122.67 26.848C121.88 26.848 121.267 27.12 120.83 27.664C120.392 28.1973 120.174 28.9547 120.174 29.936C120.174 30.9493 120.387 31.7227 120.814 32.256C121.251 32.7787 121.87 33.04 122.67 33.04ZM132.392 25.76C132.659 25.76 132.904 25.792 133.128 25.856L133.096 27.04C132.851 26.9547 132.568 26.912 132.248 26.912C131.469 26.912 130.888 27.1573 130.504 27.648C130.131 28.128 129.944 28.7147 129.944 29.408V34H128.648V28.208C128.648 27.376 128.605 26.624 128.52 25.952H129.752L129.88 27.44C130.083 26.896 130.408 26.48 130.856 26.192C131.304 25.904 131.816 25.76 132.392 25.76ZM146.069 32.896V34H139.717V32.896H142.229V24.24L139.893 25.728V24.464L142.805 22.608H143.557V32.896H146.069Z" fill="white"/>
<circle cx="28" cy="28" r="28" fill="#9B9EAB"/>
<path d="M28 0C12.544 0 0 12.544 0 28C0 43.456 12.544 56 28 56C43.456 56 56 43.456 56 28C56 12.544 43.456 0 28 0ZM28 8.4C32.648 8.4 36.4 12.152 36.4 16.8C36.4 21.448 32.648 25.2 28 25.2C23.352 25.2 19.6 21.448 19.6 16.8C19.6 12.152 23.352 8.4 28 8.4ZM28 48.16C21 48.16 14.812 44.576 11.2 39.144C11.284 33.572 22.4 30.52 28 30.52C33.572 30.52 44.716 33.572 44.8 39.144C41.188 44.576 35 48.16 28 48.16Z" fill="#F9F9F9"/>
<rect x="14" y="74" width="194" height="48" rx="8" fill="#9B9EAB"/>
<path d="M73.92 105.712C74.4 105.797 74.784 105.84 75.072 105.84C75.616 105.84 75.9947 105.685 76.208 105.376C76.432 105.077 76.544 104.56 76.544 103.824V92.608H77.856V103.84C77.856 104.949 77.6533 105.749 77.248 106.24C76.8533 106.731 76.1973 106.976 75.28 106.976C74.9173 106.976 74.464 106.933 73.92 106.848V105.712ZM87.3996 95.952V104H86.1356V102.608C85.8796 103.099 85.5223 103.472 85.0636 103.728C84.605 103.984 84.0876 104.112 83.5116 104.112C82.5623 104.112 81.8423 103.845 81.3516 103.312C80.861 102.779 80.6156 101.989 80.6156 100.944V95.952H81.9116V100.912C81.9116 101.637 82.061 102.171 82.3596 102.512C82.6583 102.853 83.1116 103.024 83.7196 103.024C84.4343 103.024 85.0103 102.795 85.4476 102.336C85.885 101.867 86.1036 101.253 86.1036 100.496V95.952H87.3996ZM97.216 95.952V103.936C97.216 105.131 96.9067 106.032 96.288 106.64C95.68 107.259 94.7787 107.568 93.584 107.568C92.3573 107.568 91.3013 107.291 90.416 106.736L90.64 105.68C91.152 105.968 91.632 106.176 92.08 106.304C92.5387 106.432 93.04 106.496 93.584 106.496C94.3627 106.496 94.9493 106.288 95.344 105.872C95.7387 105.467 95.936 104.859 95.936 104.048V102.144C95.6907 102.656 95.328 103.056 94.848 103.344C94.3787 103.621 93.8187 103.76 93.168 103.76C92.464 103.76 91.8347 103.595 91.28 103.264C90.736 102.933 90.3147 102.464 90.016 101.856C89.7173 101.248 89.568 100.549 89.568 99.76C89.568 98.9707 89.7173 98.272 90.016 97.664C90.3147 97.056 90.736 96.5867 91.28 96.256C91.8347 95.9253 92.464 95.76 93.168 95.76C93.808 95.76 94.3627 95.8987 94.832 96.176C95.312 96.4533 95.6747 96.8427 95.92 97.344V95.952H97.216ZM93.424 102.672C94.2027 102.672 94.8107 102.416 95.248 101.904C95.696 101.381 95.92 100.667 95.92 99.76C95.92 98.8533 95.696 98.144 95.248 97.632C94.8107 97.1093 94.2027 96.848 93.424 96.848C92.6347 96.848 92.0107 97.1093 91.552 97.632C91.104 98.144 90.88 98.8533 90.88 99.76C90.88 100.667 91.104 101.381 91.552 101.904C92.0107 102.416 92.6347 102.672 93.424 102.672ZM106.942 95.952V104H105.662V102.544C105.428 103.045 105.07 103.435 104.59 103.712C104.121 103.979 103.572 104.112 102.942 104.112C102.228 104.112 101.598 103.941 101.054 103.6C100.521 103.259 100.105 102.779 99.8063 102.16C99.5183 101.531 99.3743 100.8 99.3743 99.968C99.3743 99.136 99.5236 98.4053 99.8223 97.776C100.121 97.136 100.537 96.64 101.07 96.288C101.614 95.936 102.238 95.76 102.942 95.76C103.572 95.76 104.121 95.8987 104.59 96.176C105.06 96.4533 105.417 96.8427 105.662 97.344V95.952H106.942ZM103.198 103.04C103.988 103.04 104.596 102.773 105.022 102.24C105.449 101.696 105.662 100.928 105.662 99.936C105.662 98.944 105.449 98.1813 105.022 97.648C104.596 97.1147 103.988 96.848 103.198 96.848C102.409 96.848 101.79 97.1253 101.342 97.68C100.905 98.224 100.686 98.9867 100.686 99.968C100.686 100.949 100.905 101.707 101.342 102.24C101.78 102.773 102.398 103.04 103.198 103.04ZM116.686 92.224V104H115.406V102.544C115.171 103.045 114.814 103.435 114.334 103.712C113.865 103.979 113.315 104.112 112.686 104.112C111.982 104.112 111.358 103.936 110.814 103.584C110.281 103.232 109.865 102.741 109.566 102.112C109.267 101.472 109.118 100.736 109.118 99.904C109.118 99.072 109.262 98.3467 109.55 97.728C109.849 97.0987 110.27 96.6133 110.814 96.272C111.358 95.9307 111.982 95.76 112.686 95.76C113.315 95.76 113.865 95.8987 114.334 96.176C114.803 96.4427 115.155 96.8213 115.39 97.312V92.224H116.686ZM112.942 103.04C113.731 103.04 114.339 102.773 114.766 102.24C115.193 101.696 115.406 100.928 115.406 99.936C115.406 98.9547 115.193 98.1973 114.766 97.664C114.339 97.12 113.731 96.848 112.942 96.848C112.153 96.848 111.534 97.1147 111.086 97.648C110.649 98.1813 110.43 98.9333 110.43 99.904C110.43 100.896 110.649 101.669 111.086 102.224C111.534 102.768 112.153 103.04 112.942 103.04ZM122.67 104.112C121.912 104.112 121.246 103.941 120.67 103.6C120.094 103.259 119.646 102.773 119.326 102.144C119.016 101.515 118.862 100.779 118.862 99.936C118.862 99.0933 119.016 98.3573 119.326 97.728C119.646 97.0987 120.094 96.6133 120.67 96.272C121.246 95.9307 121.912 95.76 122.67 95.76C123.427 95.76 124.094 95.9307 124.67 96.272C125.246 96.6133 125.688 97.0987 125.998 97.728C126.318 98.3573 126.478 99.0933 126.478 99.936C126.478 100.779 126.318 101.515 125.998 102.144C125.688 102.773 125.246 103.259 124.67 103.6C124.094 103.941 123.427 104.112 122.67 104.112ZM122.67 103.04C123.47 103.04 124.083 102.779 124.51 102.256C124.936 101.723 125.15 100.949 125.15 99.936C125.15 98.9547 124.931 98.1973 124.494 97.664C124.056 97.12 123.448 96.848 122.67 96.848C121.88 96.848 121.267 97.12 120.83 97.664C120.392 98.1973 120.174 98.9547 120.174 99.936C120.174 100.949 120.387 101.723 120.814 102.256C121.251 102.779 121.87 103.04 122.67 103.04ZM132.392 95.76C132.659 95.76 132.904 95.792 133.128 95.856L133.096 97.04C132.851 96.9547 132.568 96.912 132.248 96.912C131.469 96.912 130.888 97.1573 130.504 97.648C130.131 98.128 129.944 98.7147 129.944 99.408V104H128.648V98.208C128.648 97.376 128.605 96.624 128.52 95.952H129.752L129.88 97.44C130.083 96.896 130.408 96.48 130.856 96.192C131.304 95.904 131.816 95.76 132.392 95.76ZM146.325 102.896V104H138.997V103.008L142.981 98.592C143.514 97.9947 143.903 97.456 144.149 96.976C144.394 96.496 144.517 96.016 144.517 95.536C144.517 94.9067 144.335 94.4267 143.973 94.096C143.61 93.7547 143.093 93.584 142.421 93.584C141.333 93.584 140.255 94.0213 139.189 94.896L138.693 93.888C139.141 93.4613 139.706 93.12 140.389 92.864C141.071 92.608 141.759 92.48 142.453 92.48C143.498 92.48 144.325 92.752 144.933 93.296C145.541 93.8293 145.845 94.5547 145.845 95.472C145.845 96.1227 145.695 96.752 145.397 97.36C145.109 97.9573 144.623 98.6293 143.941 99.376L140.693 102.896H146.325Z" fill="white"/>
<circle cx="28" cy="98" r="28" fill="#9B9EAB"/>
<path d="M28 70C12.544 70 0 82.544 0 98C0 113.456 12.544 126 28 126C43.456 126 56 113.456 56 98C56 82.544 43.456 70 28 70ZM28 78.4C32.648 78.4 36.4 82.152 36.4 86.8C36.4 91.448 32.648 95.2 28 95.2C23.352 95.2 19.6 91.448 19.6 86.8C19.6 82.152 23.352 78.4 28 78.4ZM28 118.16C21 118.16 14.812 114.576 11.2 109.144C11.284 103.572 22.4 100.52 28 100.52C33.572 100.52 44.716 103.572 44.8 109.144C41.188 114.576 35 118.16 28 118.16Z" fill="#F9F9F9"/>
<rect x="13" y="182" width="194" height="48" rx="8" fill="#EFAD2D"/>
<path d="M72.92 213.712C73.4 213.797 73.784 213.84 74.072 213.84C74.616 213.84 74.9947 213.685 75.208 213.376C75.432 213.077 75.544 212.56 75.544 211.824V200.608H76.856V211.84C76.856 212.949 76.6533 213.749 76.248 214.24C75.8533 214.731 75.1973 214.976 74.28 214.976C73.9173 214.976 73.464 214.933 72.92 214.848V213.712ZM86.3996 203.952V212H85.1356V210.608C84.8796 211.099 84.5223 211.472 84.0636 211.728C83.605 211.984 83.0876 212.112 82.5116 212.112C81.5623 212.112 80.8423 211.845 80.3516 211.312C79.861 210.779 79.6156 209.989 79.6156 208.944V203.952H80.9116V208.912C80.9116 209.637 81.061 210.171 81.3596 210.512C81.6583 210.853 82.1116 211.024 82.7196 211.024C83.4343 211.024 84.0103 210.795 84.4476 210.336C84.885 209.867 85.1036 209.253 85.1036 208.496V203.952H86.3996ZM96.216 203.952V211.936C96.216 213.131 95.9067 214.032 95.288 214.64C94.68 215.259 93.7787 215.568 92.584 215.568C91.3573 215.568 90.3013 215.291 89.416 214.736L89.64 213.68C90.152 213.968 90.632 214.176 91.08 214.304C91.5387 214.432 92.04 214.496 92.584 214.496C93.3627 214.496 93.9493 214.288 94.344 213.872C94.7387 213.467 94.936 212.859 94.936 212.048V210.144C94.6907 210.656 94.328 211.056 93.848 211.344C93.3787 211.621 92.8187 211.76 92.168 211.76C91.464 211.76 90.8347 211.595 90.28 211.264C89.736 210.933 89.3147 210.464 89.016 209.856C88.7173 209.248 88.568 208.549 88.568 207.76C88.568 206.971 88.7173 206.272 89.016 205.664C89.3147 205.056 89.736 204.587 90.28 204.256C90.8347 203.925 91.464 203.76 92.168 203.76C92.808 203.76 93.3627 203.899 93.832 204.176C94.312 204.453 94.6747 204.843 94.92 205.344V203.952H96.216ZM92.424 210.672C93.2027 210.672 93.8107 210.416 94.248 209.904C94.696 209.381 94.92 208.667 94.92 207.76C94.92 206.853 94.696 206.144 94.248 205.632C93.8107 205.109 93.2027 204.848 92.424 204.848C91.6347 204.848 91.0107 205.109 90.552 205.632C90.104 206.144 89.88 206.853 89.88 207.76C89.88 208.667 90.104 209.381 90.552 209.904C91.0107 210.416 91.6347 210.672 92.424 210.672ZM105.942 203.952V212H104.662V210.544C104.428 211.045 104.07 211.435 103.59 211.712C103.121 211.979 102.572 212.112 101.942 212.112C101.228 212.112 100.598 211.941 100.054 211.6C99.5209 211.259 99.1049 210.779 98.8063 210.16C98.5183 209.531 98.3743 208.8 98.3743 207.968C98.3743 207.136 98.5236 206.405 98.8223 205.776C99.1209 205.136 99.5369 204.64 100.07 204.288C100.614 203.936 101.238 203.76 101.942 203.76C102.572 203.76 103.121 203.899 103.59 204.176C104.06 204.453 104.417 204.843 104.662 205.344V203.952H105.942ZM102.198 211.04C102.988 211.04 103.596 210.773 104.022 210.24C104.449 209.696 104.662 208.928 104.662 207.936C104.662 206.944 104.449 206.181 104.022 205.648C103.596 205.115 102.988 204.848 102.198 204.848C101.409 204.848 100.79 205.125 100.342 205.68C99.9049 206.224 99.6863 206.987 99.6863 207.968C99.6863 208.949 99.9049 209.707 100.342 210.24C100.78 210.773 101.398 211.04 102.198 211.04ZM115.686 200.224V212H114.406V210.544C114.171 211.045 113.814 211.435 113.334 211.712C112.865 211.979 112.315 212.112 111.686 212.112C110.982 212.112 110.358 211.936 109.814 211.584C109.281 211.232 108.865 210.741 108.566 210.112C108.267 209.472 108.118 208.736 108.118 207.904C108.118 207.072 108.262 206.347 108.55 205.728C108.849 205.099 109.27 204.613 109.814 204.272C110.358 203.931 110.982 203.76 111.686 203.76C112.315 203.76 112.865 203.899 113.334 204.176C113.803 204.443 114.155 204.821 114.39 205.312V200.224H115.686ZM111.942 211.04C112.731 211.04 113.339 210.773 113.766 210.24C114.193 209.696 114.406 208.928 114.406 207.936C114.406 206.955 114.193 206.197 113.766 205.664C113.339 205.12 112.731 204.848 111.942 204.848C111.153 204.848 110.534 205.115 110.086 205.648C109.649 206.181 109.43 206.933 109.43 207.904C109.43 208.896 109.649 209.669 110.086 210.224C110.534 210.768 111.153 211.04 111.942 211.04ZM121.67 212.112C120.912 212.112 120.246 211.941 119.67 211.6C119.094 211.259 118.646 210.773 118.326 210.144C118.016 209.515 117.862 208.779 117.862 207.936C117.862 207.093 118.016 206.357 118.326 205.728C118.646 205.099 119.094 204.613 119.67 204.272C120.246 203.931 120.912 203.76 121.67 203.76C122.427 203.76 123.094 203.931 123.67 204.272C124.246 204.613 124.688 205.099 124.998 205.728C125.318 206.357 125.478 207.093 125.478 207.936C125.478 208.779 125.318 209.515 124.998 210.144C124.688 210.773 124.246 211.259 123.67 211.6C123.094 211.941 122.427 212.112 121.67 212.112ZM121.67 211.04C122.47 211.04 123.083 210.779 123.51 210.256C123.936 209.723 124.15 208.949 124.15 207.936C124.15 206.955 123.931 206.197 123.494 205.664C123.056 205.12 122.448 204.848 121.67 204.848C120.88 204.848 120.267 205.12 119.83 205.664C119.392 206.197 119.174 206.955 119.174 207.936C119.174 208.949 119.387 209.723 119.814 210.256C120.251 210.779 120.87 211.04 121.67 211.04ZM131.392 203.76C131.659 203.76 131.904 203.792 132.128 203.856L132.096 205.04C131.851 204.955 131.568 204.912 131.248 204.912C130.469 204.912 129.888 205.157 129.504 205.648C129.131 206.128 128.944 206.715 128.944 207.408V212H127.648V206.208C127.648 205.376 127.605 204.624 127.52 203.952H128.752L128.88 205.44C129.083 204.896 129.408 204.48 129.856 204.192C130.304 203.904 130.816 203.76 131.392 203.76ZM143.037 206.144C143.709 206.336 144.221 206.667 144.573 207.136C144.925 207.605 145.101 208.197 145.101 208.912C145.101 209.904 144.765 210.688 144.093 211.264C143.421 211.829 142.509 212.112 141.357 212.112C140.621 212.112 139.911 211.989 139.229 211.744C138.557 211.499 137.986 211.152 137.517 210.704L138.029 209.696C139.085 210.571 140.183 211.008 141.325 211.008C142.135 211.008 142.749 210.827 143.165 210.464C143.591 210.101 143.805 209.568 143.805 208.864C143.805 207.467 142.93 206.768 141.181 206.768H139.869V205.664H140.925C141.767 205.664 142.413 205.477 142.861 205.104C143.309 204.731 143.533 204.197 143.533 203.504C143.533 202.885 143.346 202.411 142.973 202.08C142.61 201.749 142.093 201.584 141.421 201.584C140.333 201.584 139.255 202.021 138.189 202.896L137.693 201.888C138.151 201.451 138.711 201.109 139.373 200.864C140.045 200.608 140.743 200.48 141.469 200.48C142.493 200.48 143.309 200.741 143.917 201.264C144.535 201.787 144.845 202.491 144.845 203.376C144.845 204.027 144.685 204.597 144.365 205.088C144.045 205.579 143.602 205.931 143.037 206.144Z" fill="white"/>
<circle cx="28" cy="206" r="28" fill="#9B9EAB"/>
<path d="M28 178C12.544 178 0 190.544 0 206C0 221.456 12.544 234 28 234C43.456 234 56 221.456 56 206C56 190.544 43.456 178 28 178ZM28 186.4C32.648 186.4 36.4 190.152 36.4 194.8C36.4 199.448 32.648 203.2 28 203.2C23.352 203.2 19.6 199.448 19.6 194.8C19.6 190.152 23.352 186.4 28 186.4ZM28 226.16C21 226.16 14.812 222.576 11.2 217.144C11.284 211.572 22.4 208.52 28 208.52C33.572 208.52 44.716 211.572 44.8 217.144C41.188 222.576 35 226.16 28 226.16Z" fill="#F9F9F9"/>
<rect x="13" y="252" width="194" height="48" rx="8" fill="#9B9EAB"/>
<path d="M72.92 283.712C73.4 283.797 73.784 283.84 74.072 283.84C74.616 283.84 74.9947 283.685 75.208 283.376C75.432 283.077 75.544 282.56 75.544 281.824V270.608H76.856V281.84C76.856 282.949 76.6533 283.749 76.248 284.24C75.8533 284.731 75.1973 284.976 74.28 284.976C73.9173 284.976 73.464 284.933 72.92 284.848V283.712ZM86.3996 273.952V282H85.1356V280.608C84.8796 281.099 84.5223 281.472 84.0636 281.728C83.605 281.984 83.0876 282.112 82.5116 282.112C81.5623 282.112 80.8423 281.845 80.3516 281.312C79.861 280.779 79.6156 279.989 79.6156 278.944V273.952H80.9116V278.912C80.9116 279.637 81.061 280.171 81.3596 280.512C81.6583 280.853 82.1116 281.024 82.7196 281.024C83.4343 281.024 84.0103 280.795 84.4476 280.336C84.885 279.867 85.1036 279.253 85.1036 278.496V273.952H86.3996ZM96.216 273.952V281.936C96.216 283.131 95.9067 284.032 95.288 284.64C94.68 285.259 93.7787 285.568 92.584 285.568C91.3573 285.568 90.3013 285.291 89.416 284.736L89.64 283.68C90.152 283.968 90.632 284.176 91.08 284.304C91.5387 284.432 92.04 284.496 92.584 284.496C93.3627 284.496 93.9493 284.288 94.344 283.872C94.7387 283.467 94.936 282.859 94.936 282.048V280.144C94.6907 280.656 94.328 281.056 93.848 281.344C93.3787 281.621 92.8187 281.76 92.168 281.76C91.464 281.76 90.8347 281.595 90.28 281.264C89.736 280.933 89.3147 280.464 89.016 279.856C88.7173 279.248 88.568 278.549 88.568 277.76C88.568 276.971 88.7173 276.272 89.016 275.664C89.3147 275.056 89.736 274.587 90.28 274.256C90.8347 273.925 91.464 273.76 92.168 273.76C92.808 273.76 93.3627 273.899 93.832 274.176C94.312 274.453 94.6747 274.843 94.92 275.344V273.952H96.216ZM92.424 280.672C93.2027 280.672 93.8107 280.416 94.248 279.904C94.696 279.381 94.92 278.667 94.92 277.76C94.92 276.853 94.696 276.144 94.248 275.632C93.8107 275.109 93.2027 274.848 92.424 274.848C91.6347 274.848 91.0107 275.109 90.552 275.632C90.104 276.144 89.88 276.853 89.88 277.76C89.88 278.667 90.104 279.381 90.552 279.904C91.0107 280.416 91.6347 280.672 92.424 280.672ZM105.942 273.952V282H104.662V280.544C104.428 281.045 104.07 281.435 103.59 281.712C103.121 281.979 102.572 282.112 101.942 282.112C101.228 282.112 100.598 281.941 100.054 281.6C99.5209 281.259 99.1049 280.779 98.8063 280.16C98.5183 279.531 98.3743 278.8 98.3743 277.968C98.3743 277.136 98.5236 276.405 98.8223 275.776C99.1209 275.136 99.5369 274.64 100.07 274.288C100.614 273.936 101.238 273.76 101.942 273.76C102.572 273.76 103.121 273.899 103.59 274.176C104.06 274.453 104.417 274.843 104.662 275.344V273.952H105.942ZM102.198 281.04C102.988 281.04 103.596 280.773 104.022 280.24C104.449 279.696 104.662 278.928 104.662 277.936C104.662 276.944 104.449 276.181 104.022 275.648C103.596 275.115 102.988 274.848 102.198 274.848C101.409 274.848 100.79 275.125 100.342 275.68C99.9049 276.224 99.6863 276.987 99.6863 277.968C99.6863 278.949 99.9049 279.707 100.342 280.24C100.78 280.773 101.398 281.04 102.198 281.04ZM115.686 270.224V282H114.406V280.544C114.171 281.045 113.814 281.435 113.334 281.712C112.865 281.979 112.315 282.112 111.686 282.112C110.982 282.112 110.358 281.936 109.814 281.584C109.281 281.232 108.865 280.741 108.566 280.112C108.267 279.472 108.118 278.736 108.118 277.904C108.118 277.072 108.262 276.347 108.55 275.728C108.849 275.099 109.27 274.613 109.814 274.272C110.358 273.931 110.982 273.76 111.686 273.76C112.315 273.76 112.865 273.899 113.334 274.176C113.803 274.443 114.155 274.821 114.39 275.312V270.224H115.686ZM111.942 281.04C112.731 281.04 113.339 280.773 113.766 280.24C114.193 279.696 114.406 278.928 114.406 277.936C114.406 276.955 114.193 276.197 113.766 275.664C113.339 275.12 112.731 274.848 111.942 274.848C111.153 274.848 110.534 275.115 110.086 275.648C109.649 276.181 109.43 276.933 109.43 277.904C109.43 278.896 109.649 279.669 110.086 280.224C110.534 280.768 111.153 281.04 111.942 281.04ZM121.67 282.112C120.912 282.112 120.246 281.941 119.67 281.6C119.094 281.259 118.646 280.773 118.326 280.144C118.016 279.515 117.862 278.779 117.862 277.936C117.862 277.093 118.016 276.357 118.326 275.728C118.646 275.099 119.094 274.613 119.67 274.272C120.246 273.931 120.912 273.76 121.67 273.76C122.427 273.76 123.094 273.931 123.67 274.272C124.246 274.613 124.688 275.099 124.998 275.728C125.318 276.357 125.478 277.093 125.478 277.936C125.478 278.779 125.318 279.515 124.998 280.144C124.688 280.773 124.246 281.259 123.67 281.6C123.094 281.941 122.427 282.112 121.67 282.112ZM121.67 281.04C122.47 281.04 123.083 280.779 123.51 280.256C123.936 279.723 124.15 278.949 124.15 277.936C124.15 276.955 123.931 276.197 123.494 275.664C123.056 275.12 122.448 274.848 121.67 274.848C120.88 274.848 120.267 275.12 119.83 275.664C119.392 276.197 119.174 276.955 119.174 277.936C119.174 278.949 119.387 279.723 119.814 280.256C120.251 280.779 120.87 281.04 121.67 281.04ZM131.392 273.76C131.659 273.76 131.904 273.792 132.128 273.856L132.096 275.04C131.851 274.955 131.568 274.912 131.248 274.912C130.469 274.912 129.888 275.157 129.504 275.648C129.131 276.128 128.944 276.715 128.944 277.408V282H127.648V276.208C127.648 275.376 127.605 274.624 127.52 273.952H128.752L128.88 275.44C129.083 274.896 129.408 274.48 129.856 274.192C130.304 273.904 130.816 273.76 131.392 273.76ZM145.741 279.52H144.013V282H142.701V279.52H137.453V278.528L142.941 270.608H144.013V278.432H145.741V279.52ZM142.701 278.432V272.832L138.813 278.432H142.701Z" fill="white"/>
<circle cx="28" cy="276" r="28" fill="#9B9EAB"/>
<path d="M28 248C12.544 248 0 260.544 0 276C0 291.456 12.544 304 28 304C43.456 304 56 291.456 56 276C56 260.544 43.456 248 28 248ZM28 256.4C32.648 256.4 36.4 260.152 36.4 264.8C36.4 269.448 32.648 273.2 28 273.2C23.352 273.2 19.6 269.448 19.6 264.8C19.6 260.152 23.352 256.4 28 256.4ZM28 296.16C21 296.16 14.812 292.576 11.2 287.144C11.284 281.572 22.4 278.52 28 278.52C33.572 278.52 44.716 281.572 44.8 287.144C41.188 292.576 35 296.16 28 296.16Z" fill="#F9F9F9"/>
<rect x="14" y="358" width="194" height="48" rx="8" fill="#EFAD2D"/>
<path d="M73.92 389.712C74.4 389.797 74.784 389.84 75.072 389.84C75.616 389.84 75.9947 389.685 76.208 389.376C76.432 389.077 76.544 388.56 76.544 387.824V376.608H77.856V387.84C77.856 388.949 77.6533 389.749 77.248 390.24C76.8533 390.731 76.1973 390.976 75.28 390.976C74.9173 390.976 74.464 390.933 73.92 390.848V389.712ZM87.3996 379.952V388H86.1356V386.608C85.8796 387.099 85.5223 387.472 85.0636 387.728C84.605 387.984 84.0876 388.112 83.5116 388.112C82.5623 388.112 81.8423 387.845 81.3516 387.312C80.861 386.779 80.6156 385.989 80.6156 384.944V379.952H81.9116V384.912C81.9116 385.637 82.061 386.171 82.3596 386.512C82.6583 386.853 83.1116 387.024 83.7196 387.024C84.4343 387.024 85.0103 386.795 85.4476 386.336C85.885 385.867 86.1036 385.253 86.1036 384.496V379.952H87.3996ZM97.216 379.952V387.936C97.216 389.131 96.9067 390.032 96.288 390.64C95.68 391.259 94.7787 391.568 93.584 391.568C92.3573 391.568 91.3013 391.291 90.416 390.736L90.64 389.68C91.152 389.968 91.632 390.176 92.08 390.304C92.5387 390.432 93.04 390.496 93.584 390.496C94.3627 390.496 94.9493 390.288 95.344 389.872C95.7387 389.467 95.936 388.859 95.936 388.048V386.144C95.6907 386.656 95.328 387.056 94.848 387.344C94.3787 387.621 93.8187 387.76 93.168 387.76C92.464 387.76 91.8347 387.595 91.28 387.264C90.736 386.933 90.3147 386.464 90.016 385.856C89.7173 385.248 89.568 384.549 89.568 383.76C89.568 382.971 89.7173 382.272 90.016 381.664C90.3147 381.056 90.736 380.587 91.28 380.256C91.8347 379.925 92.464 379.76 93.168 379.76C93.808 379.76 94.3627 379.899 94.832 380.176C95.312 380.453 95.6747 380.843 95.92 381.344V379.952H97.216ZM93.424 386.672C94.2027 386.672 94.8107 386.416 95.248 385.904C95.696 385.381 95.92 384.667 95.92 383.76C95.92 382.853 95.696 382.144 95.248 381.632C94.8107 381.109 94.2027 380.848 93.424 380.848C92.6347 380.848 92.0107 381.109 91.552 381.632C91.104 382.144 90.88 382.853 90.88 383.76C90.88 384.667 91.104 385.381 91.552 385.904C92.0107 386.416 92.6347 386.672 93.424 386.672ZM106.942 379.952V388H105.662V386.544C105.428 387.045 105.07 387.435 104.59 387.712C104.121 387.979 103.572 388.112 102.942 388.112C102.228 388.112 101.598 387.941 101.054 387.6C100.521 387.259 100.105 386.779 99.8063 386.16C99.5183 385.531 99.3743 384.8 99.3743 383.968C99.3743 383.136 99.5236 382.405 99.8223 381.776C100.121 381.136 100.537 380.64 101.07 380.288C101.614 379.936 102.238 379.76 102.942 379.76C103.572 379.76 104.121 379.899 104.59 380.176C105.06 380.453 105.417 380.843 105.662 381.344V379.952H106.942ZM103.198 387.04C103.988 387.04 104.596 386.773 105.022 386.24C105.449 385.696 105.662 384.928 105.662 383.936C105.662 382.944 105.449 382.181 105.022 381.648C104.596 381.115 103.988 380.848 103.198 380.848C102.409 380.848 101.79 381.125 101.342 381.68C100.905 382.224 100.686 382.987 100.686 383.968C100.686 384.949 100.905 385.707 101.342 386.24C101.78 386.773 102.398 387.04 103.198 387.04ZM116.686 376.224V388H115.406V386.544C115.171 387.045 114.814 387.435 114.334 387.712C113.865 387.979 113.315 388.112 112.686 388.112C111.982 388.112 111.358 387.936 110.814 387.584C110.281 387.232 109.865 386.741 109.566 386.112C109.267 385.472 109.118 384.736 109.118 383.904C109.118 383.072 109.262 382.347 109.55 381.728C109.849 381.099 110.27 380.613 110.814 380.272C111.358 379.931 111.982 379.76 112.686 379.76C113.315 379.76 113.865 379.899 114.334 380.176C114.803 380.443 115.155 380.821 115.39 381.312V376.224H116.686ZM112.942 387.04C113.731 387.04 114.339 386.773 114.766 386.24C115.193 385.696 115.406 384.928 115.406 383.936C115.406 382.955 115.193 382.197 114.766 381.664C114.339 381.12 113.731 380.848 112.942 380.848C112.153 380.848 111.534 381.115 111.086 381.648C110.649 382.181 110.43 382.933 110.43 383.904C110.43 384.896 110.649 385.669 111.086 386.224C111.534 386.768 112.153 387.04 112.942 387.04ZM122.67 388.112C121.912 388.112 121.246 387.941 120.67 387.6C120.094 387.259 119.646 386.773 119.326 386.144C119.016 385.515 118.862 384.779 118.862 383.936C118.862 383.093 119.016 382.357 119.326 381.728C119.646 381.099 120.094 380.613 120.67 380.272C121.246 379.931 121.912 379.76 122.67 379.76C123.427 379.76 124.094 379.931 124.67 380.272C125.246 380.613 125.688 381.099 125.998 381.728C126.318 382.357 126.478 383.093 126.478 383.936C126.478 384.779 126.318 385.515 125.998 386.144C125.688 386.773 125.246 387.259 124.67 387.6C124.094 387.941 123.427 388.112 122.67 388.112ZM122.67 387.04C123.47 387.04 124.083 386.779 124.51 386.256C124.936 385.723 125.15 384.949 125.15 383.936C125.15 382.955 124.931 382.197 124.494 381.664C124.056 381.12 123.448 380.848 122.67 380.848C121.88 380.848 121.267 381.12 120.83 381.664C120.392 382.197 120.174 382.955 120.174 383.936C120.174 384.949 120.387 385.723 120.814 386.256C121.251 386.779 121.87 387.04 122.67 387.04ZM132.392 379.76C132.659 379.76 132.904 379.792 133.128 379.856L133.096 381.04C132.851 380.955 132.568 380.912 132.248 380.912C131.469 380.912 130.888 381.157 130.504 381.648C130.131 382.128 129.944 382.715 129.944 383.408V388H128.648V382.208C128.648 381.376 128.605 380.624 128.52 379.952H129.752L129.88 381.44C130.083 380.896 130.408 380.48 130.856 380.192C131.304 379.904 131.816 379.76 132.392 379.76ZM142.949 380.848C143.663 380.848 144.287 381.003 144.821 381.312C145.365 381.611 145.781 382.032 146.069 382.576C146.357 383.12 146.501 383.749 146.501 384.464C146.501 385.179 146.341 385.813 146.021 386.368C145.711 386.923 145.263 387.355 144.677 387.664C144.101 387.963 143.423 388.112 142.645 388.112C141.951 388.112 141.269 387.989 140.597 387.744C139.925 387.488 139.359 387.141 138.901 386.704L139.397 385.696C140.453 386.571 141.535 387.008 142.645 387.008C143.445 387.008 144.069 386.784 144.517 386.336C144.975 385.877 145.205 385.259 145.205 384.48C145.205 383.723 144.981 383.115 144.533 382.656C144.085 382.187 143.487 381.952 142.741 381.952C141.653 381.952 140.783 382.395 140.133 383.28H139.221V376.608H146.053V377.696H140.533V381.76C141.162 381.152 141.967 380.848 142.949 380.848Z" fill="white"/>
<circle cx="28" cy="382" r="28" fill="#9B9EAB"/>
<path d="M28 354C12.544 354 0 366.544 0 382C0 397.456 12.544 410 28 410C43.456 410 56 397.456 56 382C56 366.544 43.456 354 28 354ZM28 362.4C32.648 362.4 36.4 366.152 36.4 370.8C36.4 375.448 32.648 379.2 28 379.2C23.352 379.2 19.6 375.448 19.6 370.8C19.6 366.152 23.352 362.4 28 362.4ZM28 402.16C21 402.16 14.812 398.576 11.2 393.144C11.284 387.572 22.4 384.52 28 384.52C33.572 384.52 44.716 387.572 44.8 393.144C41.188 398.576 35 402.16 28 402.16Z" fill="#F9F9F9"/>
<rect x="14" y="428" width="194" height="48" rx="8" fill="#9B9EAB"/>
<path d="M73.92 459.712C74.4 459.797 74.784 459.84 75.072 459.84C75.616 459.84 75.9947 459.685 76.208 459.376C76.432 459.077 76.544 458.56 76.544 457.824V446.608H77.856V457.84C77.856 458.949 77.6533 459.749 77.248 460.24C76.8533 460.731 76.1973 460.976 75.28 460.976C74.9173 460.976 74.464 460.933 73.92 460.848V459.712ZM87.3996 449.952V458H86.1356V456.608C85.8796 457.099 85.5223 457.472 85.0636 457.728C84.605 457.984 84.0876 458.112 83.5116 458.112C82.5623 458.112 81.8423 457.845 81.3516 457.312C80.861 456.779 80.6156 455.989 80.6156 454.944V449.952H81.9116V454.912C81.9116 455.637 82.061 456.171 82.3596 456.512C82.6583 456.853 83.1116 457.024 83.7196 457.024C84.4343 457.024 85.0103 456.795 85.4476 456.336C85.885 455.867 86.1036 455.253 86.1036 454.496V449.952H87.3996ZM97.216 449.952V457.936C97.216 459.131 96.9067 460.032 96.288 460.64C95.68 461.259 94.7787 461.568 93.584 461.568C92.3573 461.568 91.3013 461.291 90.416 460.736L90.64 459.68C91.152 459.968 91.632 460.176 92.08 460.304C92.5387 460.432 93.04 460.496 93.584 460.496C94.3627 460.496 94.9493 460.288 95.344 459.872C95.7387 459.467 95.936 458.859 95.936 458.048V456.144C95.6907 456.656 95.328 457.056 94.848 457.344C94.3787 457.621 93.8187 457.76 93.168 457.76C92.464 457.76 91.8347 457.595 91.28 457.264C90.736 456.933 90.3147 456.464 90.016 455.856C89.7173 455.248 89.568 454.549 89.568 453.76C89.568 452.971 89.7173 452.272 90.016 451.664C90.3147 451.056 90.736 450.587 91.28 450.256C91.8347 449.925 92.464 449.76 93.168 449.76C93.808 449.76 94.3627 449.899 94.832 450.176C95.312 450.453 95.6747 450.843 95.92 451.344V449.952H97.216ZM93.424 456.672C94.2027 456.672 94.8107 456.416 95.248 455.904C95.696 455.381 95.92 454.667 95.92 453.76C95.92 452.853 95.696 452.144 95.248 451.632C94.8107 451.109 94.2027 450.848 93.424 450.848C92.6347 450.848 92.0107 451.109 91.552 451.632C91.104 452.144 90.88 452.853 90.88 453.76C90.88 454.667 91.104 455.381 91.552 455.904C92.0107 456.416 92.6347 456.672 93.424 456.672ZM106.942 449.952V458H105.662V456.544C105.428 457.045 105.07 457.435 104.59 457.712C104.121 457.979 103.572 458.112 102.942 458.112C102.228 458.112 101.598 457.941 101.054 457.6C100.521 457.259 100.105 456.779 99.8063 456.16C99.5183 455.531 99.3743 454.8 99.3743 453.968C99.3743 453.136 99.5236 452.405 99.8223 451.776C100.121 451.136 100.537 450.64 101.07 450.288C101.614 449.936 102.238 449.76 102.942 449.76C103.572 449.76 104.121 449.899 104.59 450.176C105.06 450.453 105.417 450.843 105.662 451.344V449.952H106.942ZM103.198 457.04C103.988 457.04 104.596 456.773 105.022 456.24C105.449 455.696 105.662 454.928 105.662 453.936C105.662 452.944 105.449 452.181 105.022 451.648C104.596 451.115 103.988 450.848 103.198 450.848C102.409 450.848 101.79 451.125 101.342 451.68C100.905 452.224 100.686 452.987 100.686 453.968C100.686 454.949 100.905 455.707 101.342 456.24C101.78 456.773 102.398 457.04 103.198 457.04ZM116.686 446.224V458H115.406V456.544C115.171 457.045 114.814 457.435 114.334 457.712C113.865 457.979 113.315 458.112 112.686 458.112C111.982 458.112 111.358 457.936 110.814 457.584C110.281 457.232 109.865 456.741 109.566 456.112C109.267 455.472 109.118 454.736 109.118 453.904C109.118 453.072 109.262 452.347 109.55 451.728C109.849 451.099 110.27 450.613 110.814 450.272C111.358 449.931 111.982 449.76 112.686 449.76C113.315 449.76 113.865 449.899 114.334 450.176C114.803 450.443 115.155 450.821 115.39 451.312V446.224H116.686ZM112.942 457.04C113.731 457.04 114.339 456.773 114.766 456.24C115.193 455.696 115.406 454.928 115.406 453.936C115.406 452.955 115.193 452.197 114.766 451.664C114.339 451.12 113.731 450.848 112.942 450.848C112.153 450.848 111.534 451.115 111.086 451.648C110.649 452.181 110.43 452.933 110.43 453.904C110.43 454.896 110.649 455.669 111.086 456.224C111.534 456.768 112.153 457.04 112.942 457.04ZM122.67 458.112C121.912 458.112 121.246 457.941 120.67 457.6C120.094 457.259 119.646 456.773 119.326 456.144C119.016 455.515 118.862 454.779 118.862 453.936C118.862 453.093 119.016 452.357 119.326 451.728C119.646 451.099 120.094 450.613 120.67 450.272C121.246 449.931 121.912 449.76 122.67 449.76C123.427 449.76 124.094 449.931 124.67 450.272C125.246 450.613 125.688 451.099 125.998 451.728C126.318 452.357 126.478 453.093 126.478 453.936C126.478 454.779 126.318 455.515 125.998 456.144C125.688 456.773 125.246 457.259 124.67 457.6C124.094 457.941 123.427 458.112 122.67 458.112ZM122.67 457.04C123.47 457.04 124.083 456.779 124.51 456.256C124.936 455.723 125.15 454.949 125.15 453.936C125.15 452.955 124.931 452.197 124.494 451.664C124.056 451.12 123.448 450.848 122.67 450.848C121.88 450.848 121.267 451.12 120.83 451.664C120.392 452.197 120.174 452.955 120.174 453.936C120.174 454.949 120.387 455.723 120.814 456.256C121.251 456.779 121.87 457.04 122.67 457.04ZM132.392 449.76C132.659 449.76 132.904 449.792 133.128 449.856L133.096 451.04C132.851 450.955 132.568 450.912 132.248 450.912C131.469 450.912 130.888 451.157 130.504 451.648C130.131 452.128 129.944 452.715 129.944 453.408V458H128.648V452.208C128.648 451.376 128.605 450.624 128.52 449.952H129.752L129.88 451.44C130.083 450.896 130.408 450.48 130.856 450.192C131.304 449.904 131.816 449.76 132.392 449.76ZM142.949 450.848C143.642 450.848 144.255 451.003 144.789 451.312C145.333 451.611 145.754 452.037 146.053 452.592C146.351 453.136 146.501 453.76 146.501 454.464C146.501 455.168 146.341 455.797 146.021 456.352C145.711 456.907 145.279 457.344 144.725 457.664C144.17 457.973 143.541 458.128 142.837 458.128C141.461 458.128 140.399 457.648 139.653 456.688C138.906 455.728 138.533 454.363 138.533 452.592C138.533 451.312 138.703 450.213 139.045 449.296C139.397 448.379 139.898 447.68 140.549 447.2C141.21 446.72 141.999 446.48 142.917 446.48C143.578 446.48 144.218 446.603 144.837 446.848C145.466 447.093 146.015 447.44 146.485 447.888L145.989 448.896C145.455 448.448 144.943 448.117 144.453 447.904C143.962 447.691 143.461 447.584 142.949 447.584C141.967 447.584 141.205 448.021 140.661 448.896C140.117 449.771 139.845 450.997 139.845 452.576V452.816C140.09 452.208 140.49 451.728 141.045 451.376C141.599 451.024 142.234 450.848 142.949 450.848ZM142.773 457.024C143.498 457.024 144.085 456.795 144.533 456.336C144.981 455.867 145.205 455.248 145.205 454.48C145.205 453.723 144.975 453.115 144.517 452.656C144.069 452.187 143.482 451.952 142.757 451.952C142.01 451.952 141.402 452.187 140.933 452.656C140.463 453.125 140.229 453.733 140.229 454.48C140.229 455.237 140.463 455.851 140.933 456.32C141.402 456.789 142.015 457.024 142.773 457.024Z" fill="white"/>
<circle cx="28" cy="452" r="28" fill="#9B9EAB"/>
<path d="M28 424C12.544 424 0 436.544 0 452C0 467.456 12.544 480 28 480C43.456 480 56 467.456 56 452C56 436.544 43.456 424 28 424ZM28 432.4C32.648 432.4 36.4 436.152 36.4 440.8C36.4 445.448 32.648 449.2 28 449.2C23.352 449.2 19.6 445.448 19.6 440.8C19.6 436.152 23.352 432.4 28 432.4ZM28 472.16C21 472.16 14.812 468.576 11.2 463.144C11.284 457.572 22.4 454.52 28 454.52C33.572 454.52 44.716 457.572 44.8 463.144C41.188 468.576 35 472.16 28 472.16Z" fill="#F9F9F9"/>
<rect x="14" y="535" width="194" height="48" rx="8" fill="#EFAD2D"/>
<path d="M73.92 566.712C74.4 566.797 74.784 566.84 75.072 566.84C75.616 566.84 75.9947 566.685 76.208 566.376C76.432 566.077 76.544 565.56 76.544 564.824V553.608H77.856V564.84C77.856 565.949 77.6533 566.749 77.248 567.24C76.8533 567.731 76.1973 567.976 75.28 567.976C74.9173 567.976 74.464 567.933 73.92 567.848V566.712ZM87.3996 556.952V565H86.1356V563.608C85.8796 564.099 85.5223 564.472 85.0636 564.728C84.605 564.984 84.0876 565.112 83.5116 565.112C82.5623 565.112 81.8423 564.845 81.3516 564.312C80.861 563.779 80.6156 562.989 80.6156 561.944V556.952H81.9116V561.912C81.9116 562.637 82.061 563.171 82.3596 563.512C82.6583 563.853 83.1116 564.024 83.7196 564.024C84.4343 564.024 85.0103 563.795 85.4476 563.336C85.885 562.867 86.1036 562.253 86.1036 561.496V556.952H87.3996ZM97.216 556.952V564.936C97.216 566.131 96.9067 567.032 96.288 567.64C95.68 568.259 94.7787 568.568 93.584 568.568C92.3573 568.568 91.3013 568.291 90.416 567.736L90.64 566.68C91.152 566.968 91.632 567.176 92.08 567.304C92.5387 567.432 93.04 567.496 93.584 567.496C94.3627 567.496 94.9493 567.288 95.344 566.872C95.7387 566.467 95.936 565.859 95.936 565.048V563.144C95.6907 563.656 95.328 564.056 94.848 564.344C94.3787 564.621 93.8187 564.76 93.168 564.76C92.464 564.76 91.8347 564.595 91.28 564.264C90.736 563.933 90.3147 563.464 90.016 562.856C89.7173 562.248 89.568 561.549 89.568 560.76C89.568 559.971 89.7173 559.272 90.016 558.664C90.3147 558.056 90.736 557.587 91.28 557.256C91.8347 556.925 92.464 556.76 93.168 556.76C93.808 556.76 94.3627 556.899 94.832 557.176C95.312 557.453 95.6747 557.843 95.92 558.344V556.952H97.216ZM93.424 563.672C94.2027 563.672 94.8107 563.416 95.248 562.904C95.696 562.381 95.92 561.667 95.92 560.76C95.92 559.853 95.696 559.144 95.248 558.632C94.8107 558.109 94.2027 557.848 93.424 557.848C92.6347 557.848 92.0107 558.109 91.552 558.632C91.104 559.144 90.88 559.853 90.88 560.76C90.88 561.667 91.104 562.381 91.552 562.904C92.0107 563.416 92.6347 563.672 93.424 563.672ZM106.942 556.952V565H105.662V563.544C105.428 564.045 105.07 564.435 104.59 564.712C104.121 564.979 103.572 565.112 102.942 565.112C102.228 565.112 101.598 564.941 101.054 564.6C100.521 564.259 100.105 563.779 99.8063 563.16C99.5183 562.531 99.3743 561.8 99.3743 560.968C99.3743 560.136 99.5236 559.405 99.8223 558.776C100.121 558.136 100.537 557.64 101.07 557.288C101.614 556.936 102.238 556.76 102.942 556.76C103.572 556.76 104.121 556.899 104.59 557.176C105.06 557.453 105.417 557.843 105.662 558.344V556.952H106.942ZM103.198 564.04C103.988 564.04 104.596 563.773 105.022 563.24C105.449 562.696 105.662 561.928 105.662 560.936C105.662 559.944 105.449 559.181 105.022 558.648C104.596 558.115 103.988 557.848 103.198 557.848C102.409 557.848 101.79 558.125 101.342 558.68C100.905 559.224 100.686 559.987 100.686 560.968C100.686 561.949 100.905 562.707 101.342 563.24C101.78 563.773 102.398 564.04 103.198 564.04ZM116.686 553.224V565H115.406V563.544C115.171 564.045 114.814 564.435 114.334 564.712C113.865 564.979 113.315 565.112 112.686 565.112C111.982 565.112 111.358 564.936 110.814 564.584C110.281 564.232 109.865 563.741 109.566 563.112C109.267 562.472 109.118 561.736 109.118 560.904C109.118 560.072 109.262 559.347 109.55 558.728C109.849 558.099 110.27 557.613 110.814 557.272C111.358 556.931 111.982 556.76 112.686 556.76C113.315 556.76 113.865 556.899 114.334 557.176C114.803 557.443 115.155 557.821 115.39 558.312V553.224H116.686ZM112.942 564.04C113.731 564.04 114.339 563.773 114.766 563.24C115.193 562.696 115.406 561.928 115.406 560.936C115.406 559.955 115.193 559.197 114.766 558.664C114.339 558.12 113.731 557.848 112.942 557.848C112.153 557.848 111.534 558.115 111.086 558.648C110.649 559.181 110.43 559.933 110.43 560.904C110.43 561.896 110.649 562.669 111.086 563.224C111.534 563.768 112.153 564.04 112.942 564.04ZM122.67 565.112C121.912 565.112 121.246 564.941 120.67 564.6C120.094 564.259 119.646 563.773 119.326 563.144C119.016 562.515 118.862 561.779 118.862 560.936C118.862 560.093 119.016 559.357 119.326 558.728C119.646 558.099 120.094 557.613 120.67 557.272C121.246 556.931 121.912 556.76 122.67 556.76C123.427 556.76 124.094 556.931 124.67 557.272C125.246 557.613 125.688 558.099 125.998 558.728C126.318 559.357 126.478 560.093 126.478 560.936C126.478 561.779 126.318 562.515 125.998 563.144C125.688 563.773 125.246 564.259 124.67 564.6C124.094 564.941 123.427 565.112 122.67 565.112ZM122.67 564.04C123.47 564.04 124.083 563.779 124.51 563.256C124.936 562.723 125.15 561.949 125.15 560.936C125.15 559.955 124.931 559.197 124.494 558.664C124.056 558.12 123.448 557.848 122.67 557.848C121.88 557.848 121.267 558.12 120.83 558.664C120.392 559.197 120.174 559.955 120.174 560.936C120.174 561.949 120.387 562.723 120.814 563.256C121.251 563.779 121.87 564.04 122.67 564.04ZM132.392 556.76C132.659 556.76 132.904 556.792 133.128 556.856L133.096 558.04C132.851 557.955 132.568 557.912 132.248 557.912C131.469 557.912 130.888 558.157 130.504 558.648C130.131 559.128 129.944 559.715 129.944 560.408V565H128.648V559.208C128.648 558.376 128.605 557.624 128.52 556.952H129.752L129.88 558.44C130.083 557.896 130.408 557.48 130.856 557.192C131.304 556.904 131.816 556.76 132.392 556.76ZM146.229 553.608V554.584L140.885 565H139.477L144.789 554.712H138.709V553.608H146.229Z" fill="white"/>
<circle cx="28" cy="559" r="28" fill="#9B9EAB"/>
<path d="M28 531C12.544 531 0 543.544 0 559C0 574.456 12.544 587 28 587C43.456 587 56 574.456 56 559C56 543.544 43.456 531 28 531ZM28 539.4C32.648 539.4 36.4 543.152 36.4 547.8C36.4 552.448 32.648 556.2 28 556.2C23.352 556.2 19.6 552.448 19.6 547.8C19.6 543.152 23.352 539.4 28 539.4ZM28 579.16C21 579.16 14.812 575.576 11.2 570.144C11.284 564.572 22.4 561.52 28 561.52C33.572 561.52 44.716 564.572 44.8 570.144C41.188 575.576 35 579.16 28 579.16Z" fill="#F9F9F9"/>
<rect x="14" y="605" width="194" height="48" rx="8" fill="#9B9EAB"/>
<path d="M73.92 636.712C74.4 636.797 74.784 636.84 75.072 636.84C75.616 636.84 75.9947 636.685 76.208 636.376C76.432 636.077 76.544 635.56 76.544 634.824V623.608H77.856V634.84C77.856 635.949 77.6533 636.749 77.248 637.24C76.8533 637.731 76.1973 637.976 75.28 637.976C74.9173 637.976 74.464 637.933 73.92 637.848V636.712ZM87.3996 626.952V635H86.1356V633.608C85.8796 634.099 85.5223 634.472 85.0636 634.728C84.605 634.984 84.0876 635.112 83.5116 635.112C82.5623 635.112 81.8423 634.845 81.3516 634.312C80.861 633.779 80.6156 632.989 80.6156 631.944V626.952H81.9116V631.912C81.9116 632.637 82.061 633.171 82.3596 633.512C82.6583 633.853 83.1116 634.024 83.7196 634.024C84.4343 634.024 85.0103 633.795 85.4476 633.336C85.885 632.867 86.1036 632.253 86.1036 631.496V626.952H87.3996ZM97.216 626.952V634.936C97.216 636.131 96.9067 637.032 96.288 637.64C95.68 638.259 94.7787 638.568 93.584 638.568C92.3573 638.568 91.3013 638.291 90.416 637.736L90.64 636.68C91.152 636.968 91.632 637.176 92.08 637.304C92.5387 637.432 93.04 637.496 93.584 637.496C94.3627 637.496 94.9493 637.288 95.344 636.872C95.7387 636.467 95.936 635.859 95.936 635.048V633.144C95.6907 633.656 95.328 634.056 94.848 634.344C94.3787 634.621 93.8187 634.76 93.168 634.76C92.464 634.76 91.8347 634.595 91.28 634.264C90.736 633.933 90.3147 633.464 90.016 632.856C89.7173 632.248 89.568 631.549 89.568 630.76C89.568 629.971 89.7173 629.272 90.016 628.664C90.3147 628.056 90.736 627.587 91.28 627.256C91.8347 626.925 92.464 626.76 93.168 626.76C93.808 626.76 94.3627 626.899 94.832 627.176C95.312 627.453 95.6747 627.843 95.92 628.344V626.952H97.216ZM93.424 633.672C94.2027 633.672 94.8107 633.416 95.248 632.904C95.696 632.381 95.92 631.667 95.92 630.76C95.92 629.853 95.696 629.144 95.248 628.632C94.8107 628.109 94.2027 627.848 93.424 627.848C92.6347 627.848 92.0107 628.109 91.552 628.632C91.104 629.144 90.88 629.853 90.88 630.76C90.88 631.667 91.104 632.381 91.552 632.904C92.0107 633.416 92.6347 633.672 93.424 633.672ZM106.942 626.952V635H105.662V633.544C105.428 634.045 105.07 634.435 104.59 634.712C104.121 634.979 103.572 635.112 102.942 635.112C102.228 635.112 101.598 634.941 101.054 634.6C100.521 634.259 100.105 633.779 99.8063 633.16C99.5183 632.531 99.3743 631.8 99.3743 630.968C99.3743 630.136 99.5236 629.405 99.8223 628.776C100.121 628.136 100.537 627.64 101.07 627.288C101.614 626.936 102.238 626.76 102.942 626.76C103.572 626.76 104.121 626.899 104.59 627.176C105.06 627.453 105.417 627.843 105.662 628.344V626.952H106.942ZM103.198 634.04C103.988 634.04 104.596 633.773 105.022 633.24C105.449 632.696 105.662 631.928 105.662 630.936C105.662 629.944 105.449 629.181 105.022 628.648C104.596 628.115 103.988 627.848 103.198 627.848C102.409 627.848 101.79 628.125 101.342 628.68C100.905 629.224 100.686 629.987 100.686 630.968C100.686 631.949 100.905 632.707 101.342 633.24C101.78 633.773 102.398 634.04 103.198 634.04ZM116.686 623.224V635H115.406V633.544C115.171 634.045 114.814 634.435 114.334 634.712C113.865 634.979 113.315 635.112 112.686 635.112C111.982 635.112 111.358 634.936 110.814 634.584C110.281 634.232 109.865 633.741 109.566 633.112C109.267 632.472 109.118 631.736 109.118 630.904C109.118 630.072 109.262 629.347 109.55 628.728C109.849 628.099 110.27 627.613 110.814 627.272C111.358 626.931 111.982 626.76 112.686 626.76C113.315 626.76 113.865 626.899 114.334 627.176C114.803 627.443 115.155 627.821 115.39 628.312V623.224H116.686ZM112.942 634.04C113.731 634.04 114.339 633.773 114.766 633.24C115.193 632.696 115.406 631.928 115.406 630.936C115.406 629.955 115.193 629.197 114.766 628.664C114.339 628.12 113.731 627.848 112.942 627.848C112.153 627.848 111.534 628.115 111.086 628.648C110.649 629.181 110.43 629.933 110.43 630.904C110.43 631.896 110.649 632.669 111.086 633.224C111.534 633.768 112.153 634.04 112.942 634.04ZM122.67 635.112C121.912 635.112 121.246 634.941 120.67 634.6C120.094 634.259 119.646 633.773 119.326 633.144C119.016 632.515 118.862 631.779 118.862 630.936C118.862 630.093 119.016 629.357 119.326 628.728C119.646 628.099 120.094 627.613 120.67 627.272C121.246 626.931 121.912 626.76 122.67 626.76C123.427 626.76 124.094 626.931 124.67 627.272C125.246 627.613 125.688 628.099 125.998 628.728C126.318 629.357 126.478 630.093 126.478 630.936C126.478 631.779 126.318 632.515 125.998 633.144C125.688 633.773 125.246 634.259 124.67 634.6C124.094 634.941 123.427 635.112 122.67 635.112ZM122.67 634.04C123.47 634.04 124.083 633.779 124.51 633.256C124.936 632.723 125.15 631.949 125.15 630.936C125.15 629.955 124.931 629.197 124.494 628.664C124.056 628.12 123.448 627.848 122.67 627.848C121.88 627.848 121.267 628.12 120.83 628.664C120.392 629.197 120.174 629.955 120.174 630.936C120.174 631.949 120.387 632.723 120.814 633.256C121.251 633.779 121.87 634.04 122.67 634.04ZM132.392 626.76C132.659 626.76 132.904 626.792 133.128 626.856L133.096 628.04C132.851 627.955 132.568 627.912 132.248 627.912C131.469 627.912 130.888 628.157 130.504 628.648C130.131 629.128 129.944 629.715 129.944 630.408V635H128.648V629.208C128.648 628.376 128.605 627.624 128.52 626.952H129.752L129.88 628.44C130.083 627.896 130.408 627.48 130.856 627.192C131.304 626.904 131.816 626.76 132.392 626.76ZM144.197 629.144C144.943 629.347 145.519 629.699 145.925 630.2C146.341 630.691 146.549 631.283 146.549 631.976C146.549 632.947 146.181 633.715 145.445 634.28C144.709 634.835 143.717 635.112 142.469 635.112C141.221 635.112 140.229 634.835 139.493 634.28C138.757 633.715 138.389 632.947 138.389 631.976C138.389 631.283 138.597 630.685 139.013 630.184C139.439 629.683 140.021 629.336 140.757 629.144C140.074 628.941 139.551 628.611 139.189 628.152C138.826 627.683 138.645 627.133 138.645 626.504C138.645 625.896 138.805 625.368 139.125 624.92C139.445 624.461 139.893 624.109 140.469 623.864C141.055 623.608 141.722 623.48 142.469 623.48C143.215 623.48 143.877 623.608 144.453 623.864C145.039 624.109 145.493 624.461 145.813 624.92C146.133 625.368 146.293 625.896 146.293 626.504C146.293 627.133 146.106 627.683 145.733 628.152C145.37 628.611 144.858 628.941 144.197 629.144ZM139.957 626.6C139.957 627.208 140.181 627.704 140.629 628.088C141.087 628.461 141.701 628.691 142.469 628.776C143.237 628.691 143.845 628.461 144.293 628.088C144.751 627.704 144.981 627.208 144.981 626.6C144.981 625.971 144.757 625.475 144.309 625.112C143.871 624.749 143.258 624.568 142.469 624.568C141.679 624.568 141.061 624.749 140.613 625.112C140.175 625.475 139.957 625.971 139.957 626.6ZM142.469 634.024C143.365 634.024 144.053 633.843 144.533 633.48C145.013 633.117 145.253 632.589 145.253 631.896C145.253 631.267 144.997 630.765 144.485 630.392C143.983 630.008 143.311 629.773 142.469 629.688C141.626 629.773 140.949 630.008 140.437 630.392C139.935 630.765 139.685 631.267 139.685 631.896C139.685 632.589 139.925 633.117 140.405 633.48C140.885 633.843 141.573 634.024 142.469 634.024Z" fill="white"/>
<circle cx="28" cy="629" r="28" fill="#9B9EAB"/>
<path d="M28 601C12.544 601 0 613.544 0 629C0 644.456 12.544 657 28 657C43.456 657 56 644.456 56 629C56 613.544 43.456 601 28 601ZM28 609.4C32.648 609.4 36.4 613.152 36.4 617.8C36.4 622.448 32.648 626.2 28 626.2C23.352 626.2 19.6 622.448 19.6 617.8C19.6 613.152 23.352 609.4 28 609.4ZM28 649.16C21 649.16 14.812 645.576 11.2 640.144C11.284 634.572 22.4 631.52 28 631.52C33.572 631.52 44.716 634.572 44.8 640.144C41.188 645.576 35 649.16 28 649.16Z" fill="#F9F9F9"/>
<defs>
<clipPath id="clip0_1020_8725">
<rect width="72" height="95" fill="white" transform="translate(749 275)"/>
</clipPath>
</defs>
</svg>
