<svg width="50" height="49" viewBox="0 0 50 49" fill="none" xmlns="http://www.w3.org/2000/svg">
<path d="M47.3133 16.3667L33.1966 15.1417L27.6841 2.1625C26.6924 -0.2 23.3091 -0.2 22.3174 2.1625L16.8049 15.1708L2.71743 16.3667C0.150761 16.5708 -0.899239 19.7792 1.05493 21.4708L11.7591 30.7458L8.55076 44.5125C7.96743 47.0208 10.6799 49.0042 12.8966 47.6625L25.0008 40.3708L37.1049 47.6917C39.3216 49.0333 42.0341 47.05 41.4508 44.5417L38.2424 30.7458L48.9466 21.4708C50.9008 19.7792 49.8799 16.5708 47.3133 16.3667ZM25.0008 34.9167L14.0341 41.5375L16.9508 29.0542L7.26743 20.6542L20.0424 19.5458L25.0008 7.79167L29.9883 19.575L42.7633 20.6833L33.0799 29.0833L35.9966 41.5667L25.0008 34.9167Z" fill="#EFAD2D"/>
</svg>
