<svg width="40" height="40" viewBox="0 0 40 40" fill="none" xmlns="http://www.w3.org/2000/svg">
<path d="M21.3276 32.3392V21.066H25.1143L25.6802 16.6699H21.3276V13.8843C21.3276 12.6221 21.6758 11.7516 23.5039 11.7516H25.8107V7.83426C25.419 7.79073 24.0262 7.66016 22.4158 7.66016C19.0643 7.66016 16.7574 9.70586 16.7574 13.4491V16.6699H12.9707V21.066H16.7574V32.3392H21.3276Z" fill="#3D445E"/>
<path d="M35.778 0H4.17845C1.8716 0 0 1.8716 0 4.17845V35.778C0 38.0849 1.8716 39.9565 4.17845 39.9565H35.778C38.0849 39.9565 39.9565 38.0849 39.9565 35.778V4.17845C40 1.8716 38.0849 0 35.778 0ZM37.3449 35.1687C37.3449 36.3439 36.3874 37.3449 35.1687 37.3449H4.78781C3.61262 37.3449 2.61153 36.3874 2.61153 35.1687V4.78781C2.61153 3.61262 3.5691 2.61153 4.78781 2.61153H35.1687C36.3439 2.61153 37.3449 3.5691 37.3449 4.78781V35.1687Z" fill="#3D445E"/>
</svg>
