<svg width="125" height="110" viewBox="0 0 125 110" fill="none" xmlns="http://www.w3.org/2000/svg">
<rect x="8" width="109" height="109" rx="16" fill="url(#paint0_linear_1223_14509)"/>
<mask id="mask0_1223_14509" style="mask-type:alpha" maskUnits="userSpaceOnUse" x="0" y="21" width="125" height="89">
<rect y="21" width="125" height="88.2867" fill="#C4C4C4"/>
</mask>
<g mask="url(#mask0_1223_14509)">
<path d="M77.8435 109.949C77.8435 109.949 67.2283 97.996 66.5921 88.8809L68.099 85.6088C67.9985 84.7407 67.965 83.8392 67.965 82.9043H62.3393H58.2539C58.2539 84.7407 58.053 86.4769 57.7181 88.1129C57.6177 88.6805 57.4837 89.2148 57.3163 89.749C53.7667 102.904 40.9414 109.949 40.9414 109.949H62.3393H77.8435Z" fill="url(#paint1_linear_1223_14509)"/>
<path d="M85.2123 109.95H77.8452C77.8452 109.95 68.3016 99.232 66.7612 90.3506C66.6607 89.8497 66.6272 89.3823 66.5938 88.8815L67.5314 86.8448L68.1006 85.6094C68.1006 85.7429 68.1341 85.9099 68.1341 86.0434C68.2346 86.7446 68.3351 87.4458 68.469 88.1135C68.6029 88.7479 68.7369 89.3489 68.9043 89.9499C72.5544 103.005 85.2123 109.95 85.2123 109.95Z" fill="url(#paint2_linear_1223_14509)"/>
<path d="M52.9307 73.9884C48.5105 73.9884 44.3581 73.4542 40.5742 72.4192C37.0916 71.4509 33.8769 70.0486 30.9635 68.2122C26.0745 65.1071 22.0561 60.8333 19.0089 55.4577C17.8368 53.3543 16.7988 51.0838 15.9281 48.7132C15.2249 46.8101 14.6556 44.8402 14.2203 42.8702C13.4501 39.4646 13.2827 37.1608 13.2827 37.0606L13.1152 34.5898H33.8099L34.3457 39.2309H18.2387C18.3726 39.9988 18.54 40.9337 18.7745 41.9687C19.4442 44.8068 20.7167 49.0471 23.1277 53.2875C29.2222 63.9385 39.2347 69.3474 52.8972 69.3474V73.9884H52.9307Z" fill="#FFCA10"/>
<path d="M73.2207 73.9884C77.6409 73.9884 81.7932 73.4542 85.5772 72.4192C89.0598 71.4509 92.2745 70.0486 95.1879 68.2122C100.077 65.1071 104.095 60.8333 107.143 55.4577C108.315 53.3543 109.353 51.0838 110.223 48.7132C110.927 46.8101 111.496 44.8402 111.931 42.8702C112.701 39.4646 112.869 37.1608 112.869 37.0606L113.003 34.5898H92.308L91.8057 39.2309H107.913C107.779 39.9988 107.611 40.9337 107.377 41.9687C106.707 44.8068 105.435 49.0471 103.024 53.2875C96.9291 63.9385 86.9167 69.3474 73.2542 69.3474V73.9884H73.2207Z" fill="url(#paint3_linear_1223_14509)"/>
<path opacity="0.05" d="M75.9014 81.8359C75.734 82.0697 75.5331 82.27 75.3657 82.4703C75.3322 82.5371 75.2652 82.5705 75.2317 82.6373C74.9303 82.9711 74.6624 83.305 74.3611 83.6055C74.3276 83.6389 74.2606 83.7057 74.2271 83.7391C74.1602 83.8059 74.1267 83.8393 74.0597 83.906C74.0262 83.9728 73.9592 84.0062 73.9257 84.0396C73.7583 84.2065 73.5909 84.3735 73.4234 84.5404C73.3565 84.6072 73.323 84.6406 73.256 84.7074C73.1556 84.8075 73.0886 84.8743 72.9881 84.9745C72.9546 85.0079 72.8877 85.0412 72.8542 85.108C72.6533 85.275 72.4858 85.4419 72.2849 85.6089C72.2179 85.6422 72.1845 85.709 72.1175 85.7424C72.017 85.8092 71.9166 85.9094 71.8161 85.9761C71.7826 86.0095 71.7491 86.0429 71.7156 86.0429C71.4143 86.2766 71.1129 86.5103 70.8115 86.7441C70.778 86.7775 70.711 86.8108 70.6776 86.8442C70.6441 86.8776 70.5771 86.911 70.5436 86.9444C70.5101 86.9778 70.4432 87.0112 70.4097 87.0446C70.3762 87.078 70.3092 87.1113 70.2757 87.1447C70.0078 87.3117 69.7734 87.4786 69.5055 87.6122C69.472 87.6456 69.4386 87.6456 69.4051 87.679C69.3716 87.7123 69.3046 87.7457 69.2711 87.7457C69.2376 87.7791 69.1707 87.8125 69.1372 87.8125C68.9363 87.9127 68.7353 88.0128 68.5679 88.113C68.5344 88.113 68.5344 88.1464 68.5009 88.1464C68.6349 88.7808 68.7688 89.3818 68.9363 89.9828C68.1996 90.1497 67.4963 90.2499 66.7931 90.35C65.4871 90.517 64.2816 90.5504 63.1431 90.5504C60.8995 90.517 58.9573 90.1831 57.3834 89.7824C57.5174 89.2482 57.6513 88.714 57.7852 88.1464C55.2738 86.911 52.8962 84.8743 50.6191 82.2366L70.8785 81.9361L75.9014 81.8359Z" fill="black"/>
<path d="M92.7125 26.377C92.7125 26.5105 92.7125 26.6107 92.7125 26.7442C92.7125 26.811 92.7125 26.8444 92.7125 26.9112C92.7125 27.0113 92.7125 27.1449 92.7125 27.2451C92.7125 27.2784 92.7125 27.3118 92.7125 27.3452C92.7125 27.4788 92.7125 27.5789 92.7125 27.7125C92.7125 27.7459 92.7125 27.7793 92.7125 27.8127C92.7125 27.9462 92.7125 28.0798 92.7125 28.2133C92.7125 28.3469 92.7125 28.4804 92.7125 28.614C92.7125 28.9479 92.679 29.2818 92.679 29.6157C92.679 29.7492 92.679 29.8828 92.679 29.9829C92.679 30.0163 92.679 30.0163 92.679 30.0497C92.679 30.1833 92.679 30.3502 92.6455 30.4838C92.6455 30.6173 92.6455 30.7843 92.6121 30.9178C92.6121 31.0848 92.5786 31.2517 92.5786 31.452C92.5786 31.5522 92.5786 31.6524 92.5451 31.7525C92.5451 31.8193 92.5451 31.9195 92.5451 31.9862C92.5451 32.0864 92.5451 32.1866 92.5116 32.2867C92.5116 32.4537 92.4781 32.654 92.4781 32.821C92.4781 32.9545 92.4446 33.1215 92.4446 33.255C92.4446 33.3886 92.4111 33.5221 92.4111 33.6891V33.7225C92.4111 33.8894 92.3777 34.023 92.3777 34.1899C92.3777 34.3235 92.3442 34.457 92.3442 34.624C92.3442 34.6573 92.3442 34.6573 92.3442 34.6907C92.3442 34.8577 92.3107 34.9912 92.3107 35.1582C92.2772 35.6256 92.2102 36.0931 92.1767 36.5939C92.1432 36.7608 92.1432 36.8944 92.1098 37.0613C92.1098 37.0947 92.1098 37.1281 92.1098 37.1615C92.1098 37.295 92.0763 37.4286 92.0763 37.5622C92.0428 37.7291 92.0428 37.896 92.0093 38.0296C91.9758 38.1965 91.9758 38.3635 91.9423 38.497C91.9088 38.664 91.9088 38.7975 91.8754 38.9645C91.8419 39.098 91.8419 39.2316 91.8084 39.3651C91.8084 39.4319 91.7749 39.4987 91.7749 39.5655C91.7749 39.6656 91.7414 39.7992 91.7414 39.8994C91.6744 40.2666 91.6409 40.6339 91.574 40.9678C91.5405 41.1013 91.5405 41.2349 91.507 41.4018C91.507 41.4686 91.4735 41.5688 91.4735 41.6356C91.4735 41.7357 91.44 41.8359 91.44 41.9361C91.44 41.9695 91.44 42.0028 91.44 42.0362C91.4065 42.1364 91.4065 42.27 91.3731 42.3701C91.3396 42.5371 91.3061 42.704 91.3061 42.8376C91.3061 42.8709 91.3061 42.8709 91.3061 42.9043C91.2726 43.0379 91.2726 43.2048 91.2391 43.3384C91.2056 43.5053 91.1721 43.6389 91.1721 43.8058C91.1721 43.8392 91.1721 43.8392 91.1721 43.8726C91.1386 44.0062 91.1052 44.1731 91.1052 44.3067C91.0717 44.4736 91.0382 44.6405 91.0047 44.7741C90.9712 44.941 90.9377 45.0746 90.9042 45.2415C90.8708 45.4085 90.8373 45.6088 90.8038 45.7758C90.7703 45.9093 90.7368 46.0763 90.7033 46.2098C90.6698 46.3768 90.6363 46.5103 90.6029 46.6773C90.5694 46.8442 90.5359 47.0111 90.5024 47.2115C90.4354 47.5454 90.3685 47.8459 90.3015 48.1797C90.268 48.3133 90.2345 48.4135 90.2345 48.547C90.2345 48.5804 90.201 48.6472 90.201 48.6806C90.1341 49.0145 90.0671 49.3483 89.9666 49.6488C89.9331 49.8158 89.8997 49.9493 89.8662 50.1163C89.8327 50.2832 89.7992 50.4502 89.7657 50.5837C89.7322 50.7507 89.6987 50.9176 89.6652 51.0512C89.6318 51.2181 89.5983 51.3517 89.5648 51.5186C89.4978 51.8525 89.3974 52.153 89.3304 52.4869C89.2969 52.6538 89.2634 52.7874 89.2299 52.9543V52.9877C89.1964 53.1213 89.1629 53.2882 89.1295 53.4218C89.096 53.5887 89.029 53.7223 88.9955 53.8892C88.962 54.0561 88.9285 54.1897 88.8616 54.3566C88.7611 54.6905 88.6941 54.991 88.5937 55.3249C88.5602 55.4919 88.4932 55.6254 88.4597 55.7924C88.4262 55.9259 88.3593 56.0929 88.3258 56.2264V56.2598C88.2923 56.4267 88.2253 56.5603 88.1918 56.7272C88.1918 56.7606 88.1584 56.794 88.1584 56.8608C88.1249 56.961 88.0914 57.0945 88.0579 57.1947C88.0244 57.3616 87.9574 57.4952 87.9239 57.6621C87.8905 57.7957 87.8235 57.9292 87.79 58.0962V58.1296C87.7565 58.2631 87.723 58.3633 87.6895 58.4968C87.6561 58.5636 87.6561 58.6304 87.6226 58.6972C87.6226 58.7306 87.5891 58.7639 87.5891 58.7973C87.5556 58.8975 87.5221 58.9643 87.5221 59.0644C87.4886 59.2314 87.4216 59.3649 87.3882 59.5319C87.3547 59.6654 87.2877 59.799 87.2542 59.9325C87.2542 59.9659 87.2207 59.9993 87.2207 59.9993C87.1872 60.1329 87.1203 60.2998 87.0868 60.4334C87.0533 60.5669 86.9863 60.7005 86.9528 60.834C86.9528 60.8674 86.9528 60.8674 86.9193 60.9008C86.8859 61.0344 86.8189 61.2013 86.7854 61.3349C86.7519 61.4684 86.6849 61.602 86.6515 61.7355C86.618 61.8357 86.5845 61.9025 86.551 62.0026C86.5175 62.0694 86.484 62.1696 86.4505 62.2364C86.3836 62.3699 86.3501 62.5369 86.2831 62.6704C86.2161 62.804 86.1826 62.9709 86.1157 63.1045C85.8478 63.8724 85.5464 64.607 85.2785 65.3415C85.2115 65.4751 85.1781 65.6086 85.1111 65.7422C85.0441 65.8757 85.0106 66.0427 84.9436 66.1762C84.8767 66.3098 84.8432 66.4767 84.7762 66.6103C84.7427 66.7104 84.7092 66.8106 84.6423 66.9108V66.9442C84.6088 67.0109 84.5753 67.1111 84.5418 67.1779C84.4413 67.3782 84.3744 67.5786 84.2739 67.7789C84.2404 67.8457 84.2069 67.9124 84.2069 67.9458C84.1735 68.046 84.1065 68.1795 84.073 68.2797C84.0395 68.3799 83.9725 68.48 83.939 68.5802C83.9056 68.647 83.8721 68.7138 83.8386 68.7805C83.8051 68.8473 83.7716 68.9475 83.7381 69.0143C83.5372 69.4149 83.3698 69.849 83.1689 70.2496C83.1354 70.3164 83.1019 70.4166 83.0684 70.4834C82.4322 71.8189 81.7959 73.0877 81.0927 74.3231C81.0592 74.3898 80.9922 74.49 80.9588 74.5568C80.6239 75.1244 80.3225 75.692 79.9876 76.2262C79.9542 76.293 79.8872 76.3932 79.8537 76.4599C79.7532 76.5935 79.6863 76.727 79.5858 76.894C79.1505 77.5951 78.7152 78.2629 78.2463 78.9307C78.2129 78.9975 78.1459 79.0642 78.1124 79.131C78.0789 79.1978 78.0119 79.2646 77.9785 79.3314C77.945 79.3981 77.878 79.4649 77.8445 79.5317C77.744 79.6986 77.6101 79.8322 77.5096 79.9991C77.4427 80.0993 77.3422 80.1995 77.2752 80.2996C77.2083 80.3998 77.1078 80.5 77.0408 80.6335C76.9739 80.7337 76.9069 80.8005 76.8399 80.9006C76.6055 81.2011 76.3711 81.5016 76.1367 81.8021C75.9693 82.0358 75.7683 82.2362 75.6009 82.4365C75.5674 82.5033 75.5005 82.5367 75.467 82.6034C75.1656 82.9373 74.8977 83.2712 74.5963 83.5717C74.5628 83.6051 74.4959 83.6719 74.4624 83.7053C74.3954 83.772 74.3619 83.8054 74.2949 83.8722C74.2615 83.939 74.1945 83.9724 74.161 84.0058C73.9936 84.1727 73.8261 84.3397 73.6587 84.5066C73.5917 84.5734 73.5582 84.6068 73.4913 84.6735C73.3908 84.7737 73.3238 84.8405 73.2234 84.9407C73.1899 84.974 73.1229 85.0074 73.0894 85.0742C72.8885 85.2411 72.7211 85.4081 72.5202 85.575C72.4532 85.6084 72.4197 85.6752 72.3527 85.7086C72.2523 85.7754 72.1518 85.8755 72.0513 85.9423C72.0179 85.9757 71.9844 86.0091 71.9509 86.0091C71.6495 86.2428 71.3481 86.4765 71.0467 86.7102C71.0133 86.7436 70.9463 86.777 70.9128 86.8104C70.8793 86.8438 70.8123 86.8772 70.7789 86.9106C70.7454 86.944 70.6784 86.9774 70.6449 87.0107C70.6114 87.0441 70.5444 87.0775 70.511 87.1109C70.2431 87.2779 70.0087 87.4448 69.7408 87.5784C69.7073 87.6117 69.6738 87.6117 69.6403 87.6451C69.6068 87.6785 69.5399 87.7119 69.5064 87.7119C69.4729 87.7453 69.4059 87.7787 69.3724 87.7787C69.1715 87.8788 68.9706 87.979 68.8031 88.0792C68.7697 88.0792 68.7697 88.1126 68.7362 88.1126C68.7027 88.1126 68.6692 88.146 68.6357 88.146C68.5687 88.1794 68.5353 88.1793 68.4683 88.2127H68.4348C68.4013 88.2461 68.3678 88.2461 68.3343 88.2795C68.3009 88.2795 68.2674 88.3129 68.2339 88.3129C67.9325 88.4465 67.5976 88.58 67.2963 88.6802C67.2628 88.6802 67.2293 88.7136 67.1958 88.7136H67.1623C67.1288 88.7136 67.0953 88.747 67.0284 88.747C67.0284 88.747 67.0284 88.747 66.9949 88.747C66.9614 88.747 66.8944 88.7803 66.8609 88.7803C66.727 88.8137 66.5596 88.8805 66.4256 88.9139C66.3921 88.9139 66.3586 88.9473 66.2917 88.9473H66.2582C66.2247 88.9473 66.1912 88.9807 66.1577 88.9807C66.1242 88.9807 66.0573 89.0141 66.0238 89.0141C65.9903 89.0141 65.9568 89.0475 65.8898 89.0475C65.8229 89.0475 65.7559 89.0808 65.6889 89.0808C64.9522 89.2478 64.182 89.3146 63.4118 89.3146C61.5701 89.3146 59.7953 88.8471 58.054 88.0124C55.5425 86.777 53.165 84.7403 50.8879 82.1026C40.4401 70.2496 33.4414 45.6756 33.4414 26.377H92.7125Z" fill="url(#paint4_linear_1223_14509)"/>
<path d="M92.7111 26.3777C92.7111 26.5112 92.7111 26.6114 92.7111 26.745C92.7111 26.8117 92.7111 26.8451 92.7111 26.9119C92.7111 27.0121 92.7111 27.1456 92.7111 27.2458C92.7111 27.2792 92.7111 27.3126 92.7111 27.346C92.7111 27.4795 92.7111 27.5797 92.7111 27.7132C92.7111 27.7466 92.7111 27.78 92.7111 27.8134C92.7111 27.947 92.7111 28.0805 92.7111 28.2141C92.7111 28.3476 92.7111 28.4812 92.7111 28.6147C92.7111 28.9486 92.6776 29.2825 92.6776 29.6164C92.6776 29.7499 92.6776 29.8835 92.6776 29.9837C92.6776 30.0171 92.6776 30.0171 92.6776 30.0504C92.6776 30.184 92.6776 30.3509 92.6441 30.4845C92.6441 30.6181 92.6441 30.785 92.6106 30.9186C92.6106 31.0855 92.5771 31.2524 92.5771 31.4528C92.5771 31.5529 92.5772 31.6531 92.5437 31.7533C92.5437 31.82 92.5437 31.9202 92.5437 31.987C92.5437 32.0872 92.5437 32.1873 92.5102 32.2875C92.5102 32.4544 92.4767 32.6548 92.4767 32.8217C92.4767 32.9553 92.4432 33.1222 92.4432 33.2558C92.4432 33.3893 92.4097 33.5229 92.4097 33.6898V33.7232C92.4097 33.8901 92.3762 34.0237 92.3762 34.1906C92.3762 34.3242 92.3427 34.4577 92.3427 34.6247C92.3427 34.6581 92.3427 34.6581 92.3427 34.6915C92.3427 34.8584 92.3093 34.992 92.3093 35.1589C92.2758 35.6264 92.2088 36.0938 92.1753 36.5946C92.1418 36.7616 92.1418 36.8951 92.1083 37.0621C92.1083 37.0955 92.1083 37.1288 92.1083 37.1622C92.1083 37.2958 92.0749 37.4293 92.0749 37.5629C92.0414 37.7298 92.0414 37.8968 92.0079 38.0303C91.9744 38.1973 91.9744 38.3642 91.9409 38.4978C91.9074 38.6647 91.9074 38.7983 91.8739 38.9652C91.8405 39.0988 91.8405 39.2323 91.807 39.3659C91.807 39.4327 91.7735 39.4994 91.7735 39.5662C91.7735 39.6664 91.74 39.7999 91.74 39.9001C91.673 40.2674 91.6395 40.6346 91.5726 40.9685C91.5391 41.1021 91.5391 41.2356 91.5056 41.4026C91.5056 41.4694 91.4721 41.5695 91.4721 41.6363C91.4721 41.7365 91.4386 41.8366 91.4386 41.9368C91.4386 41.9702 91.4386 42.0036 91.4386 42.037C91.4051 42.1371 91.4051 42.2707 91.3716 42.3709C91.3382 42.5378 91.3047 42.7047 91.3047 42.8383C91.3047 42.8717 91.3047 42.8717 91.3047 42.9051C91.2712 43.0386 91.2712 43.2056 91.2377 43.3391C91.2042 43.5061 91.1707 43.6396 91.1707 43.8066C91.1707 43.84 91.1707 43.84 91.1707 43.8733C91.1372 44.0069 91.1037 44.1738 91.1037 44.3074C91.0703 44.4743 91.0368 44.6413 91.0033 44.7748C90.9698 44.9418 90.9363 45.0753 90.9028 45.2423C90.8693 45.4092 90.8359 45.6096 90.8024 45.7765C90.7689 45.9101 90.7354 46.077 90.7019 46.2106C90.6684 46.3775 90.6349 46.511 90.6014 46.678C90.568 46.8449 90.5345 47.0119 90.501 47.2122C90.434 47.5461 90.367 47.8466 90.3001 48.1805C90.2666 48.314 90.2331 48.4142 90.2331 48.5478C90.2331 48.5811 90.1996 48.6479 90.1996 48.6813C90.1326 49.0152 90.0657 49.3491 89.9652 49.6496C89.9317 49.8165 89.8982 49.9501 89.8648 50.117C89.8313 50.284 89.7978 50.4509 89.7643 50.5845C89.7308 50.7514 89.6973 50.9184 89.6638 51.0519C89.6303 51.2188 89.5969 51.3524 89.5634 51.5193C89.4964 51.8532 89.3959 52.1537 89.329 52.4876C89.2955 52.6546 89.262 52.7881 89.2285 52.9551V52.9884C89.195 53.122 89.1615 53.2889 89.128 53.4225C89.0946 53.5894 89.0276 53.723 88.9941 53.8899C88.9606 54.0569 88.9271 54.1904 88.8602 54.3574C88.7597 54.6913 88.6927 54.9918 88.5923 55.3257C88.5588 55.4926 88.4918 55.6262 88.4583 55.7931C88.4248 55.9266 88.3579 56.0936 88.3244 56.2271V56.2605C88.2909 56.4275 88.2239 56.561 88.1904 56.728C88.1904 56.7614 88.1569 56.7948 88.1569 56.8615C88.1235 56.9617 88.09 57.0953 88.0565 57.1954C88.023 57.3624 87.956 57.4959 87.9225 57.6629C87.889 57.7964 87.8221 57.93 87.7886 58.0969V58.1303C87.7551 58.2639 87.7216 58.364 87.6881 58.4976C87.6546 58.5644 87.6546 58.6311 87.6212 58.6979C87.6212 58.7313 87.5877 58.7647 87.5877 58.7981C87.5542 58.8982 87.5207 58.965 87.5207 59.0652C87.4872 59.2321 87.4202 59.3657 87.3867 59.5326C87.3533 59.6662 87.2863 59.7997 87.2528 59.9333C87.2528 59.9667 87.2193 60.0001 87.2193 60.0001C87.1858 60.1336 87.1189 60.3006 87.0854 60.4341C87.0519 60.5677 86.9849 60.7012 86.9514 60.8348C86.9514 60.8682 86.9514 60.8682 86.9179 60.9016C86.8844 61.0351 86.8175 61.2021 86.784 61.3356C86.7505 61.4692 86.6835 61.6027 86.65 61.7363C86.6166 61.8364 86.5831 61.9032 86.5496 62.0034C86.5161 62.0702 86.4826 62.1703 86.4491 62.2371C86.3822 62.3707 86.3487 62.5376 86.2817 62.6712C86.2147 62.8047 86.1812 62.9717 86.1143 63.1052C85.8464 63.8731 85.545 64.6077 85.2771 65.3422C85.2101 65.4758 85.1766 65.6094 85.1097 65.7429C85.0427 65.8765 85.0092 66.0434 84.9422 66.177C84.8753 66.3105 84.8418 66.4775 84.7748 66.611C84.7413 66.7112 84.7078 66.8113 84.6409 66.9115V66.9449C84.6074 67.0117 84.5739 67.1118 84.5404 67.1786C84.4399 67.379 84.373 67.5793 84.2725 67.7796C84.239 67.8464 84.2055 67.9132 84.2055 67.9466C84.172 68.0467 84.1051 68.1803 84.0716 68.2804C84.0381 68.3806 83.9711 68.4808 83.9376 68.5809C83.9042 68.6477 83.8707 68.7145 83.8372 68.7813C83.8037 68.8481 83.7702 68.9482 83.7367 69.015C83.5358 69.4157 83.3684 69.8497 83.1675 70.2504C83.134 70.3172 83.1005 70.4173 83.067 70.4841C82.4307 71.8196 81.7945 73.0884 81.0913 74.3238C81.0578 74.3906 80.9908 74.4907 80.9573 74.5575C80.6225 75.1251 80.3211 75.6927 79.9862 76.2269C79.9527 76.2937 79.8858 76.3939 79.8523 76.4607C79.7518 76.5942 79.6849 76.7278 79.5844 76.8947C79.1491 77.5959 78.7137 78.2636 78.2449 78.9314C78.2114 78.9982 78.1445 79.065 78.111 79.1318C78.0775 79.1985 78.0105 79.2653 77.977 79.3321C77.9436 79.3989 77.8766 79.4656 77.8431 79.5324C77.7426 79.6994 77.6087 79.8329 77.5082 79.9999C77.4413 80.1 77.3408 80.2002 77.2738 80.3004C77.2069 80.4005 77.1064 80.5007 77.0394 80.6342C76.9724 80.7344 76.9055 80.8012 76.8385 80.9014C76.6041 81.2019 76.3697 81.5023 76.1353 81.8028C75.9679 82.0366 75.7669 82.2369 75.5995 82.4372C75.566 82.504 75.499 82.5374 75.4656 82.6042C75.1642 82.9381 74.8963 83.2719 74.5949 83.5724C74.5614 83.6058 74.4945 83.6726 74.461 83.706C74.394 83.7728 74.3605 83.8062 74.2935 83.8729C74.26 83.9397 74.1931 83.9731 74.1596 84.0065C73.9921 84.1734 73.8247 84.3404 73.6573 84.5073C73.5903 84.5741 73.5568 84.6075 73.4898 84.6743C73.3894 84.7744 73.3224 84.8412 73.222 84.9414C73.1885 84.9748 73.1215 85.0082 73.088 85.0749C72.8871 85.2419 72.7197 85.4088 72.5187 85.5758C72.4518 85.6092 72.4183 85.6759 72.3513 85.7093C72.2509 85.7761 72.1504 85.8763 72.0499 85.943C72.0164 85.9764 71.983 86.0098 71.9495 86.0098C71.6481 86.2435 71.3467 86.4773 71.0453 86.711C71.0119 86.7444 70.9449 86.7778 70.9114 86.8111C70.8779 86.8445 70.8109 86.8779 70.7775 86.9113C70.744 86.9447 70.677 86.9781 70.6435 87.0115C70.61 87.0449 70.543 87.0783 70.5096 87.1116C70.2417 87.2786 70.0073 87.4455 69.7394 87.5791C69.7059 87.6125 69.6724 87.6125 69.6389 87.6459C69.6054 87.6792 69.5384 87.7126 69.505 87.7126C69.4715 87.746 69.4045 87.7794 69.371 87.7794C69.1701 87.8796 68.9692 87.9797 68.8017 88.0799C68.7683 88.0799 68.7683 88.1133 68.7348 88.1133C68.7013 88.1133 68.6678 88.1467 68.6343 88.1467C68.5673 88.1801 68.5339 88.1801 68.4669 88.2135H68.4334C68.3999 88.2469 68.3664 88.2469 68.3329 88.2802C68.2994 88.2802 68.266 88.3136 68.2325 88.3136C67.9311 88.4472 67.5962 88.5807 67.2949 88.6809C67.2614 88.6809 67.2279 88.7143 67.1944 88.7143H67.1609C67.1274 88.7143 67.0939 88.7477 67.027 88.7477C67.027 88.7477 67.027 88.7477 66.9935 88.7477C66.96 88.7477 66.893 88.7811 66.8595 88.7811C66.7256 88.8145 66.5581 88.8812 66.4242 88.9146C66.3907 88.9146 66.3572 88.948 66.2903 88.948H66.2568C66.2233 88.948 66.1898 88.9814 66.1563 88.9814C66.1228 88.9814 66.0559 89.0148 66.0224 89.0148C65.9889 89.0148 65.9554 89.0482 65.8884 89.0482C65.8214 89.0482 65.7545 89.0816 65.6875 89.0816C65.6875 89.0816 66.5247 88.347 67.8306 86.7444C68.0316 86.5106 68.2325 86.2435 68.4334 85.943C69.2371 84.8746 70.1412 83.5057 71.1123 81.8028C76.0683 73.1886 82.3303 56.127 80.6894 26.2441H92.7111V26.3777Z" fill="url(#paint5_linear_1223_14509)"/>
<path d="M52.9293 76.6269C42.582 65.5752 39.4677 36.7608 38.6641 26.377H45.0265C42.8164 50.8842 52.8958 76.5601 52.9293 76.6269Z" fill="url(#paint6_linear_1223_14509)"/>
<path d="M54.9383 109.951H49.0781C52.2593 106.812 59.0236 99.233 59.3585 91.0527C59.3585 91.0527 60.8988 103.073 54.9383 109.951Z" fill="#FBE599"/>
</g>
<path d="M62.8507 40.2335C63.0874 39.6524 63.9103 39.6523 64.1472 40.2334L67.0724 47.4099C67.1723 47.655 67.402 47.8228 67.666 47.8435L75.3254 48.4434C75.9457 48.492 76.199 49.2651 75.7278 49.6714L69.8668 54.7246C69.6686 54.8955 69.5823 55.1626 69.643 55.4172L71.4479 62.986C71.593 63.5944 70.9281 64.0732 70.3971 63.7427L63.8687 59.6794C63.6422 59.5385 63.3553 59.5385 63.1288 59.6795L56.603 63.7423C56.072 64.0729 55.4071 63.5942 55.5522 62.9857L57.357 55.4172C57.4177 55.1626 57.3314 54.8955 57.1332 54.7246L51.2722 49.6714C50.801 49.2651 51.0543 48.492 51.6746 48.4434L59.3339 47.8435C59.5979 47.8228 59.8276 47.655 59.9275 47.4097L62.8507 40.2335Z" fill="url(#paint7_linear_1223_14509)"/>
<defs>
<linearGradient id="paint0_linear_1223_14509" x1="117" y1="143.517" x2="-32.4709" y2="45.0129" gradientUnits="userSpaceOnUse">
<stop offset="0.260417" stop-color="#3D445E"/>
<stop offset="1" stop-color="#919BC1"/>
</linearGradient>
<linearGradient id="paint1_linear_1223_14509" x1="41.8569" y1="111.495" x2="73.7809" y2="93.0092" gradientUnits="userSpaceOnUse">
<stop offset="0.0111732" stop-color="#FFEF31"/>
<stop offset="0.676" stop-color="#FFCA10"/>
</linearGradient>
<linearGradient id="paint2_linear_1223_14509" x1="75.8913" y1="109.945" x2="75.8913" y2="85.616" gradientUnits="userSpaceOnUse">
<stop stop-color="#F9B01B"/>
<stop offset="0.5223" stop-color="#F9A11B"/>
</linearGradient>
<linearGradient id="paint3_linear_1223_14509" x1="80.513" y1="78.1739" x2="107.454" y2="31.3736" gradientUnits="userSpaceOnUse">
<stop offset="0.0111732" stop-color="#FFF731"/>
<stop offset="0.7151" stop-color="#FFC510"/>
</linearGradient>
<linearGradient id="paint4_linear_1223_14509" x1="30.468" y1="31.5107" x2="86.8219" y2="64.142" gradientUnits="userSpaceOnUse">
<stop offset="0.0111732" stop-color="#FFF952"/>
<stop offset="1" stop-color="#FFBF10"/>
</linearGradient>
<linearGradient id="paint5_linear_1223_14509" x1="79.045" y1="26.3779" x2="79.045" y2="89.2026" gradientUnits="userSpaceOnUse">
<stop offset="0.0167598" stop-color="#F9D41B" stop-opacity="0.2"/>
<stop offset="0.7933" stop-color="#F99C1B"/>
</linearGradient>
<linearGradient id="paint6_linear_1223_14509" x1="45.7935" y1="76.6431" x2="45.7935" y2="26.377" gradientUnits="userSpaceOnUse">
<stop offset="0.0167598" stop-color="#F9D41B" stop-opacity="0.1"/>
<stop offset="0.0623279" stop-color="#FADE3D" stop-opacity="0.1446"/>
<stop offset="0.1151" stop-color="#FCE75C" stop-opacity="0.1963"/>
<stop offset="0.1749" stop-color="#FDEE78" stop-opacity="0.2549"/>
<stop offset="0.2424" stop-color="#FEF48E" stop-opacity="0.321"/>
<stop offset="0.3214" stop-color="#FEF99F" stop-opacity="0.3983"/>
<stop offset="0.4189" stop-color="#FFFDAA" stop-opacity="0.4939"/>
<stop offset="0.5558" stop-color="#FFFEB1" stop-opacity="0.6279"/>
<stop offset="0.9358" stop-color="#FFFFB3"/>
</linearGradient>
<linearGradient id="paint7_linear_1223_14509" x1="77" y1="72.8759" x2="43.5636" y2="51.4926" gradientUnits="userSpaceOnUse">
<stop offset="0.260417" stop-color="#3D445E"/>
<stop offset="1" stop-color="#919BC1"/>
</linearGradient>
</defs>
</svg>
