<svg width="83" height="80" viewBox="0 0 83 80" fill="none" xmlns="http://www.w3.org/2000/svg">
<g filter="url(#filter0_d_3082_5102)">
<rect x="6.42871" y="0.5" width="70.8005" height="70.8005" rx="7.5" fill="url(#paint0_linear_3082_5102)" stroke="white"/>
<mask id="mask0_3082_5102" style="mask-type:alpha" maskUnits="userSpaceOnUse" x="0" y="13" width="83" height="58">
<path d="M0 13.834H82.34V70.6728H0V13.834Z" fill="#C4C4C4"/>
</mask>
<g mask="url(#mask0_3082_5102)">
<path d="M51.1274 71.5428C51.1274 71.5428 44.3597 63.8662 43.9541 58.0122L44.9148 55.9107C44.8507 55.3532 44.8294 54.7742 44.8294 54.1738H41.7338H40.0685H38.6381C38.6381 55.3532 38.51 56.4682 38.2965 57.519C38.2325 57.8835 38.1471 58.2266 38.0403 58.5697C35.7773 67.0183 27.6006 71.5428 27.6006 71.5428H40.0472H51.1274Z" fill="url(#paint1_linear_3082_5102)"/>
<path d="M55.8243 71.5422H51.1274C51.1274 71.5422 45.0429 64.659 44.0608 58.9551C43.9968 58.6334 43.9755 58.3332 43.9541 58.0116L44.5519 56.7036L44.9148 55.9102C44.9148 55.9959 44.9362 56.1031 44.9362 56.1889C45.0002 56.6392 45.0643 57.0895 45.1497 57.5184C45.2351 57.9258 45.3204 58.3118 45.4272 58.6978C47.7543 67.0821 55.8243 71.5422 55.8243 71.5422Z" fill="url(#paint2_linear_3082_5102)"/>
<path d="M35.2427 48.4475C32.4246 48.4475 29.7773 48.1044 27.3649 47.4397C25.1446 46.8178 23.095 45.9172 21.2377 44.7378C18.1207 42.7436 15.5588 39.9989 13.616 36.5465C12.8688 35.1956 12.2069 33.7375 11.6519 32.215C11.2035 30.9927 10.8406 29.7276 10.5631 28.4624C10.072 26.2752 9.96528 24.7957 9.96528 24.7313L9.87988 23.1445H23.0737L23.4153 26.1251H13.1463C13.2317 26.6183 13.3385 27.2187 13.4879 27.8835C13.9149 29.7062 14.7262 32.4294 16.2633 35.1527C20.1489 41.9931 26.5323 45.4669 35.2427 45.4669V48.4475Z" fill="#C1C1C1"/>
<path d="M48.1816 48.4475C50.9997 48.4475 53.647 48.1044 56.0595 47.4397C58.2798 46.8178 60.3293 45.9172 62.1867 44.7378C65.3037 42.7436 67.8656 39.9989 69.8084 36.5465C70.5556 35.1956 71.2174 33.7375 71.7725 32.215C72.2208 30.9927 72.5838 29.7276 72.8613 28.4624C73.3524 26.2752 73.4591 24.7957 73.4591 24.7313L73.5445 23.1445H60.3507L60.0091 26.1251H70.2994C70.214 26.6183 70.1073 27.2187 69.9578 27.8835C69.5308 29.7062 68.7196 32.4294 67.1824 35.1527C63.2969 41.9931 56.9135 45.4669 48.203 45.4669V48.4475H48.1816Z" fill="url(#paint3_linear_3082_5102)"/>
<path opacity="0.05" d="M49.8882 53.5098C49.7814 53.6599 49.6533 53.7885 49.5466 53.9172C49.5253 53.9601 49.4826 53.9815 49.4612 54.0244C49.2691 54.2388 49.0983 54.4533 48.9061 54.6463C48.8848 54.6677 48.8421 54.7106 48.8207 54.732C48.778 54.7749 48.7567 54.7964 48.714 54.8392C48.6926 54.8821 48.6499 54.9036 48.6286 54.925C48.5218 55.0322 48.4151 55.1394 48.3083 55.2467C48.2656 55.2896 48.2443 55.311 48.2016 55.3539C48.1376 55.4182 48.0949 55.4611 48.0308 55.5254C48.0095 55.5469 47.9668 55.5683 47.9454 55.6112C47.8173 55.7184 47.7106 55.8256 47.5825 55.9328C47.5398 55.9543 47.5184 55.9972 47.4757 56.0186C47.4117 56.0615 47.3476 56.1258 47.2836 56.1687C47.2622 56.1902 47.2409 56.2116 47.2195 56.2116C47.0274 56.3617 46.8353 56.5118 46.6431 56.6619C46.6218 56.6834 46.5791 56.7048 46.5577 56.7262C46.5364 56.7477 46.4937 56.7691 46.4723 56.7906C46.451 56.812 46.4083 56.8335 46.3869 56.8549C46.3656 56.8763 46.3229 56.8978 46.3015 56.9192C46.1307 57.0264 45.9813 57.1337 45.8105 57.2194C45.7891 57.2409 45.7678 57.2409 45.7464 57.2623C45.7251 57.2838 45.6824 57.3052 45.661 57.3052C45.6397 57.3267 45.597 57.3481 45.5757 57.3481C45.4476 57.4124 45.3195 57.4768 45.2127 57.5411C45.1914 57.5411 45.1914 57.5625 45.17 57.5625C45.2554 57.97 45.3408 58.3559 45.4476 58.7419C44.9779 58.8491 44.5295 58.9134 44.0812 58.9778C43.2486 59.085 42.48 59.1064 41.7541 59.1064C40.3237 59.085 39.0855 58.8706 38.0821 58.6132C38.1675 58.2702 38.2529 57.9271 38.3383 57.5625C36.7371 56.7691 35.2213 55.4611 33.7695 53.7671L46.6858 53.5741L49.8882 53.5098Z" fill="black"/>
<path d="M60.6259 17.8711C60.6259 17.9569 60.6259 18.0212 60.6259 18.107C60.6259 18.1499 60.6259 18.1713 60.6259 18.2142C60.6259 18.2785 60.6259 18.3643 60.6259 18.4286C60.6259 18.4501 60.6259 18.4715 60.6259 18.4929C60.6259 18.5787 60.6259 18.643 60.6259 18.7288C60.6259 18.7503 60.6259 18.7717 60.6259 18.7932C60.6259 18.8789 60.6259 18.9647 60.6259 19.0505C60.6259 19.1362 60.6259 19.222 60.6259 19.3078C60.6259 19.5222 60.6045 19.7367 60.6045 19.9511C60.6045 20.0369 60.6045 20.1226 60.6045 20.187C60.6045 20.2084 60.6045 20.2084 60.6045 20.2298C60.6045 20.3156 60.6045 20.4228 60.5831 20.5086C60.5831 20.5944 60.5831 20.7016 60.5618 20.7874C60.5618 20.8946 60.5404 21.0018 60.5404 21.1305C60.5404 21.1948 60.5405 21.2591 60.5191 21.3234C60.5191 21.3663 60.5191 21.4307 60.5191 21.4736C60.5191 21.5379 60.5191 21.6022 60.4978 21.6665C60.4978 21.7738 60.4764 21.9024 60.4764 22.0096C60.4764 22.0954 60.4551 22.2026 60.4551 22.2884C60.4551 22.3742 60.4337 22.4599 60.4337 22.5672V22.5886C60.4337 22.6958 60.4124 22.7816 60.4124 22.8888C60.4124 22.9746 60.391 23.0603 60.391 23.1676C60.391 23.189 60.391 23.189 60.391 23.2105C60.391 23.3177 60.3697 23.4034 60.3697 23.5107C60.3483 23.8109 60.3056 24.1111 60.2843 24.4327C60.2629 24.5399 60.2629 24.6257 60.2416 24.7329C60.2416 24.7544 60.2416 24.7758 60.2416 24.7972C60.2416 24.883 60.2202 24.9688 60.2202 25.0546C60.1989 25.1618 60.1989 25.269 60.1775 25.3548C60.1562 25.462 60.1562 25.5692 60.1348 25.655C60.1135 25.7622 60.1135 25.848 60.0921 25.9552C60.0708 26.041 60.0708 26.1267 60.0494 26.2125C60.0494 26.2554 60.0281 26.2983 60.0281 26.3412C60.0281 26.4055 60.0067 26.4913 60.0067 26.5556C59.964 26.7915 59.9427 27.0273 59.9 27.2418C59.8786 27.3275 59.8786 27.4133 59.8573 27.5205C59.8573 27.5634 59.8359 27.6278 59.8359 27.6706C59.8359 27.735 59.8146 27.7993 59.8146 27.8636C59.8146 27.8851 59.8146 27.9065 59.8146 27.928C59.7932 27.9923 59.7932 28.0781 59.7719 28.1424C59.7505 28.2496 59.7292 28.3568 59.7292 28.4426C59.7292 28.464 59.7292 28.464 59.7292 28.4855C59.7078 28.5713 59.7078 28.6785 59.6865 28.7642C59.6651 28.8715 59.6438 28.9572 59.6438 29.0644C59.6438 29.0859 59.6438 29.0859 59.6438 29.1073C59.6224 29.1931 59.6011 29.3003 59.6011 29.3861C59.5797 29.4933 59.5584 29.6005 59.537 29.6863C59.5157 29.7935 59.4943 29.8793 59.473 29.9865C59.4516 30.0937 59.4303 30.2224 59.4089 30.3296C59.3876 30.4154 59.3662 30.5226 59.3449 30.6084C59.3235 30.7156 59.3022 30.8013 59.2808 30.9086C59.2595 31.0158 59.2382 31.123 59.2168 31.2517C59.1741 31.4661 59.1314 31.6591 59.0887 31.8735C59.0674 31.9593 59.046 32.0236 59.046 32.1094C59.046 32.1308 59.0247 32.1737 59.0247 32.1952C58.982 32.4096 58.9393 32.624 58.8752 32.817C58.8539 32.9242 58.8325 33.01 58.8112 33.1172C58.7898 33.2244 58.7685 33.3316 58.7471 33.4174C58.7258 33.5246 58.7044 33.6318 58.6831 33.7176C58.6617 33.8248 58.6404 33.9106 58.619 34.0178C58.5763 34.2323 58.5123 34.4252 58.4696 34.6397C58.4482 34.7469 58.4269 34.8327 58.4055 34.9399V34.9613C58.3842 35.0471 58.3628 35.1543 58.3415 35.2401C58.3201 35.3473 58.2774 35.4331 58.2561 35.5403C58.2347 35.6475 58.2134 35.7333 58.1707 35.8405C58.1066 36.0549 58.0639 36.2479 57.9999 36.4624C57.9785 36.5696 57.9358 36.6553 57.9145 36.7626C57.8932 36.8483 57.8505 36.9555 57.8291 37.0413V37.0628C57.8078 37.17 57.7651 37.2558 57.7437 37.363C57.7437 37.3844 57.7224 37.4059 57.7224 37.4487C57.701 37.5131 57.6797 37.5988 57.6583 37.6632C57.637 37.7704 57.5943 37.8562 57.5729 37.9634C57.5516 38.0491 57.5089 38.1349 57.4875 38.2421V38.2636C57.4662 38.3494 57.4448 38.4137 57.4235 38.4995C57.4021 38.5423 57.4021 38.5852 57.3808 38.6281C57.3808 38.6496 57.3594 38.671 57.3594 38.6924C57.3381 38.7568 57.3167 38.7997 57.3167 38.864C57.2954 38.9712 57.2527 39.057 57.2313 39.1642C57.21 39.25 57.1673 39.3357 57.1459 39.4215C57.1459 39.443 57.1246 39.4644 57.1246 39.4644C57.1032 39.5502 57.0605 39.6574 57.0392 39.7432C57.0178 39.8289 56.9751 39.9147 56.9538 40.0005C56.9538 40.0219 56.9538 40.0219 56.9324 40.0434C56.9111 40.1291 56.8684 40.2364 56.847 40.3221C56.8257 40.4079 56.783 40.4937 56.7616 40.5794C56.7403 40.6438 56.7189 40.6867 56.6976 40.751C56.6762 40.7939 56.6549 40.8582 56.6335 40.9011C56.5908 40.9869 56.5695 41.0941 56.5268 41.1799C56.4841 41.2656 56.4628 41.3728 56.4201 41.4586C56.2493 41.9518 56.0571 42.4236 55.8863 42.8953C55.8436 42.9811 55.8223 43.0669 55.7796 43.1526C55.7369 43.2384 55.7155 43.3456 55.6728 43.4314C55.6301 43.5172 55.6088 43.6244 55.5661 43.7102C55.5447 43.7745 55.5234 43.8388 55.4807 43.9031V43.9246C55.4593 43.9675 55.438 44.0318 55.4166 44.0747C55.3526 44.2033 55.3099 44.332 55.2458 44.4607C55.2245 44.5036 55.2031 44.5464 55.2031 44.5679C55.1818 44.6322 55.1391 44.718 55.1178 44.7823C55.0964 44.8466 55.0537 44.911 55.0324 44.9753C55.011 45.0182 54.9897 45.0611 54.9683 45.104C54.947 45.1469 54.9256 45.2112 54.9043 45.2541C54.7762 45.5114 54.6694 45.7901 54.5413 46.0475C54.52 46.0903 54.4986 46.1547 54.4773 46.1976C54.0716 47.0553 53.666 47.8701 53.2177 48.6635C53.1963 48.7064 53.1536 48.7708 53.1323 48.8136C52.9188 49.1782 52.7266 49.5427 52.5132 49.8858C52.4918 49.9287 52.4491 49.993 52.4277 50.0359C52.3637 50.1217 52.321 50.2074 52.257 50.3147C51.9794 50.765 51.7019 51.1938 51.403 51.6227C51.3816 51.6656 51.3389 51.7085 51.3176 51.7514C51.2962 51.7942 51.2535 51.8371 51.2322 51.88C51.2108 51.9229 51.1681 51.9658 51.1468 52.0087C51.0828 52.1159 50.9974 52.2017 50.9333 52.3089C50.8906 52.3732 50.8266 52.4375 50.7839 52.5019C50.7412 52.5662 50.6771 52.6305 50.6344 52.7163C50.5917 52.7806 50.549 52.8235 50.5063 52.8878C50.3569 53.0808 50.2074 53.2738 50.058 53.4668C49.9512 53.6169 49.8232 53.7456 49.7164 53.8742C49.6951 53.9171 49.6524 53.9386 49.631 53.9814C49.4389 54.1959 49.2681 54.4103 49.0759 54.6033C49.0546 54.6247 49.0119 54.6676 48.9905 54.6891C48.9478 54.732 48.9265 54.7534 48.8838 54.7963C48.8624 54.8392 48.8197 54.8606 48.7984 54.8821C48.6916 54.9893 48.5849 55.0965 48.4781 55.2037C48.4354 55.2466 48.4141 55.268 48.3714 55.3109C48.3074 55.3753 48.2647 55.4181 48.2006 55.4825C48.1793 55.5039 48.1366 55.5254 48.1152 55.5682C47.9871 55.6755 47.8804 55.7827 47.7523 55.8899C47.7096 55.9113 47.6882 55.9542 47.6455 55.9757C47.5815 56.0186 47.5174 56.0829 47.4534 56.1258C47.432 56.1472 47.4107 56.1687 47.3893 56.1687C47.1972 56.3188 47.0051 56.4689 46.8129 56.619C46.7916 56.6404 46.7489 56.6618 46.7275 56.6833C46.7062 56.7047 46.6635 56.7262 46.6421 56.7476C46.6208 56.7691 46.5781 56.7905 46.5567 56.812C46.5354 56.8334 46.4927 56.8548 46.4713 56.8763C46.3005 56.9835 46.1511 57.0907 45.9803 57.1765C45.9589 57.1979 45.9376 57.1979 45.9162 57.2194C45.8949 57.2408 45.8522 57.2623 45.8308 57.2623C45.8095 57.2837 45.7668 57.3051 45.7455 57.3051C45.6174 57.3695 45.4893 57.4338 45.3825 57.4981C45.3612 57.4981 45.3612 57.5196 45.3398 57.5196C45.3185 57.5196 45.2971 57.541 45.2758 57.541C45.2331 57.5625 45.2117 57.5625 45.169 57.5839H45.1477C45.1263 57.6054 45.105 57.6054 45.0836 57.6268C45.0623 57.6268 45.0409 57.6482 45.0196 57.6482C44.8274 57.734 44.6139 57.8198 44.4218 57.8841C44.4004 57.8841 44.3791 57.9056 44.3578 57.9056H44.3364C44.3151 57.9056 44.2937 57.927 44.251 57.927C44.251 57.927 44.251 57.927 44.2297 57.927C44.2083 57.927 44.1656 57.9484 44.1443 57.9484C44.0589 57.9699 43.9521 58.0128 43.8667 58.0342C43.8454 58.0342 43.824 58.0557 43.7813 58.0557H43.76C43.7386 58.0557 43.7173 58.0771 43.6959 58.0771C43.6746 58.0771 43.6319 58.0985 43.6105 58.0985C43.5892 58.0985 43.5678 58.12 43.5251 58.12C43.4824 58.12 43.4397 58.1414 43.397 58.1414C42.9274 58.2486 42.4363 58.2915 41.9453 58.2915C40.7711 58.2915 39.6396 57.9913 38.5294 57.4552C36.9282 56.6619 35.4124 55.3538 33.9607 53.6598C27.2784 46.0475 22.8164 30.2867 22.8164 17.8711H60.6259Z" fill="url(#paint4_linear_3082_5102)"/>
<path d="M60.6272 17.8709C60.6272 17.9567 60.6272 18.021 60.6272 18.1068C60.6272 18.1497 60.6272 18.1711 60.6272 18.214C60.6272 18.2783 60.6272 18.3641 60.6272 18.4285C60.6272 18.4499 60.6272 18.4713 60.6272 18.4928C60.6272 18.5786 60.6272 18.6429 60.6272 18.7287C60.6272 18.7501 60.6272 18.7715 60.6272 18.793C60.6272 18.8788 60.6272 18.9645 60.6272 19.0503C60.6272 19.1361 60.6272 19.2219 60.6272 19.3076C60.6272 19.5221 60.6059 19.7365 60.6059 19.9509C60.6059 20.0367 60.6059 20.1225 60.6059 20.1868C60.6059 20.2082 60.6059 20.2082 60.6059 20.2297C60.6059 20.3155 60.6059 20.4227 60.5845 20.5084C60.5845 20.5942 60.5845 20.7014 60.5632 20.7872C60.5632 20.8944 60.5418 21.0016 60.5418 21.1303C60.5418 21.1946 60.5418 21.259 60.5205 21.3233C60.5205 21.3662 60.5205 21.4305 60.5205 21.4734C60.5205 21.5377 60.5205 21.602 60.4991 21.6664C60.4991 21.7736 60.4778 21.9023 60.4778 22.0095C60.4778 22.0952 60.4564 22.2025 60.4564 22.2882C60.4564 22.374 60.4351 22.4598 60.4351 22.567V22.5884C60.4351 22.6956 60.4137 22.7814 60.4137 22.8886C60.4137 22.9744 60.3924 23.0602 60.3924 23.1674C60.3924 23.1888 60.3924 23.1888 60.3924 23.2103C60.3924 23.3175 60.371 23.4033 60.371 23.5105C60.3497 23.8107 60.307 24.1109 60.2856 24.4325C60.2643 24.5398 60.2643 24.6255 60.2429 24.7328C60.2429 24.7542 60.2429 24.7756 60.2429 24.7971C60.2429 24.8829 60.2216 24.9686 60.2216 25.0544C60.2002 25.1616 60.2003 25.2688 60.1789 25.3546C60.1576 25.4618 60.1575 25.569 60.1362 25.6548C60.1149 25.762 60.1149 25.8478 60.0935 25.955C60.0722 26.0408 60.0722 26.1266 60.0508 26.2123C60.0508 26.2552 60.0295 26.2981 60.0295 26.341C60.0295 26.4053 60.0081 26.4911 60.0081 26.5554C59.9654 26.7913 59.9441 27.0272 59.9014 27.2416C59.88 27.3274 59.88 27.4132 59.8587 27.5204C59.8587 27.5633 59.8373 27.6276 59.8373 27.6705C59.8373 27.7348 59.816 27.7991 59.816 27.8635C59.816 27.8849 59.816 27.9063 59.816 27.9278C59.7946 27.9921 59.7946 28.0779 59.7733 28.1422C59.7519 28.2494 59.7306 28.3567 59.7306 28.4424C59.7306 28.4639 59.7306 28.4639 59.7306 28.4853C59.7092 28.5711 59.7092 28.6783 59.6879 28.7641C59.6665 28.8713 59.6452 28.9571 59.6452 29.0643C59.6452 29.0857 59.6452 29.0857 59.6452 29.1072C59.6238 29.1929 59.6025 29.3002 59.6025 29.3859C59.5811 29.4931 59.5598 29.6004 59.5384 29.6861C59.5171 29.7933 59.4957 29.8791 59.4744 29.9863C59.453 30.0936 59.4317 30.2222 59.4103 30.3294C59.389 30.4152 59.3676 30.5224 59.3463 30.6082C59.3249 30.7154 59.3036 30.8012 59.2822 30.9084C59.2609 31.0156 59.2395 31.1228 59.2182 31.2515C59.1755 31.4659 59.1328 31.6589 59.0901 31.8733C59.0687 31.9591 59.0474 32.0234 59.0474 32.1092C59.0474 32.1307 59.026 32.1735 59.026 32.195C58.9833 32.4094 58.9406 32.6239 58.8766 32.8168C58.8553 32.9241 58.8339 33.0098 58.8126 33.117C58.7912 33.2243 58.7699 33.3315 58.7485 33.4172C58.7272 33.5245 58.7058 33.6317 58.6845 33.7175C58.6631 33.8247 58.6418 33.9104 58.6204 34.0177C58.5777 34.2321 58.5137 34.4251 58.471 34.6395C58.4496 34.7467 58.4283 34.8325 58.4069 34.9397V34.9612C58.3856 35.0469 58.3642 35.1541 58.3429 35.2399C58.3215 35.3471 58.2788 35.4329 58.2575 35.5401C58.2361 35.6473 58.2148 35.7331 58.1721 35.8403C58.108 36.0548 58.0653 36.2478 58.0013 36.4622C57.9799 36.5694 57.9372 36.6552 57.9159 36.7624C57.8945 36.8482 57.8518 36.9554 57.8305 37.0412V37.0626C57.8091 37.1698 57.7664 37.2556 57.7451 37.3628C57.7451 37.3842 57.7237 37.4057 57.7237 37.4486C57.7024 37.5129 57.681 37.5987 57.6597 37.663C57.6383 37.7702 57.5956 37.856 57.5743 37.9632C57.5529 38.049 57.5103 38.1348 57.4889 38.242V38.2634C57.4676 38.3492 57.4462 38.4135 57.4249 38.4993C57.4035 38.5422 57.4035 38.5851 57.3822 38.6279C57.3822 38.6494 57.3608 38.6708 57.3608 38.6923C57.3395 38.7566 57.3181 38.7995 57.3181 38.8638C57.2968 38.971 57.2541 39.0568 57.2327 39.164C57.2114 39.2498 57.1687 39.3356 57.1473 39.4213C57.1473 39.4428 57.126 39.4642 57.126 39.4642C57.1046 39.55 57.0619 39.6572 57.0406 39.743C57.0192 39.8288 56.9765 39.9145 56.9552 40.0003C56.9552 40.0218 56.9552 40.0218 56.9338 40.0432C56.9125 40.129 56.8698 40.2362 56.8484 40.322C56.8271 40.4077 56.7844 40.4935 56.763 40.5793C56.7417 40.6436 56.7203 40.6865 56.699 40.7508C56.6776 40.7937 56.6563 40.858 56.6349 40.9009C56.5922 40.9867 56.5709 41.0939 56.5282 41.1797C56.4855 41.2655 56.4641 41.3727 56.4214 41.4585C56.2506 41.9516 56.0585 42.4234 55.8877 42.8951C55.845 42.9809 55.8237 43.0667 55.781 43.1525C55.7383 43.2382 55.7169 43.3455 55.6742 43.4312C55.6315 43.517 55.6102 43.6242 55.5675 43.71C55.5461 43.7743 55.5248 43.8386 55.4821 43.903V43.9244C55.4607 43.9673 55.4394 44.0316 55.418 44.0745C55.354 44.2032 55.3113 44.3318 55.2472 44.4605C55.2259 44.5034 55.2045 44.5463 55.2045 44.5677C55.1832 44.632 55.1405 44.7178 55.1191 44.7821C55.0978 44.8465 55.0551 44.9108 55.0337 44.9751C55.0124 45.018 54.991 45.0609 54.9697 45.1038C54.9484 45.1467 54.927 45.211 54.9056 45.2539C54.7776 45.5112 54.6708 45.79 54.5427 46.0473C54.5214 46.0902 54.5 46.1545 54.4787 46.1974C54.073 47.0551 53.6674 47.87 53.2191 48.6634C53.1977 48.7063 53.155 48.7706 53.1337 48.8135C52.9202 49.178 52.728 49.5425 52.5145 49.8856C52.4932 49.9285 52.4505 49.9928 52.4291 50.0357C52.3651 50.1215 52.3224 50.2073 52.2584 50.3145C51.9808 50.7648 51.7033 51.1937 51.4044 51.6225C51.383 51.6654 51.3403 51.7083 51.319 51.7512C51.2976 51.7941 51.2549 51.837 51.2336 51.8798C51.2122 51.9227 51.1695 51.9656 51.1482 52.0085C51.0841 52.1157 50.9987 52.2015 50.9347 52.3087C50.892 52.373 50.828 52.4374 50.7853 52.5017C50.7426 52.566 50.6785 52.6304 50.6358 52.7161C50.5931 52.7805 50.5504 52.8233 50.5077 52.8877C50.3583 53.0807 50.2088 53.2737 50.0594 53.4666C49.9526 53.6167 49.8245 53.7454 49.7178 53.8741C49.6964 53.9169 49.6538 53.9384 49.6324 53.9813C49.4403 54.1957 49.2695 54.4101 49.0773 54.6031C49.056 54.6246 49.0133 54.6675 48.9919 54.6889C48.9492 54.7318 48.9279 54.7532 48.8852 54.7961C48.8638 54.839 48.8211 54.8605 48.7998 54.8819C48.693 54.9891 48.5863 55.0963 48.4795 55.2035C48.4368 55.2464 48.4155 55.2679 48.3728 55.3108C48.3087 55.3751 48.2661 55.418 48.202 55.4823C48.1807 55.5037 48.138 55.5252 48.1166 55.5681C47.9885 55.6753 47.8818 55.7825 47.7537 55.8897C47.711 55.9112 47.6896 55.9541 47.6469 55.9755C47.5829 56.0184 47.5188 56.0827 47.4548 56.1256C47.4334 56.147 47.4121 56.1685 47.3907 56.1685C47.1986 56.3186 47.0065 56.4687 46.8143 56.6188C46.793 56.6402 46.7503 56.6617 46.7289 56.6831C46.7076 56.7046 46.6649 56.726 46.6435 56.7475C46.6222 56.7689 46.5795 56.7903 46.5581 56.8118C46.5368 56.8332 46.4941 56.8547 46.4727 56.8761C46.3019 56.9833 46.1525 57.0905 45.9817 57.1763C45.9603 57.1978 45.939 57.1978 45.9176 57.2192C45.8963 57.2406 45.8536 57.2621 45.8322 57.2621C45.8109 57.2835 45.7682 57.305 45.7468 57.305C45.6188 57.3693 45.4907 57.4336 45.3839 57.498C45.3626 57.498 45.3626 57.5194 45.3412 57.5194C45.3199 57.5194 45.2985 57.5408 45.2772 57.5408C45.2345 57.5623 45.2131 57.5623 45.1704 57.5837H45.1491C45.1277 57.6052 45.1064 57.6052 45.085 57.6266C45.0637 57.6266 45.0423 57.6481 45.021 57.6481C44.8288 57.7338 44.6153 57.8196 44.4232 57.8839C44.4018 57.8839 44.3805 57.9054 44.3592 57.9054H44.3378C44.3165 57.9054 44.2951 57.9268 44.2524 57.9268C44.2524 57.9268 44.2524 57.9268 44.2311 57.9268C44.2097 57.9268 44.167 57.9483 44.1457 57.9483C44.0603 57.9697 43.9535 58.0126 43.8681 58.034C43.8468 58.034 43.8254 58.0555 43.7827 58.0555H43.7614C43.74 58.0555 43.7187 58.0769 43.6973 58.0769C43.676 58.0769 43.6333 58.0984 43.6119 58.0984C43.5906 58.0984 43.5692 58.1198 43.5265 58.1198C43.4838 58.1198 43.4411 58.1413 43.3984 58.1413C43.3984 58.1413 43.9322 57.6695 44.7648 56.6402C44.8929 56.4901 45.021 56.3186 45.1491 56.1256C45.6615 55.4394 46.2379 54.5602 46.857 53.4666C50.0167 47.9343 54.009 36.9768 52.9629 17.7852H60.6272V17.8709Z" fill="url(#paint5_linear_3082_5102)"/>
<path d="M35.2442 50.1646C28.6473 43.0454 26.6618 24.5399 26.1494 17.8711H30.2058C28.8181 33.6319 35.2228 50.1002 35.2442 50.1646Z" fill="url(#paint6_linear_3082_5102)"/>
<path d="M36.5447 71.5431H32.8086C34.8368 69.5274 39.1493 64.6598 39.3628 59.4062C39.3415 59.4277 40.3235 67.1258 36.5447 71.5431Z" fill="url(#paint7_linear_3082_5102)"/>
</g>
<path d="M41.1804 27.046C41.4171 26.4649 42.24 26.4648 42.4769 27.0459L44.1268 31.0938C44.2268 31.3389 44.4565 31.5067 44.7204 31.5274L49.0473 31.8663C49.6676 31.9149 49.921 32.6881 49.4498 33.0943L46.1333 35.9537C45.9351 36.1246 45.8488 36.3917 45.9095 36.6462L46.9299 40.9253C47.075 41.5337 46.4101 42.0124 45.8791 41.6819L42.1984 39.3911C41.9719 39.2501 41.685 39.2501 41.4585 39.3911L37.7796 41.6816C37.2486 42.0122 36.5836 41.5334 36.7287 40.9249L37.749 36.6462C37.8097 36.3917 37.7234 36.1246 37.5252 35.9537L34.2087 33.0943C33.7375 32.6881 33.9909 31.9149 34.6112 31.8663L38.938 31.5274C39.202 31.5068 39.4317 31.3389 39.5316 31.0936L41.1804 27.046Z" fill="url(#paint8_linear_3082_5102)"/>
</g>
<defs>
<filter id="filter0_d_3082_5102" x="1.92871" y="0" width="79.8005" height="79.8003" filterUnits="userSpaceOnUse" color-interpolation-filters="sRGB">
<feFlood flood-opacity="0" result="BackgroundImageFix"/>
<feColorMatrix in="SourceAlpha" type="matrix" values="0 0 0 0 0 0 0 0 0 0 0 0 0 0 0 0 0 0 127 0" result="hardAlpha"/>
<feOffset dy="4"/>
<feGaussianBlur stdDeviation="2"/>
<feComposite in2="hardAlpha" operator="out"/>
<feColorMatrix type="matrix" values="0 0 0 0 0 0 0 0 0 0 0 0 0 0 0 0 0 0 0.25 0"/>
<feBlend mode="normal" in2="BackgroundImageFix" result="effect1_dropShadow_3082_5102"/>
<feBlend mode="normal" in="SourceGraphic" in2="effect1_dropShadow_3082_5102" result="shape"/>
</filter>
<linearGradient id="paint0_linear_3082_5102" x1="77.7292" y1="94.5373" x2="-20.7303" y2="29.6509" gradientUnits="userSpaceOnUse">
<stop offset="0.260417" stop-color="#3D445E"/>
<stop offset="1" stop-color="#919BC1"/>
</linearGradient>
<linearGradient id="paint1_linear_3082_5102" x1="39.37" y1="71.5486" x2="39.37" y2="54.1832" gradientUnits="userSpaceOnUse">
<stop offset="0.0001" stop-color="#DEDEDE"/>
<stop offset="0.0002" stop-color="#F0F0F0"/>
<stop offset="0.0003" stop-color="#CFCFCF"/>
<stop offset="0.807292" stop-color="#B8B8B8"/>
</linearGradient>
<linearGradient id="paint2_linear_3082_5102" x1="49.8853" y1="71.5478" x2="49.8853" y2="55.9232" gradientUnits="userSpaceOnUse">
<stop offset="0.0167598" stop-color="#CBCBCB"/>
<stop offset="0.5978" stop-color="#AAAAAA"/>
</linearGradient>
<linearGradient id="paint3_linear_3082_5102" x1="48.1864" y1="35.7965" x2="73.5562" y2="35.7965" gradientUnits="userSpaceOnUse">
<stop offset="0.0111732" stop-color="#E4E4E4"/>
<stop offset="0.7151" stop-color="#C2C2C2"/>
</linearGradient>
<linearGradient id="paint4_linear_3082_5102" x1="20.9243" y1="21.177" x2="56.9841" y2="41.9049" gradientUnits="userSpaceOnUse">
<stop offset="0.0111732" stop-color="#F0F0F0"/>
<stop offset="0.9106" stop-color="#B3B3B3"/>
</linearGradient>
<linearGradient id="paint5_linear_3082_5102" x1="51.8967" y1="17.8799" x2="51.8967" y2="58.2278" gradientUnits="userSpaceOnUse">
<stop offset="0.0167598" stop-color="#CBCBCB" stop-opacity="0.1"/>
<stop offset="0.064392" stop-color="#C6C6C6" stop-opacity="0.1552"/>
<stop offset="0.3373" stop-color="#ADADAD" stop-opacity="0.4715"/>
<stop offset="0.5878" stop-color="#9E9E9E" stop-opacity="0.7619"/>
<stop offset="0.7933" stop-color="#999999"/>
</linearGradient>
<linearGradient id="paint6_linear_3082_5102" x1="30.6984" y1="50.1624" x2="30.6984" y2="17.8799" gradientUnits="userSpaceOnUse">
<stop offset="0.0167598" stop-color="#CBCBCB" stop-opacity="0.1"/>
<stop offset="0.0594742" stop-color="#D5D5D5" stop-opacity="0.1418"/>
<stop offset="0.1586" stop-color="#E5E5E5" stop-opacity="0.2389"/>
<stop offset="0.282" stop-color="#F1F1F1" stop-opacity="0.3597"/>
<stop offset="0.4551" stop-color="#F8F8F8" stop-opacity="0.5293"/>
<stop offset="0.9358" stop-color="#FAFAFA"/>
</linearGradient>
<linearGradient id="paint7_linear_3082_5102" x1="32.7902" y1="65.4856" x2="39.4657" y2="65.4856" gradientUnits="userSpaceOnUse">
<stop offset="0.0167598" stop-color="#CBCBCB" stop-opacity="0.1"/>
<stop offset="0.0594742" stop-color="#D5D5D5" stop-opacity="0.1418"/>
<stop offset="0.1586" stop-color="#E5E5E5" stop-opacity="0.2389"/>
<stop offset="0.282" stop-color="#F1F1F1" stop-opacity="0.3597"/>
<stop offset="0.4551" stop-color="#F8F8F8" stop-opacity="0.5293"/>
<stop offset="0.9358" stop-color="#FAFAFA"/>
</linearGradient>
<linearGradient id="paint8_linear_3082_5102" x1="50.722" y1="48.0053" x2="28.6968" y2="33.9197" gradientUnits="userSpaceOnUse">
<stop offset="0.260417" stop-color="#3D445E"/>
<stop offset="1" stop-color="#919BC1"/>
</linearGradient>
</defs>
</svg>
