<svg width="159" height="140" viewBox="0 0 159 140" fill="none" xmlns="http://www.w3.org/2000/svg">
<rect x="11.4478" width="138.648" height="138.648" rx="16" fill="url(#paint0_linear_3082_5070)"/>
<mask id="mask0_3082_5070" style="mask-type:alpha" maskUnits="userSpaceOnUse" x="0" y="26" width="159" height="114">
<rect y="26.7119" width="159" height="112.301" fill="#C4C4C4"/>
</mask>
<g mask="url(#mask0_3082_5070)">
<path d="M98.7276 138.154C98.7276 138.154 85.659 123.33 84.8758 112.026L86.7309 107.968C86.6072 106.891 86.566 105.773 86.566 104.614H80.5883H77.3727H74.6106C74.6106 106.891 74.3632 109.044 73.951 111.073C73.8273 111.777 73.6624 112.44 73.4562 113.102C69.0863 129.417 53.2969 138.154 53.2969 138.154H77.3315H98.7276Z" fill="url(#paint1_linear_3082_5070)"/>
<path d="M107.798 138.154H98.7283C98.7283 138.154 86.979 124.862 85.0826 113.848C84.9589 113.226 84.9177 112.647 84.8765 112.026L86.0308 109.5L86.7316 107.968C86.7316 108.133 86.7728 108.34 86.7728 108.506C86.8965 109.376 87.0202 110.245 87.1851 111.073C87.35 111.86 87.5149 112.605 87.721 113.351C92.2146 129.541 107.798 138.154 107.798 138.154Z" fill="url(#paint2_linear_3082_5070)"/>
<path d="M68.054 93.5578C62.6122 93.5578 57.5002 92.8952 52.8417 91.6116C48.5543 90.4108 44.5966 88.6717 41.01 86.3943C34.991 82.5434 30.0439 77.2433 26.2924 70.5768C24.8495 67.9681 23.5715 65.1524 22.4996 62.2125C21.6339 59.8523 20.933 57.4093 20.3971 54.9663C19.4489 50.7427 19.2428 47.8856 19.2428 47.7614L19.0779 44.6973H44.5554L45.215 50.4529H25.3854C25.5503 51.4052 25.7564 52.5646 26.045 53.8483C26.8695 57.3679 28.4361 62.6266 31.4044 67.8853C38.9074 81.0942 51.2339 87.8022 68.054 87.8022V93.5578Z" fill="#C1C1C1"/>
<path d="M93.0403 93.5578C98.4821 93.5578 103.594 92.8952 108.253 91.6116C112.54 90.4108 116.498 88.6717 120.084 86.3943C126.103 82.5434 131.05 77.2433 134.802 70.5768C136.245 67.9681 137.523 65.1524 138.595 62.2125C139.46 59.8523 140.161 57.4093 140.697 54.9663C141.645 50.7427 141.852 47.8856 141.852 47.7614L142.016 44.6973H116.539L115.879 50.4529H135.75C135.585 51.4052 135.379 52.5646 135.09 53.8483C134.266 57.3679 132.699 62.6266 129.731 67.8853C122.228 81.0942 109.902 87.8022 93.0815 87.8022V93.5578H93.0403Z" fill="url(#paint3_linear_3082_5070)"/>
<path opacity="0.05" d="M96.3334 103.333C96.1273 103.622 95.8799 103.871 95.6738 104.119C95.6326 104.202 95.5501 104.243 95.5089 104.326C95.1379 104.74 94.8081 105.154 94.437 105.527C94.3958 105.569 94.3134 105.651 94.2721 105.693C94.1897 105.776 94.1485 105.817 94.066 105.9C94.0248 105.983 93.9423 106.024 93.9011 106.065C93.695 106.272 93.4888 106.479 93.2827 106.687C93.2003 106.769 93.159 106.811 93.0766 106.894C92.9529 107.018 92.8705 107.101 92.7468 107.225C92.7056 107.266 92.6231 107.308 92.5819 107.39C92.3345 107.597 92.1284 107.804 91.881 108.012C91.7986 108.053 91.7574 108.136 91.6749 108.177C91.5512 108.26 91.4276 108.384 91.3039 108.467C91.2627 108.508 91.2214 108.55 91.1802 108.55C90.8092 108.84 90.4381 109.13 90.0671 109.419C90.0259 109.461 89.9434 109.502 89.9022 109.544C89.861 109.585 89.7785 109.626 89.7373 109.668C89.6961 109.709 89.6136 109.751 89.5724 109.792C89.5312 109.833 89.4487 109.875 89.4075 109.916C89.0777 110.123 88.7891 110.33 88.4593 110.496C88.4181 110.537 88.3769 110.537 88.3356 110.579C88.2944 110.62 88.212 110.662 88.1707 110.662C88.1295 110.703 88.0471 110.744 88.0058 110.744C87.7585 110.869 87.5111 110.993 87.305 111.117C87.2638 111.117 87.2638 111.158 87.2225 111.158C87.3874 111.945 87.5523 112.691 87.7585 113.436C86.8515 113.643 85.9858 113.767 85.12 113.891C83.5122 114.098 82.0281 114.14 80.6264 114.14C77.8643 114.098 75.4732 113.684 73.5356 113.187C73.7005 112.525 73.8654 111.862 74.0303 111.158C70.9384 109.626 68.0114 107.101 65.208 103.829L90.1496 103.457L96.3334 103.333Z" fill="black"/>
<path d="M117.07 34.5132C117.07 34.6788 117.07 34.803 117.07 34.9687C117.07 35.0515 117.07 35.0929 117.07 35.1757C117.07 35.2999 117.07 35.4655 117.07 35.5898C117.07 35.6312 117.07 35.6726 117.07 35.714C117.07 35.8796 117.07 36.0038 117.07 36.1695C117.07 36.2109 117.07 36.2523 117.07 36.2937C117.07 36.4593 117.07 36.625 117.07 36.7906C117.07 36.9562 117.07 37.1218 117.07 37.2875C117.07 37.7015 117.028 38.1156 117.028 38.5297C117.028 38.6953 117.028 38.8609 117.028 38.9852C117.028 39.0266 117.028 39.0266 117.028 39.068C117.028 39.2336 117.028 39.4406 116.987 39.6063C116.987 39.7719 116.987 39.9789 116.946 40.1446C116.946 40.3516 116.905 40.5586 116.905 40.8071C116.905 40.9313 116.905 41.0555 116.863 41.1797C116.863 41.2626 116.863 41.3868 116.863 41.4696C116.863 41.5938 116.863 41.718 116.822 41.8423C116.822 42.0493 116.781 42.2977 116.781 42.5048C116.781 42.6704 116.74 42.8774 116.74 43.0431C116.74 43.2087 116.699 43.3743 116.699 43.5814V43.6228C116.699 43.8298 116.657 43.9954 116.657 44.2025C116.657 44.3681 116.616 44.5337 116.616 44.7408C116.616 44.7822 116.616 44.7822 116.616 44.8236C116.616 45.0306 116.575 45.1962 116.575 45.4033C116.534 45.983 116.451 46.5627 116.41 47.1838C116.369 47.3908 116.369 47.5565 116.327 47.7635C116.327 47.8049 116.327 47.8463 116.327 47.8877C116.327 48.0533 116.286 48.219 116.286 48.3846C116.245 48.5916 116.245 48.7987 116.204 48.9643C116.163 49.1713 116.163 49.3784 116.121 49.544C116.08 49.751 116.08 49.9167 116.039 50.1237C115.998 50.2893 115.998 50.455 115.956 50.6206C115.956 50.7034 115.915 50.7862 115.915 50.869C115.915 50.9933 115.874 51.1589 115.874 51.2831C115.792 51.7386 115.75 52.1941 115.668 52.6081C115.627 52.7738 115.627 52.9394 115.585 53.1464C115.585 53.2292 115.544 53.3535 115.544 53.4363C115.544 53.5605 115.503 53.6847 115.503 53.8089C115.503 53.8503 115.503 53.8918 115.503 53.9332C115.462 54.0574 115.462 54.223 115.421 54.3472C115.379 54.5543 115.338 54.7613 115.338 54.9269C115.338 54.9683 115.338 54.9683 115.338 55.0098C115.297 55.1754 115.297 55.3824 115.256 55.548C115.214 55.7551 115.173 55.9207 115.173 56.1277C115.173 56.1692 115.173 56.1692 115.173 56.2106C115.132 56.3762 115.091 56.5832 115.091 56.7489C115.049 56.9559 115.008 57.1629 114.967 57.3286C114.926 57.5356 114.885 57.7012 114.843 57.9083C114.802 58.1153 114.761 58.3637 114.72 58.5708C114.678 58.7364 114.637 58.9434 114.596 59.1091C114.555 59.3161 114.514 59.4817 114.472 59.6888C114.431 59.8958 114.39 60.1028 114.349 60.3513C114.266 60.7654 114.184 61.138 114.101 61.5521C114.06 61.7177 114.019 61.8419 114.019 62.0076C114.019 62.049 113.978 62.1318 113.978 62.1732C113.895 62.5873 113.813 63.0013 113.689 63.374C113.648 63.581 113.607 63.7467 113.565 63.9537C113.524 64.1607 113.483 64.3678 113.442 64.5334C113.4 64.7404 113.359 64.9475 113.318 65.1131C113.277 65.3201 113.236 65.4858 113.194 65.6928C113.112 66.1069 112.988 66.4795 112.906 66.8936C112.865 67.1007 112.823 67.2663 112.782 67.4733V67.5147C112.741 67.6804 112.7 67.8874 112.658 68.053C112.617 68.2601 112.535 68.4257 112.493 68.6327C112.452 68.8398 112.411 69.0054 112.329 69.2124C112.205 69.6265 112.122 69.9992 111.999 70.4132C111.958 70.6203 111.875 70.7859 111.834 70.9929C111.793 71.1586 111.71 71.3656 111.669 71.5312V71.5726C111.628 71.7797 111.545 71.9453 111.504 72.1523C111.504 72.1937 111.463 72.2352 111.463 72.318C111.422 72.4422 111.38 72.6078 111.339 72.732C111.298 72.9391 111.215 73.1047 111.174 73.3117C111.133 73.4774 111.051 73.643 111.009 73.85V73.8914C110.968 74.0571 110.927 74.1813 110.886 74.3469C110.844 74.4297 110.844 74.5126 110.803 74.5954C110.803 74.6368 110.762 74.6782 110.762 74.7196C110.721 74.8438 110.68 74.9266 110.68 75.0508C110.638 75.2579 110.556 75.4235 110.515 75.6305C110.473 75.7962 110.391 75.9618 110.35 76.1274C110.35 76.1688 110.309 76.2102 110.309 76.2102C110.267 76.3759 110.185 76.5829 110.144 76.7485C110.102 76.9142 110.02 77.0798 109.979 77.2454C109.979 77.2868 109.979 77.2868 109.938 77.3282C109.896 77.4939 109.814 77.7009 109.773 77.8665C109.731 78.0322 109.649 78.1978 109.608 78.3634C109.566 78.4876 109.525 78.5705 109.484 78.6947C109.443 78.7775 109.402 78.9017 109.36 78.9845C109.278 79.1502 109.237 79.3572 109.154 79.5228C109.072 79.6884 109.031 79.8955 108.948 80.0611C108.618 81.0135 108.247 81.9244 107.917 82.8354C107.835 83.001 107.794 83.1667 107.711 83.3323C107.629 83.4979 107.588 83.7049 107.505 83.8706C107.423 84.0362 107.382 84.2432 107.299 84.4089C107.258 84.5331 107.217 84.6573 107.134 84.7815V84.8229C107.093 84.9058 107.052 85.03 107.01 85.1128C106.887 85.3612 106.804 85.6097 106.681 85.8581C106.639 85.9409 106.598 86.0238 106.598 86.0652C106.557 86.1894 106.475 86.355 106.433 86.4792C106.392 86.6035 106.31 86.7277 106.268 86.8519C106.227 86.9347 106.186 87.0175 106.145 87.1003C106.104 87.1832 106.062 87.3074 106.021 87.3902C105.774 87.8871 105.568 88.4254 105.32 88.9223C105.279 89.0051 105.238 89.1293 105.197 89.2121C104.413 90.8684 103.63 92.4419 102.764 93.9739C102.723 94.0568 102.641 94.181 102.599 94.2638C102.187 94.9677 101.816 95.6716 101.404 96.3341C101.363 96.417 101.28 96.5412 101.239 96.624C101.115 96.7896 101.033 96.9553 100.909 97.1623C100.373 98.0318 99.8372 98.86 99.26 99.6881C99.2188 99.7709 99.1364 99.8538 99.0951 99.9366C99.0539 100.019 98.9715 100.102 98.9302 100.185C98.889 100.268 98.8066 100.351 98.7653 100.433C98.6417 100.64 98.4768 100.806 98.3531 101.013C98.2706 101.137 98.147 101.262 98.0645 101.386C97.9821 101.51 97.8584 101.634 97.7759 101.8C97.6935 101.924 97.611 102.007 97.5286 102.131C97.24 102.504 96.9514 102.876 96.6628 103.249C96.4567 103.539 96.2094 103.787 96.0032 104.036C95.962 104.119 95.8795 104.16 95.8383 104.243C95.4673 104.657 95.1375 105.071 94.7664 105.444C94.7252 105.485 94.6428 105.568 94.6016 105.609C94.5191 105.692 94.4779 105.734 94.3954 105.816C94.3542 105.899 94.2717 105.941 94.2305 105.982C94.0244 106.189 93.8183 106.396 93.6121 106.603C93.5297 106.686 93.4884 106.727 93.406 106.81C93.2823 106.934 93.1999 107.017 93.0762 107.141C93.035 107.183 92.9525 107.224 92.9113 107.307C92.6639 107.514 92.4578 107.721 92.2105 107.928C92.128 107.97 92.0868 108.052 92.0043 108.094C91.8806 108.177 91.757 108.301 91.6333 108.384C91.5921 108.425 91.5508 108.466 91.5096 108.466C91.1386 108.756 90.7676 109.046 90.3965 109.336C90.3553 109.377 90.2729 109.419 90.2316 109.46C90.1904 109.502 90.1079 109.543 90.0667 109.584C90.0255 109.626 89.943 109.667 89.9018 109.709C89.8606 109.75 89.7781 109.791 89.7369 109.833C89.4071 110.04 89.1185 110.247 88.7887 110.413C88.7475 110.454 88.7063 110.454 88.665 110.495C88.6238 110.537 88.5414 110.578 88.5001 110.578C88.4589 110.62 88.3765 110.661 88.3352 110.661C88.0879 110.785 87.8405 110.909 87.6344 111.034C87.5932 111.034 87.5932 111.075 87.552 111.075C87.5107 111.075 87.4695 111.117 87.4283 111.117C87.3458 111.158 87.3046 111.158 87.2221 111.199H87.1809C87.1397 111.241 87.0985 111.241 87.0572 111.282C87.016 111.282 86.9748 111.324 86.9336 111.324C86.5625 111.489 86.1503 111.655 85.7792 111.779C85.738 111.779 85.6968 111.82 85.6556 111.82H85.6143C85.5731 111.82 85.5319 111.862 85.4494 111.862C85.4494 111.862 85.4494 111.862 85.4082 111.862C85.367 111.862 85.2845 111.903 85.2433 111.903C85.0784 111.945 84.8723 112.027 84.7074 112.069C84.6662 112.069 84.6249 112.11 84.5425 112.11H84.5013C84.46 112.11 84.4188 112.152 84.3776 112.152C84.3363 112.152 84.2539 112.193 84.2127 112.193C84.1714 112.193 84.1302 112.235 84.0478 112.235C83.9653 112.235 83.8829 112.276 83.8004 112.276C82.8934 112.483 81.9453 112.566 80.9971 112.566C78.7296 112.566 76.5447 111.986 74.401 110.951C71.309 109.419 68.382 106.893 65.5787 103.622C52.675 88.9223 44.0588 58.488 44.0588 34.5132H117.07Z" fill="url(#paint4_linear_3082_5070)"/>
<path d="M117.072 34.5128C117.072 34.6784 117.072 34.8026 117.072 34.9683C117.072 35.0511 117.072 35.0925 117.072 35.1753C117.072 35.2995 117.072 35.4652 117.072 35.5894C117.072 35.6308 117.072 35.6722 117.072 35.7136C117.072 35.8792 117.072 36.0035 117.072 36.1691C117.072 36.2105 117.072 36.2519 117.072 36.2933C117.072 36.4589 117.072 36.6246 117.072 36.7902C117.072 36.9558 117.072 37.1215 117.072 37.2871C117.072 37.7012 117.031 38.1152 117.031 38.5293C117.031 38.6949 117.031 38.8606 117.031 38.9848C117.031 39.0262 117.031 39.0262 117.031 39.0676C117.031 39.2332 117.031 39.4403 116.99 39.6059C116.99 39.7715 116.99 39.9785 116.949 40.1442C116.949 40.3512 116.907 40.5582 116.907 40.8067C116.907 40.9309 116.907 41.0551 116.866 41.1794C116.866 41.2622 116.866 41.3864 116.866 41.4692C116.866 41.5934 116.866 41.7177 116.825 41.8419C116.825 42.0489 116.784 42.2974 116.784 42.5044C116.784 42.67 116.743 42.8771 116.743 43.0427C116.743 43.2083 116.701 43.3739 116.701 43.581V43.6224C116.701 43.8294 116.66 43.995 116.66 44.2021C116.66 44.3677 116.619 44.5333 116.619 44.7404C116.619 44.7818 116.619 44.7818 116.619 44.8232C116.619 45.0302 116.578 45.1959 116.578 45.4029C116.536 45.9826 116.454 46.5623 116.413 47.1834C116.372 47.3904 116.371 47.5561 116.33 47.7631C116.33 47.8045 116.33 47.8459 116.33 47.8873C116.33 48.053 116.289 48.2186 116.289 48.3842C116.248 48.5912 116.248 48.7983 116.207 48.9639C116.165 49.1709 116.165 49.378 116.124 49.5436C116.083 49.7507 116.083 49.9163 116.042 50.1233C116 50.2889 116 50.4546 115.959 50.6202C115.959 50.703 115.918 50.7858 115.918 50.8686C115.918 50.9929 115.877 51.1585 115.877 51.2827C115.794 51.7382 115.753 52.1937 115.671 52.6077C115.629 52.7734 115.629 52.939 115.588 53.146C115.588 53.2289 115.547 53.3531 115.547 53.4359C115.547 53.5601 115.506 53.6843 115.506 53.8086C115.506 53.85 115.506 53.8914 115.506 53.9328C115.465 54.057 115.465 54.2226 115.423 54.3468C115.382 54.5539 115.341 54.7609 115.341 54.9266C115.341 54.968 115.341 54.968 115.341 55.0094C115.3 55.175 115.3 55.382 115.258 55.5477C115.217 55.7547 115.176 55.9203 115.176 56.1274C115.176 56.1688 115.176 56.1688 115.176 56.2102C115.135 56.3758 115.094 56.5828 115.094 56.7485C115.052 56.9555 115.011 57.1625 114.97 57.3282C114.929 57.5352 114.887 57.7008 114.846 57.9079C114.805 58.1149 114.764 58.3633 114.722 58.5704C114.681 58.736 114.64 58.9431 114.599 59.1087C114.558 59.3157 114.516 59.4813 114.475 59.6884C114.434 59.8954 114.393 60.1025 114.351 60.3509C114.269 60.765 114.187 61.1376 114.104 61.5517C114.063 61.7173 114.022 61.8416 114.022 62.0072C114.022 62.0486 113.98 62.1314 113.98 62.1728C113.898 62.5869 113.816 63.001 113.692 63.3736C113.651 63.5807 113.609 63.7463 113.568 63.9533C113.527 64.1604 113.486 64.3674 113.444 64.533C113.403 64.7401 113.362 64.9471 113.321 65.1127C113.28 65.3198 113.238 65.4854 113.197 65.6924C113.115 66.1065 112.991 66.4792 112.909 66.8932C112.867 67.1003 112.826 67.2659 112.785 67.4729V67.5143C112.744 67.68 112.702 67.887 112.661 68.0526C112.62 68.2597 112.538 68.4253 112.496 68.6323C112.455 68.8394 112.414 69.005 112.331 69.212C112.208 69.6261 112.125 69.9988 112.002 70.4128C111.96 70.6199 111.878 70.7855 111.837 70.9925C111.795 71.1582 111.713 71.3652 111.672 71.5308V71.5722C111.631 71.7793 111.548 71.9449 111.507 72.1519C111.507 72.1934 111.466 72.2348 111.466 72.3176C111.424 72.4418 111.383 72.6074 111.342 72.7317C111.301 72.9387 111.218 73.1043 111.177 73.3113C111.136 73.477 111.053 73.6426 111.012 73.8496V73.8911C110.971 74.0567 110.93 74.1809 110.888 74.3465C110.847 74.4293 110.847 74.5122 110.806 74.595C110.806 74.6364 110.765 74.6778 110.765 74.7192C110.724 74.8434 110.682 74.9262 110.682 75.0504C110.641 75.2575 110.559 75.4231 110.517 75.6302C110.476 75.7958 110.394 75.9614 110.353 76.127C110.353 76.1684 110.311 76.2099 110.311 76.2099C110.27 76.3755 110.188 76.5825 110.146 76.7481C110.105 76.9138 110.023 77.0794 109.982 77.245C109.982 77.2864 109.982 77.2864 109.94 77.3278C109.899 77.4935 109.817 77.7005 109.775 77.8661C109.734 78.0318 109.652 78.1974 109.61 78.363C109.569 78.4872 109.528 78.5701 109.487 78.6943C109.446 78.7771 109.404 78.9013 109.363 78.9841C109.281 79.1498 109.239 79.3568 109.157 79.5224C109.075 79.6881 109.033 79.8951 108.951 80.0607C108.621 81.0131 108.25 81.924 107.92 82.835C107.838 83.0006 107.797 83.1663 107.714 83.3319C107.632 83.4975 107.59 83.7046 107.508 83.8702C107.426 84.0358 107.384 84.2429 107.302 84.4085C107.261 84.5327 107.219 84.6569 107.137 84.7811V84.8226C107.096 84.9054 107.054 85.0296 107.013 85.1124C106.89 85.3608 106.807 85.6093 106.683 85.8577C106.642 85.9405 106.601 86.0234 106.601 86.0648C106.56 86.189 106.477 86.3546 106.436 86.4788C106.395 86.6031 106.312 86.7273 106.271 86.8515C106.23 86.9343 106.189 87.0171 106.148 87.0999C106.106 87.1828 106.065 87.307 106.024 87.3898C105.777 87.8867 105.57 88.425 105.323 88.9219C105.282 89.0047 105.241 89.1289 105.199 89.2117C104.416 90.868 103.633 92.4415 102.767 93.9735C102.726 94.0564 102.643 94.1806 102.602 94.2634C102.19 94.9673 101.819 95.6712 101.407 96.3338C101.365 96.4166 101.283 96.5408 101.242 96.6236C101.118 96.7892 101.036 96.9549 100.912 97.1619C100.376 98.0315 99.84 98.8596 99.2628 99.6877C99.2216 99.7705 99.1392 99.8534 99.0979 99.9362C99.0567 100.019 98.9743 100.102 98.933 100.185C98.8918 100.267 98.8094 100.35 98.7681 100.433C98.6445 100.64 98.4796 100.806 98.3559 101.013C98.2734 101.137 98.1498 101.261 98.0673 101.385C97.9849 101.51 97.8612 101.634 97.7787 101.8C97.6963 101.924 97.6138 102.007 97.5314 102.131C97.2428 102.503 96.9542 102.876 96.6656 103.249C96.4595 103.539 96.2122 103.787 96.006 104.035C95.9648 104.118 95.8823 104.16 95.8411 104.243C95.4701 104.657 95.1403 105.071 94.7693 105.443C94.728 105.485 94.6456 105.568 94.6044 105.609C94.5219 105.692 94.4807 105.733 94.3982 105.816C94.357 105.899 94.2745 105.94 94.2333 105.982C94.0272 106.189 93.8211 106.396 93.6149 106.603C93.5325 106.686 93.4913 106.727 93.4088 106.81C93.2851 106.934 93.2027 107.017 93.079 107.141C93.0378 107.182 92.9553 107.224 92.9141 107.307C92.6667 107.514 92.4606 107.721 92.2133 107.928C92.1308 107.969 92.0896 108.052 92.0071 108.093C91.8835 108.176 91.7598 108.3 91.6361 108.383C91.5949 108.425 91.5537 108.466 91.5124 108.466C91.1414 108.756 90.7704 109.046 90.3993 109.336C90.3581 109.377 90.2757 109.418 90.2344 109.46C90.1932 109.501 90.1108 109.543 90.0695 109.584C90.0283 109.625 89.9458 109.667 89.9046 109.708C89.8634 109.75 89.7809 109.791 89.7397 109.833C89.4099 110.04 89.1213 110.247 88.7915 110.412C88.7503 110.454 88.7091 110.454 88.6678 110.495C88.6266 110.536 88.5442 110.578 88.5029 110.578C88.4617 110.619 88.3793 110.661 88.338 110.661C88.0907 110.785 87.8433 110.909 87.6372 111.033C87.596 111.033 87.596 111.075 87.5548 111.075C87.5135 111.075 87.4723 111.116 87.4311 111.116C87.3486 111.158 87.3074 111.158 87.2249 111.199H87.1837C87.1425 111.24 87.1013 111.24 87.06 111.282C87.0188 111.282 86.9776 111.323 86.9364 111.323C86.5653 111.489 86.1531 111.654 85.782 111.779C85.7408 111.779 85.6996 111.82 85.6584 111.82H85.6171C85.5759 111.82 85.5347 111.861 85.4522 111.861C85.4522 111.861 85.4522 111.861 85.411 111.861C85.3698 111.861 85.2873 111.903 85.2461 111.903C85.0812 111.944 84.8751 112.027 84.7102 112.068C84.669 112.068 84.6277 112.11 84.5453 112.11H84.5041C84.4628 112.11 84.4216 112.151 84.3804 112.151C84.3392 112.151 84.2567 112.193 84.2155 112.193C84.1743 112.193 84.133 112.234 84.0506 112.234C83.9681 112.234 83.8857 112.276 83.8032 112.276C83.8032 112.276 84.8339 111.365 86.4417 109.377C86.689 109.087 86.9364 108.756 87.1837 108.383C88.1731 107.058 89.2862 105.361 90.4818 103.249C96.5832 92.5657 104.292 71.4066 102.272 34.3472H117.072V34.5128Z" fill="url(#paint5_linear_3082_5070)"/>
<path d="M68.0558 96.8725C55.3171 83.1253 51.4831 47.3908 50.4937 34.5132H58.3265C55.6469 64.9475 68.0146 96.7482 68.0558 96.8725Z" fill="url(#paint6_linear_3082_5070)"/>
<path d="M70.5675 138.156H63.353C67.2695 134.263 75.5971 124.864 76.0093 114.719C75.9681 114.761 77.8645 129.626 70.5675 138.156Z" fill="url(#paint7_linear_3082_5070)"/>
<path d="M108.974 137.712H53.6027C51.9386 137.712 50.5896 139.061 50.5896 140.726C50.5896 142.39 51.9386 143.739 53.6027 143.739H108.974C110.638 143.739 111.987 142.39 111.987 140.726C111.987 139.061 110.638 137.712 108.974 137.712Z" fill="url(#paint8_linear_3082_5070)"/>
</g>
<path d="M80.1222 50.7443C80.3589 50.1631 81.1818 50.163 81.4187 50.7441L85.3603 60.4141C85.4602 60.6592 85.6899 60.8271 85.9539 60.8477L96.2692 61.6556C96.8895 61.7042 97.1429 62.4774 96.6717 62.8837L88.7827 69.6853C88.5845 69.8562 88.4982 70.1233 88.5589 70.3779L90.989 80.5688C91.1341 81.1772 90.4692 81.656 89.9382 81.3255L81.1402 75.8496C80.9137 75.7086 80.6268 75.7086 80.4003 75.8496L71.6056 81.3251C71.0746 81.6557 70.4097 81.1769 70.5548 80.5685L72.9848 70.3779C73.0455 70.1233 72.9592 69.8562 72.761 69.6853L64.8721 62.8837C64.4008 62.4774 64.6542 61.7042 65.2745 61.6556L75.5897 60.8477C75.8537 60.8271 76.0835 60.6592 76.1833 60.4139L80.1222 50.7443Z" fill="url(#paint9_linear_3082_5070)"/>
<defs>
<linearGradient id="paint0_linear_3082_5070" x1="150.096" y1="182.553" x2="-40.0312" y2="57.2563" gradientUnits="userSpaceOnUse">
<stop offset="0.260417" stop-color="#3D445E"/>
<stop offset="1" stop-color="#919BC1"/>
</linearGradient>
<linearGradient id="paint1_linear_3082_5070" x1="76.0238" y1="138.165" x2="76.0238" y2="104.632" gradientUnits="userSpaceOnUse">
<stop offset="0.0001" stop-color="#DEDEDE"/>
<stop offset="0.0002" stop-color="#F0F0F0"/>
<stop offset="0.0003" stop-color="#CFCFCF"/>
<stop offset="0.807292" stop-color="#B8B8B8"/>
</linearGradient>
<linearGradient id="paint2_linear_3082_5070" x1="96.3297" y1="138.164" x2="96.3297" y2="107.993" gradientUnits="userSpaceOnUse">
<stop offset="0.0167598" stop-color="#CBCBCB"/>
<stop offset="0.5978" stop-color="#AAAAAA"/>
</linearGradient>
<linearGradient id="paint3_linear_3082_5070" x1="93.0495" y1="69.1284" x2="142.039" y2="69.1284" gradientUnits="userSpaceOnUse">
<stop offset="0.0111732" stop-color="#E4E4E4"/>
<stop offset="0.7151" stop-color="#C2C2C2"/>
</linearGradient>
<linearGradient id="paint4_linear_3082_5070" x1="40.4052" y1="40.8969" x2="110.037" y2="80.9228" gradientUnits="userSpaceOnUse">
<stop offset="0.0111732" stop-color="#F0F0F0"/>
<stop offset="0.9106" stop-color="#B3B3B3"/>
</linearGradient>
<linearGradient id="paint5_linear_3082_5070" x1="100.214" y1="34.5301" x2="100.214" y2="112.443" gradientUnits="userSpaceOnUse">
<stop offset="0.0167598" stop-color="#CBCBCB" stop-opacity="0.1"/>
<stop offset="0.064392" stop-color="#C6C6C6" stop-opacity="0.1552"/>
<stop offset="0.3373" stop-color="#ADADAD" stop-opacity="0.4715"/>
<stop offset="0.5878" stop-color="#9E9E9E" stop-opacity="0.7619"/>
<stop offset="0.7933" stop-color="#999999"/>
</linearGradient>
<linearGradient id="paint6_linear_3082_5070" x1="59.2777" y1="96.8683" x2="59.2777" y2="34.5302" gradientUnits="userSpaceOnUse">
<stop offset="0.0167598" stop-color="#CBCBCB" stop-opacity="0.1"/>
<stop offset="0.0594742" stop-color="#D5D5D5" stop-opacity="0.1418"/>
<stop offset="0.1586" stop-color="#E5E5E5" stop-opacity="0.2389"/>
<stop offset="0.282" stop-color="#F1F1F1" stop-opacity="0.3597"/>
<stop offset="0.4551" stop-color="#F8F8F8" stop-opacity="0.5293"/>
<stop offset="0.9358" stop-color="#FAFAFA"/>
</linearGradient>
<linearGradient id="paint7_linear_3082_5070" x1="63.3176" y1="126.459" x2="76.2079" y2="126.459" gradientUnits="userSpaceOnUse">
<stop offset="0.0167598" stop-color="#CBCBCB" stop-opacity="0.1"/>
<stop offset="0.0594742" stop-color="#D5D5D5" stop-opacity="0.1418"/>
<stop offset="0.1586" stop-color="#E5E5E5" stop-opacity="0.2389"/>
<stop offset="0.282" stop-color="#F1F1F1" stop-opacity="0.3597"/>
<stop offset="0.4551" stop-color="#F8F8F8" stop-opacity="0.5293"/>
<stop offset="0.9358" stop-color="#FAFAFA"/>
</linearGradient>
<linearGradient id="paint8_linear_3082_5070" x1="47.5171" y1="138.205" x2="50.6114" y2="153.751" gradientUnits="userSpaceOnUse">
<stop offset="0.0111732" stop-color="#F0F0F0"/>
<stop offset="0.244792" stop-color="#E0E0E0"/>
<stop offset="0.9106" stop-color="#B3B3B3"/>
</linearGradient>
<linearGradient id="paint9_linear_3082_5070" x1="97.9439" y1="92.6981" x2="55.4128" y2="65.4986" gradientUnits="userSpaceOnUse">
<stop offset="0.260417" stop-color="#3D445E"/>
<stop offset="1" stop-color="#919BC1"/>
</linearGradient>
</defs>
</svg>
