<svg width="125" height="117" viewBox="0 0 125 117" fill="none" xmlns="http://www.w3.org/2000/svg">
<g filter="url(#filter0_d_1223_14792)">
<rect x="9.76172" y="0.5" width="108" height="108" rx="7.5" fill="url(#paint0_linear_1223_14792)" stroke="white"/>
<mask id="mask0_1223_14792" style="mask-type:alpha" maskUnits="userSpaceOnUse" x="0" y="8" width="125" height="100">
<path d="M0 8.99609H125V107.866H0V8.99609Z" fill="#C4C4C4"/>
</mask>
<g mask="url(#mask0_1223_14792)">
<path d="M77.8474 109.943C77.8474 109.943 67.2322 97.9901 66.596 88.875L68.1029 85.6029C68.0024 84.7348 67.9689 83.8333 67.9689 82.8984H62.3432H58.2578C58.2578 84.7348 58.0569 86.471 57.7221 88.1071C57.6216 88.6747 57.4876 89.2089 57.3202 89.7431C53.7706 102.898 40.9453 109.943 40.9453 109.943H62.3432H77.8474Z" fill="url(#paint1_linear_1223_14792)"/>
<path d="M85.2142 109.944H77.8472C77.8472 109.944 68.3035 99.2261 66.7631 90.3447C66.6627 89.8439 66.6292 89.3764 66.5957 88.8756L67.5333 86.8389L68.1026 85.6035C68.1026 85.7371 68.1361 85.904 68.1361 86.0376C68.2365 86.7387 68.337 87.4399 68.471 88.1077C68.6049 88.7421 68.7388 89.343 68.9063 89.944C72.5563 102.999 85.2142 109.944 85.2142 109.944Z" fill="url(#paint2_linear_1223_14792)"/>
<path d="M52.9365 73.9787C48.5163 73.9787 44.364 73.4445 40.58 72.4094C37.0974 71.4411 33.8827 70.0388 30.9694 68.2024C26.0804 65.0973 22.062 60.8236 19.0147 55.448C17.8427 53.3445 16.8046 51.0741 15.934 48.7035C15.2307 46.8003 14.6615 44.8304 14.2261 42.8605C13.456 39.4548 13.2885 37.151 13.2885 37.0508L13.1211 34.5801H33.8158L34.3515 39.2211H18.2445C18.3785 39.989 18.5459 40.9239 18.7803 41.959C19.45 44.797 20.7225 49.0374 23.1336 53.2777C29.2281 63.9287 39.2406 69.3377 52.9031 69.3377V73.9787H52.9365Z" fill="#FFCA10"/>
<path d="M73.2246 73.9845C77.6448 73.9845 81.7972 73.4503 85.5811 72.4153C89.0637 71.447 92.2784 70.0447 95.1918 68.2083C100.081 65.1032 104.099 60.8294 107.146 55.4538C108.318 53.3504 109.357 51.0799 110.227 48.7093C110.93 46.8062 111.5 44.8363 111.935 42.8663C112.705 39.4607 112.873 37.1569 112.873 37.0567L113.007 34.5859H92.3119L91.8096 39.227H107.917C107.783 39.9949 107.615 40.9298 107.381 41.9648C106.711 44.8029 105.439 49.0432 103.028 53.2836C96.9331 63.9346 86.9206 69.3435 73.2581 69.3435V73.9845H73.2246Z" fill="url(#paint3_linear_1223_14792)"/>
<path opacity="0.05" d="M75.9054 81.832C75.7379 82.0658 75.537 82.2661 75.3696 82.4664C75.3361 82.5332 75.2691 82.5666 75.2356 82.6334C74.9342 82.9672 74.6664 83.3011 74.365 83.6016C74.3315 83.635 74.2645 83.7018 74.231 83.7352C74.1641 83.802 74.1306 83.8353 74.0636 83.9021C74.0301 83.9689 73.9631 84.0023 73.9297 84.0357C73.7622 84.2026 73.5948 84.3696 73.4274 84.5365C73.3604 84.6033 73.3269 84.6367 73.2599 84.7035C73.1595 84.8036 73.0925 84.8704 72.992 84.9706C72.9585 85.004 72.8916 85.0373 72.8581 85.1041C72.6572 85.2711 72.4897 85.438 72.2888 85.6049C72.2218 85.6383 72.1884 85.7051 72.1214 85.7385C72.0209 85.8053 71.9205 85.9054 71.82 85.9722C71.7865 86.0056 71.753 86.039 71.7195 86.039C71.4182 86.2727 71.1168 86.5064 70.8154 86.7402C70.7819 86.7736 70.7149 86.8069 70.6815 86.8403C70.648 86.8737 70.581 86.9071 70.5475 86.9405C70.514 86.9739 70.4471 87.0073 70.4136 87.0407C70.3801 87.074 70.3131 87.1074 70.2796 87.1408C70.0117 87.3078 69.7773 87.4747 69.5094 87.6083C69.4759 87.6417 69.4425 87.6417 69.409 87.675C69.3755 87.7084 69.3085 87.7418 69.275 87.7418C69.2415 87.7752 69.1746 87.8086 69.1411 87.8086C68.9402 87.9088 68.7392 88.0089 68.5718 88.1091C68.5383 88.1091 68.5383 88.1425 68.5048 88.1425C68.6388 88.7769 68.7727 89.3779 68.9402 89.9789C68.2035 90.1458 67.5002 90.246 66.797 90.3461C65.4911 90.5131 64.2855 90.5465 63.147 90.5465C60.9034 90.5131 58.9612 90.1792 57.3873 89.7785C57.5213 89.2443 57.6552 88.7101 57.7892 88.1425C55.2777 86.9071 52.9001 84.8704 50.623 82.2327L70.8824 81.9322L75.9054 81.832Z" fill="black"/>
<path d="M92.7164 26.3711C92.7164 26.5046 92.7164 26.6048 92.7164 26.7384C92.7164 26.8051 92.7164 26.8385 92.7164 26.9053C92.7164 27.0055 92.7164 27.139 92.7164 27.2392C92.7164 27.2726 92.7164 27.306 92.7164 27.3394C92.7164 27.4729 92.7164 27.5731 92.7164 27.7066C92.7164 27.74 92.7164 27.7734 92.7164 27.8068C92.7164 27.9404 92.7164 28.0739 92.7164 28.2075C92.7164 28.341 92.7164 28.4746 92.7164 28.6081C92.7164 28.942 92.6829 29.2759 92.6829 29.6098C92.6829 29.7433 92.6829 29.8769 92.6829 29.9771C92.6829 30.0105 92.6829 30.0105 92.6829 30.0438C92.6829 30.1774 92.6829 30.3443 92.6495 30.4779C92.6495 30.6115 92.6495 30.7784 92.616 30.912C92.616 31.0789 92.5825 31.2458 92.5825 31.4462C92.5825 31.5463 92.5825 31.6465 92.549 31.7467C92.549 31.8134 92.549 31.9136 92.549 31.9804C92.549 32.0806 92.549 32.1807 92.5155 32.2809C92.5155 32.4478 92.482 32.6482 92.482 32.8151C92.482 32.9487 92.4485 33.1156 92.4485 33.2492C92.4485 33.3827 92.415 33.5163 92.415 33.6832V33.7166C92.415 33.8835 92.3816 34.0171 92.3816 34.184C92.3816 34.3176 92.3481 34.4511 92.3481 34.6181C92.3481 34.6515 92.3481 34.6515 92.3481 34.6849C92.3481 34.8518 92.3146 34.9854 92.3146 35.1523C92.2811 35.6198 92.2141 36.0872 92.1806 36.588C92.1472 36.755 92.1472 36.8885 92.1137 37.0555C92.1137 37.0889 92.1137 37.1222 92.1137 37.1556C92.1137 37.2892 92.0802 37.4227 92.0802 37.5563C92.0467 37.7232 92.0467 37.8902 92.0132 38.0237C91.9797 38.1907 91.9797 38.3576 91.9462 38.4912C91.9128 38.6581 91.9128 38.7917 91.8793 38.9586C91.8458 39.0922 91.8458 39.2257 91.8123 39.3593C91.8123 39.4261 91.7788 39.4928 91.7788 39.5596C91.7788 39.6598 91.7453 39.7933 91.7453 39.8935C91.6783 40.2608 91.6449 40.628 91.5779 40.9619C91.5444 41.0955 91.5444 41.229 91.5109 41.396C91.5109 41.4628 91.4774 41.5629 91.4774 41.6297C91.4774 41.7299 91.4439 41.83 91.4439 41.9302C91.4439 41.9636 91.4439 41.997 91.4439 42.0304C91.4105 42.1305 91.4105 42.2641 91.377 42.3643C91.3435 42.5312 91.31 42.6981 91.31 42.8317C91.31 42.8651 91.31 42.8651 91.31 42.8985C91.2765 43.032 91.2765 43.199 91.243 43.3325C91.2095 43.4995 91.1761 43.633 91.1761 43.8C91.1761 43.8334 91.1761 43.8334 91.1761 43.8667C91.1426 44.0003 91.1091 44.1672 91.1091 44.3008C91.0756 44.4677 91.0421 44.6347 91.0086 44.7682C90.9751 44.9352 90.9416 45.0687 90.9082 45.2357C90.8747 45.4026 90.8412 45.603 90.8077 45.7699C90.7742 45.9035 90.7407 46.0704 90.7072 46.204C90.6738 46.3709 90.6403 46.5045 90.6068 46.6714C90.5733 46.8383 90.5398 47.0053 90.5063 47.2056C90.4394 47.5395 90.3724 47.84 90.3054 48.1739C90.2719 48.3074 90.2384 48.4076 90.2384 48.5412C90.2384 48.5745 90.2049 48.6413 90.2049 48.6747C90.138 49.0086 90.071 49.3425 89.9705 49.643C89.937 49.8099 89.9036 49.9435 89.8701 50.1104C89.8366 50.2774 89.8031 50.4443 89.7696 50.5779C89.7361 50.7448 89.7026 50.9118 89.6692 51.0453C89.6357 51.2123 89.6022 51.3458 89.5687 51.5128C89.5017 51.8466 89.4013 52.1471 89.3343 52.481C89.3008 52.648 89.2673 52.7815 89.2338 52.9485V52.9818C89.2003 53.1154 89.1669 53.2823 89.1334 53.4159C89.0999 53.5828 89.0329 53.7164 88.9994 53.8833C88.9659 54.0503 88.9325 54.1838 88.8655 54.3508C88.765 54.6847 88.698 54.9852 88.5976 55.3191C88.5641 55.486 88.4971 55.6196 88.4636 55.7865C88.4302 55.9201 88.3632 56.087 88.3297 56.2206V56.2539C88.2962 56.4209 88.2292 56.5544 88.1958 56.7214C88.1958 56.7548 88.1623 56.7882 88.1623 56.8549C88.1288 56.9551 88.0953 57.0887 88.0618 57.1888C88.0283 57.3558 87.9613 57.4893 87.9279 57.6563C87.8944 57.7898 87.8274 57.9234 87.7939 58.0903V58.1237C87.7604 58.2573 87.7269 58.3574 87.6935 58.491C87.66 58.5578 87.66 58.6245 87.6265 58.6913C87.6265 58.7247 87.593 58.7581 87.593 58.7915C87.5595 58.8916 87.526 58.9584 87.526 59.0586C87.4925 59.2255 87.4256 59.3591 87.3921 59.526C87.3586 59.6596 87.2916 59.7931 87.2581 59.9267C87.2581 59.9601 87.2246 59.9935 87.2246 59.9935C87.1912 60.127 87.1242 60.294 87.0907 60.4275C87.0572 60.5611 86.9902 60.6946 86.9567 60.8282C86.9567 60.8616 86.9567 60.8616 86.9233 60.895C86.8898 61.0285 86.8228 61.1955 86.7893 61.329C86.7558 61.4626 86.6889 61.5961 86.6554 61.7297C86.6219 61.8298 86.5884 61.8966 86.5549 61.9968C86.5214 62.0636 86.4879 62.1637 86.4545 62.2305C86.3875 62.3641 86.354 62.531 86.287 62.6646C86.22 62.7981 86.1866 62.9651 86.1196 63.0986C85.8517 63.8666 85.5503 64.6011 85.2824 65.3357C85.2155 65.4692 85.182 65.6028 85.115 65.7363C85.048 65.8699 85.0145 66.0368 84.9476 66.1704C84.8806 66.3039 84.8471 66.4709 84.7801 66.6044C84.7466 66.7046 84.7132 66.8048 84.6462 66.9049V66.9383C84.6127 67.0051 84.5792 67.1053 84.5457 67.172C84.4453 67.3724 84.3783 67.5727 84.2778 67.773C84.2443 67.8398 84.2109 67.9066 84.2109 67.94C84.1774 68.0401 84.1104 68.1737 84.0769 68.2739C84.0434 68.374 83.9765 68.4742 83.943 68.5744C83.9095 68.6411 83.876 68.7079 83.8425 68.7747C83.809 68.8415 83.7755 68.9416 83.742 69.0084C83.5411 69.4091 83.3737 69.8431 83.1728 70.2438C83.1393 70.3106 83.1058 70.4107 83.0723 70.4775C82.4361 71.8131 81.7998 73.0818 81.0966 74.3172C81.0631 74.384 80.9962 74.4841 80.9627 74.5509C80.6278 75.1185 80.3264 75.6861 79.9916 76.2204C79.9581 76.2871 79.8911 76.3873 79.8576 76.4541C79.7571 76.5876 79.6902 76.7212 79.5897 76.8881C79.1544 77.5893 78.7191 78.2571 78.2503 78.9248C78.2168 78.9916 78.1498 79.0584 78.1163 79.1252C78.0828 79.1919 78.0159 79.2587 77.9824 79.3255C77.9489 79.3923 77.8819 79.4591 77.8484 79.5258C77.748 79.6928 77.614 79.8263 77.5136 79.9933C77.4466 80.0934 77.3461 80.1936 77.2792 80.2938C77.2122 80.3939 77.1117 80.4941 77.0447 80.6277C76.9778 80.7278 76.9108 80.7946 76.8438 80.8948C76.6094 81.1953 76.375 81.4958 76.1406 81.7963C75.9732 82.03 75.7723 82.2303 75.6048 82.4306C75.5713 82.4974 75.5044 82.5308 75.4709 82.5976C75.1695 82.9315 74.9016 83.2654 74.6002 83.5659C74.5667 83.5992 74.4998 83.666 74.4663 83.6994C74.3993 83.7662 74.3658 83.7996 74.2989 83.8664C74.2654 83.9331 74.1984 83.9665 74.1649 83.9999C73.9975 84.1669 73.83 84.3338 73.6626 84.5007C73.5956 84.5675 73.5621 84.6009 73.4952 84.6677C73.3947 84.7678 73.3277 84.8346 73.2273 84.9348C73.1938 84.9682 73.1268 85.0016 73.0933 85.0683C72.8924 85.2353 72.725 85.4022 72.5241 85.5692C72.4571 85.6026 72.4236 85.6693 72.3566 85.7027C72.2562 85.7695 72.1557 85.8697 72.0553 85.9365C72.0218 85.9698 71.9883 86.0032 71.9548 86.0032C71.6534 86.2369 71.352 86.4707 71.0507 86.7044C71.0172 86.7378 70.9502 86.7712 70.9167 86.8046C70.8832 86.8379 70.8163 86.8713 70.7828 86.9047C70.7493 86.9381 70.6823 86.9715 70.6488 87.0049C70.6153 87.0383 70.5484 87.0717 70.5149 87.1051C70.247 87.272 70.0126 87.4389 69.7447 87.5725C69.7112 87.6059 69.6777 87.6059 69.6442 87.6393C69.6107 87.6727 69.5438 87.7061 69.5103 87.7061C69.4768 87.7394 69.4098 87.7728 69.3763 87.7728C69.1754 87.873 68.9745 87.9732 68.8071 88.0733C68.7736 88.0733 68.7736 88.1067 68.7401 88.1067C68.7066 88.1067 68.6731 88.1401 68.6396 88.1401C68.5727 88.1735 68.5392 88.1735 68.4722 88.2069H68.4387C68.4052 88.2403 68.3717 88.2403 68.3382 88.2737C68.3048 88.2737 68.2713 88.307 68.2378 88.307C67.9364 88.4406 67.6016 88.5742 67.3002 88.6743C67.2667 88.6743 67.2332 88.7077 67.1997 88.7077H67.1662C67.1327 88.7077 67.0993 88.7411 67.0323 88.7411C67.0323 88.7411 67.0323 88.7411 66.9988 88.7411C66.9653 88.7411 66.8983 88.7745 66.8648 88.7745C66.7309 88.8079 66.5635 88.8747 66.4295 88.908C66.396 88.908 66.3625 88.9414 66.2956 88.9414H66.2621C66.2286 88.9414 66.1951 88.9748 66.1616 88.9748C66.1281 88.9748 66.0612 89.0082 66.0277 89.0082C65.9942 89.0082 65.9607 89.0416 65.8937 89.0416C65.8268 89.0416 65.7598 89.075 65.6928 89.075C64.9561 89.2419 64.1859 89.3087 63.4157 89.3087C61.574 89.3087 59.7992 88.8413 58.0579 88.0065C55.5464 86.7712 53.1689 84.7345 50.8918 82.0968C40.444 70.2438 33.4453 45.6697 33.4453 26.3711H92.7164Z" fill="url(#paint4_linear_1223_14792)"/>
<path d="M92.715 26.3718C92.715 26.5054 92.715 26.6056 92.715 26.7391C92.715 26.8059 92.715 26.8393 92.715 26.9061C92.715 27.0062 92.715 27.1398 92.715 27.2399C92.715 27.2733 92.715 27.3067 92.715 27.3401C92.715 27.4737 92.715 27.5738 92.715 27.7074C92.715 27.7408 92.715 27.7742 92.715 27.8075C92.715 27.9411 92.715 28.0747 92.715 28.2082C92.715 28.3418 92.715 28.4753 92.715 28.6089C92.715 28.9428 92.6815 29.2766 92.6815 29.6105C92.6815 29.7441 92.6815 29.8776 92.6815 29.9778C92.6815 30.0112 92.6815 30.0112 92.6815 30.0446C92.6815 30.1781 92.6815 30.3451 92.648 30.4786C92.648 30.6122 92.648 30.7791 92.6145 30.9127C92.6145 31.0796 92.5811 31.2466 92.5811 31.4469C92.5811 31.5471 92.5811 31.6472 92.5476 31.7474C92.5476 31.8142 92.5476 31.9144 92.5476 31.9811C92.5476 32.0813 92.5476 32.1815 92.5141 32.2816C92.5141 32.4486 92.4806 32.6489 92.4806 32.8158C92.4806 32.9494 92.4471 33.1163 92.4471 33.2499C92.4471 33.3835 92.4136 33.517 92.4136 33.6839V33.7173C92.4136 33.8843 92.3801 34.0178 92.3801 34.1848C92.3801 34.3183 92.3467 34.4519 92.3467 34.6188C92.3467 34.6522 92.3467 34.6522 92.3467 34.6856C92.3467 34.8526 92.3132 34.9861 92.3132 35.1531C92.2797 35.6205 92.2127 36.0879 92.1792 36.5888C92.1457 36.7557 92.1457 36.8893 92.1122 37.0562C92.1122 37.0896 92.1122 37.123 92.1122 37.1564C92.1122 37.2899 92.0788 37.4235 92.0788 37.557C92.0453 37.724 92.0453 37.8909 92.0118 38.0245C91.9783 38.1914 91.9783 38.3584 91.9448 38.4919C91.9113 38.6589 91.9113 38.7924 91.8778 38.9594C91.8444 39.0929 91.8444 39.2265 91.8109 39.36C91.8109 39.4268 91.7774 39.4936 91.7774 39.5604C91.7774 39.6605 91.7439 39.7941 91.7439 39.8942C91.6769 40.2615 91.6434 40.6288 91.5765 40.9627C91.543 41.0962 91.543 41.2298 91.5095 41.3967C91.5095 41.4635 91.476 41.5637 91.476 41.6305C91.476 41.7306 91.4425 41.8308 91.4425 41.9309C91.4425 41.9643 91.4425 41.9977 91.4425 42.0311C91.409 42.1313 91.409 42.2648 91.3755 42.365C91.3421 42.5319 91.3086 42.6989 91.3086 42.8324C91.3086 42.8658 91.3086 42.8658 91.3086 42.8992C91.2751 43.0328 91.2751 43.1997 91.2416 43.3333C91.2081 43.5002 91.1746 43.6338 91.1746 43.8007C91.1746 43.8341 91.1746 43.8341 91.1746 43.8675C91.1411 44.001 91.1076 44.168 91.1076 44.3015C91.0742 44.4685 91.0407 44.6354 91.0072 44.769C90.9737 44.9359 90.9402 45.0695 90.9067 45.2364C90.8732 45.4034 90.8398 45.6037 90.8063 45.7706C90.7728 45.9042 90.7393 46.0711 90.7058 46.2047C90.6723 46.3716 90.6388 46.5052 90.6054 46.6721C90.5719 46.8391 90.5384 47.006 90.5049 47.2064C90.4379 47.5402 90.3709 47.8407 90.304 48.1746C90.2705 48.3082 90.237 48.4083 90.237 48.5419C90.237 48.5753 90.2035 48.6421 90.2035 48.6755C90.1365 49.0093 90.0696 49.3432 89.9691 49.6437C89.9356 49.8107 89.9021 49.9442 89.8687 50.1112C89.8352 50.2781 89.8017 50.4451 89.7682 50.5786C89.7347 50.7456 89.7012 50.9125 89.6677 51.046C89.6342 51.213 89.6008 51.3465 89.5673 51.5135C89.5003 51.8474 89.3998 52.1479 89.3329 52.4818C89.2994 52.6487 89.2659 52.7823 89.2324 52.9492V52.9826C89.1989 53.1161 89.1654 53.2831 89.1319 53.4166C89.0985 53.5836 89.0315 53.7171 88.998 53.8841C88.9645 54.051 88.931 54.1846 88.8641 54.3515C88.7636 54.6854 88.6966 54.9859 88.5962 55.3198C88.5627 55.4867 88.4957 55.6203 88.4622 55.7872C88.4287 55.9208 88.3618 56.0877 88.3283 56.2213V56.2547C88.2948 56.4216 88.2278 56.5552 88.1943 56.7221C88.1943 56.7555 88.1608 56.7889 88.1608 56.8557C88.1274 56.9558 88.0939 57.0894 88.0604 57.1896C88.0269 57.3565 87.9599 57.4901 87.9264 57.657C87.8929 57.7906 87.826 57.9241 87.7925 58.0911V58.1244C87.759 58.258 87.7255 58.3582 87.692 58.4917C87.6585 58.5585 87.6585 58.6253 87.6251 58.6921C87.6251 58.7254 87.5916 58.7588 87.5916 58.7922C87.5581 58.8924 87.5246 58.9592 87.5246 59.0593C87.4911 59.2263 87.4241 59.3598 87.3906 59.5268C87.3572 59.6603 87.2902 59.7939 87.2567 59.9274C87.2567 59.9608 87.2232 59.9942 87.2232 59.9942C87.1897 60.1278 87.1228 60.2947 87.0893 60.4283C87.0558 60.5618 86.9888 60.6954 86.9553 60.8289C86.9553 60.8623 86.9553 60.8623 86.9218 60.8957C86.8884 61.0293 86.8214 61.1962 86.7879 61.3298C86.7544 61.4633 86.6874 61.5969 86.6539 61.7304C86.6205 61.8306 86.587 61.8974 86.5535 61.9975C86.52 62.0643 86.4865 62.1645 86.453 62.2312C86.3861 62.3648 86.3526 62.5317 86.2856 62.6653C86.2186 62.7989 86.1851 62.9658 86.1182 63.0993C85.8503 63.8673 85.5489 64.6018 85.281 65.3364C85.214 65.4699 85.1805 65.6035 85.1136 65.7371C85.0466 65.8706 85.0131 66.0376 84.9461 66.1711C84.8792 66.3047 84.8457 66.4716 84.7787 66.6052C84.7452 66.7053 84.7117 66.8055 84.6448 66.9057V66.939C84.6113 67.0058 84.5778 67.106 84.5443 67.1728C84.4438 67.3731 84.3769 67.5734 84.2764 67.7738C84.2429 67.8405 84.2094 67.9073 84.2094 67.9407C84.1759 68.0409 84.109 68.1744 84.0755 68.2746C84.042 68.3748 83.975 68.4749 83.9415 68.5751C83.9081 68.6419 83.8746 68.7086 83.8411 68.7754C83.8076 68.8422 83.7741 68.9424 83.7406 69.0091C83.5397 69.4098 83.3723 69.8439 83.1714 70.2445C83.1379 70.3113 83.1044 70.4115 83.0709 70.4782C82.4346 71.8138 81.7984 73.0826 81.0952 74.3179C81.0617 74.3847 80.9947 74.4849 80.9612 74.5517C80.6264 75.1193 80.325 75.6869 79.9901 76.2211C79.9567 76.2879 79.8897 76.388 79.8562 76.4548C79.7557 76.5884 79.6888 76.7219 79.5883 76.8889C79.153 77.59 78.7177 78.2578 78.2488 78.9256C78.2154 78.9923 78.1484 79.0591 78.1149 79.1259C78.0814 79.1927 78.0144 79.2595 77.981 79.3262C77.9475 79.393 77.8805 79.4598 77.847 79.5266C77.7465 79.6935 77.6126 79.8271 77.5121 79.994C77.4452 80.0942 77.3447 80.1943 77.2777 80.2945C77.2108 80.3947 77.1103 80.4948 77.0433 80.6284C76.9764 80.7286 76.9094 80.7953 76.8424 80.8955C76.608 81.196 76.3736 81.4965 76.1392 81.797C75.9718 82.0307 75.7708 82.231 75.6034 82.4314C75.5699 82.4982 75.503 82.5315 75.4695 82.5983C75.1681 82.9322 74.9002 83.2661 74.5988 83.5666C74.5653 83.6 74.4984 83.6668 74.4649 83.7001C74.3979 83.7669 74.3644 83.8003 74.2974 83.8671C74.264 83.9339 74.197 83.9673 74.1635 84.0006C73.9961 84.1676 73.8286 84.3345 73.6612 84.5015C73.5942 84.5683 73.5607 84.6016 73.4938 84.6684C73.3933 84.7686 73.3263 84.8354 73.2259 84.9355C73.1924 84.9689 73.1254 85.0023 73.0919 85.0691C72.891 85.236 72.7236 85.403 72.5226 85.5699C72.4557 85.6033 72.4222 85.6701 72.3552 85.7035C72.2548 85.7702 72.1543 85.8704 72.0538 85.9372C72.0204 85.9706 71.9869 86.004 71.9534 86.004C71.652 86.2377 71.3506 86.4714 71.0492 86.7051C71.0158 86.7385 70.9488 86.7719 70.9153 86.8053C70.8818 86.8387 70.8148 86.8721 70.7814 86.9055C70.7479 86.9388 70.6809 86.9722 70.6474 87.0056C70.6139 87.039 70.5469 87.0724 70.5135 87.1058C70.2456 87.2727 70.0112 87.4397 69.7433 87.5732C69.7098 87.6066 69.6763 87.6066 69.6428 87.64C69.6093 87.6734 69.5424 87.7068 69.5089 87.7068C69.4754 87.7402 69.4084 87.7736 69.3749 87.7736C69.174 87.8737 68.9731 87.9739 68.8056 88.0741C68.7722 88.0741 68.7722 88.1074 68.7387 88.1074C68.7052 88.1074 68.6717 88.1408 68.6382 88.1408C68.5712 88.1742 68.5378 88.1742 68.4708 88.2076H68.4373C68.4038 88.241 68.3703 88.241 68.3368 88.2744C68.3034 88.2744 68.2699 88.3078 68.2364 88.3078C67.935 88.4413 67.6001 88.5749 67.2988 88.6751C67.2653 88.6751 67.2318 88.7084 67.1983 88.7084H67.1648C67.1313 88.7084 67.0978 88.7418 67.0309 88.7418C67.0309 88.7418 67.0309 88.7418 66.9974 88.7418C66.9639 88.7418 66.8969 88.7752 66.8634 88.7752C66.7295 88.8086 66.5621 88.8754 66.4281 88.9088C66.3946 88.9088 66.3611 88.9422 66.2942 88.9422H66.2607C66.2272 88.9422 66.1937 88.9756 66.1602 88.9756C66.1267 88.9756 66.0598 89.0089 66.0263 89.0089C65.9928 89.0089 65.9593 89.0423 65.8923 89.0423C65.8254 89.0423 65.7584 89.0757 65.6914 89.0757C65.6914 89.0757 66.5286 88.3412 67.8345 86.7385C68.0355 86.5048 68.2364 86.2377 68.4373 85.9372C69.241 84.8687 70.1451 83.4998 71.1162 81.797C76.0722 73.1827 82.3342 56.1211 80.6933 26.2383H92.715V26.3718Z" fill="url(#paint5_linear_1223_14792)"/>
<path d="M52.9332 76.621C42.5859 65.5694 39.4716 36.755 38.668 26.3711H45.0304C42.8203 50.8784 52.8997 76.5542 52.9332 76.621Z" fill="url(#paint6_linear_1223_14792)"/>
<path d="M54.9422 109.945H49.082C52.2632 106.806 59.0275 99.2271 59.3624 91.0469C59.3624 91.0469 60.9028 103.067 54.9422 109.945Z" fill="#FBE599"/>
</g>
<path d="M62.2198 38.8624C62.4566 38.2813 63.2795 38.2812 63.5163 38.8623L66.4416 46.0388C66.5415 46.2839 66.7712 46.4517 67.0351 46.4724L74.6945 47.0723C75.3148 47.1209 75.5682 47.8941 75.0969 48.3003L69.236 53.3535C69.0378 53.5244 68.9515 53.7915 69.0121 54.0461L70.817 61.615C70.9621 62.2234 70.2973 62.7021 69.7662 62.3716L63.2378 58.3083C63.0113 58.1674 62.7244 58.1674 62.498 58.3084L55.9722 62.3712C55.4412 62.7018 54.7762 62.2231 54.9213 61.6146L56.7261 54.0461C56.7868 53.7915 56.7005 53.5244 56.5023 53.3535L50.6413 48.3003C50.1701 47.8941 50.4235 47.1209 51.0438 47.0723L58.7031 46.4724C58.967 46.4517 59.1968 46.2839 59.2967 46.0386L62.2198 38.8624Z" fill="url(#paint7_linear_1223_14792)"/>
</g>
<defs>
<filter id="filter0_d_1223_14792" x="5.26172" y="0" width="117" height="117" filterUnits="userSpaceOnUse" color-interpolation-filters="sRGB">
<feFlood flood-opacity="0" result="BackgroundImageFix"/>
<feColorMatrix in="SourceAlpha" type="matrix" values="0 0 0 0 0 0 0 0 0 0 0 0 0 0 0 0 0 0 127 0" result="hardAlpha"/>
<feOffset dy="4"/>
<feGaussianBlur stdDeviation="2"/>
<feComposite in2="hardAlpha" operator="out"/>
<feColorMatrix type="matrix" values="0 0 0 0 0 0 0 0 0 0 0 0 0 0 0 0 0 0 0.25 0"/>
<feBlend mode="normal" in2="BackgroundImageFix" result="effect1_dropShadow_1223_14792"/>
<feBlend mode="normal" in="SourceGraphic" in2="effect1_dropShadow_1223_14792" result="shape"/>
</filter>
<linearGradient id="paint0_linear_1223_14792" x1="118.262" y1="143.517" x2="-31.2092" y2="45.0129" gradientUnits="userSpaceOnUse">
<stop offset="0.260417" stop-color="#3D445E"/>
<stop offset="1" stop-color="#919BC1"/>
</linearGradient>
<linearGradient id="paint1_linear_1223_14792" x1="41.8608" y1="111.489" x2="73.7848" y2="93.0034" gradientUnits="userSpaceOnUse">
<stop offset="0.0111732" stop-color="#FFEF31"/>
<stop offset="0.676" stop-color="#FFCA10"/>
</linearGradient>
<linearGradient id="paint2_linear_1223_14792" x1="75.8933" y1="109.939" x2="75.8933" y2="85.6101" gradientUnits="userSpaceOnUse">
<stop stop-color="#F9B01B"/>
<stop offset="0.5223" stop-color="#F9A11B"/>
</linearGradient>
<linearGradient id="paint3_linear_1223_14792" x1="80.5169" y1="78.17" x2="107.458" y2="31.3697" gradientUnits="userSpaceOnUse">
<stop offset="0.0111732" stop-color="#FFF731"/>
<stop offset="0.7151" stop-color="#FFC510"/>
</linearGradient>
<linearGradient id="paint4_linear_1223_14792" x1="30.4719" y1="31.5049" x2="86.8258" y2="64.1362" gradientUnits="userSpaceOnUse">
<stop offset="0.0111732" stop-color="#FFF952"/>
<stop offset="1" stop-color="#FFBF10"/>
</linearGradient>
<linearGradient id="paint5_linear_1223_14792" x1="79.0489" y1="26.372" x2="79.0489" y2="89.1968" gradientUnits="userSpaceOnUse">
<stop offset="0.0167598" stop-color="#F9D41B" stop-opacity="0.2"/>
<stop offset="0.7933" stop-color="#F99C1B"/>
</linearGradient>
<linearGradient id="paint6_linear_1223_14792" x1="45.7974" y1="76.6373" x2="45.7974" y2="26.3711" gradientUnits="userSpaceOnUse">
<stop offset="0.0167598" stop-color="#F9D41B" stop-opacity="0.1"/>
<stop offset="0.0623279" stop-color="#FADE3D" stop-opacity="0.1446"/>
<stop offset="0.1151" stop-color="#FCE75C" stop-opacity="0.1963"/>
<stop offset="0.1749" stop-color="#FDEE78" stop-opacity="0.2549"/>
<stop offset="0.2424" stop-color="#FEF48E" stop-opacity="0.321"/>
<stop offset="0.3214" stop-color="#FEF99F" stop-opacity="0.3983"/>
<stop offset="0.4189" stop-color="#FFFDAA" stop-opacity="0.4939"/>
<stop offset="0.5558" stop-color="#FFFEB1" stop-opacity="0.6279"/>
<stop offset="0.9358" stop-color="#FFFFB3"/>
</linearGradient>
<linearGradient id="paint7_linear_1223_14792" x1="76.3691" y1="71.5048" x2="42.9328" y2="50.1215" gradientUnits="userSpaceOnUse">
<stop offset="0.260417" stop-color="#3D445E"/>
<stop offset="1" stop-color="#919BC1"/>
</linearGradient>
</defs>
</svg>
