<svg width="54" height="54" viewBox="0 0 54 54" fill="none" xmlns="http://www.w3.org/2000/svg">
<path d="M24.334 42.9999H29.6673V37.6666H24.334V42.9999ZM27.0007 0.333252C12.2807 0.333252 0.333984 12.2799 0.333984 26.9999C0.333984 41.7199 12.2807 53.6666 27.0007 53.6666C41.7207 53.6666 53.6673 41.7199 53.6673 26.9999C53.6673 12.2799 41.7207 0.333252 27.0007 0.333252ZM27.0007 48.3333C15.2407 48.3333 5.66732 38.7599 5.66732 26.9999C5.66732 15.2399 15.2407 5.66659 27.0007 5.66659C38.7607 5.66659 48.334 15.2399 48.334 26.9999C48.334 38.7599 38.7607 48.3333 27.0007 48.3333ZM27.0007 10.9999C21.1073 10.9999 16.334 15.7733 16.334 21.6666H21.6673C21.6673 18.7333 24.0673 16.3333 27.0007 16.3333C29.934 16.3333 32.334 18.7333 32.334 21.6666C32.334 26.9999 24.334 26.3333 24.334 34.9999H29.6673C29.6673 28.9999 37.6673 28.3333 37.6673 21.6666C37.6673 15.7733 32.894 10.9999 27.0007 10.9999Z" fill="#FD5E5E"/>
</svg>
