<svg width="40" height="40" viewBox="0 0 40 40" fill="none" xmlns="http://www.w3.org/2000/svg">
<path d="M10.4459 16.5824H14.4937V29.5966H10.4459V16.5824ZM12.448 10.1406C13.7538 10.1406 14.7984 11.1852 14.7984 12.491C14.7984 13.7968 13.7538 14.8414 12.448 14.8414C11.1423 14.8414 10.0977 13.7968 10.0977 12.491C10.0977 11.1852 11.1423 10.1406 12.448 10.1406ZM17.0182 29.5966H21.0661V23.1548C21.0661 21.4573 21.3708 19.8033 23.5035 19.8033C25.5928 19.8033 25.5928 21.762 25.5928 23.2418V29.5966H29.5971V22.4584C29.5971 18.9763 28.8572 16.2777 24.7658 16.2777C22.8071 16.2777 21.5014 17.3659 20.9355 18.367H20.892V16.5824H17.0182V29.5966Z" fill="#3D445E"/>
<path d="M35.778 0H4.17845C1.8716 0 0 1.8716 0 4.17845V35.778C0 38.0849 1.8716 39.9565 4.17845 39.9565H35.778C38.0849 39.9565 39.9565 38.0849 39.9565 35.778V4.17845C40 1.8716 38.0849 0 35.778 0ZM37.3449 35.1687C37.3449 36.3439 36.3874 37.3449 35.1687 37.3449H4.78781C3.61262 37.3449 2.61153 36.3874 2.61153 35.1687V4.78781C2.61153 3.61262 3.5691 2.61153 4.78781 2.61153H35.1687C36.3439 2.61153 37.3449 3.5691 37.3449 4.78781V35.1687Z" fill="#3D445E"/>
</svg>
