<svg width="90" height="90" viewBox="0 0 90 90" fill="none" xmlns="http://www.w3.org/2000/svg">
<mask id="mask0_3057_20861" style="mask-type:alpha" maskUnits="userSpaceOnUse" x="0" y="0" width="90" height="90">
<path d="M45 90C69.8528 90 90 69.8528 90 45C90 20.1472 69.8528 0 45 0C20.1472 0 0 20.1472 0 45C0 69.8528 20.1472 90 45 90Z" fill="#E9E9E9"/>
</mask>
<g mask="url(#mask0_3057_20861)">
<path d="M45 90C69.8528 90 90 69.8528 90 45C90 20.1472 69.8528 0 45 0C20.1472 0 0 20.1472 0 45C0 69.8528 20.1472 90 45 90Z" fill="url(#paint0_linear_3057_20861)"/>
<mask id="mask1_3057_20861" style="mask-type:alpha" maskUnits="userSpaceOnUse" x="0" y="0" width="91" height="91">
<path d="M45.7773 90.3875C70.6302 90.3875 90.7773 70.2403 90.7773 45.3875C90.7773 20.5346 70.6302 0.387451 45.7773 0.387451C20.9245 0.387451 0.777344 20.5346 0.777344 45.3875C0.777344 70.2403 20.9245 90.3875 45.7773 90.3875Z" fill="#E9E9E9"/>
</mask>
<g mask="url(#mask1_3057_20861)">
<g filter="url(#filter0_d_3057_20861)">
<path d="M84.7221 107.318H33.5098C29.4719 107.318 26.2104 104.056 26.2104 100.018V21.7828C26.2104 17.7448 29.4719 14.4834 33.5098 14.4834H84.7221C88.7601 14.4834 92.0215 17.7448 92.0215 21.7828V99.9795C92.0215 104.056 88.7601 107.318 84.7221 107.318Z" fill="url(#paint1_linear_3057_20861)" shape-rendering="crispEdges"/>
</g>
<path d="M36.0345 31.4517C35.6479 31.4517 35.3345 31.1383 35.3345 30.7517V30.0939C35.3345 29.7073 35.6479 29.3939 36.0345 29.3939H36.7699C37.1565 29.3939 37.4699 29.0805 37.4699 28.6939V24.1551C37.4699 24.0249 37.5755 23.9194 37.7057 23.9194C37.9476 23.9194 38.0326 24.2403 37.8224 24.36L36.4887 25.1197C36.0606 25.3636 35.5286 25.0544 35.5286 24.5616V23.7425C35.5286 23.4917 35.6628 23.26 35.8803 23.1353L38.007 21.9155C38.113 21.8547 38.2331 21.8228 38.3553 21.8228H39.2548C39.6414 21.8228 39.9548 22.1362 39.9548 22.5228V28.6551C39.9548 29.0417 40.2682 29.3551 40.6548 29.3551H41.235C41.6216 29.3551 41.935 29.6685 41.935 30.0551V30.7517C41.935 31.1383 41.6216 31.4517 41.235 31.4517H36.0345Z" fill="url(#paint2_linear_3057_20861)"/>
<path d="M59.678 41.5067L60.1051 42.4385C60.2992 42.8656 60.8816 42.9044 61.1534 42.5162L61.7358 41.7008C62.0464 41.2737 62.7065 41.3902 62.823 41.8949L63.0559 42.8656C63.1724 43.3315 63.7548 43.4868 64.0654 43.1374L64.7643 42.4385C65.1526 42.0502 65.7738 42.322 65.8126 42.8268L65.8903 43.8363C65.9291 44.3022 66.4727 44.574 66.8609 44.3022L67.6763 43.7198C68.1034 43.4092 68.6858 43.7586 68.6469 44.3022L68.5305 45.3117C68.4916 45.7776 68.9576 46.127 69.3846 45.9329L70.3165 45.5058C70.7824 45.2728 71.2872 45.7388 71.1707 46.2435L70.8989 47.2142C70.7824 47.6801 71.1707 48.1072 71.6366 47.9907L72.6073 47.7577C73.112 47.6413 73.5391 48.146 73.3061 48.6119L72.8402 49.5049C72.6073 49.932 72.9567 50.4368 73.4226 50.398L74.4321 50.3203C74.9368 50.2815 75.2863 50.8639 74.9757 51.291L74.3545 52.1063C74.0827 52.4946 74.3156 53.0382 74.7815 53.077L75.791 53.1935C76.2958 53.2711 76.5287 53.8923 76.1405 54.2418L75.4028 54.9407C75.0533 55.2513 75.1698 55.8337 75.6357 55.989L76.6064 56.2996C77.1111 56.4549 77.1888 57.1149 76.7617 57.3867L75.9075 57.9303C75.5192 58.2021 75.5192 58.7845 75.9463 58.9786L76.8393 59.4445C77.3053 59.6775 77.2664 60.3764 76.8005 60.5705L75.8687 60.9588C75.4416 61.1529 75.3639 61.7353 75.7134 62.0071L76.5287 62.6283C76.9558 62.9389 76.8005 63.599 76.2958 63.7155L75.2863 63.9096C74.8204 63.9873 74.6262 64.5696 74.9757 64.9191L75.6745 65.6568C76.024 66.0451 75.7522 66.6663 75.2475 66.6663L74.238 66.7051C73.772 66.7051 73.5003 67.2487 73.7332 67.6369L74.2768 68.4911C74.5486 68.9182 74.1991 69.5006 73.6556 69.423L72.6461 69.2677C72.1802 69.19 71.7919 69.6559 71.986 70.083L72.3743 71.0149C72.5684 71.5196 72.1025 71.9855 71.5978 71.8302L70.6271 71.4808C70.1612 71.3255 69.7341 71.7137 69.8117 72.1797L70.0059 73.1891C70.1224 73.6939 69.5788 74.0822 69.1129 73.8492L68.2199 73.3445C67.7928 73.1115 67.288 73.4221 67.3268 73.888L67.3657 74.8975C67.3657 75.4023 66.7833 75.7129 66.3562 75.3634L65.5796 74.7034C65.2302 74.3928 64.6478 74.6257 64.5702 75.0916L64.4148 76.1011C64.3372 76.6059 63.6771 76.8 63.3277 76.4118L62.6677 75.6352C62.357 75.2858 61.7746 75.3634 61.6193 75.8294L61.2699 76.8C61.1146 77.3048 60.4157 77.3436 60.1439 76.9165L59.6392 76.0235C59.4062 75.5964 58.8238 75.5964 58.5909 76.0235L58.0861 76.9165C57.8143 77.3824 57.1543 77.3048 56.9601 76.8L56.6107 75.8294C56.4554 75.4023 55.873 75.2858 55.5624 75.6352L54.9023 76.4118C54.5529 76.8 53.9317 76.6447 53.8152 76.1011L53.6599 75.0916C53.5822 74.6257 53.0387 74.4316 52.6504 74.7034L51.8739 75.3634C51.4856 75.7129 50.8644 75.4023 50.8644 74.8975L50.9032 73.888C50.9032 73.4221 50.3985 73.1115 50.0102 73.3445L49.1172 73.8492C48.6513 74.121 48.1077 73.6939 48.2242 73.1891L48.4183 72.1797C48.496 71.7137 48.0689 71.3255 47.6029 71.4808L46.6323 71.8302C46.1275 71.9855 45.6616 71.5196 45.8557 71.0149L46.244 70.083C46.4381 69.6559 46.0499 69.19 45.584 69.2677L44.5745 69.423C44.0697 69.5006 43.6815 68.957 43.9532 68.4911L44.4968 67.6369C44.7298 67.2487 44.458 66.7051 43.9921 66.7051L42.9826 66.6663C42.4778 66.6663 42.206 66.0451 42.5555 65.6568L43.2544 64.9191C43.565 64.5696 43.3708 63.9873 42.9438 63.9096L41.9343 63.7155C41.4295 63.599 41.2742 62.9389 41.7013 62.6283L42.5167 62.0071C42.9049 61.7353 42.8273 61.1141 42.3614 60.9588L41.4295 60.5705C40.9636 60.3764 40.9248 59.7163 41.3907 59.4445L42.2837 58.9786C42.7108 58.7457 42.7496 58.1633 42.3225 57.9303L41.4683 57.3867C41.0413 57.1149 41.1189 56.4549 41.6236 56.2996L42.5943 55.989C43.0602 55.8337 43.1767 55.2901 42.8273 54.9407L42.0896 54.2418C41.7013 53.8923 41.8954 53.2323 42.439 53.1935L43.4485 53.077C43.9144 53.0382 44.1474 52.4946 43.8756 52.1063L43.2544 51.291C42.9438 50.8639 43.2544 50.2815 43.7979 50.3203L44.8074 50.398C45.2733 50.4368 45.6228 49.932 45.3898 49.5049L44.9239 48.6119C44.6909 48.146 45.118 47.6024 45.6228 47.7577L46.5935 47.9907C47.0594 48.1072 47.4476 47.6801 47.3312 47.2142L47.0594 46.2435C46.9041 45.7388 47.4088 45.3117 47.9136 45.5058L48.8454 45.9329C49.2725 46.127 49.7384 45.7776 49.6996 45.3117L49.5831 44.3022C49.5443 43.7974 50.0878 43.448 50.5538 43.7198L51.3691 44.3022C51.7574 44.574 52.301 44.3022 52.3398 43.8363L52.4174 42.8268C52.4563 42.322 53.0775 42.0502 53.4658 42.4385L54.1646 43.1374C54.5141 43.4868 55.0576 43.3315 55.1741 42.8656L55.4071 41.8949C55.5236 41.3902 56.1836 41.2737 56.4942 41.7008L57.0766 42.5162C57.3484 42.9044 57.9308 42.8656 58.1249 42.4385L58.552 41.5067C58.785 41.0407 59.445 41.0407 59.678 41.5067Z" fill="url(#paint3_linear_3057_20861)"/>
<path d="M59.1736 72.9565C66.7859 72.9565 72.957 66.7855 72.957 59.1731C72.957 51.5607 66.7859 45.3896 59.1736 45.3896C51.5612 45.3896 45.3901 51.5607 45.3901 59.1731C45.3901 66.7855 51.5612 72.9565 59.1736 72.9565Z" fill="url(#paint4_linear_3057_20861)"/>
<path d="M67.662 64.3839C68.6673 62.8088 69.263 60.8962 69.263 58.8711C69.263 54.4458 66.4707 50.6956 62.5987 49.2705M49.9032 54.4458C49.2703 55.7959 48.8979 57.296 48.8979 58.9086C48.8979 63.1088 51.4296 66.7465 55.041 68.3216" stroke="url(#paint5_linear_3057_20861)" stroke-width="2" stroke-miterlimit="10" stroke-linecap="round" stroke-linejoin="round"/>
</g>
</g>
<defs>
<filter id="filter0_d_3057_20861" x="-0.789551" y="-8.5166" width="119.811" height="146.834" filterUnits="userSpaceOnUse" color-interpolation-filters="sRGB">
<feFlood flood-opacity="0" result="BackgroundImageFix"/>
<feColorMatrix in="SourceAlpha" type="matrix" values="0 0 0 0 0 0 0 0 0 0 0 0 0 0 0 0 0 0 127 0" result="hardAlpha"/>
<feOffset dy="4"/>
<feGaussianBlur stdDeviation="13.5"/>
<feComposite in2="hardAlpha" operator="out"/>
<feColorMatrix type="matrix" values="0 0 0 0 0 0 0 0 0 0 0 0 0 0 0 0 0 0 0.15 0"/>
<feBlend mode="normal" in2="BackgroundImageFix" result="effect1_dropShadow_3057_20861"/>
<feBlend mode="normal" in="SourceGraphic" in2="effect1_dropShadow_3057_20861" result="shape"/>
</filter>
<linearGradient id="paint0_linear_3057_20861" x1="90" y1="118.5" x2="-33.4163" y2="37.1666" gradientUnits="userSpaceOnUse">
<stop offset="0.260417" stop-color="#3D445E"/>
<stop offset="1" stop-color="#919BC1"/>
</linearGradient>
<linearGradient id="paint1_linear_3057_20861" x1="59.116" y1="14.4834" x2="166.569" y2="218.012" gradientUnits="userSpaceOnUse">
<stop stop-color="white"/>
<stop offset="1" stop-color="white" stop-opacity="0.7"/>
</linearGradient>
<linearGradient id="paint2_linear_3057_20861" x1="41.935" y1="34.5009" x2="28.0256" y2="27.0625" gradientUnits="userSpaceOnUse">
<stop offset="0.260417" stop-color="#3D445E"/>
<stop offset="1" stop-color="#919BC1"/>
</linearGradient>
<linearGradient id="paint3_linear_3057_20861" x1="77.17" y1="88.6476" x2="13.5355" y2="46.0879" gradientUnits="userSpaceOnUse">
<stop offset="0.260417" stop-color="#3D445E"/>
<stop offset="1" stop-color="#919BC1"/>
</linearGradient>
<linearGradient id="paint4_linear_3057_20861" x1="44.0072" y1="47.6383" x2="69.4039" y2="63.2537" gradientUnits="userSpaceOnUse">
<stop offset="0.0111732" stop-color="#FFF952"/>
<stop offset="1" stop-color="#FFBF10"/>
</linearGradient>
<linearGradient id="paint5_linear_3057_20861" x1="45.6133" y1="53.2121" x2="51.9695" y2="68.3219" gradientUnits="userSpaceOnUse">
<stop stop-color="#73778A" stop-opacity="0.99"/>
<stop offset="0.6875" stop-color="#3E445E"/>
</linearGradient>
</defs>
</svg>
