<svg width="92" height="92" viewBox="0 0 92 92" fill="none" xmlns="http://www.w3.org/2000/svg">
<mask id="mask0_3057_20879" style="mask-type:alpha" maskUnits="userSpaceOnUse" x="0" y="0" width="92" height="92">
<path d="M45.5732 91.1464C70.7426 91.1464 91.1464 70.7426 91.1464 45.5732C91.1464 20.4038 70.7426 0 45.5732 0C20.4038 0 0 20.4038 0 45.5732C0 70.7426 20.4038 91.1464 45.5732 91.1464Z" fill="#E9E9E9"/>
</mask>
<g mask="url(#mask0_3057_20879)">
<path d="M45.5732 91.1464C70.7426 91.1464 91.1464 70.7426 91.1464 45.5732C91.1464 20.4038 70.7426 0 45.5732 0C20.4038 0 0 20.4038 0 45.5732C0 70.7426 20.4038 91.1464 45.5732 91.1464Z" fill="url(#paint0_linear_3057_20879)"/>
<mask id="mask1_3057_20879" style="mask-type:alpha" maskUnits="userSpaceOnUse" x="0" y="0" width="92" height="92">
<path d="M46.3594 91.5388C71.5287 91.5388 91.9326 71.1349 91.9326 45.9656C91.9326 20.7962 71.5287 0.392334 46.3594 0.392334C21.19 0.392334 0.786133 20.7962 0.786133 45.9656C0.786133 71.1349 21.19 91.5388 46.3594 91.5388Z" fill="#E9E9E9"/>
</mask>
<g mask="url(#mask1_3057_20879)">
<g filter="url(#filter0_d_3057_20879)">
<path d="M85.8004 108.685H33.9358C29.8464 108.685 26.5435 105.382 26.5435 101.292V22.0603C26.5435 17.9709 29.8464 14.668 33.9358 14.668H85.8004C89.8898 14.668 93.1928 17.9709 93.1928 22.0603V101.253C93.1928 105.382 89.8898 108.685 85.8004 108.685Z" fill="url(#paint1_linear_3057_20879)" shape-rendering="crispEdges"/>
</g>
<path d="M57.6571 36.0614L57.9965 36.8019C58.1508 37.1413 58.6136 37.1722 58.8296 36.8636L59.2924 36.2157C59.5393 35.8763 60.0638 35.9688 60.1564 36.3699L60.3415 37.1413C60.4341 37.5116 60.8969 37.635 61.1438 37.3573L61.6992 36.8019C62.0077 36.4934 62.5014 36.7094 62.5323 37.1105L62.594 37.9127C62.6248 38.283 63.0568 38.499 63.3654 38.283L64.0133 37.8202C64.3527 37.5733 64.8156 37.851 64.7847 38.283L64.6921 39.0852C64.6613 39.4555 65.0316 39.7332 65.371 39.5789L66.1115 39.2395C66.4818 39.0544 66.8829 39.4247 66.7903 39.8258L66.5743 40.5972C66.4818 40.9674 66.7903 41.3068 67.1606 41.2143L67.932 41.0291C68.3331 40.9366 68.6725 41.3377 68.4874 41.708L68.1171 42.4176C67.932 42.7571 68.2097 43.1582 68.58 43.1273L69.3822 43.0656C69.7833 43.0348 70.061 43.4976 69.8142 43.837L69.3205 44.485C69.1045 44.7935 69.2896 45.2255 69.6599 45.2564L70.4621 45.3489C70.8633 45.4106 71.0484 45.9043 70.7398 46.182L70.1536 46.7374C69.8759 46.9843 69.9685 47.4471 70.3387 47.5705L71.1101 47.8174C71.5112 47.9408 71.5729 48.4653 71.2335 48.6813L70.5547 49.1133C70.2462 49.3293 70.2462 49.7921 70.5856 49.9464L71.2952 50.3167C71.6655 50.5018 71.6347 51.0572 71.2644 51.2115L70.5239 51.52C70.1844 51.6743 70.1227 52.1372 70.4004 52.3531L71.0484 52.8468C71.3878 53.0937 71.2644 53.6182 70.8633 53.7108L70.061 53.8651C69.6908 53.9268 69.5365 54.3896 69.8142 54.6673L70.3696 55.2536C70.6473 55.5621 70.4313 56.0558 70.0302 56.0558L69.2279 56.0867C68.8577 56.0867 68.6417 56.5187 68.8268 56.8272L69.2588 57.506C69.4748 57.8454 69.1971 58.3083 68.7651 58.2466L67.9628 58.1231C67.5926 58.0614 67.284 58.4317 67.4383 58.7711L67.7469 59.5116C67.9011 59.9128 67.5309 60.283 67.1297 60.1596L66.3583 59.8819C65.9881 59.7585 65.6487 60.067 65.7104 60.4373L65.8647 61.2396C65.9572 61.6407 65.5252 61.9492 65.155 61.7641L64.4453 61.363C64.1059 61.1779 63.7048 61.4247 63.7356 61.795L63.7665 62.5972C63.7665 62.9983 63.3036 63.2452 62.9642 62.9675L62.3471 62.4429C62.0694 62.1961 61.6066 62.3812 61.5449 62.7515L61.4215 63.5537C61.3597 63.9549 60.8352 64.1091 60.5575 63.8006L60.033 63.1835C59.7861 62.9058 59.3233 62.9675 59.1999 63.3377L58.9222 64.1091C58.7987 64.5103 58.2433 64.5411 58.0273 64.2017L57.6262 63.492C57.4411 63.1526 56.9782 63.1526 56.7931 63.492L56.392 64.2017C56.176 64.572 55.6515 64.5103 55.4972 64.1091L55.2195 63.3377C55.0961 62.9983 54.6332 62.9058 54.3864 63.1835L53.8618 63.8006C53.5841 64.1091 53.0904 63.9857 52.9979 63.5537L52.8745 62.7515C52.8127 62.3812 52.3808 62.2269 52.0722 62.4429L51.4551 62.9675C51.1465 63.2452 50.6528 62.9983 50.6528 62.5972L50.6837 61.795C50.6837 61.4247 50.2826 61.1779 49.974 61.363L49.2643 61.7641C48.8941 61.9801 48.4621 61.6407 48.5547 61.2396L48.7089 60.4373C48.7707 60.067 48.4312 59.7585 48.061 59.8819L47.2896 60.1596C46.8885 60.283 46.5182 59.9128 46.6725 59.5116L46.981 58.7711C47.1353 58.4317 46.8268 58.0614 46.4565 58.1231L45.6542 58.2466C45.2531 58.3083 44.9446 57.8763 45.1606 57.506L45.5925 56.8272C45.7777 56.5187 45.5617 56.0867 45.1914 56.0867L44.3892 56.0558C43.988 56.0558 43.7721 55.5621 44.0498 55.2536L44.6052 54.6673C44.852 54.3896 44.6977 53.9268 44.3583 53.8651L43.5561 53.7108C43.1549 53.6182 43.0315 53.0937 43.3709 52.8468L44.0189 52.3531C44.3275 52.1372 44.2657 51.6435 43.8955 51.52L43.1549 51.2115C42.7847 51.0572 42.7538 50.5327 43.1241 50.3167L43.8338 49.9464C44.1732 49.7613 44.204 49.2984 43.8646 49.1133L43.1858 48.6813C42.8464 48.4653 42.9081 47.9408 43.3092 47.8174L44.0806 47.5705C44.4509 47.4471 44.5434 47.0151 44.2657 46.7374L43.6795 46.182C43.3709 45.9043 43.5252 45.3798 43.9572 45.3489L44.7594 45.2564C45.1297 45.2255 45.3148 44.7935 45.0988 44.485L44.6052 43.837C44.3583 43.4976 44.6052 43.0348 45.0371 43.0656L45.8394 43.1273C46.2096 43.1582 46.4873 42.7571 46.3022 42.4176L45.9319 41.708C45.7468 41.3377 46.0862 40.9057 46.4873 41.0291L47.2587 41.2143C47.629 41.3068 47.9376 40.9674 47.845 40.5972L47.629 39.8258C47.5056 39.4247 47.9067 39.0852 48.3078 39.2395L49.0484 39.5789C49.3878 39.7332 49.758 39.4555 49.7272 39.0852L49.6346 38.283C49.6038 37.8819 50.0357 37.6042 50.406 37.8202L51.054 38.283C51.3625 38.499 51.7945 38.283 51.8254 37.9127L51.8871 37.1105C51.9179 36.7094 52.4116 36.4934 52.7202 36.8019L53.2756 37.3573C53.5533 37.635 53.9853 37.5116 54.0778 37.1413L54.263 36.3699C54.3555 35.9688 54.8801 35.8763 55.1269 36.2157L55.5897 36.8636C55.8057 37.1722 56.2686 37.1413 56.4228 36.8019L56.7623 36.0614C56.9474 35.6911 57.4719 35.6911 57.6571 36.0614Z" fill="url(#paint2_linear_3057_20879)"/>
<path d="M57.256 61.054C63.3056 61.054 68.2097 56.1498 68.2097 50.1002C68.2097 44.0506 63.3056 39.1465 57.256 39.1465C51.2064 39.1465 46.3022 44.0506 46.3022 50.1002C46.3022 56.1498 51.2064 61.054 57.256 61.054Z" fill="url(#paint3_linear_3057_20879)"/>
<path d="M64.2917 54.4817C65.1248 53.1857 65.6185 51.6121 65.6185 49.9459C65.6185 46.3049 63.3043 43.2194 60.0953 42.0469M49.5733 46.3052C49.0488 47.416 48.7402 48.6502 48.7402 49.977C48.7402 53.4328 50.8384 56.4258 53.8314 57.7218" stroke="url(#paint4_linear_3057_20879)" stroke-width="2" stroke-miterlimit="10" stroke-linecap="round" stroke-linejoin="round"/>
<path d="M84.8827 53.3612L85.2221 54.1017C85.3763 54.4411 85.8392 54.472 86.0552 54.1634L86.518 53.5155C86.7648 53.1761 87.2894 53.2686 87.382 53.6698L87.5671 54.4411C87.6597 54.8114 88.1225 54.9348 88.3693 54.6571L88.9247 54.1017C89.2333 53.7932 89.727 54.0092 89.7578 54.4103L89.8196 55.2125C89.8504 55.5828 90.2824 55.7988 90.5909 55.5828L91.2389 55.12C91.5783 54.8731 92.0412 55.1508 92.0103 55.5828L91.9177 56.385C91.8869 56.7553 92.2571 57.033 92.5966 56.8787L93.3371 56.5393C93.7074 56.3542 94.1085 56.7245 94.0159 57.1256L93.7999 57.897C93.7074 58.2672 94.0159 58.6066 94.3862 58.5141L95.1576 58.3289C95.5587 58.2364 95.8981 58.6375 95.713 59.0078L95.3427 59.7175C95.1576 60.0569 95.4353 60.458 95.8055 60.4271L96.6078 60.3654C97.0089 60.3346 97.2866 60.7974 97.0398 61.1368L96.5461 61.7848C96.3301 62.0933 96.5152 62.5253 96.8855 62.5562L97.6877 62.6487C98.0889 62.7104 98.274 63.2041 97.9654 63.4818L97.3792 64.0372C97.1015 64.2841 97.194 64.7469 97.5643 64.8703L98.3357 65.1172C98.7368 65.2406 98.7985 65.7651 98.4591 65.9811L97.7803 66.4131C97.4717 66.6291 97.4717 67.0919 97.8112 67.2462L98.5208 67.6165C98.8911 67.8016 98.8602 68.357 98.49 68.5113L97.7494 68.8199C97.41 68.9741 97.3483 69.437 97.626 69.653L98.274 70.1466C98.6134 70.3935 98.49 70.918 98.0889 71.0106L97.2866 71.1649C96.9163 71.2266 96.7621 71.6894 97.0398 71.9671L97.5952 72.5534C97.8729 72.8619 97.6569 73.3556 97.2558 73.3556L96.4535 73.3865C96.0832 73.3865 95.8673 73.8185 96.0524 74.127L96.4844 74.8058C96.7004 75.1453 96.4227 75.6081 95.9907 75.5464L95.1884 75.423C94.8182 75.3612 94.5096 75.7315 94.6639 76.0709L94.9724 76.8115C95.1267 77.2126 94.7564 77.5828 94.3553 77.4594L93.5839 77.1817C93.2137 77.0583 92.8743 77.3669 92.936 77.7371L93.0902 78.5394C93.1828 78.9405 92.7508 79.249 92.3806 79.0639L91.6709 78.6628C91.3315 78.4777 90.9304 78.7245 90.9612 79.0948L90.9921 79.897C90.9921 80.2981 90.5292 80.545 90.1898 80.2673L89.5727 79.7427C89.295 79.4959 88.8322 79.681 88.7705 80.0513L88.647 80.8535C88.5853 81.2547 88.0608 81.4089 87.7831 81.1004L87.2585 80.4833C87.0117 80.2056 86.5489 80.2673 86.4254 80.6376L86.1477 81.4089C86.0243 81.8101 85.4689 81.8409 85.2529 81.5015L84.8518 80.7918C84.6667 80.4524 84.2038 80.4524 84.0187 80.7918L83.6176 81.5015C83.4016 81.8718 82.877 81.8101 82.7228 81.4089L82.4451 80.6376C82.3216 80.2981 81.8588 80.2056 81.612 80.4833L81.0874 81.1004C80.8097 81.4089 80.316 81.2855 80.2235 80.8535L80.1 80.0513C80.0383 79.681 79.6064 79.5267 79.2978 79.7427L78.6807 80.2673C78.3721 80.545 77.8784 80.2981 77.8784 79.897L77.9093 79.0948C77.9093 78.7245 77.5082 78.4777 77.1996 78.6628L76.4899 79.0639C76.1197 79.2799 75.6877 78.9405 75.7803 78.5394L75.9345 77.7371C75.9962 77.3669 75.6568 77.0583 75.2866 77.1817L74.5152 77.4594C74.1141 77.5828 73.7438 77.2126 73.8981 76.8115L74.2066 76.0709C74.3609 75.7315 74.0523 75.3612 73.6821 75.423L72.8798 75.5464C72.4787 75.6081 72.1701 75.1761 72.3861 74.8058L72.8181 74.127C73.0033 73.8185 72.7873 73.3865 72.417 73.3865L71.6147 73.3556C71.2136 73.3556 70.9976 72.8619 71.2753 72.5534L71.8307 71.9671C72.0776 71.6894 71.9233 71.2266 71.5839 71.1649L70.7816 71.0106C70.3805 70.918 70.2571 70.3935 70.5965 70.1466L71.2445 69.653C71.553 69.437 71.4913 68.9433 71.1211 68.8199L70.3805 68.5113C70.0103 68.357 69.9794 67.8325 70.3497 67.6165L71.0593 67.2462C71.3988 67.0611 71.4296 66.5982 71.0902 66.4131L70.4114 65.9811C70.072 65.7651 70.1337 65.2406 70.5348 65.1172L71.3062 64.8703C71.6765 64.7469 71.769 64.3149 71.4913 64.0372L70.9051 63.4818C70.5965 63.2041 70.7508 62.6796 71.1828 62.6487L71.985 62.5562C72.3553 62.5253 72.5404 62.0933 72.3244 61.7848L71.8307 61.1368C71.5839 60.7974 71.8307 60.3346 72.2627 60.3654L73.065 60.4271C73.4352 60.458 73.7129 60.0569 73.5278 59.7175L73.1575 59.0078C72.9724 58.6375 73.3118 58.2055 73.7129 58.3289L74.4843 58.5141C74.8546 58.6066 75.1631 58.2672 75.0706 57.897L74.8546 57.1256C74.7312 56.7245 75.1323 56.385 75.5334 56.5393L76.2739 56.8787C76.6134 57.033 76.9836 56.7553 76.9528 56.385L76.8602 55.5828C76.8293 55.1817 77.2613 54.904 77.6316 55.12L78.2796 55.5828C78.5881 55.7988 79.0201 55.5828 79.0509 55.2125L79.1127 54.4103C79.1435 54.0092 79.6372 53.7932 79.9458 54.1017L80.5012 54.6571C80.7789 54.9348 81.2108 54.8114 81.3034 54.4411L81.4885 53.6698C81.5811 53.2686 82.1057 53.1761 82.3525 53.5155L82.8153 54.1634C83.0313 54.472 83.4942 54.4411 83.6484 54.1017L83.9878 53.3612C84.173 52.9909 84.6975 52.9909 84.8827 53.3612Z" fill="url(#paint5_linear_3057_20879)"/>
<path d="M84.4816 78.3538C90.5312 78.3538 95.4353 73.4496 95.4353 67.4C95.4353 61.3504 90.5312 56.4463 84.4816 56.4463C78.432 56.4463 73.5278 61.3504 73.5278 67.4C73.5278 73.4496 78.432 78.3538 84.4816 78.3538Z" fill="url(#paint6_linear_3057_20879)"/>
<path d="M76.7999 63.6064C76.2754 64.7172 75.9668 65.9515 75.9668 67.2783C75.9668 70.7341 78.065 73.7271 81.058 75.023" stroke="url(#paint7_linear_3057_20879)" stroke-width="2" stroke-miterlimit="10" stroke-linecap="round" stroke-linejoin="round"/>
<path d="M57.6571 70.2696L57.9965 71.0102C58.1508 71.3496 58.6136 71.3804 58.8296 71.0719L59.2924 70.4239C59.5393 70.0845 60.0638 70.1771 60.1564 70.5782L60.3415 71.3496C60.4341 71.7199 60.8969 71.8433 61.1438 71.5656L61.6992 71.0102C62.0077 70.7016 62.5014 70.9176 62.5323 71.3187L62.594 72.121C62.6248 72.4912 63.0568 72.7072 63.3654 72.4912L64.0133 72.0284C64.3527 71.7816 64.8156 72.0593 64.7847 72.4912L64.6921 73.2935C64.6613 73.6638 65.0316 73.9415 65.371 73.7872L66.1115 73.4478C66.4818 73.2626 66.8829 73.6329 66.7903 74.034L66.5743 74.8054C66.4818 75.1757 66.7903 75.5151 67.1606 75.4225L67.932 75.2374C68.3331 75.1448 68.6725 75.546 68.4874 75.9162L68.1171 76.6259C67.932 76.9653 68.2097 77.3664 68.58 77.3356L69.3822 77.2739C69.7833 77.243 70.061 77.7058 69.8142 78.0453L69.3205 78.6932C69.1045 79.0018 69.2896 79.4338 69.6599 79.4646L70.4621 79.5572C70.8633 79.6189 71.0484 80.1126 70.7398 80.3903L70.1536 80.9457C69.8759 81.1925 69.9685 81.6554 70.3387 81.7788L71.1101 82.0256C71.5112 82.1491 71.5729 82.6736 71.2335 82.8896L70.5547 83.3216C70.2462 83.5376 70.2462 84.0004 70.5856 84.1547L71.2952 84.5249C71.6655 84.7101 71.6347 85.2655 71.2644 85.4197L70.5239 85.7283C70.1844 85.8826 70.1227 86.3454 70.4004 86.5614L71.0484 87.0551C71.3878 87.3019 71.2644 87.8265 70.8633 87.9191L70.061 88.0733C69.6908 88.135 69.5365 88.5979 69.8142 88.8756L70.3696 89.4618C70.6473 89.7704 70.4313 90.2641 70.0302 90.2641L69.2279 90.2949C68.8577 90.2949 68.6417 90.7269 68.8268 91.0355L69.2588 91.7143C69.4748 92.0537 69.1971 92.5165 68.7651 92.4548L67.9628 92.3314C67.5926 92.2697 67.284 92.64 67.4383 92.9794L67.7469 93.7199C67.9011 94.121 67.5309 94.4913 67.1297 94.3679L66.3583 94.0902C65.9881 93.9667 65.6487 94.2753 65.7104 94.6456L65.8647 95.4478C65.9572 95.8489 65.5252 96.1575 65.155 95.9724L64.4453 95.5712C64.1059 95.3861 63.7048 95.6329 63.7356 96.0032L63.7665 96.8055C63.7665 97.2066 63.3036 97.4534 62.9642 97.1757L62.3471 96.6512C62.0694 96.4043 61.6066 96.5895 61.5449 96.9597L61.4215 97.762C61.3597 98.1631 60.8352 98.3174 60.5575 98.0088L60.033 97.3917C59.7861 97.114 59.3233 97.1757 59.1999 97.546L58.9222 98.3174C58.7987 98.7185 58.2433 98.7494 58.0273 98.41L57.6262 97.7003C57.4411 97.3609 56.9782 97.3609 56.7931 97.7003L56.392 98.41C56.176 98.7802 55.6515 98.7185 55.4972 98.3174L55.2195 97.546C55.0961 97.2066 54.6332 97.114 54.3864 97.3917L53.8618 98.0088C53.5841 98.3174 53.0904 98.194 52.9979 97.762L52.8745 96.9597C52.8127 96.5895 52.3808 96.4352 52.0722 96.6512L51.4551 97.1757C51.1465 97.4534 50.6528 97.2066 50.6528 96.8055L50.6837 96.0032C50.6837 95.6329 50.2826 95.3861 49.974 95.5712L49.2643 95.9724C48.8941 96.1883 48.4621 95.8489 48.5547 95.4478L48.7089 94.6456C48.7707 94.2753 48.4312 93.9667 48.061 94.0902L47.2896 94.3679C46.8885 94.4913 46.5182 94.121 46.6725 93.7199L46.981 92.9794C47.1353 92.64 46.8268 92.2697 46.4565 92.3314L45.6542 92.4548C45.2531 92.5165 44.9446 92.0846 45.1606 91.7143L45.5925 91.0355C45.7777 90.7269 45.5617 90.2949 45.1914 90.2949L44.3892 90.2641C43.988 90.2641 43.7721 89.7704 44.0498 89.4618L44.6052 88.8756C44.852 88.5979 44.6977 88.135 44.3583 88.0733L43.5561 87.9191C43.1549 87.8265 43.0315 87.3019 43.3709 87.0551L44.0189 86.5614C44.3275 86.3454 44.2657 85.8517 43.8955 85.7283L43.1549 85.4197C42.7847 85.2655 42.7538 84.7409 43.1241 84.5249L43.8338 84.1547C44.1732 83.9695 44.204 83.5067 43.8646 83.3216L43.1858 82.8896C42.8464 82.6736 42.9081 82.1491 43.3092 82.0256L44.0806 81.7788C44.4509 81.6554 44.5434 81.2234 44.2657 80.9457L43.6795 80.3903C43.3709 80.1126 43.5252 79.588 43.9572 79.5572L44.7594 79.4646C45.1297 79.4338 45.3148 79.0018 45.0988 78.6932L44.6052 78.0453C44.3583 77.7058 44.6052 77.243 45.0371 77.2739L45.8394 77.3356C46.2096 77.3664 46.4873 76.9653 46.3022 76.6259L45.9319 75.9162C45.7468 75.546 46.0862 75.114 46.4873 75.2374L47.2587 75.4225C47.629 75.5151 47.9376 75.1757 47.845 74.8054L47.629 74.034C47.5056 73.6329 47.9067 73.2935 48.3078 73.4478L49.0484 73.7872C49.3878 73.9415 49.758 73.6638 49.7272 73.2935L49.6346 72.4912C49.6038 72.0901 50.0357 71.8124 50.406 72.0284L51.054 72.4912C51.3625 72.7072 51.7945 72.4912 51.8254 72.121L51.8871 71.3187C51.9179 70.9176 52.4116 70.7016 52.7202 71.0102L53.2756 71.5656C53.5533 71.8433 53.9853 71.7199 54.0778 71.3496L54.263 70.5782C54.3555 70.1771 54.8801 70.0845 55.1269 70.4239L55.5897 71.0719C55.8057 71.3804 56.2686 71.3496 56.4228 71.0102L56.7623 70.2696C56.9474 69.8994 57.4719 69.8994 57.6571 70.2696Z" fill="url(#paint8_linear_3057_20879)"/>
<path d="M57.256 95.2622C63.3056 95.2622 68.2097 90.3581 68.2097 84.3085C68.2097 78.2589 63.3056 73.3547 57.256 73.3547C51.2064 73.3547 46.3022 78.2589 46.3022 84.3085C46.3022 90.3581 51.2064 95.2622 57.256 95.2622Z" fill="url(#paint9_linear_3057_20879)"/>
<path d="M64.2912 88.6904C65.1243 87.3945 65.618 85.8208 65.618 84.1546C65.618 80.5137 63.3038 77.4281 60.0948 76.2556M49.5728 80.5139C49.0483 81.6247 48.7397 82.859 48.7397 84.1857C48.7397 87.6416 50.8379 90.6346 53.8309 91.9305" stroke="url(#paint10_linear_3057_20879)" stroke-width="2" stroke-miterlimit="10" stroke-linecap="round" stroke-linejoin="round"/>
<path d="M40.3174 27.0675C40.8678 27.2354 41.2873 27.5219 41.5759 27.9269C41.8735 28.332 42.0184 28.8242 42.0106 29.4035C42.0031 29.9561 41.8451 30.4352 41.5365 30.8411C41.237 31.2382 40.805 31.5443 40.2406 31.7595C39.6762 31.9658 39.0197 32.0639 38.2711 32.0538C37.6027 32.0447 36.9534 31.9468 36.323 31.76C35.7017 31.5644 35.206 31.3082 34.8359 30.9912L35.6487 29.2239C36.4698 29.8055 37.3126 30.1021 38.177 30.1138C38.7118 30.121 39.0915 30.0504 39.3164 29.9019C39.5414 29.7445 39.6564 29.4786 39.6614 29.1043C39.6662 28.7479 39.5583 28.4924 39.3375 28.3378C39.1257 28.1834 38.7658 28.1028 38.2578 28.0959L36.774 28.0759L36.8 26.1509L38.0298 26.1675C38.5289 26.1743 38.8863 26.1123 39.102 25.9815C39.3267 25.8419 39.4412 25.6161 39.4454 25.3042C39.45 24.9656 39.3465 24.7057 39.1351 24.5245C38.9325 24.3435 38.6441 24.2505 38.2698 24.2454C37.8865 24.2402 37.48 24.3105 37.0502 24.4562C36.6294 24.5932 36.2255 24.7972 35.8386 25.0683L35.0739 23.2797C35.4612 22.9818 35.9636 22.7435 36.5811 22.5647C37.2074 22.3859 37.837 22.3009 38.4697 22.3094C39.1471 22.3186 39.7383 22.4335 40.2433 22.6543C40.7484 22.8751 41.1364 23.1878 41.4073 23.5926C41.6871 23.9886 41.8235 24.4495 41.8164 24.9753C41.8186 25.4745 41.688 25.905 41.4246 26.2669C41.1612 26.6288 40.7921 26.8957 40.3174 27.0675Z" fill="url(#paint11_linear_3057_20879)"/>
</g>
</g>
<defs>
<filter id="filter0_d_3057_20879" x="-0.456543" y="-8.33203" width="120.649" height="148.017" filterUnits="userSpaceOnUse" color-interpolation-filters="sRGB">
<feFlood flood-opacity="0" result="BackgroundImageFix"/>
<feColorMatrix in="SourceAlpha" type="matrix" values="0 0 0 0 0 0 0 0 0 0 0 0 0 0 0 0 0 0 127 0" result="hardAlpha"/>
<feOffset dy="4"/>
<feGaussianBlur stdDeviation="13.5"/>
<feComposite in2="hardAlpha" operator="out"/>
<feColorMatrix type="matrix" values="0 0 0 0 0 0 0 0 0 0 0 0 0 0 0 0 0 0 0.15 0"/>
<feBlend mode="normal" in2="BackgroundImageFix" result="effect1_dropShadow_3057_20879"/>
<feBlend mode="normal" in="SourceGraphic" in2="effect1_dropShadow_3057_20879" result="shape"/>
</filter>
<linearGradient id="paint0_linear_3057_20879" x1="91.1464" y1="120.009" x2="-33.842" y2="37.64" gradientUnits="userSpaceOnUse">
<stop offset="0.260417" stop-color="#3D445E"/>
<stop offset="1" stop-color="#919BC1"/>
</linearGradient>
<linearGradient id="paint1_linear_3057_20879" x1="59.8681" y1="14.668" x2="168.689" y2="220.789" gradientUnits="userSpaceOnUse">
<stop stop-color="white"/>
<stop offset="1" stop-color="white" stop-opacity="0.7"/>
</linearGradient>
<linearGradient id="paint2_linear_3057_20879" x1="71.558" y1="73.5245" x2="20.9875" y2="39.7021" gradientUnits="userSpaceOnUse">
<stop offset="0.260417" stop-color="#3D445E"/>
<stop offset="1" stop-color="#919BC1"/>
</linearGradient>
<linearGradient id="paint3_linear_3057_20879" x1="45.2032" y1="40.9335" x2="65.3861" y2="53.3431" gradientUnits="userSpaceOnUse">
<stop offset="0.0111732" stop-color="#FFF952"/>
<stop offset="1" stop-color="#FFBF10"/>
</linearGradient>
<linearGradient id="paint4_linear_3057_20879" x1="46.2388" y1="41.9143" x2="51.2858" y2="57.722" gradientUnits="userSpaceOnUse">
<stop stop-color="#73778A" stop-opacity="0.99"/>
<stop offset="0.0001" stop-color="#6D7286" stop-opacity="0.991018"/>
<stop offset="0.869792" stop-color="#3E445E"/>
</linearGradient>
<linearGradient id="paint5_linear_3057_20879" x1="98.7836" y1="90.8243" x2="48.2131" y2="57.0019" gradientUnits="userSpaceOnUse">
<stop offset="0.260417" stop-color="#3D445E"/>
<stop offset="1" stop-color="#919BC1"/>
</linearGradient>
<linearGradient id="paint6_linear_3057_20879" x1="72.4288" y1="58.2333" x2="92.6117" y2="70.6429" gradientUnits="userSpaceOnUse">
<stop offset="0.0111732" stop-color="#FFF952"/>
<stop offset="1" stop-color="#FFBF10"/>
</linearGradient>
<linearGradient id="paint7_linear_3057_20879" x1="78.5124" y1="63.6064" x2="78.5124" y2="75.023" gradientUnits="userSpaceOnUse">
<stop stop-color="#73778A" stop-opacity="0.99"/>
<stop offset="0.869792" stop-color="#3E445E"/>
</linearGradient>
<linearGradient id="paint8_linear_3057_20879" x1="71.558" y1="107.733" x2="20.9875" y2="73.9104" gradientUnits="userSpaceOnUse">
<stop offset="0.260417" stop-color="#3D445E"/>
<stop offset="1" stop-color="#919BC1"/>
</linearGradient>
<linearGradient id="paint9_linear_3057_20879" x1="45.2032" y1="75.1417" x2="65.3861" y2="87.5514" gradientUnits="userSpaceOnUse">
<stop offset="0.0111732" stop-color="#FFF952"/>
<stop offset="1" stop-color="#FFBF10"/>
</linearGradient>
<linearGradient id="paint10_linear_3057_20879" x1="48.5669" y1="74.847" x2="51.2853" y2="91.9307" gradientUnits="userSpaceOnUse">
<stop stop-color="#73778A" stop-opacity="0.99"/>
<stop offset="0.869792" stop-color="#3E445E"/>
</linearGradient>
<linearGradient id="paint11_linear_3057_20879" x1="45.9531" y1="37.0906" x2="25.0782" y2="16.5803" gradientUnits="userSpaceOnUse">
<stop offset="0.260417" stop-color="#3D445E"/>
<stop offset="1" stop-color="#919BC1"/>
</linearGradient>
</defs>
</svg>
