<svg width="92" height="92" viewBox="0 0 92 92" fill="none" xmlns="http://www.w3.org/2000/svg">
<mask id="mask0_3057_5699" style="mask-type:alpha" maskUnits="userSpaceOnUse" x="0" y="0" width="92" height="92">
<path d="M45.5732 91.1464C70.7426 91.1464 91.1464 70.7426 91.1464 45.5732C91.1464 20.4038 70.7426 0 45.5732 0C20.4038 0 0 20.4038 0 45.5732C0 70.7426 20.4038 91.1464 45.5732 91.1464Z" fill="#E9E9E9"/>
</mask>
<g mask="url(#mask0_3057_5699)">
<path d="M45.5732 91.1464C70.7426 91.1464 91.1464 70.7426 91.1464 45.5732C91.1464 20.4038 70.7426 0 45.5732 0C20.4038 0 0 20.4038 0 45.5732C0 70.7426 20.4038 91.1464 45.5732 91.1464Z" fill="url(#paint0_linear_3057_5699)"/>
<mask id="mask1_3057_5699" style="mask-type:alpha" maskUnits="userSpaceOnUse" x="0" y="0" width="92" height="92">
<path d="M46.3594 91.5388C71.5287 91.5388 91.9326 71.1349 91.9326 45.9656C91.9326 20.7962 71.5287 0.392334 46.3594 0.392334C21.19 0.392334 0.786133 20.7962 0.786133 45.9656C0.786133 71.1349 21.19 91.5388 46.3594 91.5388Z" fill="#E9E9E9"/>
</mask>
<g mask="url(#mask1_3057_5699)">
<g filter="url(#filter0_d_3057_5699)">
<path d="M85.8004 108.685H33.9358C29.8464 108.685 26.5435 105.382 26.5435 101.292V22.0603C26.5435 17.9709 29.8464 14.668 33.9358 14.668H85.8004C89.8898 14.668 93.1928 17.9709 93.1928 22.0603V101.253C93.1928 105.382 89.8898 108.685 85.8004 108.685Z" fill="url(#paint1_linear_3057_5699)" shape-rendering="crispEdges"/>
</g>
<path d="M60.3158 70.2699L60.6552 71.0104C60.8095 71.3498 61.2723 71.3807 61.4883 71.0721L61.9511 70.4242C62.198 70.0848 62.7225 70.1773 62.8151 70.5784L63.0002 71.3498C63.0928 71.7201 63.5556 71.8435 63.8024 71.5658L64.3578 71.0104C64.6664 70.7019 65.1601 70.9179 65.1909 71.319L65.2527 72.1212C65.2835 72.4915 65.7155 72.7075 66.024 72.4915L66.672 72.0287C67.0114 71.7818 67.4743 72.0595 67.4434 72.4915L67.3508 73.2937C67.32 73.664 67.6903 73.9417 68.0297 73.7874L68.7702 73.448C69.1405 73.2629 69.5416 73.6331 69.449 74.0343L69.233 74.8057C69.1405 75.1759 69.449 75.5153 69.8193 75.4228L70.5907 75.2376C70.9918 75.1451 71.3312 75.5462 71.1461 75.9165L70.7758 76.6261C70.5907 76.9656 70.8684 77.3667 71.2386 77.3358L72.0409 77.2741C72.442 77.2433 72.7197 77.7061 72.4729 78.0455L71.9792 78.6935C71.7632 79.002 71.9483 79.434 72.3186 79.4649L73.1208 79.5574C73.522 79.6191 73.7071 80.1128 73.3985 80.3905L72.8123 80.9459C72.5346 81.1928 72.6271 81.6556 72.9974 81.779L73.7688 82.0259C74.1699 82.1493 74.2316 82.6738 73.8922 82.8898L73.2134 83.3218C72.9048 83.5378 72.9049 84.0006 73.2443 84.1549L73.9539 84.5252C74.3242 84.7103 74.2934 85.2657 73.9231 85.42L73.1825 85.7285C72.8431 85.8828 72.7814 86.3457 73.0591 86.5616L73.7071 87.0553C74.0465 87.3022 73.9231 87.8267 73.522 87.9193L72.7197 88.0736C72.3494 88.1353 72.1952 88.5981 72.4729 88.8758L73.0283 89.4621C73.306 89.7706 73.09 90.2643 72.6889 90.2643L71.8866 90.2952C71.5163 90.2952 71.3004 90.7272 71.4855 91.0357L71.9175 91.7145C72.1335 92.0539 71.8558 92.5168 71.4238 92.4551L70.6215 92.3316C70.2513 92.2699 69.9427 92.6402 70.097 92.9796L70.4055 93.7201C70.5598 94.1213 70.1896 94.4915 69.7884 94.3681L69.017 94.0904C68.6468 93.967 68.3074 94.2755 68.3691 94.6458L68.5234 95.4481C68.6159 95.8492 68.1839 96.1577 67.8137 95.9726L67.104 95.5715C66.7646 95.3863 66.3635 95.6332 66.3943 96.0035L66.4252 96.8057C66.4252 97.2068 65.9623 97.4537 65.6229 97.176L65.0058 96.6514C64.7281 96.4046 64.2653 96.5897 64.2036 96.96L64.0801 97.7622C64.0184 98.1634 63.4939 98.3176 63.2162 98.0091L62.6916 97.392C62.4448 97.1143 61.982 97.176 61.8585 97.5462L61.5808 98.3176C61.4574 98.7188 60.902 98.7496 60.686 98.4102L60.2849 97.7005C60.0998 97.3611 59.6369 97.3611 59.4518 97.7005L59.0507 98.4102C58.8347 98.7805 58.3101 98.7188 58.1559 98.3176L57.8782 97.5462C57.7547 97.2068 57.2919 97.1143 57.0451 97.392L56.5205 98.0091C56.2428 98.3176 55.7491 98.1942 55.6566 97.7622L55.5331 96.96C55.4714 96.5897 55.0395 96.4354 54.7309 96.6514L54.1138 97.176C53.8052 97.4537 53.3115 97.2068 53.3115 96.8057L53.3424 96.0035C53.3424 95.6332 52.9413 95.3863 52.6327 95.5715L51.923 95.9726C51.5528 96.1886 51.1208 95.8492 51.2134 95.4481L51.3676 94.6458C51.4293 94.2755 51.0899 93.967 50.7197 94.0904L49.9483 94.3681C49.5472 94.4915 49.1769 94.1213 49.3312 93.7201L49.6397 92.9796C49.794 92.6402 49.4854 92.2699 49.1152 92.3316L48.3129 92.4551C47.9118 92.5168 47.6033 92.0848 47.8192 91.7145L48.2512 91.0357C48.4364 90.7272 48.2204 90.2952 47.8501 90.2952L47.0479 90.2643C46.6467 90.2643 46.4307 89.7706 46.7084 89.4621L47.2638 88.8758C47.5107 88.5981 47.3564 88.1353 47.017 88.0736L46.2148 87.9193C45.8136 87.8267 45.6902 87.3022 46.0296 87.0553L46.6776 86.5616C46.9861 86.3457 46.9244 85.852 46.5542 85.7285L45.8136 85.42C45.4434 85.2657 45.4125 84.7412 45.7828 84.5252L46.4925 84.1549C46.8319 83.9698 46.8627 83.5069 46.5233 83.3218L45.8445 82.8898C45.5051 82.6738 45.5668 82.1493 45.9679 82.0259L46.7393 81.779C47.1096 81.6556 47.2021 81.2236 46.9244 80.9459L46.3382 80.3905C46.0296 80.1128 46.1839 79.5883 46.6159 79.5574L47.4181 79.4649C47.7884 79.434 47.9735 79.002 47.7575 78.6935L47.2638 78.0455C47.017 77.7061 47.2638 77.2433 47.6958 77.2741L48.4981 77.3358C48.8683 77.3667 49.146 76.9656 48.9609 76.6261L48.5906 75.9165C48.4055 75.5462 48.7449 75.1142 49.146 75.2376L49.9174 75.4228C50.2877 75.5153 50.5962 75.1759 50.5037 74.8057L50.2877 74.0343C50.1643 73.6331 50.5654 73.2937 50.9665 73.448L51.7071 73.7874C52.0465 73.9417 52.4167 73.664 52.3859 73.2937L52.2933 72.4915C52.2624 72.0904 52.6944 71.8127 53.0647 72.0287L53.7127 72.4915C54.0212 72.7075 54.4532 72.4915 54.4841 72.1212L54.5458 71.319C54.5766 70.9179 55.0703 70.7019 55.3789 71.0104L55.9343 71.5658C56.212 71.8435 56.6439 71.7201 56.7365 71.3498L56.9216 70.5784C57.0142 70.1773 57.5388 70.0848 57.7856 70.4242L58.2484 71.0721C58.4644 71.3807 58.9273 71.3498 59.0815 71.0104L59.421 70.2699C59.6061 69.8996 60.1306 69.8996 60.3158 70.2699Z" fill="url(#paint2_linear_3057_5699)"/>
<path d="M59.9147 95.2625C65.9643 95.2625 70.8684 90.3583 70.8684 84.3087C70.8684 78.2591 65.9643 73.355 59.9147 73.355C53.8651 73.355 48.9609 78.2591 48.9609 84.3087C48.9609 90.3583 53.8651 95.2625 59.9147 95.2625Z" fill="url(#paint3_linear_3057_5699)"/>
<path d="M66.9514 88.6916C67.7845 87.3957 68.2782 85.8221 68.2782 84.1559C68.2782 80.5149 65.964 77.4293 62.755 76.2568M52.233 80.5151C51.7085 81.626 51.3999 82.8602 51.3999 84.187C51.3999 87.6428 53.4981 90.6358 56.4911 91.9317" stroke="url(#paint4_linear_3057_5699)" stroke-width="2" stroke-miterlimit="10" stroke-linecap="round" stroke-linejoin="round"/>
<path d="M60.3158 34.2084L60.6552 34.9489C60.8095 35.2883 61.2723 35.3192 61.4883 35.0106L61.9511 34.3626C62.198 34.0232 62.7225 34.1158 62.8151 34.5169L63.0002 35.2883C63.0928 35.6586 63.5556 35.782 63.8024 35.5043L64.3578 34.9489C64.6664 34.6403 65.1601 34.8563 65.1909 35.2575L65.2527 36.0597C65.2835 36.43 65.7155 36.646 66.024 36.43L66.672 35.9671C67.0114 35.7203 67.4743 35.998 67.4434 36.43L67.3508 37.2322C67.32 37.6025 67.6903 37.8802 68.0297 37.7259L68.7702 37.3865C69.1405 37.2014 69.5416 37.5716 69.449 37.9727L69.233 38.7441C69.1405 39.1144 69.449 39.4538 69.8193 39.3612L70.5907 39.1761C70.9918 39.0835 71.3312 39.4847 71.1461 39.8549L70.7758 40.5646C70.5907 40.904 70.8684 41.3052 71.2386 41.2743L72.0409 41.2126C72.442 41.1817 72.7197 41.6446 72.4729 41.984L71.9792 42.6319C71.7632 42.9405 71.9483 43.3725 72.3186 43.4033L73.1208 43.4959C73.522 43.5576 73.7071 44.0513 73.3985 44.329L72.8123 44.8844C72.5346 45.1312 72.6271 45.5941 72.9974 45.7175L73.7688 45.9643C74.1699 46.0878 74.2316 46.6123 73.8922 46.8283L73.2134 47.2603C72.9048 47.4763 72.9049 47.9391 73.2443 48.0934L73.9539 48.4637C74.3242 48.6488 74.2934 49.2042 73.9231 49.3585L73.1825 49.667C72.8431 49.8213 72.7814 50.2841 73.0591 50.5001L73.7071 50.9938C74.0465 51.2407 73.9231 51.7652 73.522 51.8578L72.7197 52.012C72.3494 52.0738 72.1952 52.5366 72.4729 52.8143L73.0283 53.4006C73.306 53.7091 73.09 54.2028 72.6889 54.2028L71.8866 54.2337C71.5163 54.2337 71.3004 54.6656 71.4855 54.9742L71.9175 55.653C72.1335 55.9924 71.8558 56.4553 71.4238 56.3935L70.6215 56.2701C70.2513 56.2084 69.9427 56.5787 70.097 56.9181L70.4055 57.6586C70.5598 58.0597 70.1896 58.43 69.7884 58.3066L69.017 58.0289C68.6468 57.9055 68.3074 58.214 68.3691 58.5843L68.5234 59.3865C68.6159 59.7877 68.1839 60.0962 67.8137 59.9111L67.104 59.51C66.7646 59.3248 66.3635 59.5717 66.3943 59.9419L66.4252 60.7442C66.4252 61.1453 65.9623 61.3922 65.6229 61.1145L65.0058 60.5899C64.7281 60.3431 64.2653 60.5282 64.2036 60.8985L64.0801 61.7007C64.0184 62.1018 63.4939 62.2561 63.2162 61.9476L62.6916 61.3304C62.4448 61.0527 61.982 61.1145 61.8585 61.4847L61.5808 62.2561C61.4574 62.6572 60.902 62.6881 60.686 62.3487L60.2849 61.639C60.0998 61.2996 59.6369 61.2996 59.4518 61.639L59.0507 62.3487C58.8347 62.7189 58.3101 62.6572 58.1559 62.2561L57.8782 61.4847C57.7547 61.1453 57.2919 61.0527 57.0451 61.3304L56.5205 61.9476C56.2428 62.2561 55.7491 62.1327 55.6566 61.7007L55.5331 60.8985C55.4714 60.5282 55.0395 60.3739 54.7309 60.5899L54.1138 61.1145C53.8052 61.3922 53.3115 61.1453 53.3115 60.7442L53.3424 59.9419C53.3424 59.5717 52.9413 59.3248 52.6327 59.51L51.923 59.9111C51.5528 60.1271 51.1208 59.7877 51.2134 59.3865L51.3676 58.5843C51.4293 58.214 51.0899 57.9055 50.7197 58.0289L49.9483 58.3066C49.5472 58.43 49.1769 58.0597 49.3312 57.6586L49.6397 56.9181C49.794 56.5787 49.4854 56.2084 49.1152 56.2701L48.3129 56.3935C47.9118 56.4553 47.6033 56.0233 47.8192 55.653L48.2512 54.9742C48.4364 54.6656 48.2204 54.2337 47.8501 54.2337L47.0479 54.2028C46.6467 54.2028 46.4307 53.7091 46.7084 53.4006L47.2638 52.8143C47.5107 52.5366 47.3564 52.0738 47.017 52.012L46.2148 51.8578C45.8136 51.7652 45.6902 51.2407 46.0296 50.9938L46.6776 50.5001C46.9861 50.2841 46.9244 49.7904 46.5542 49.667L45.8136 49.3585C45.4434 49.2042 45.4125 48.6796 45.7828 48.4637L46.4925 48.0934C46.8319 47.9082 46.8627 47.4454 46.5233 47.2603L45.8445 46.8283C45.5051 46.6123 45.5668 46.0878 45.9679 45.9643L46.7393 45.7175C47.1096 45.5941 47.2021 45.1621 46.9244 44.8844L46.3382 44.329C46.0296 44.0513 46.1839 43.5268 46.6159 43.4959L47.4181 43.4033C47.7884 43.3725 47.9735 42.9405 47.7575 42.6319L47.2638 41.984C47.017 41.6446 47.2638 41.1817 47.6958 41.2126L48.4981 41.2743C48.8683 41.3052 49.146 40.904 48.9609 40.5646L48.5906 39.8549C48.4055 39.4847 48.7449 39.0527 49.146 39.1761L49.9174 39.3612C50.2877 39.4538 50.5962 39.1144 50.5037 38.7441L50.2877 37.9727C50.1643 37.5716 50.5654 37.2322 50.9665 37.3865L51.7071 37.7259C52.0465 37.8802 52.4167 37.6025 52.3859 37.2322L52.2933 36.43C52.2624 36.0288 52.6944 35.7511 53.0647 35.9671L53.7127 36.43C54.0212 36.646 54.4532 36.43 54.4841 36.0597L54.5458 35.2575C54.5766 34.8563 55.0703 34.6403 55.3789 34.9489L55.9343 35.5043C56.212 35.782 56.6439 35.6586 56.7365 35.2883L56.9216 34.5169C57.0142 34.1158 57.5388 34.0232 57.7856 34.3626L58.2484 35.0106C58.4644 35.3192 58.9273 35.2883 59.0815 34.9489L59.421 34.2084C59.6061 33.8381 60.1306 33.8381 60.3158 34.2084Z" fill="url(#paint5_linear_3057_5699)"/>
<path d="M59.9147 59.2009C65.9643 59.2009 70.8684 54.2968 70.8684 48.2472C70.8684 42.1976 65.9643 37.2935 59.9147 37.2935C53.8651 37.2935 48.9609 42.1976 48.9609 48.2472C48.9609 54.2968 53.8651 59.2009 59.9147 59.2009Z" fill="url(#paint6_linear_3057_5699)"/>
<path d="M66.9514 52.6299C67.7845 51.3339 68.2782 49.7603 68.2782 48.0941C68.2782 44.4531 65.964 41.3676 62.755 40.1951M52.233 44.4534C51.7085 45.5642 51.3999 46.7984 51.3999 48.1252C51.3999 51.581 53.4981 54.574 56.4911 55.87" stroke="url(#paint7_linear_3057_5699)" stroke-width="2" stroke-miterlimit="10" stroke-linecap="round" stroke-linejoin="round"/>
<path d="M42.036 30.0047L42.0091 31.9966L35.2984 31.9058L35.3233 30.0611L38.4684 26.8679C39.0559 26.2698 39.3532 25.7078 39.3603 25.182C39.3686 24.567 39.0074 24.2546 38.2766 24.2448C37.9023 24.2397 37.5047 24.3101 37.0838 24.4559C36.6719 24.593 36.2547 24.7968 35.8321 25.0674L35.0674 23.2788C35.4548 22.9721 35.9527 22.7337 36.5612 22.5636C37.1786 22.3848 37.8037 22.2996 38.4365 22.3082C39.1227 22.3175 39.7183 22.437 40.2233 22.6666C40.7373 22.8875 41.1296 23.2048 41.4004 23.6185C41.6801 24.0234 41.8163 24.4976 41.809 25.0413C41.8015 25.5938 41.6833 26.0958 41.4544 26.5473C41.2344 26.99 40.8578 27.4886 40.3244 28.0429L38.3999 29.9556L42.036 30.0047Z" fill="url(#paint8_linear_3057_5699)"/>
</g>
</g>
<defs>
<filter id="filter0_d_3057_5699" x="-0.456543" y="-8.33203" width="120.649" height="148.017" filterUnits="userSpaceOnUse" color-interpolation-filters="sRGB">
<feFlood flood-opacity="0" result="BackgroundImageFix"/>
<feColorMatrix in="SourceAlpha" type="matrix" values="0 0 0 0 0 0 0 0 0 0 0 0 0 0 0 0 0 0 127 0" result="hardAlpha"/>
<feOffset dy="4"/>
<feGaussianBlur stdDeviation="13.5"/>
<feComposite in2="hardAlpha" operator="out"/>
<feColorMatrix type="matrix" values="0 0 0 0 0 0 0 0 0 0 0 0 0 0 0 0 0 0 0.15 0"/>
<feBlend mode="normal" in2="BackgroundImageFix" result="effect1_dropShadow_3057_5699"/>
<feBlend mode="normal" in="SourceGraphic" in2="effect1_dropShadow_3057_5699" result="shape"/>
</filter>
<linearGradient id="paint0_linear_3057_5699" x1="91.1464" y1="120.009" x2="-33.842" y2="37.64" gradientUnits="userSpaceOnUse">
<stop offset="0.260417" stop-color="#3D445E"/>
<stop offset="1" stop-color="#919BC1"/>
</linearGradient>
<linearGradient id="paint1_linear_3057_5699" x1="59.8681" y1="14.668" x2="168.689" y2="220.789" gradientUnits="userSpaceOnUse">
<stop stop-color="white"/>
<stop offset="1" stop-color="white" stop-opacity="0.7"/>
</linearGradient>
<linearGradient id="paint2_linear_3057_5699" x1="74.2167" y1="107.733" x2="23.6462" y2="73.9106" gradientUnits="userSpaceOnUse">
<stop offset="0.260417" stop-color="#3D445E"/>
<stop offset="1" stop-color="#919BC1"/>
</linearGradient>
<linearGradient id="paint3_linear_3057_5699" x1="47.8619" y1="75.142" x2="68.0448" y2="87.5516" gradientUnits="userSpaceOnUse">
<stop offset="0.0111732" stop-color="#FFF952"/>
<stop offset="1" stop-color="#FFBF10"/>
</linearGradient>
<linearGradient id="paint4_linear_3057_5699" x1="52.9481" y1="78.0391" x2="53.9455" y2="91.9319" gradientUnits="userSpaceOnUse">
<stop stop-color="#73778A" stop-opacity="0.99"/>
<stop offset="0.75" stop-color="#3E445E"/>
</linearGradient>
<linearGradient id="paint5_linear_3057_5699" x1="74.2167" y1="71.6714" x2="23.6462" y2="37.8491" gradientUnits="userSpaceOnUse">
<stop offset="0.260417" stop-color="#3D445E"/>
<stop offset="1" stop-color="#919BC1"/>
</linearGradient>
<linearGradient id="paint6_linear_3057_5699" x1="47.8619" y1="39.0804" x2="68.0448" y2="51.4901" gradientUnits="userSpaceOnUse">
<stop offset="0.0111732" stop-color="#FFF952"/>
<stop offset="1" stop-color="#FFBF10"/>
</linearGradient>
<linearGradient id="paint7_linear_3057_5699" x1="52.9481" y1="41.9773" x2="53.9455" y2="55.8702" gradientUnits="userSpaceOnUse">
<stop stop-color="#73778A" stop-opacity="0.99"/>
<stop offset="0.75" stop-color="#3E445E"/>
</linearGradient>
<linearGradient id="paint8_linear_3057_5699" x1="45.9527" y1="37.0901" x2="25.0777" y2="16.5798" gradientUnits="userSpaceOnUse">
<stop offset="0.260417" stop-color="#3D445E"/>
<stop offset="1" stop-color="#919BC1"/>
</linearGradient>
</defs>
</svg>
