<svg width="193" height="148" viewBox="0 0 193 148" fill="none" xmlns="http://www.w3.org/2000/svg">
<rect x="22.9441" width="147.112" height="147.112" rx="16" fill="url(#paint0_linear_2069_18291)"/>
<mask id="mask0_2069_18291" style="mask-type:alpha" maskUnits="userSpaceOnUse" x="0" y="10" width="193" height="138">
<rect y="10.7969" width="193" height="136.315" fill="#C4C4C4"/>
</mask>
<g mask="url(#mask0_2069_18291)">
<g filter="url(#filter0_d_2069_18291)">
<path d="M122.145 159.934L58.0361 176.94C53.0424 178.29 47.7788 175.32 46.4291 170.192L20.3809 72.2072C19.0312 67.2135 22.0004 61.9499 27.1291 60.6002L91.2375 43.5946C96.2312 42.245 101.495 45.2142 102.844 50.3429L128.758 148.327C130.242 153.321 127.138 158.585 122.145 159.934Z" fill="white"/>
<path d="M35.0918 81.2483L34.417 78.6839L37.1163 78.0091L35.3617 71.1259L36.8464 70.721L33.6072 73.9601L32.7974 71.1259L35.6317 68.4266L37.9261 67.8867L40.4904 77.3343L43.0547 76.6595L43.7296 79.2238L35.0918 81.2483Z" fill="#3E445E"/>
<path d="M68.8339 85.8377L69.6437 86.7825C70.0486 87.3223 70.7234 87.1873 70.9933 86.5125L71.3982 85.2978C71.6681 84.623 72.4779 84.623 72.8828 85.1629L73.5576 86.2426C73.8276 86.7825 74.6374 86.7825 74.9073 86.2426L75.5821 85.1629C75.987 84.623 76.7968 84.623 77.0667 85.2978L77.4716 86.5125C77.6066 87.0524 78.4164 87.1874 78.8213 86.7825L79.6311 85.8377C80.036 85.2978 80.9807 85.5678 80.9807 86.2426L81.1157 87.5922C81.2507 88.1321 81.9255 88.537 82.4653 88.1321L83.5451 87.3223C84.0849 86.9174 84.8947 87.3223 84.8947 87.9971V89.3468C84.8947 90.0216 85.5695 90.4265 86.1094 90.0216L87.3241 89.3468C87.8639 89.0769 88.6737 89.4818 88.5388 90.1566L88.2688 91.3713C88.1339 91.9111 88.6737 92.451 89.3486 92.316L90.5632 91.9111C91.2381 91.6412 91.7779 92.316 91.508 92.9908L90.9681 94.2055C90.6982 94.7454 91.2381 95.4202 91.7779 95.2852L93.1276 95.1503C93.8024 95.0153 94.2073 95.8251 93.9374 96.365L93.2625 97.4447C92.9926 97.9845 93.2625 98.6594 93.9374 98.6594H95.287C95.9618 98.6594 96.3667 99.4692 95.8269 100.009L94.8821 100.954C94.4772 101.359 94.7472 102.168 95.287 102.303L96.5017 102.573C97.1765 102.708 97.3115 103.518 96.7716 103.923L95.6919 104.733C95.1521 105.138 95.287 105.813 95.8269 106.082L97.0416 106.622C97.7164 106.892 97.7164 107.702 97.0416 108.107L95.8269 108.647C95.287 108.917 95.287 109.727 95.6919 109.996L96.7716 110.671C97.3115 111.076 97.1765 111.886 96.5017 112.156L95.287 112.561C94.7472 112.696 94.4772 113.506 95.0171 113.91L95.9618 114.855C96.5017 115.26 96.2318 116.205 95.5569 116.205L94.2073 116.34C93.5325 116.34 93.2625 117.15 93.6674 117.554L94.4772 118.634C94.8821 119.174 94.4772 119.984 93.8024 119.849L92.4528 119.714C91.7779 119.714 91.373 120.254 91.643 120.794L92.1828 122.008C92.4528 122.683 91.9129 123.358 91.2381 123.088L90.1583 122.818C89.6185 122.683 89.0786 123.223 89.2136 123.763L89.6185 124.978C89.7535 125.652 89.0786 126.192 88.5388 125.922L87.3241 125.382C86.7842 125.113 86.1094 125.517 86.2444 126.192L86.3793 127.542C86.3793 128.217 85.7045 128.622 85.1646 128.217L84.0849 127.407C83.5451 127.002 82.8702 127.407 82.8702 127.947L82.7353 129.296C82.7353 129.971 81.7905 130.241 81.3856 129.836L80.4409 128.892C80.036 128.487 79.2262 128.622 79.0912 129.296L78.8213 130.511C78.6863 131.186 77.7416 131.321 77.3367 130.781L76.6618 129.701C76.2569 129.161 75.5821 129.296 75.3122 129.836L74.7723 131.051C74.5024 131.726 73.5576 131.591 73.2877 131.051L72.7479 129.836C72.4779 129.296 71.6681 129.161 71.3982 129.701L70.5884 130.781C70.1835 131.321 69.3737 131.186 69.2388 130.511L68.9688 129.296C68.8339 128.757 68.0241 128.487 67.6192 128.892L66.6744 129.836C66.1346 130.376 65.3248 129.971 65.3248 129.296L65.1898 127.947C65.1898 127.272 64.515 127.002 63.9751 127.272L62.8954 127.947C62.3555 128.352 61.5458 127.812 61.6807 127.137L61.8157 125.787C61.9507 125.113 61.2758 124.708 60.736 124.978L59.5213 125.517C58.8465 125.787 58.3066 125.247 58.4416 124.573L58.8465 123.358C58.9814 122.818 58.4416 122.278 57.9017 122.413L56.4171 122.818C55.7423 122.953 55.2024 122.278 55.4723 121.738L56.0122 120.524C56.2821 119.984 55.8772 119.309 55.2024 119.309L53.8528 119.444C53.1779 119.444 52.773 118.769 53.1779 118.229L53.9877 117.15C54.3926 116.61 54.1227 115.935 53.4479 115.935L52.0982 115.8C51.4234 115.665 51.1534 114.855 51.6933 114.45L52.6381 113.64C53.043 113.236 52.908 112.426 52.3681 112.291L51.1535 111.886C50.4786 111.616 50.3437 110.806 51.0185 110.401L52.0982 109.727C52.6381 109.457 52.6381 108.647 52.0982 108.377L50.8835 107.702C50.3437 107.432 50.3437 106.487 51.0185 106.217L52.2332 105.678C52.773 105.408 52.908 104.733 52.3681 104.328L51.2884 103.518C50.7486 103.113 51.0185 102.303 51.5583 102.168L52.908 101.899C53.4479 101.764 53.7178 101.089 53.3129 100.549L52.5031 99.6041C52.0982 99.0643 52.3681 98.2545 53.043 98.2545H54.3926C55.0674 98.2545 55.3374 97.5797 55.0674 97.0398L54.3926 95.9601C53.9877 95.4202 54.5276 94.6104 55.2024 94.7454L56.5521 95.0153C57.0919 95.1503 57.6318 94.4755 57.3618 93.9356L56.9569 92.7209C56.687 92.0461 57.3618 91.5062 57.9017 91.6412L59.1164 92.0461C59.6562 92.316 60.3311 91.7762 60.1961 91.1013L59.9262 89.7517C59.7912 89.0769 60.466 88.537 61.1409 88.9419L62.2206 89.6167C62.7604 89.8867 63.4353 89.4818 63.4353 88.9419V87.5922C63.4353 86.9174 64.2451 86.5125 64.7849 86.9174L65.7297 87.7272C66.1346 88.1321 66.9444 87.8622 67.0793 87.3223L67.3493 85.9727C67.6192 85.5678 68.429 85.2978 68.8339 85.8377Z" fill="#3E445E"/>
<path d="M74.0969 125.924C83.936 125.924 91.9123 117.948 91.9123 108.108C91.9123 98.2692 83.936 90.293 74.0969 90.293C64.2577 90.293 56.2815 98.2692 56.2815 108.108C56.2815 117.948 64.2577 125.924 74.0969 125.924Z" fill="#DFE21F"/>
<path d="M87.0535 112.022C87.8633 109.593 87.9983 107.029 87.1885 104.329C85.7038 98.6609 80.7101 94.7469 75.1766 94.207" stroke="#3E445E" stroke-width="1.4908" stroke-miterlimit="10" stroke-linecap="round" stroke-linejoin="round"/>
<path d="M60.4657 105.273C60.0608 107.298 60.1957 109.322 60.7356 111.347C62.2202 116.88 66.6741 120.659 71.9377 121.469" stroke="#3E445E" stroke-width="1.4908" stroke-miterlimit="10" stroke-linecap="round" stroke-linejoin="round"/>
</g>
<g filter="url(#filter1_d_2069_18291)">
<path d="M126.328 165.469L59.9255 165.739C54.6619 165.739 50.478 161.555 50.478 156.291L50.208 54.9323C50.208 49.6687 54.3919 45.4848 59.6556 45.4848L126.058 45.2148C131.322 45.2148 135.506 49.3988 135.506 54.6624L135.776 156.021C135.911 161.15 131.592 165.334 126.328 165.469Z" fill="url(#paint1_linear_2069_18291)"/>
</g>
<path d="M62.0847 67.3465V64.6472H64.9189V57.629H66.4036L62.4896 59.9234V56.9542L65.8637 54.9297H68.1581V64.6472H70.7225V67.3465H62.0847Z" fill="#3E445E"/>
<path d="M93.6663 80.3056L94.2062 81.5203C94.4761 82.0602 95.2859 82.1952 95.5558 81.6553L96.3656 80.5756C96.7705 80.0357 97.5803 80.1707 97.8502 80.8455L98.1202 82.0602C98.2551 82.6001 99.0649 82.87 99.4698 82.4651L100.415 81.5203C100.954 80.9805 101.764 81.3854 101.764 82.0602L101.899 83.4098C101.899 84.0847 102.574 84.3546 103.114 83.9497L104.194 83.1399C104.733 82.735 105.543 83.1399 105.408 83.8147L105.273 85.1644C105.273 85.8392 105.813 86.2441 106.353 85.9742L107.568 85.4343C108.243 85.1644 108.782 85.7042 108.647 86.3791L108.243 87.5938C108.108 88.1336 108.647 88.6735 109.187 88.5385L110.402 88.2686C111.077 88.1336 111.617 88.8084 111.347 89.3483L110.672 90.563C110.402 91.1028 110.807 91.7777 111.482 91.6427L112.831 91.5077C113.506 91.5077 113.911 92.1826 113.506 92.7224L112.696 93.8022C112.291 94.342 112.696 95.0168 113.236 95.0168L114.586 95.1518C115.261 95.2868 115.531 96.0966 114.991 96.5015L114.046 97.4462C113.641 97.8511 113.776 98.6609 114.316 98.7959L115.531 99.2008C116.205 99.3357 116.34 100.28 115.666 100.685L114.721 101.495C114.181 101.765 114.181 102.575 114.721 102.845L115.936 103.385C116.475 103.655 116.475 104.599 115.936 104.869L114.721 105.409C114.181 105.679 114.046 106.354 114.586 106.759L115.666 107.569C116.205 107.973 116.071 108.783 115.396 108.918L114.181 109.188C113.641 109.323 113.371 109.998 113.776 110.538L114.721 111.483C115.126 112.022 114.856 112.832 114.181 112.832H112.831C112.157 112.832 111.887 113.507 112.157 114.047L112.831 115.127C113.236 115.666 112.696 116.476 112.022 116.341L110.672 116.206C110.132 116.071 109.592 116.746 109.862 117.286L110.402 118.501C110.672 119.176 109.997 119.715 109.457 119.58L108.243 119.176C107.703 119.041 107.028 119.446 107.163 120.12L107.433 121.47C107.568 122.145 106.893 122.685 106.218 122.28L104.868 121.47C104.329 121.2 103.654 121.605 103.654 122.145V123.494C103.654 124.169 102.844 124.574 102.304 124.169L101.359 123.359C100.819 122.955 100.145 123.225 100.01 123.899L99.7398 125.249C99.6048 125.924 98.795 126.194 98.3901 125.654L97.5803 124.709C97.1754 124.304 96.3656 124.439 96.2307 124.979L95.8258 126.194C95.5558 126.869 94.746 126.869 94.3412 126.329L93.6663 125.249C93.3964 124.709 92.5866 124.709 92.3167 125.249L91.6418 126.329C91.3719 126.869 90.4272 126.869 90.1572 126.194L89.7523 124.979C89.4824 124.439 88.8076 124.304 88.4027 124.709L87.7279 125.519C87.323 126.059 86.5132 125.789 86.3782 125.114L86.1083 123.764C85.9733 123.225 85.2985 122.955 84.7586 123.225L83.8139 124.034C83.274 124.439 82.4642 124.034 82.4642 123.359V122.01C82.4642 121.335 81.7894 121.065 81.2495 121.335L80.1698 122.01C79.63 122.28 78.8202 121.875 78.9551 121.2L79.2251 119.85C79.36 119.311 78.8202 118.771 78.1453 118.906L76.9307 119.58C76.2558 119.85 75.716 119.176 75.9859 118.501L76.5258 117.286C76.7957 116.746 76.2558 116.071 75.716 116.206L74.3663 116.476C73.6915 116.611 73.1516 115.801 73.5565 115.262L74.2314 114.182C74.5013 113.642 74.2314 112.967 73.5565 112.967H72.2069C71.5321 112.967 71.1272 112.157 71.667 111.618L72.6118 110.673C73.0167 110.268 72.7467 109.458 72.2069 109.323L70.8572 109.053C70.1824 108.918 70.0474 108.108 70.5873 107.704L71.667 106.894C72.2069 106.489 72.0719 105.814 71.5321 105.544L70.1824 105.004C69.5076 104.734 69.5076 103.925 70.0474 103.52L71.2621 102.98C71.802 102.71 71.802 101.9 71.2621 101.63L70.1824 100.955C69.6425 100.55 69.7775 99.7406 70.3174 99.4707L71.5321 99.0658C72.0719 98.9308 72.3419 98.121 71.802 97.7161L70.8572 96.7714C70.3174 96.3665 70.5873 95.4217 71.2621 95.4217L72.6118 95.2868C73.2866 95.1518 73.5565 94.477 73.1516 94.0721L72.3418 92.9924C71.937 92.4525 72.3418 91.6427 73.0167 91.7777L74.3663 91.9126C75.0411 91.9126 75.446 91.3728 75.1761 90.698L74.6363 89.4833C74.3663 88.9434 74.9062 88.1336 75.581 88.4036L76.7957 88.6735C77.3356 88.8084 77.8754 88.2686 77.7404 87.7287L77.3356 86.514C77.2006 85.8392 77.7404 85.2994 78.4153 85.5693L79.63 86.1091C80.1698 86.3791 80.8446 85.8392 80.7097 85.2993L80.5747 83.9497C80.4398 83.2749 81.2495 82.87 81.7894 83.1399L82.8691 83.8147C83.409 84.2196 84.0838 83.8147 84.0838 83.2749L84.2188 81.9252C84.2188 81.2504 85.0286 80.9805 85.5684 81.3854L86.5132 82.3301C86.9181 82.735 87.7279 82.6 87.8628 81.9252L88.1328 80.7105C88.2677 80.0357 89.2125 79.9008 89.4824 80.4406L90.2922 81.5203C90.6971 82.0602 91.3719 81.9252 91.6418 81.3854L92.1817 80.1707C92.4516 79.6308 93.3964 79.6308 93.6663 80.3056Z" fill="#3E445E"/>
<path d="M93.1264 120.928C102.966 120.928 110.942 112.951 110.942 103.112C110.942 93.2731 102.966 85.2969 93.1264 85.2969C83.2872 85.2969 75.311 93.2731 75.311 103.112C75.311 112.951 83.2872 120.928 93.1264 120.928Z" fill="#DFE21F"/>
<path d="M104.599 110.264C105.949 108.105 106.759 105.541 106.759 102.841C106.759 96.9027 102.98 91.909 97.7161 90.0195" stroke="#3E445E" stroke-width="1.4908" stroke-miterlimit="10" stroke-linecap="round" stroke-linejoin="round"/>
<path d="M80.5753 97.0352C79.7655 98.7897 79.2256 100.814 79.2256 102.974C79.2256 108.642 82.7347 113.501 87.5935 115.525" stroke="#3E445E" stroke-width="1.4908" stroke-miterlimit="10" stroke-linecap="round" stroke-linejoin="round"/>
<g filter="url(#filter2_d_2069_18291)">
<g filter="url(#filter3_d_2069_18291)">
<path d="M131.051 178.017L60.0596 156.962C54.3911 155.342 51.2869 149.404 52.9065 143.87L85.0282 35.3585C86.6477 29.69 92.5862 26.5858 98.1198 28.2054L169.111 49.2599C174.78 50.8795 177.884 56.818 176.265 62.3515L144.143 170.863C142.658 176.532 136.72 179.636 131.051 178.017Z" fill="url(#paint2_linear_2069_18291)"/>
</g>
<path d="M93.8009 52.5002L94.6106 49.6659L97.5799 50.6107L99.8743 43.0526L101.494 43.4575L96.5002 44.6722L97.4449 41.433L101.764 40.4883L104.193 41.1631L101.089 51.5554L103.923 52.3652L103.113 55.1995L93.8009 52.5002Z" fill="#3E445E"/>
</g>
<g clip-path="url(#clip0_2069_18291)">
<path d="M117.603 113.821C117.396 115.142 117.505 116.37 117.726 117.6C118.427 121.633 120.439 124.793 123.08 127.54C123.21 127.667 123.34 127.795 123.453 127.933C123.584 128.106 123.618 128.328 123.516 128.542C123.397 128.766 123.227 128.93 122.971 128.904C122.729 128.881 122.494 128.83 122.251 128.761C113.694 126.346 105.15 123.935 96.5938 121.52C96.4913 121.491 96.376 121.458 96.2736 121.429C95.9149 121.328 95.5809 121.188 95.626 120.686C95.6631 120.211 96.027 120.147 96.3652 120.076C99.3224 119.349 102.101 118.178 104.551 116.11C105.837 115.033 106.988 113.796 107.811 112.255C108.134 111.649 108.375 111.58 108.891 111.953C110.373 113.024 112.014 113.729 113.824 114.028C115.06 114.255 116.319 114.156 117.603 113.821Z" fill="url(#paint3_linear_2069_18291)"/>
<path d="M100.019 73.7101C101.491 76.4355 103.776 78.2357 106.245 79.8264C110.074 82.2823 114.227 84.0319 118.563 85.3793C123.686 86.9764 128.901 88.0495 134.28 88.1511C136.741 88.1995 139.18 88.0353 141.573 87.3491C142.491 87.0856 143.339 86.6786 144.263 86.1969C143.822 88.0527 143.273 89.7541 142.621 91.4266C139.177 100.15 133.113 106.593 125.096 111.33C123.156 112.473 121.169 113.535 119.062 114.385C117.455 115.031 115.732 115.012 114.031 114.863C111.616 114.649 109.552 113.585 107.673 112.106C107.358 111.852 107.151 111.505 106.925 111.179C103.005 105.617 100.078 99.6208 98.7724 92.9266C97.5048 86.4907 97.9611 80.17 99.8998 73.9376C99.9142 73.8867 99.9578 73.8302 100.019 73.7101Z" fill="url(#paint4_linear_2069_18291)"/>
<path d="M109.022 123.565C114.312 125.058 119.603 126.551 124.906 128.048C126.097 128.384 126.272 128.695 125.958 129.857C125.67 130.876 125.395 131.899 125.095 132.914C124.838 133.777 124.415 134.001 123.544 133.755C112.784 130.719 102.024 127.682 91.2769 124.649C90.4059 124.403 90.1663 123.978 90.3944 123.121C90.6871 122.035 90.9927 120.952 91.311 119.873C91.5663 118.969 91.9728 118.753 92.895 119.014C98.2622 120.528 103.642 122.047 109.022 123.565Z" fill="url(#paint5_linear_2069_18291)"/>
</g>
<path d="M120.052 86.9779C114.759 85.4693 109.677 83.4752 105.068 80.3911C103.566 79.378 102.141 78.2538 101.027 76.8194C99.2746 74.586 99.6553 73.1314 102.331 72.1476C104.939 71.1892 107.673 71.1061 110.42 71.1888C114.211 71.3157 117.955 71.9301 121.645 72.8389C127.423 74.2634 132.941 76.2924 138.016 79.4192C139.868 80.5608 141.605 81.8468 142.968 83.5579C143.187 83.8404 143.387 84.1328 143.566 84.4485C144.504 86.0838 144.239 87.0256 142.556 87.9212C140.789 88.8519 138.847 89.0848 136.904 89.2143C133.294 89.4479 129.735 89.0771 126.18 88.4276C124.113 88.0503 122.068 87.5911 120.052 86.9779Z" fill="url(#paint6_linear_2069_18291)"/>
</g>
<defs>
<filter id="filter0_d_2069_18291" x="16.0558" y="43.2695" width="117.075" height="141.996" filterUnits="userSpaceOnUse" color-interpolation-filters="sRGB">
<feFlood flood-opacity="0" result="BackgroundImageFix"/>
<feColorMatrix in="SourceAlpha" type="matrix" values="0 0 0 0 0 0 0 0 0 0 0 0 0 0 0 0 0 0 127 0" result="hardAlpha"/>
<feOffset dy="4"/>
<feGaussianBlur stdDeviation="2"/>
<feComposite in2="hardAlpha" operator="out"/>
<feColorMatrix type="matrix" values="0 0 0 0 0 0 0 0 0 0 0 0 0 0 0 0 0 0 0.25 0"/>
<feBlend mode="normal" in2="BackgroundImageFix" result="effect1_dropShadow_2069_18291"/>
<feBlend mode="normal" in="SourceGraphic" in2="effect1_dropShadow_2069_18291" result="shape"/>
</filter>
<filter id="filter1_d_2069_18291" x="23.208" y="22.2148" width="139.571" height="174.523" filterUnits="userSpaceOnUse" color-interpolation-filters="sRGB">
<feFlood flood-opacity="0" result="BackgroundImageFix"/>
<feColorMatrix in="SourceAlpha" type="matrix" values="0 0 0 0 0 0 0 0 0 0 0 0 0 0 0 0 0 0 127 0" result="hardAlpha"/>
<feOffset dy="4"/>
<feGaussianBlur stdDeviation="13.5"/>
<feComposite in2="hardAlpha" operator="out"/>
<feColorMatrix type="matrix" values="0 0 0 0 0 0 0 0 0 0 0 0 0 0 0 0 0 0 0.15 0"/>
<feBlend mode="normal" in2="BackgroundImageFix" result="effect1_dropShadow_2069_18291"/>
<feBlend mode="normal" in="SourceGraphic" in2="effect1_dropShadow_2069_18291" result="shape"/>
</filter>
<filter id="filter2_d_2069_18291" x="48.4784" y="27.7773" width="132.214" height="158.668" filterUnits="userSpaceOnUse" color-interpolation-filters="sRGB">
<feFlood flood-opacity="0" result="BackgroundImageFix"/>
<feColorMatrix in="SourceAlpha" type="matrix" values="0 0 0 0 0 0 0 0 0 0 0 0 0 0 0 0 0 0 127 0" result="hardAlpha"/>
<feOffset dy="4"/>
<feGaussianBlur stdDeviation="2"/>
<feComposite in2="hardAlpha" operator="out"/>
<feColorMatrix type="matrix" values="0 0 0 0 0 0 0 0 0 0 0 0 0 0 0 0 0 0 0.25 0"/>
<feBlend mode="normal" in2="BackgroundImageFix" result="effect1_dropShadow_2069_18291"/>
<feBlend mode="normal" in="SourceGraphic" in2="effect1_dropShadow_2069_18291" result="shape"/>
</filter>
<filter id="filter3_d_2069_18291" x="35.4784" y="14.7773" width="158.214" height="184.668" filterUnits="userSpaceOnUse" color-interpolation-filters="sRGB">
<feFlood flood-opacity="0" result="BackgroundImageFix"/>
<feColorMatrix in="SourceAlpha" type="matrix" values="0 0 0 0 0 0 0 0 0 0 0 0 0 0 0 0 0 0 127 0" result="hardAlpha"/>
<feOffset dy="4"/>
<feGaussianBlur stdDeviation="8.5"/>
<feComposite in2="hardAlpha" operator="out"/>
<feColorMatrix type="matrix" values="0 0 0 0 0 0 0 0 0 0 0 0 0 0 0 0 0 0 0.15 0"/>
<feBlend mode="normal" in2="BackgroundImageFix" result="effect1_dropShadow_2069_18291"/>
<feBlend mode="normal" in="SourceGraphic" in2="effect1_dropShadow_2069_18291" result="shape"/>
</filter>
<linearGradient id="paint0_linear_2069_18291" x1="170.056" y1="193.697" x2="-31.6775" y2="60.7516" gradientUnits="userSpaceOnUse">
<stop offset="0.260417" stop-color="#63CA85"/>
<stop offset="1" stop-color="#86FFAE"/>
</linearGradient>
<linearGradient id="paint1_linear_2069_18291" x1="92.9935" y1="45.2148" x2="232.375" y2="309.625" gradientUnits="userSpaceOnUse">
<stop stop-color="white"/>
<stop offset="1" stop-color="#DFD7F1"/>
</linearGradient>
<linearGradient id="paint2_linear_2069_18291" x1="114.586" y1="27.7773" x2="273.573" y2="377.992" gradientUnits="userSpaceOnUse">
<stop stop-color="white"/>
<stop offset="1" stop-color="#DFD7F1"/>
</linearGradient>
<linearGradient id="paint3_linear_2069_18291" x1="97.3358" y1="109.213" x2="105.003" y2="129.637" gradientUnits="userSpaceOnUse">
<stop offset="0.0111732" stop-color="#FFF952"/>
<stop offset="1" stop-color="#FFBF10"/>
</linearGradient>
<linearGradient id="paint4_linear_2069_18291" x1="96.9318" y1="75.8876" x2="123.956" y2="113.057" gradientUnits="userSpaceOnUse">
<stop offset="0.0111732" stop-color="#FFF952"/>
<stop offset="1" stop-color="#FFBF10"/>
</linearGradient>
<linearGradient id="paint5_linear_2069_18291" x1="89.7715" y1="118.629" x2="89.5767" y2="130.331" gradientUnits="userSpaceOnUse">
<stop offset="0.0111732" stop-color="#FFF952"/>
<stop offset="1" stop-color="#FFBF10"/>
</linearGradient>
<linearGradient id="paint6_linear_2069_18291" x1="91.5882" y1="62.1614" x2="89.8539" y2="84.6751" gradientUnits="userSpaceOnUse">
<stop stop-color="#FFA3A3"/>
<stop offset="0.697917" stop-color="#FD5E5E"/>
</linearGradient>
<clipPath id="clip0_2069_18291">
<rect width="46.0652" height="69.0977" fill="white" transform="translate(102.677 64.0508) rotate(15.7606)"/>
</clipPath>
</defs>
</svg>
