<svg width="193" height="147" viewBox="0 0 193 147" fill="none" xmlns="http://www.w3.org/2000/svg">
<rect x="22.9266" width="147" height="147" rx="16" fill="url(#paint0_linear_2069_18340)"/>
<mask id="mask0_2069_18340" style="mask-type:alpha" maskUnits="userSpaceOnUse" x="0" y="10" width="193" height="137">
<rect y="10.7891" width="192.853" height="136.211" fill="#C4C4C4"/>
</mask>
<g mask="url(#mask0_2069_18340)">
<g filter="url(#filter0_d_2069_18340)">
<path d="M122.05 159.814L57.9902 176.807C53.0003 178.156 47.7406 175.189 46.392 170.064L20.3636 72.1539C19.0149 67.164 21.9819 61.9044 27.1067 60.5558L91.1663 43.5631C96.1562 42.2145 101.416 45.1815 102.764 50.3062L128.658 148.216C130.142 153.206 127.04 158.466 122.05 159.814Z" fill="white"/>
<path d="M35.0628 81.1873L34.3885 78.6249L37.0857 77.9506L35.3325 71.0726L36.816 70.6681L33.5793 73.9047L32.7701 71.0726L35.6023 68.3754L37.8949 67.8359L40.4573 77.2763L43.0197 76.602L43.694 79.1644L35.0628 81.1873Z" fill="#3E445E"/>
<path d="M68.7797 85.7744L69.5889 86.7184C69.9935 87.2579 70.6678 87.123 70.9375 86.4487L71.3421 85.2349C71.6118 84.5606 72.421 84.5606 72.8256 85.1001L73.4999 86.179C73.7696 86.7184 74.5788 86.7184 74.8485 86.179L75.5228 85.1001C75.9274 84.5606 76.7366 84.5606 77.0063 85.2349L77.4109 86.4487C77.5458 86.9881 78.355 87.123 78.7595 86.7184L79.5687 85.7744C79.9733 85.2349 80.9173 85.5047 80.9173 86.179L81.0522 87.5276C81.1871 88.0671 81.8614 88.4716 82.4008 88.0671L83.4797 87.2579C84.0192 86.8533 84.8283 87.2579 84.8283 87.9322V89.2808C84.8283 89.9551 85.5027 90.3597 86.0421 89.9551L87.2559 89.2808C87.7953 89.0111 88.6045 89.4157 88.4696 90.09L88.1999 91.3037C88.065 91.8432 88.6045 92.3826 89.2788 92.2478L90.4926 91.8432C91.1669 91.5735 91.7063 92.2478 91.4366 92.9221L90.8972 94.1359C90.6274 94.6753 91.1669 95.3496 91.7063 95.2148L93.055 95.0799C93.7293 94.945 94.1338 95.7542 93.8641 96.2937L93.1898 97.3726C92.9201 97.912 93.1898 98.5863 93.8641 98.5863H95.2127C95.8871 98.5863 96.2916 99.3955 95.7522 99.9349L94.8082 100.879C94.4036 101.284 94.6733 102.093 95.2127 102.228L96.4265 102.497C97.1008 102.632 97.2357 103.441 96.6962 103.846L95.6173 104.655C95.0779 105.06 95.2127 105.734 95.7522 106.004L96.966 106.543C97.6403 106.813 97.6403 107.622 96.966 108.027L95.7522 108.566C95.2127 108.836 95.2127 109.645 95.6173 109.915L96.6962 110.589C97.2357 110.994 97.1008 111.803 96.4265 112.073L95.2127 112.477C94.6733 112.612 94.4036 113.421 94.943 113.826L95.8871 114.77C96.4265 115.174 96.1568 116.118 95.4825 116.118L94.1339 116.253C93.4595 116.253 93.1898 117.062 93.5944 117.467L94.4036 118.546C94.8082 119.085 94.4036 119.895 93.7293 119.76L92.3806 119.625C91.7063 119.625 91.3017 120.164 91.5715 120.704L92.1109 121.918C92.3806 122.592 91.8412 123.266 91.1669 122.996L90.088 122.727C89.5485 122.592 89.0091 123.131 89.1439 123.671L89.5485 124.884C89.6834 125.559 89.0091 126.098 88.4696 125.829L87.2559 125.289C86.7164 125.019 86.0421 125.424 86.177 126.098L86.3118 127.447C86.3118 128.121 85.6375 128.526 85.0981 128.121L84.0192 127.312C83.4797 126.907 82.8054 127.312 82.8054 127.851L82.6705 129.2C82.6705 129.874 81.7265 130.144 81.3219 129.74L80.3779 128.795C79.9733 128.391 79.1641 128.526 79.0293 129.2L78.7595 130.414C78.6247 131.088 77.6806 131.223 77.2761 130.684L76.6017 129.605C76.1972 129.065 75.5228 129.2 75.2531 129.74L74.7137 130.953C74.4439 131.628 73.4999 131.493 73.2302 130.953L72.6907 129.74C72.421 129.2 71.6118 129.065 71.3421 129.605L70.5329 130.684C70.1283 131.223 69.3192 131.088 69.1843 130.414L68.9146 129.2C68.7797 128.661 67.9705 128.391 67.566 128.795L66.6219 129.74C66.0825 130.279 65.2733 129.874 65.2733 129.2L65.1384 127.851C65.1384 127.177 64.4641 126.907 63.9247 127.177L62.8458 127.851C62.3063 128.256 61.4972 127.717 61.632 127.042L61.7669 125.694C61.9017 125.019 61.2274 124.615 60.688 124.884L59.4742 125.424C58.7999 125.694 58.2605 125.154 58.3953 124.48L58.7999 123.266C58.9348 122.727 58.3953 122.187 57.8559 122.322L56.3724 122.727C55.6981 122.862 55.1586 122.187 55.4283 121.648L55.9678 120.434C56.2375 119.895 55.8329 119.22 55.1586 119.22L53.81 119.355C53.1357 119.355 52.7311 118.681 53.1357 118.141L53.9449 117.062C54.3494 116.523 54.0797 115.849 53.4054 115.849L52.0568 115.714C51.3825 115.579 51.1127 114.77 51.6522 114.365L52.5962 113.556C53.0008 113.151 52.866 112.342 52.3265 112.207L51.1127 111.803C50.4384 111.533 50.3036 110.724 50.9779 110.319L52.0568 109.645C52.5962 109.375 52.5962 108.566 52.0568 108.296L50.843 107.622C50.3036 107.352 50.3036 106.408 50.9779 106.139L52.1916 105.599C52.7311 105.329 52.866 104.655 52.3265 104.251L51.2476 103.441C50.7082 103.037 50.9779 102.228 51.5173 102.093L52.866 101.823C53.4054 101.688 53.6751 101.014 53.2705 100.474L52.4614 99.5304C52.0568 98.9909 52.3265 98.1817 53.0008 98.1817H54.3494C55.0238 98.1817 55.2935 97.5074 55.0238 96.968L54.3494 95.8891C53.9449 95.3496 54.4843 94.5404 55.1586 94.6753L56.5072 94.945C57.0467 95.0799 57.5861 94.4056 57.3164 93.8661L56.9118 92.6524C56.6421 91.9781 57.3164 91.4386 57.8559 91.5735L59.0696 91.9781C59.6091 92.2478 60.2834 91.7083 60.1485 91.034L59.8788 89.6854C59.7439 89.0111 60.4183 88.4716 61.0926 88.8762L62.1715 89.5505C62.7109 89.8203 63.3852 89.4157 63.3852 88.8762V87.5276C63.3852 86.8533 64.1944 86.4487 64.7339 86.8533L65.6779 87.6625C66.0825 88.067 66.8917 87.7973 67.0265 87.2579L67.2962 85.9092C67.566 85.5047 68.3751 85.2349 68.7797 85.7744Z" fill="#3E445E"/>
<path d="M74.0387 125.83C83.8704 125.83 91.8406 117.86 91.8406 108.028C91.8406 98.1967 83.8704 90.2266 74.0387 90.2266C64.2071 90.2266 56.2369 98.1967 56.2369 108.028C56.2369 117.86 64.2071 125.83 74.0387 125.83Z" fill="#DFE21F"/>
<path d="M86.9856 111.939C87.7948 109.511 87.9296 106.949 87.1205 104.251C85.637 98.5872 80.6471 94.6762 75.1177 94.1367" stroke="#3E445E" stroke-width="1.4908" stroke-miterlimit="10" stroke-linecap="round" stroke-linejoin="round"/>
<path d="M60.418 105.195C60.0134 107.218 60.1483 109.241 60.6877 111.264C62.1712 116.793 66.6217 120.57 71.8813 121.379" stroke="#3E445E" stroke-width="1.4908" stroke-miterlimit="10" stroke-linecap="round" stroke-linejoin="round"/>
</g>
<g filter="url(#filter1_d_2069_18340)">
<path d="M126.231 165.342L59.8786 165.612C54.619 165.612 50.4383 161.431 50.4383 156.171L50.1685 54.8898C50.1685 49.6301 54.3493 45.4494 59.6089 45.4494L125.961 45.1797C131.221 45.1797 135.402 49.3604 135.402 54.6201L135.671 155.902C135.806 161.026 131.491 165.207 126.231 165.342Z" fill="url(#paint1_linear_2069_18340)"/>
</g>
<path d="M62.0358 67.2941V64.5968H64.8679V57.584H66.3514L62.4404 59.8766V56.9097L65.8119 54.8867H68.1046V64.5968H70.667V67.2941H62.0358Z" fill="#3E445E"/>
<path d="M93.5938 80.2427L94.1333 81.4565C94.403 81.996 95.2122 82.1308 95.4819 81.5914L96.2911 80.5125C96.6957 79.973 97.5048 80.1079 97.7745 80.7822L98.0443 81.996C98.1791 82.5354 98.9883 82.8051 99.3929 82.4005L100.337 81.4565C100.876 80.9171 101.686 81.3217 101.686 81.996L101.82 83.3446C101.82 84.0189 102.495 84.2886 103.034 83.884L104.113 83.0749C104.653 82.6703 105.462 83.0749 105.327 83.7492L105.192 85.0978C105.192 85.7721 105.731 86.1767 106.271 85.907L107.485 85.3675C108.159 85.0978 108.698 85.6372 108.564 86.3116L108.159 87.5253C108.024 88.0648 108.564 88.6042 109.103 88.4694L110.317 88.1996C110.991 88.0648 111.531 88.7391 111.261 89.2785L110.586 90.4923C110.317 91.0317 110.721 91.7061 111.396 91.5712L112.744 91.4363C113.419 91.4363 113.823 92.1106 113.419 92.6501L112.609 93.729C112.205 94.2684 112.609 94.9428 113.149 94.9428L114.497 95.0776C115.172 95.2125 115.442 96.0216 114.902 96.4262L113.958 97.3703C113.553 97.7749 113.688 98.584 114.228 98.7189L115.442 99.1235C116.116 99.2583 116.251 100.202 115.576 100.607L114.632 101.416C114.093 101.686 114.093 102.495 114.632 102.765L115.846 103.304C116.386 103.574 116.386 104.518 115.846 104.788L114.632 105.327C114.093 105.597 113.958 106.271 114.497 106.676L115.576 107.485C116.116 107.89 115.981 108.699 115.307 108.834L114.093 109.103C113.553 109.238 113.284 109.912 113.688 110.452L114.632 111.396C115.037 111.935 114.767 112.745 114.093 112.745H112.744C112.07 112.745 111.8 113.419 112.07 113.958L112.744 115.037C113.149 115.577 112.609 116.386 111.935 116.251L110.586 116.116C110.047 115.981 109.508 116.656 109.777 117.195L110.317 118.409C110.586 119.083 109.912 119.623 109.373 119.488L108.159 119.083C107.619 118.948 106.945 119.353 107.08 120.027L107.35 121.376C107.485 122.05 106.81 122.59 106.136 122.185L104.787 121.376C104.248 121.106 103.574 121.511 103.574 122.05V123.399C103.574 124.073 102.764 124.478 102.225 124.073L101.281 123.264C100.742 122.859 100.067 123.129 99.9323 123.803L99.6626 125.152C99.5278 125.826 98.7186 126.096 98.314 125.557L97.5048 124.612C97.1002 124.208 96.2911 124.343 96.1562 124.882L95.7516 126.096C95.4819 126.77 94.6727 126.77 94.2681 126.231L93.5938 125.152C93.3241 124.612 92.5149 124.612 92.2452 125.152L91.5709 126.231C91.3012 126.77 90.3571 126.77 90.0874 126.096L89.6828 124.882C89.4131 124.343 88.7388 124.208 88.3342 124.612L87.6599 125.422C87.2553 125.961 86.4461 125.691 86.3112 125.017L86.0415 123.668C85.9067 123.129 85.2323 122.859 84.6929 123.129L83.7489 123.938C83.2094 124.343 82.4002 123.938 82.4002 123.264V121.915C82.4002 121.241 81.7259 120.971 81.1865 121.241L80.1076 121.915C79.5681 122.185 78.759 121.78 78.8938 121.106L79.1635 119.757C79.2984 119.218 78.759 118.679 78.0846 118.813L76.8709 119.488C76.1966 119.757 75.6571 119.083 75.9268 118.409L76.4663 117.195C76.736 116.656 76.1966 115.981 75.6571 116.116L74.3085 116.386C73.6342 116.521 73.0947 115.712 73.4993 115.172L74.1736 114.093C74.4434 113.554 74.1736 112.879 73.4993 112.879H72.1507C71.4764 112.879 71.0718 112.07 71.6112 111.531L72.5553 110.587C72.9599 110.182 72.6901 109.373 72.1507 109.238L70.8021 108.968C70.1278 108.834 69.9929 108.024 70.5323 107.62L71.6112 106.811C72.1507 106.406 72.0158 105.732 71.4764 105.462L70.1278 104.923C69.4534 104.653 69.4534 103.844 69.9929 103.439L71.2067 102.9C71.7461 102.63 71.7461 101.821 71.2067 101.551L70.1278 100.877C69.5883 100.472 69.7232 99.6629 70.2626 99.3932L71.4764 98.9886C72.0158 98.8538 72.2856 98.0446 71.7461 97.64L70.8021 96.696C70.2626 96.2914 70.5323 95.3473 71.2067 95.3473L72.5553 95.2125C73.2296 95.0776 73.4993 94.4033 73.0947 93.9987L72.2856 92.9198C71.881 92.3804 72.2856 91.5712 72.9599 91.7061L74.3085 91.8409C74.9828 91.8409 75.3874 91.3015 75.1177 90.6271L74.5782 89.4134C74.3085 88.8739 74.8479 88.0648 75.5223 88.3345L76.736 88.6042C77.2755 88.7391 77.8149 88.1996 77.68 87.6602L77.2755 86.4464C77.1406 85.7721 77.68 85.2327 78.3544 85.5024L79.5681 86.0418C80.1076 86.3116 80.7819 85.7721 80.647 85.2327L80.5122 83.884C80.3773 83.2097 81.1865 82.8051 81.7259 83.0749L82.8048 83.7492C83.3443 84.1538 84.0186 83.7492 84.0186 83.2097L84.1534 81.8611C84.1534 81.1868 84.9626 80.9171 85.5021 81.3217L86.4461 82.2657C86.8507 82.6703 87.6599 82.5354 87.7947 81.8611L88.0645 80.6473C88.1993 79.973 89.1434 79.8382 89.4131 80.3776L90.2223 81.4565C90.6268 81.996 91.3012 81.8611 91.5709 81.3217L92.1103 80.1079C92.3801 79.5684 93.3241 79.5684 93.5938 80.2427Z" fill="#3E445E"/>
<path d="M93.0542 120.838C102.886 120.838 110.856 112.868 110.856 103.036C110.856 93.2045 102.886 85.2344 93.0542 85.2344C83.2226 85.2344 75.2524 93.2045 75.2524 103.036C75.2524 112.868 83.2226 120.838 93.0542 120.838Z" fill="#DFE21F"/>
<path d="M104.519 110.182C105.867 108.025 106.677 105.462 106.677 102.765C106.677 96.8311 102.9 91.8412 97.6408 89.9531" stroke="#3E445E" stroke-width="1.4908" stroke-miterlimit="10" stroke-linecap="round" stroke-linejoin="round"/>
<path d="M80.513 96.9648C79.7038 98.7181 79.1644 100.741 79.1644 102.899C79.1644 108.563 82.6708 113.418 87.5258 115.441" stroke="#3E445E" stroke-width="1.4908" stroke-miterlimit="10" stroke-linecap="round" stroke-linejoin="round"/>
<g filter="url(#filter2_d_2069_18340)">
<g filter="url(#filter3_d_2069_18340)">
<path d="M130.95 177.883L60.0129 156.844C54.3486 155.226 51.2468 149.292 52.8652 143.763L84.9624 35.3332C86.5807 29.669 92.5147 26.5672 98.044 28.1855L168.982 49.2241C174.646 50.8424 177.748 56.7764 176.129 62.3057L144.032 170.735C142.549 176.399 136.615 179.501 130.95 177.883Z" fill="url(#paint2_linear_2069_18340)"/>
</g>
<path d="M93.7284 52.4598L94.5375 49.6277L97.5045 50.5717L99.7972 43.0194L101.416 43.424L96.4256 44.6378L97.3696 41.4011L101.685 40.457L104.113 41.1313L101.011 51.5157L103.843 52.3249L103.034 55.157L93.7284 52.4598Z" fill="#3E445E"/>
</g>
</g>
<circle cx="115.021" cy="104.23" r="30.344" transform="rotate(17.7439 115.021 104.23)" fill="url(#paint3_linear_2069_18340)"/>
<g clip-path="url(#clip0_2069_18340)">
<path d="M127.468 100.387L125.782 99.848L126.8 96.6675C128.205 92.2782 125.568 87.5076 120.915 86.0187C116.262 84.5298 111.346 86.8837 109.942 91.2729L108.924 94.4535L107.238 93.9141C105.383 93.3207 103.408 94.2664 102.848 96.0158L97.7598 111.919C97.2 113.668 98.2593 115.585 100.114 116.178L120.344 122.652C122.199 123.245 124.174 122.299 124.734 120.55L129.822 104.647C130.382 102.898 129.323 100.981 127.468 100.387ZM112.773 111.463C110.919 110.87 109.86 108.953 110.419 107.204C110.979 105.455 112.954 104.509 114.809 105.102C116.663 105.696 117.722 107.612 117.163 109.362C116.603 111.111 114.628 112.057 112.773 111.463ZM122.579 98.8231L112.127 95.4785L113.145 92.2979C114.015 89.5785 117.066 88.1178 119.948 89.0403C122.831 89.9628 124.467 92.9231 123.597 95.6425L122.579 98.8231Z" fill="url(#paint4_linear_2069_18340)" fill-opacity="0.95"/>
</g>
<defs>
<filter id="filter0_d_2069_18340" x="16.0387" y="43.2383" width="116.992" height="141.895" filterUnits="userSpaceOnUse" color-interpolation-filters="sRGB">
<feFlood flood-opacity="0" result="BackgroundImageFix"/>
<feColorMatrix in="SourceAlpha" type="matrix" values="0 0 0 0 0 0 0 0 0 0 0 0 0 0 0 0 0 0 127 0" result="hardAlpha"/>
<feOffset dy="4"/>
<feGaussianBlur stdDeviation="2"/>
<feComposite in2="hardAlpha" operator="out"/>
<feColorMatrix type="matrix" values="0 0 0 0 0 0 0 0 0 0 0 0 0 0 0 0 0 0 0.25 0"/>
<feBlend mode="normal" in2="BackgroundImageFix" result="effect1_dropShadow_2069_18340"/>
<feBlend mode="normal" in="SourceGraphic" in2="effect1_dropShadow_2069_18340" result="shape"/>
</filter>
<filter id="filter1_d_2069_18340" x="23.1685" y="22.1797" width="139.506" height="174.434" filterUnits="userSpaceOnUse" color-interpolation-filters="sRGB">
<feFlood flood-opacity="0" result="BackgroundImageFix"/>
<feColorMatrix in="SourceAlpha" type="matrix" values="0 0 0 0 0 0 0 0 0 0 0 0 0 0 0 0 0 0 127 0" result="hardAlpha"/>
<feOffset dy="4"/>
<feGaussianBlur stdDeviation="13.5"/>
<feComposite in2="hardAlpha" operator="out"/>
<feColorMatrix type="matrix" values="0 0 0 0 0 0 0 0 0 0 0 0 0 0 0 0 0 0 0.15 0"/>
<feBlend mode="normal" in2="BackgroundImageFix" result="effect1_dropShadow_2069_18340"/>
<feBlend mode="normal" in="SourceGraphic" in2="effect1_dropShadow_2069_18340" result="shape"/>
</filter>
<filter id="filter2_d_2069_18340" x="48.4374" y="27.7578" width="132.12" height="158.551" filterUnits="userSpaceOnUse" color-interpolation-filters="sRGB">
<feFlood flood-opacity="0" result="BackgroundImageFix"/>
<feColorMatrix in="SourceAlpha" type="matrix" values="0 0 0 0 0 0 0 0 0 0 0 0 0 0 0 0 0 0 127 0" result="hardAlpha"/>
<feOffset dy="4"/>
<feGaussianBlur stdDeviation="2"/>
<feComposite in2="hardAlpha" operator="out"/>
<feColorMatrix type="matrix" values="0 0 0 0 0 0 0 0 0 0 0 0 0 0 0 0 0 0 0.25 0"/>
<feBlend mode="normal" in2="BackgroundImageFix" result="effect1_dropShadow_2069_18340"/>
<feBlend mode="normal" in="SourceGraphic" in2="effect1_dropShadow_2069_18340" result="shape"/>
</filter>
<filter id="filter3_d_2069_18340" x="35.4374" y="14.7578" width="158.12" height="184.551" filterUnits="userSpaceOnUse" color-interpolation-filters="sRGB">
<feFlood flood-opacity="0" result="BackgroundImageFix"/>
<feColorMatrix in="SourceAlpha" type="matrix" values="0 0 0 0 0 0 0 0 0 0 0 0 0 0 0 0 0 0 127 0" result="hardAlpha"/>
<feOffset dy="4"/>
<feGaussianBlur stdDeviation="8.5"/>
<feComposite in2="hardAlpha" operator="out"/>
<feColorMatrix type="matrix" values="0 0 0 0 0 0 0 0 0 0 0 0 0 0 0 0 0 0 0.15 0"/>
<feBlend mode="normal" in2="BackgroundImageFix" result="effect1_dropShadow_2069_18340"/>
<feBlend mode="normal" in="SourceGraphic" in2="effect1_dropShadow_2069_18340" result="shape"/>
</filter>
<linearGradient id="paint0_linear_2069_18340" x1="169.927" y1="193.55" x2="-31.6534" y2="60.7054" gradientUnits="userSpaceOnUse">
<stop offset="0.260417" stop-color="#63CA85"/>
<stop offset="1" stop-color="#86FFAE"/>
</linearGradient>
<linearGradient id="paint1_linear_2069_18340" x1="92.9215" y1="45.1797" x2="232.197" y2="309.389" gradientUnits="userSpaceOnUse">
<stop stop-color="white"/>
<stop offset="1" stop-color="#DFD7F1"/>
</linearGradient>
<linearGradient id="paint2_linear_2069_18340" x1="114.497" y1="27.7578" x2="273.364" y2="377.706" gradientUnits="userSpaceOnUse">
<stop stop-color="white"/>
<stop offset="1" stop-color="#DFD7F1"/>
</linearGradient>
<linearGradient id="paint3_linear_2069_18340" x1="145.365" y1="153.792" x2="62.1435" y2="98.9481" gradientUnits="userSpaceOnUse">
<stop offset="0.260417" stop-color="#3D445E"/>
<stop offset="1" stop-color="#919BC1"/>
</linearGradient>
<linearGradient id="paint4_linear_2069_18340" x1="116.368" y1="98.0157" x2="142.983" y2="129.896" gradientUnits="userSpaceOnUse">
<stop stop-color="white"/>
<stop offset="1" stop-color="white" stop-opacity="0.77"/>
</linearGradient>
<clipPath id="clip0_2069_18340">
<rect width="44.5046" height="44.5046" fill="white" transform="translate(100.954 75.3828) rotate(17.7439)"/>
</clipPath>
</defs>
</svg>
