<svg width="193" height="147" viewBox="0 0 193 147" fill="none" xmlns="http://www.w3.org/2000/svg">
<g filter="url(#filter0_d_2069_11698)">
<rect x="22.9441" y="3" width="147.112" height="147.112" rx="16" fill="url(#paint0_linear_2069_11698)"/>
</g>
<mask id="mask0_2069_11698" style="mask-type:alpha" maskUnits="userSpaceOnUse" x="0" y="13" width="193" height="138">
<rect y="13.7969" width="193" height="136.315" fill="#C4C4C4"/>
</mask>
<g mask="url(#mask0_2069_11698)">
<g filter="url(#filter1_d_2069_11698)">
<path d="M122.145 162.931L58.0361 179.936C53.0424 181.286 47.7788 178.317 46.4291 173.188L20.3809 75.2033C19.0312 70.2096 22.0005 64.946 27.1291 63.5963L91.2375 46.5907C96.2312 45.2411 101.495 48.2103 102.844 53.339L128.758 151.324C130.242 156.317 127.138 161.581 122.145 162.931Z" fill="white"/>
<path d="M35.0918 84.2443L34.417 81.68L37.1163 81.0052L35.3617 74.122L36.8463 73.7171L33.6072 76.9562L32.7974 74.122L35.6317 71.4227L37.9261 70.8828L40.4904 80.3304L43.0547 79.6555L43.7296 82.2199L35.0918 84.2443Z" fill="#3E445E"/>
<path d="M68.8339 88.8338L69.6437 89.7786C70.0485 90.3184 70.7234 90.1834 70.9933 89.5086L71.3982 88.2939C71.6681 87.6191 72.4779 87.6191 72.8828 88.159L73.5576 89.2387C73.8276 89.7785 74.6374 89.7785 74.9073 89.2387L75.5821 88.159C75.987 87.6191 76.7968 87.6191 77.0667 88.2939L77.4716 89.5086C77.6066 90.0485 78.4164 90.1834 78.8213 89.7786L79.6311 88.8338C80.036 88.2939 80.9807 88.5639 80.9807 89.2387L81.1157 90.5883C81.2506 91.1282 81.9255 91.5331 82.4653 91.1282L83.5451 90.3184C84.0849 89.9135 84.8947 90.3184 84.8947 90.9932V92.3429C84.8947 93.0177 85.5695 93.4226 86.1094 93.0177L87.3241 92.3429C87.8639 92.0729 88.6737 92.4779 88.5388 93.1527L88.2688 94.3674C88.1339 94.9072 88.6737 95.4471 89.3485 95.3121L90.5632 94.9072C91.2381 94.6373 91.7779 95.3121 91.508 95.9869L90.9681 97.2016C90.6982 97.7415 91.2381 98.4163 91.7779 98.2813L93.1276 98.1464C93.8024 98.0114 94.2073 98.8212 93.9374 99.3611L93.2625 100.441C92.9926 100.981 93.2625 101.655 93.9374 101.655H95.287C95.9618 101.655 96.3667 102.465 95.8269 103.005L94.8821 103.95C94.4772 104.355 94.7471 105.165 95.287 105.3L96.5017 105.569C97.1765 105.704 97.3115 106.514 96.7716 106.919L95.6919 107.729C95.152 108.134 95.287 108.809 95.8269 109.079L97.0416 109.618C97.7164 109.888 97.7164 110.698 97.0416 111.103L95.8269 111.643C95.287 111.913 95.287 112.723 95.6919 112.993L96.7716 113.667C97.3115 114.072 97.1765 114.882 96.5017 115.152L95.287 115.557C94.7471 115.692 94.4772 116.502 95.0171 116.907L95.9618 117.851C96.5017 118.256 96.2318 119.201 95.5569 119.201L94.2073 119.336C93.5325 119.336 93.2625 120.146 93.6674 120.551L94.4772 121.63C94.8821 122.17 94.4772 122.98 93.8024 122.845L92.4527 122.71C91.7779 122.71 91.373 123.25 91.643 123.79L92.1828 125.004C92.4527 125.679 91.9129 126.354 91.2381 126.084L90.1583 125.814C89.6185 125.679 89.0786 126.219 89.2136 126.759L89.6185 127.974C89.7534 128.648 89.0786 129.188 88.5388 128.918L87.3241 128.379C86.7842 128.109 86.1094 128.514 86.2444 129.188L86.3793 130.538C86.3793 131.213 85.7045 131.618 85.1646 131.213L84.0849 130.403C83.5451 129.998 82.8702 130.403 82.8702 130.943L82.7353 132.293C82.7353 132.967 81.7905 133.237 81.3856 132.832L80.4409 131.888C80.036 131.483 79.2262 131.618 79.0912 132.293L78.8213 133.507C78.6863 134.182 77.7416 134.317 77.3367 133.777L76.6618 132.697C76.2569 132.158 75.5821 132.293 75.3122 132.832L74.7723 134.047C74.5024 134.722 73.5576 134.587 73.2877 134.047L72.7479 132.832C72.4779 132.293 71.6681 132.158 71.3982 132.697L70.5884 133.777C70.1835 134.317 69.3737 134.182 69.2388 133.507L68.9688 132.293C68.8339 131.753 68.0241 131.483 67.6192 131.888L66.6744 132.832C66.1346 133.372 65.3248 132.967 65.3248 132.293L65.1898 130.943C65.1898 130.268 64.515 129.998 63.9751 130.268L62.8954 130.943C62.3555 131.348 61.5458 130.808 61.6807 130.133L61.8157 128.783C61.9506 128.109 61.2758 127.704 60.736 127.974L59.5213 128.514C58.8464 128.783 58.3066 128.244 58.4416 127.569L58.8464 126.354C58.9814 125.814 58.4416 125.274 57.9017 125.409L56.4171 125.814C55.7423 125.949 55.2024 125.274 55.4723 124.734L56.0122 123.52C56.2821 122.98 55.8772 122.305 55.2024 122.305L53.8527 122.44C53.1779 122.44 52.773 121.765 53.1779 121.225L53.9877 120.146C54.3926 119.606 54.1227 118.931 53.4478 118.931L52.0982 118.796C51.4234 118.661 51.1534 117.851 51.6933 117.446L52.6381 116.637C53.043 116.232 52.908 115.422 52.3681 115.287L51.1534 114.882C50.4786 114.612 50.3437 113.802 51.0185 113.397L52.0982 112.723C52.6381 112.453 52.6381 111.643 52.0982 111.373L50.8835 110.698C50.3437 110.428 50.3437 109.483 51.0185 109.214L52.2332 108.674C52.773 108.404 52.908 107.729 52.3681 107.324L51.2884 106.514C50.7485 106.109 51.0185 105.3 51.5583 105.165L52.908 104.895C53.4478 104.76 53.7178 104.085 53.3129 103.545L52.5031 102.6C52.0982 102.06 52.3681 101.251 53.043 101.251H54.3926C55.0674 101.251 55.3374 100.576 55.0674 100.036L54.3926 98.9562C53.9877 98.4163 54.5276 97.6065 55.2024 97.7415L56.552 98.0114C57.0919 98.1464 57.6318 97.4716 57.3618 96.9317L56.9569 95.717C56.687 95.0422 57.3618 94.5023 57.9017 94.6373L59.1164 95.0422C59.6562 95.3121 60.3311 94.7723 60.1961 94.0974L59.9262 92.7478C59.7912 92.073 60.466 91.5331 61.1409 91.938L62.2206 92.6128C62.7604 92.8827 63.4353 92.4779 63.4353 91.938V90.5883C63.4353 89.9135 64.2451 89.5086 64.7849 89.9135L65.7297 90.7233C66.1346 91.1282 66.9444 90.8583 67.0793 90.3184L67.3492 88.9688C67.6192 88.5639 68.429 88.2939 68.8339 88.8338Z" fill="#3E445E"/>
<path d="M74.0969 128.92C83.936 128.92 91.9123 120.944 91.9123 111.104C91.9123 101.265 83.936 93.2891 74.0969 93.2891C64.2577 93.2891 56.2815 101.265 56.2815 111.104C56.2815 120.944 64.2577 128.92 74.0969 128.92Z" fill="#DFE21F"/>
<path d="M87.0535 115.019C87.8633 112.589 87.9983 110.025 87.1885 107.326C85.7038 101.657 80.7101 97.743 75.1766 97.2031" stroke="#3E445E" stroke-width="1.4908" stroke-miterlimit="10" stroke-linecap="round" stroke-linejoin="round"/>
<path d="M60.4657 108.27C60.0608 110.294 60.1957 112.318 60.7356 114.343C62.2202 119.877 66.6741 123.656 71.9377 124.465" stroke="#3E445E" stroke-width="1.4908" stroke-miterlimit="10" stroke-linecap="round" stroke-linejoin="round"/>
</g>
<g filter="url(#filter2_d_2069_11698)">
<path d="M126.328 168.465L59.9255 168.735C54.6619 168.735 50.478 164.551 50.478 159.287L50.208 57.9284C50.208 52.6648 54.392 48.4809 59.6556 48.4809L126.058 48.2109C131.322 48.2109 135.506 52.3949 135.506 57.6585L135.776 159.017C135.911 164.146 131.592 168.33 126.328 168.465Z" fill="url(#paint1_linear_2069_11698)"/>
</g>
<path d="M62.0846 70.3465V67.6472H64.9189V60.629H66.4035L62.4895 62.9234V59.9542L65.8636 57.9297H68.1581V67.6472H70.7224V70.3465H62.0846Z" fill="#3E445E"/>
<path d="M93.6663 83.3017L94.2062 84.5164C94.4761 85.0563 95.2859 85.1913 95.5558 84.6514L96.3656 83.5717C96.7705 83.0318 97.5803 83.1668 97.8502 83.8416L98.1202 85.0563C98.2551 85.5962 99.0649 85.8661 99.4698 85.4612L100.415 84.5164C100.954 83.9766 101.764 84.3815 101.764 85.0563L101.899 86.4059C101.899 87.0808 102.574 87.3507 103.114 86.9458L104.194 86.136C104.733 85.7311 105.543 86.136 105.408 86.8108L105.273 88.1605C105.273 88.8353 105.813 89.2402 106.353 88.9703L107.568 88.4304C108.243 88.1605 108.782 88.7003 108.647 89.3752L108.243 90.5899C108.108 91.1297 108.647 91.6696 109.187 91.5346L110.402 91.2647C111.077 91.1297 111.617 91.8045 111.347 92.3444L110.672 93.5591C110.402 94.0989 110.807 94.7738 111.482 94.6388L112.831 94.5038C113.506 94.5038 113.911 95.1787 113.506 95.7185L112.696 96.7982C112.292 97.3381 112.696 98.0129 113.236 98.0129L114.586 98.1479C115.261 98.2829 115.531 99.0927 114.991 99.4975L114.046 100.442C113.641 100.847 113.776 101.657 114.316 101.792L115.531 102.197C116.205 102.332 116.34 103.277 115.666 103.681L114.721 104.491C114.181 104.761 114.181 105.571 114.721 105.841L115.936 106.381C116.475 106.651 116.475 107.595 115.936 107.865L114.721 108.405C114.181 108.675 114.046 109.35 114.586 109.755L115.666 110.565C116.205 110.97 116.071 111.779 115.396 111.914L114.181 112.184C113.641 112.319 113.371 112.994 113.776 113.534L114.721 114.479C115.126 115.019 114.856 115.828 114.181 115.828H112.831C112.157 115.828 111.887 116.503 112.157 117.043L112.831 118.123C113.236 118.663 112.696 119.472 112.022 119.337L110.672 119.202C110.132 119.067 109.592 119.742 109.862 120.282L110.402 121.497C110.672 122.172 109.997 122.712 109.457 122.577L108.243 122.172C107.703 122.037 107.028 122.442 107.163 123.116L107.433 124.466C107.568 125.141 106.893 125.681 106.218 125.276L104.868 124.466C104.329 124.196 103.654 124.601 103.654 125.141V126.491C103.654 127.165 102.844 127.57 102.304 127.165L101.359 126.356C100.819 125.951 100.145 126.221 100.01 126.895L99.7398 128.245C99.6048 128.92 98.795 129.19 98.3901 128.65L97.5803 127.705C97.1754 127.3 96.3656 127.435 96.2307 127.975L95.8258 129.19C95.5558 129.865 94.7461 129.865 94.3412 129.325L93.6663 128.245C93.3964 127.705 92.5866 127.705 92.3167 128.245L91.6419 129.325C91.3719 129.865 90.4272 129.865 90.1572 129.19L89.7523 127.975C89.4824 127.435 88.8076 127.3 88.4027 127.705L87.7279 128.515C87.323 129.055 86.5132 128.785 86.3782 128.11L86.1083 126.76C85.9733 126.221 85.2985 125.951 84.7586 126.221L83.8139 127.03C83.274 127.435 82.4642 127.03 82.4642 126.356V125.006C82.4642 124.331 81.7894 124.061 81.2496 124.331L80.1698 125.006C79.63 125.276 78.8202 124.871 78.9551 124.196L79.2251 122.847C79.36 122.307 78.8202 121.767 78.1454 121.902L76.9307 122.577C76.2558 122.846 75.716 122.172 75.9859 121.497L76.5258 120.282C76.7957 119.742 76.2558 119.067 75.716 119.202L74.3663 119.472C73.6915 119.607 73.1516 118.798 73.5565 118.258L74.2314 117.178C74.5013 116.638 74.2314 115.963 73.5565 115.963H72.2069C71.5321 115.963 71.1272 115.153 71.667 114.614L72.6118 113.669C73.0167 113.264 72.7468 112.454 72.2069 112.319L70.8572 112.049C70.1824 111.914 70.0475 111.105 70.5873 110.7L71.667 109.89C72.2069 109.485 72.0719 108.81 71.5321 108.54L70.1824 108C69.5076 107.73 69.5076 106.921 70.0475 106.516L71.2621 105.976C71.802 105.706 71.802 104.896 71.2621 104.626L70.1824 103.951C69.6426 103.547 69.7775 102.737 70.3174 102.467L71.5321 102.062C72.0719 101.927 72.3419 101.117 71.802 100.712L70.8572 99.7675C70.3174 99.3626 70.5873 98.4178 71.2621 98.4178L72.6118 98.2829C73.2866 98.1479 73.5565 97.4731 73.1516 97.0682L72.3419 95.9885C71.937 95.4486 72.3419 94.6388 73.0167 94.7738L74.3663 94.9087C75.0412 94.9087 75.4461 94.3689 75.1761 93.694L74.6363 92.4794C74.3663 91.9395 74.9062 91.1297 75.581 91.3996L76.7957 91.6696C77.3356 91.8045 77.8754 91.2647 77.7405 90.7248L77.3356 89.5101C77.2006 88.8353 77.7405 88.2954 78.4153 88.5654L79.63 89.1052C80.1698 89.3752 80.8447 88.8353 80.7097 88.2954L80.5747 86.9458C80.4398 86.271 81.2495 85.8661 81.7894 86.136L82.8691 86.8108C83.409 87.2157 84.0838 86.8108 84.0838 86.271L84.2188 84.9213C84.2188 84.2465 85.0286 83.9766 85.5684 84.3815L86.5132 85.3262C86.9181 85.7311 87.7279 85.5961 87.8628 84.9213L88.1328 83.7066C88.2677 83.0318 89.2125 82.8968 89.4824 83.4367L90.2922 84.5164C90.6971 85.0563 91.3719 84.9213 91.6419 84.3815L92.1817 83.1668C92.4516 82.6269 93.3964 82.6269 93.6663 83.3017Z" fill="#3E445E"/>
<path d="M93.1264 123.924C102.966 123.924 110.942 115.948 110.942 106.108C110.942 96.2692 102.966 88.293 93.1264 88.293C83.2872 88.293 75.311 96.2692 75.311 106.108C75.311 115.948 83.2872 123.924 93.1264 123.924Z" fill="#DFE21F"/>
<path d="M104.599 113.264C105.949 111.105 106.759 108.541 106.759 105.841C106.759 99.9027 102.98 94.909 97.7161 93.0195" stroke="#3E445E" stroke-width="1.4908" stroke-miterlimit="10" stroke-linecap="round" stroke-linejoin="round"/>
<path d="M80.5753 100.035C79.7655 101.79 79.2256 103.814 79.2256 105.974C79.2256 111.642 82.7347 116.501 87.5935 118.525" stroke="#3E445E" stroke-width="1.4908" stroke-miterlimit="10" stroke-linecap="round" stroke-linejoin="round"/>
<g filter="url(#filter3_d_2069_11698)">
<g filter="url(#filter4_d_2069_11698)">
<path d="M131.051 181.017L60.0596 159.962C54.3911 158.342 51.2869 152.404 52.9065 146.87L85.0282 38.3585C86.6478 32.69 92.5862 29.5858 98.1198 31.2054L169.111 52.2599C174.78 53.8795 177.884 59.818 176.265 65.3515L144.143 173.863C142.658 179.532 136.72 182.636 131.051 181.017Z" fill="url(#paint2_linear_2069_11698)"/>
</g>
<path d="M93.801 55.5002L94.6108 52.6659L97.58 53.6107L99.8744 46.0526L101.494 46.4575L96.5003 47.6722L97.445 44.433L101.764 43.4883L104.193 44.1631L101.089 54.5554L103.923 55.3652L103.114 58.1995L93.801 55.5002Z" fill="#3E445E"/>
<path d="M116.216 77.7398L116.838 79.0981C117.121 79.7207 117.97 79.7773 118.366 79.2113L119.215 78.0228C119.668 77.4003 120.63 77.57 120.8 78.3058L121.14 79.7207C121.309 80.3999 122.158 80.6262 122.611 80.1169L123.63 79.0981C124.196 78.5322 125.101 78.9284 125.158 79.6641L125.271 81.1356C125.328 81.8148 126.12 82.2109 126.686 81.8148L127.875 80.9658C128.497 80.5131 129.346 81.0224 129.29 81.8148L129.12 83.2863C129.063 83.9654 129.742 84.4748 130.365 84.1918L131.723 83.5693C132.402 83.2297 133.138 83.9088 132.968 84.6446L132.572 86.0595C132.402 86.7387 132.968 87.3612 133.647 87.1914L135.062 86.8518C135.798 86.6821 136.421 87.4178 136.081 88.097L135.402 89.3987C135.062 90.0212 135.572 90.757 136.251 90.7004L137.722 90.5872C138.458 90.5306 138.968 91.3796 138.515 92.0021L137.609 93.1906C137.213 93.7566 137.553 94.5489 138.232 94.6055L139.703 94.7753C140.439 94.8885 140.779 95.7941 140.213 96.3034L139.137 97.3222C138.628 97.7749 138.798 98.6239 139.477 98.8503L140.892 99.303C141.628 99.5294 141.741 100.492 141.118 100.888L139.873 101.68C139.307 102.076 139.307 102.925 139.93 103.208L141.231 103.887C141.911 104.227 141.854 105.246 141.175 105.529L139.816 106.095C139.194 106.378 139.081 107.227 139.59 107.623L140.779 108.528C141.401 108.981 141.175 109.943 140.439 110.113L138.968 110.396C138.288 110.509 138.005 111.358 138.515 111.867L139.533 112.943C140.043 113.509 139.647 114.414 138.911 114.414L137.439 114.471C136.76 114.471 136.364 115.263 136.704 115.829L137.496 117.074C137.892 117.697 137.383 118.546 136.59 118.433L135.119 118.206C134.44 118.093 133.874 118.772 134.157 119.395L134.723 120.753C135.006 121.489 134.327 122.168 133.591 121.942L132.176 121.432C131.497 121.206 130.874 121.772 130.987 122.451L131.27 123.922C131.44 124.658 130.648 125.224 129.969 124.885L128.667 124.149C128.044 123.809 127.309 124.262 127.365 124.941L127.422 126.413C127.422 127.148 126.573 127.601 125.95 127.092L124.818 126.13C124.309 125.677 123.46 126.017 123.347 126.696L123.121 128.167C123.007 128.903 122.045 129.186 121.536 128.62L120.574 127.488C120.121 126.979 119.272 127.092 119.046 127.771L118.536 129.186C118.31 129.922 117.291 129.978 116.895 129.356L116.159 128.054C115.82 127.431 114.971 127.431 114.631 128.054L113.895 129.356C113.499 130.035 112.537 129.922 112.254 129.186L111.745 127.771C111.518 127.148 110.669 126.979 110.217 127.488L109.254 128.62C108.745 129.186 107.84 128.96 107.67 128.167L107.443 126.696C107.33 126.017 106.538 125.734 105.972 126.13L104.84 127.092C104.274 127.601 103.368 127.148 103.368 126.413L103.425 124.941C103.425 124.262 102.689 123.809 102.123 124.149L100.822 124.885C100.142 125.281 99.3501 124.658 99.5199 123.922L99.8029 122.451C99.916 121.772 99.2935 121.206 98.6143 121.432L97.1994 121.942C96.4637 122.168 95.7845 121.489 96.0675 120.753L96.6335 119.395C96.9164 118.772 96.3505 118.093 95.6713 118.206L94.1998 118.433C93.4641 118.546 92.8981 117.753 93.2943 117.074L94.0866 115.829C94.4262 115.263 94.03 114.471 93.3509 114.471L91.8794 114.414C91.1436 114.414 90.7474 113.509 91.2568 112.943L92.2755 111.867C92.7283 111.358 92.4453 110.509 91.8228 110.396L90.3513 110.113C89.6155 109.943 89.3891 108.981 90.0117 108.528L91.2002 107.623C91.7662 107.227 91.653 106.321 90.9738 106.095L89.6155 105.529C88.9364 105.246 88.8798 104.284 89.5589 103.887L90.8606 103.208C91.4832 102.869 91.5398 102.02 90.9172 101.68L89.6721 100.888C89.0496 100.492 89.1627 99.5294 89.8985 99.303L91.3134 98.8503C91.9926 98.6239 92.1624 97.8315 91.653 97.3222L90.5777 96.3034C90.0117 95.7941 90.2947 94.8319 91.087 94.7753L92.5585 94.6055C93.2377 94.5489 93.5773 93.7566 93.1811 93.1906L92.2755 92.0021C91.8228 91.3796 92.2755 90.5306 93.0679 90.5872L94.5394 90.7004C95.2186 90.757 95.7279 90.0212 95.3883 89.3987L94.7092 88.097C94.3696 87.4178 94.9922 86.6255 95.7279 86.8518L97.1428 87.1914C97.822 87.3612 98.3879 86.7387 98.2182 86.0595L97.822 84.6446C97.5956 83.9088 98.3314 83.2863 99.0671 83.5693L100.425 84.1918C101.048 84.4748 101.727 83.9654 101.671 83.2863L101.501 81.8148C101.444 81.079 102.236 80.5697 102.916 80.9658L104.104 81.8148C104.67 82.2109 105.462 81.8148 105.519 81.1356L105.632 79.6641C105.689 78.9284 106.594 78.5322 107.16 79.0981L108.179 80.1169C108.688 80.6262 109.481 80.3999 109.651 79.7207L109.99 78.3058C110.16 77.57 111.122 77.4003 111.575 78.0228L112.424 79.2113C112.82 79.7773 113.669 79.7207 113.952 79.0981L114.575 77.7398C114.914 77.0607 115.876 77.0607 116.216 77.7398Z" fill="url(#paint3_linear_2069_11698)"/>
<path d="M115.481 123.582C126.577 123.582 135.572 114.586 135.572 103.49C135.572 92.3938 126.577 83.3984 115.481 83.3984C104.384 83.3984 95.3889 92.3938 95.3889 103.49C95.3889 114.586 104.384 123.582 115.481 123.582Z" fill="url(#paint4_linear_2069_11698)"/>
<path d="M127.853 111.085C129.319 108.789 130.187 106.001 130.187 103.049C130.187 96.5986 126.117 91.132 120.473 89.0547M101.967 96.5986C101.044 98.5666 100.502 100.753 100.502 103.104C100.502 109.226 104.192 114.529 109.456 116.825" stroke="url(#paint5_linear_2069_11698)" stroke-width="2" stroke-miterlimit="10" stroke-linecap="round" stroke-linejoin="round"/>
</g>
</g>
<defs>
<filter id="filter0_d_2069_11698" x="18.9441" y="0" width="155.112" height="155.113" filterUnits="userSpaceOnUse" color-interpolation-filters="sRGB">
<feFlood flood-opacity="0" result="BackgroundImageFix"/>
<feColorMatrix in="SourceAlpha" type="matrix" values="0 0 0 0 0 0 0 0 0 0 0 0 0 0 0 0 0 0 127 0" result="hardAlpha"/>
<feOffset dy="1"/>
<feGaussianBlur stdDeviation="2"/>
<feComposite in2="hardAlpha" operator="out"/>
<feColorMatrix type="matrix" values="0 0 0 0 0 0 0 0 0 0 0 0 0 0 0 0 0 0 0.15 0"/>
<feBlend mode="normal" in2="BackgroundImageFix" result="effect1_dropShadow_2069_11698"/>
<feBlend mode="normal" in="SourceGraphic" in2="effect1_dropShadow_2069_11698" result="shape"/>
</filter>
<filter id="filter1_d_2069_11698" x="16.0558" y="46.2656" width="117.075" height="141.996" filterUnits="userSpaceOnUse" color-interpolation-filters="sRGB">
<feFlood flood-opacity="0" result="BackgroundImageFix"/>
<feColorMatrix in="SourceAlpha" type="matrix" values="0 0 0 0 0 0 0 0 0 0 0 0 0 0 0 0 0 0 127 0" result="hardAlpha"/>
<feOffset dy="4"/>
<feGaussianBlur stdDeviation="2"/>
<feComposite in2="hardAlpha" operator="out"/>
<feColorMatrix type="matrix" values="0 0 0 0 0 0 0 0 0 0 0 0 0 0 0 0 0 0 0.25 0"/>
<feBlend mode="normal" in2="BackgroundImageFix" result="effect1_dropShadow_2069_11698"/>
<feBlend mode="normal" in="SourceGraphic" in2="effect1_dropShadow_2069_11698" result="shape"/>
</filter>
<filter id="filter2_d_2069_11698" x="23.208" y="25.2109" width="139.571" height="174.523" filterUnits="userSpaceOnUse" color-interpolation-filters="sRGB">
<feFlood flood-opacity="0" result="BackgroundImageFix"/>
<feColorMatrix in="SourceAlpha" type="matrix" values="0 0 0 0 0 0 0 0 0 0 0 0 0 0 0 0 0 0 127 0" result="hardAlpha"/>
<feOffset dy="4"/>
<feGaussianBlur stdDeviation="13.5"/>
<feComposite in2="hardAlpha" operator="out"/>
<feColorMatrix type="matrix" values="0 0 0 0 0 0 0 0 0 0 0 0 0 0 0 0 0 0 0.15 0"/>
<feBlend mode="normal" in2="BackgroundImageFix" result="effect1_dropShadow_2069_11698"/>
<feBlend mode="normal" in="SourceGraphic" in2="effect1_dropShadow_2069_11698" result="shape"/>
</filter>
<filter id="filter3_d_2069_11698" x="48.4785" y="30.7773" width="132.214" height="158.668" filterUnits="userSpaceOnUse" color-interpolation-filters="sRGB">
<feFlood flood-opacity="0" result="BackgroundImageFix"/>
<feColorMatrix in="SourceAlpha" type="matrix" values="0 0 0 0 0 0 0 0 0 0 0 0 0 0 0 0 0 0 127 0" result="hardAlpha"/>
<feOffset dy="4"/>
<feGaussianBlur stdDeviation="2"/>
<feComposite in2="hardAlpha" operator="out"/>
<feColorMatrix type="matrix" values="0 0 0 0 0 0 0 0 0 0 0 0 0 0 0 0 0 0 0.25 0"/>
<feBlend mode="normal" in2="BackgroundImageFix" result="effect1_dropShadow_2069_11698"/>
<feBlend mode="normal" in="SourceGraphic" in2="effect1_dropShadow_2069_11698" result="shape"/>
</filter>
<filter id="filter4_d_2069_11698" x="35.4785" y="17.7773" width="158.214" height="184.668" filterUnits="userSpaceOnUse" color-interpolation-filters="sRGB">
<feFlood flood-opacity="0" result="BackgroundImageFix"/>
<feColorMatrix in="SourceAlpha" type="matrix" values="0 0 0 0 0 0 0 0 0 0 0 0 0 0 0 0 0 0 127 0" result="hardAlpha"/>
<feOffset dy="4"/>
<feGaussianBlur stdDeviation="8.5"/>
<feComposite in2="hardAlpha" operator="out"/>
<feColorMatrix type="matrix" values="0 0 0 0 0 0 0 0 0 0 0 0 0 0 0 0 0 0 0.15 0"/>
<feBlend mode="normal" in2="BackgroundImageFix" result="effect1_dropShadow_2069_11698"/>
<feBlend mode="normal" in="SourceGraphic" in2="effect1_dropShadow_2069_11698" result="shape"/>
</filter>
<linearGradient id="paint0_linear_2069_11698" x1="-13.4965" y1="-18.5944" x2="96.5" y2="150.112" gradientUnits="userSpaceOnUse">
<stop stop-color="#FFA3A3"/>
<stop offset="0.697917" stop-color="#FD5E5E"/>
</linearGradient>
<linearGradient id="paint1_linear_2069_11698" x1="92.9935" y1="48.2109" x2="232.375" y2="312.621" gradientUnits="userSpaceOnUse">
<stop stop-color="white"/>
<stop offset="1" stop-color="#DFD7F1"/>
</linearGradient>
<linearGradient id="paint2_linear_2069_11698" x1="114.586" y1="30.7773" x2="273.573" y2="380.992" gradientUnits="userSpaceOnUse">
<stop stop-color="white"/>
<stop offset="1" stop-color="#DFD7F1"/>
</linearGradient>
<linearGradient id="paint3_linear_2069_11698" x1="141.713" y1="146.456" x2="48.9553" y2="84.4178" gradientUnits="userSpaceOnUse">
<stop offset="0.260417" stop-color="#3D445E"/>
<stop offset="1" stop-color="#919BC1"/>
</linearGradient>
<linearGradient id="paint4_linear_2069_11698" x1="93.3731" y1="86.6762" x2="130.393" y2="109.438" gradientUnits="userSpaceOnUse">
<stop offset="0.0111732" stop-color="#FFF952"/>
<stop offset="1" stop-color="#FFBF10"/>
</linearGradient>
<linearGradient id="paint5_linear_2069_11698" x1="95.7136" y1="94.8003" x2="104.979" y2="116.825" gradientUnits="userSpaceOnUse">
<stop stop-color="#73778A" stop-opacity="0.99"/>
<stop offset="0.6875" stop-color="#3E445E"/>
</linearGradient>
</defs>
</svg>
