<svg width="121" height="108" viewBox="0 0 121 108" fill="none" xmlns="http://www.w3.org/2000/svg">
<rect x="18.7902" y="19" width="88.4196" height="88.4196" rx="8" fill="url(#paint0_linear_403_79)"/>
<mask id="mask0_403_79" style="mask-type:alpha" maskUnits="userSpaceOnUse" x="5" y="25" width="116" height="83">
<rect x="5" y="25.4895" width="116" height="81.9301" fill="#C4C4C4"/>
</mask>
<g mask="url(#mask0_403_79)">
<g filter="url(#filter0_d_403_79)">
<path d="M78.4123 115.125L39.8808 125.346C36.8794 126.157 33.7158 124.373 32.9046 121.29L17.2486 62.3977C16.4375 59.3963 18.2221 56.2327 21.3046 55.4215L59.8361 45.2005C62.8375 44.3893 66.0011 46.1739 66.8123 49.2565L82.3871 108.149C83.2794 111.15 81.4137 114.314 78.4123 115.125Z" fill="white"/>
<path d="M26.09 67.8323L25.6844 66.291L27.3068 65.8854L26.2522 61.7484L27.1445 61.505L25.1977 63.4519L24.711 61.7484L26.4145 60.126L27.7935 59.8015L29.3347 65.4798L30.876 65.0742L31.2816 66.6155L26.09 67.8323Z" fill="#3E445E"/>
<path d="M46.3705 70.5906L46.8572 71.1584C47.1006 71.4829 47.5061 71.4018 47.6684 70.9962L47.9117 70.2661C48.074 69.8605 48.5607 69.8605 48.8041 70.185L49.2096 70.8339C49.3719 71.1584 49.8586 71.1584 50.0208 70.8339L50.4264 70.185C50.6698 69.8605 51.1565 69.8605 51.3187 70.2661L51.5621 70.9962C51.6432 71.3207 52.1299 71.4018 52.3733 71.1584L52.86 70.5906C53.1034 70.2661 53.6712 70.4284 53.6712 70.8339L53.7523 71.6451C53.8334 71.9696 54.239 72.213 54.5635 71.9696L55.2124 71.4829C55.5369 71.2395 56.0236 71.4829 56.0236 71.8885V72.6997C56.0236 73.1053 56.4292 73.3486 56.7537 73.1053L57.4838 72.6997C57.8082 72.5374 58.295 72.7808 58.2138 73.1864L58.0516 73.9165C57.9705 74.2409 58.295 74.5654 58.7006 74.4843L59.4306 74.2409C59.8362 74.0787 60.1607 74.4843 59.9985 74.8899L59.674 75.62C59.5117 75.9444 59.8362 76.35 60.1607 76.2689L60.9719 76.1878C61.3775 76.1067 61.6208 76.5934 61.4586 76.9179L61.053 77.5668C60.8908 77.8913 61.053 78.2969 61.4586 78.2969H62.2698C62.6754 78.2969 62.9187 78.7836 62.5943 79.1081L62.0264 79.6759C61.7831 79.9193 61.9453 80.406 62.2698 80.4871L62.9999 80.6493C63.4054 80.7304 63.4866 81.2172 63.1621 81.4605L62.5131 81.9472C62.1887 82.1906 62.2698 82.5962 62.5943 82.7584L63.3243 83.0829C63.7299 83.2451 63.7299 83.7318 63.3243 83.9752L62.5943 84.2997C62.2698 84.4619 62.2698 84.9486 62.5131 85.1109L63.1621 85.5165C63.4866 85.7598 63.4054 86.2465 62.9999 86.4088L62.2698 86.6521C61.9453 86.7332 61.7831 87.22 62.1075 87.4633L62.6754 88.0311C62.9999 88.2745 62.8376 88.8423 62.432 88.8423L61.6208 88.9235C61.2152 88.9235 61.053 89.4102 61.2964 89.6535L61.7831 90.3025C62.0264 90.627 61.7831 91.1137 61.3775 91.0325L60.5663 90.9514C60.1607 90.9514 59.9173 91.2759 60.0796 91.6004L60.404 92.3304C60.5663 92.736 60.2418 93.1416 59.8362 92.9794L59.1873 92.8172C58.8628 92.736 58.5383 93.0605 58.6194 93.385L58.8628 94.1151C58.9439 94.5207 58.5383 94.8451 58.2138 94.6829L57.4838 94.3584C57.1593 94.1962 56.7537 94.4395 56.8348 94.8451L56.9159 95.6563C56.9159 96.0619 56.5103 96.3053 56.1859 96.0619L55.5369 95.5752C55.2124 95.3318 54.8068 95.5752 54.8068 95.8997L54.7257 96.7109C54.7257 97.1165 54.1579 97.2787 53.9145 97.0353L53.3467 96.4675C53.1033 96.2242 52.6166 96.3053 52.5355 96.7109L52.3733 97.4409C52.2922 97.8465 51.7243 97.9277 51.481 97.6032L51.0754 96.9542C50.832 96.6297 50.4264 96.7109 50.2642 97.0353L49.9397 97.7654C49.7775 98.171 49.2096 98.0899 49.0474 97.7654L48.7229 97.0353C48.5607 96.7109 48.074 96.6297 47.9117 96.9542L47.425 97.6032C47.1817 97.9277 46.695 97.8465 46.6138 97.4409L46.4516 96.7109C46.3705 96.3864 45.8838 96.2242 45.6404 96.4675L45.0726 97.0353C44.7481 97.3598 44.2614 97.1165 44.2614 96.7109L44.1803 95.8997C44.1803 95.4941 43.7747 95.3318 43.4502 95.4941L42.8013 95.8997C42.4768 96.143 41.9901 95.8186 42.0712 95.413L42.1523 94.6018C42.2334 94.1962 41.8278 93.9528 41.5034 94.1151L40.7733 94.4395C40.3677 94.6018 40.0432 94.2773 40.1243 93.8717L40.3677 93.1416C40.4488 92.8172 40.1243 92.4927 39.7999 92.5738L38.9075 92.8172C38.502 92.8983 38.1775 92.4927 38.3397 92.1682L38.6642 91.4381C38.8264 91.1137 38.5831 90.7081 38.1775 90.7081L37.3663 90.7892C36.9607 90.7892 36.7173 90.3836 36.9607 90.0591L37.4474 89.4102C37.6908 89.0857 37.5285 88.6801 37.1229 88.6801L36.3117 88.599C35.9061 88.5179 35.7439 88.0311 36.0684 87.7878L36.6362 87.3011C36.8796 87.0577 36.7985 86.571 36.474 86.4899L35.7439 86.2465C35.3383 86.0843 35.2572 85.5976 35.6628 85.3542L36.3117 84.9486C36.6362 84.7864 36.6362 84.2997 36.3117 84.1374L35.5817 83.7318C35.2572 83.5696 35.2572 83.0018 35.6628 82.8395L36.3929 82.5151C36.7173 82.3528 36.7985 81.9472 36.474 81.7039L35.825 81.2172C35.5006 80.9738 35.6628 80.4871 35.9873 80.406L36.7985 80.2437C37.1229 80.1626 37.2852 79.757 37.0418 79.4325L36.5551 78.8647C36.3117 78.5402 36.474 78.0535 36.8796 78.0535H37.6908C38.0964 78.0535 38.2586 77.6479 38.0964 77.3235L37.6908 76.6745C37.4474 76.35 37.7719 75.8633 38.1775 75.9444L38.9887 76.1067C39.3131 76.1878 39.6376 75.7822 39.4754 75.4577L39.232 74.7276C39.0698 74.3221 39.4754 73.9976 39.7999 74.0787L40.5299 74.3221C40.8544 74.4843 41.26 74.1598 41.1789 73.7542L41.0166 72.943C40.9355 72.5374 41.3411 72.213 41.7467 72.4563L42.3957 72.8619C42.7201 73.0242 43.1257 72.7808 43.1257 72.4563V71.6451C43.1257 71.2395 43.6124 70.9962 43.9369 71.2395L44.5048 71.7263C44.7481 71.9696 45.2348 71.8074 45.3159 71.4829L45.4782 70.6717C45.6404 70.4283 46.1271 70.2661 46.3705 70.5906Z" fill="#3E445E"/>
<path d="M49.534 94.6839C55.4477 94.6839 60.2417 89.8899 60.2417 83.9762C60.2417 78.0625 55.4477 73.2686 49.534 73.2686C43.6203 73.2686 38.8263 78.0625 38.8263 83.9762C38.8263 89.8899 43.6203 94.6839 49.534 94.6839Z" fill="#DFE21F"/>
<path d="M57.3216 86.3271C57.8083 84.8669 57.8894 83.3257 57.4027 81.7033C56.5104 78.2963 53.509 75.9439 50.1831 75.6194" stroke="#3E445E" stroke-width="1.4908" stroke-miterlimit="10" stroke-linecap="round" stroke-linejoin="round"/>
<path d="M41.3412 82.2705C41.0978 83.4873 41.1789 84.7041 41.5034 85.9209C42.3957 89.2467 45.0726 91.5181 48.2363 92.0048" stroke="#3E445E" stroke-width="1.4908" stroke-miterlimit="10" stroke-linecap="round" stroke-linejoin="round"/>
</g>
<g filter="url(#filter1_d_403_79)">
<path d="M80.9272 118.451L41.0168 118.613C37.8531 118.613 35.3384 116.098 35.3384 112.934L35.1762 52.0141C35.1762 48.8505 37.6909 46.3358 40.8545 46.3358L80.765 46.1736C83.9286 46.1736 86.4433 48.6883 86.4433 51.8519L86.6056 112.772C86.6867 115.855 84.0909 118.369 80.9272 118.451Z" fill="url(#paint1_linear_403_79)"/>
</g>
<path d="M42.3143 59.4759V57.8535H44.0178V53.6353H44.9101L42.5577 55.0143V53.2297L44.5856 52.0129H45.9646V57.8535H47.5059V59.4759H42.3143Z" fill="#3E445E"/>
<path d="M61.2961 67.2644L61.6205 67.9945C61.7828 68.3189 62.2695 68.4001 62.4317 68.0756L62.9184 67.4266C63.1618 67.1022 63.6485 67.1833 63.8107 67.5889L63.973 68.3189C64.0541 68.6434 64.5408 68.8057 64.7842 68.5623L65.352 67.9945C65.6765 67.67 66.1632 67.9134 66.1632 68.3189L66.2443 69.1301C66.2443 69.5357 66.6499 69.698 66.9744 69.4546L67.6233 68.9679C67.9478 68.7245 68.4345 68.9679 68.3534 69.3735L68.2723 70.1847C68.2723 70.5903 68.5968 70.8336 68.9212 70.6714L69.6513 70.3469C70.0569 70.1847 70.3814 70.5092 70.3003 70.9148L70.0569 71.6448C69.9758 71.9693 70.3003 72.2938 70.6247 72.2127L71.3548 72.0504C71.7604 71.9693 72.0849 72.3749 71.9226 72.6994L71.517 73.4294C71.3548 73.7539 71.5982 74.1595 72.0038 74.0784L72.8149 73.9973C73.2205 73.9973 73.4639 74.4029 73.2205 74.7273L72.7338 75.3763C72.4905 75.7008 72.7338 76.1064 73.0583 76.1064L73.8695 76.1875C74.2751 76.2686 74.4373 76.7553 74.1128 76.9987L73.545 77.5665C73.3017 77.8099 73.3828 78.2966 73.7073 78.3777L74.4373 78.621C74.8429 78.7022 74.924 79.27 74.5184 79.5134L73.9506 80.0001C73.6261 80.1623 73.6261 80.649 73.9506 80.8113L74.6807 81.1357C75.0052 81.298 75.0052 81.8658 74.6807 82.028L73.9506 82.3525C73.6261 82.5147 73.545 82.9203 73.8695 83.1637L74.5184 83.6504C74.8429 83.8938 74.7618 84.3805 74.3562 84.4616L73.6261 84.6238C73.3017 84.705 73.1394 85.1106 73.3828 85.435L73.9506 86.0029C74.194 86.3273 74.0317 86.8141 73.6261 86.8141H72.8149C72.4093 86.8141 72.2471 87.2196 72.4093 87.5441L72.8149 88.1931C73.0583 88.5176 72.7338 89.0043 72.3282 88.9231L71.517 88.842C71.1926 88.7609 70.8681 89.1665 71.0303 89.491L71.3548 90.221C71.517 90.6266 71.1114 90.9511 70.787 90.87L70.0569 90.6266C69.7324 90.5455 69.3268 90.7889 69.408 91.1945L69.5702 92.0057C69.6513 92.4113 69.2457 92.7357 68.8401 92.4924L68.0289 92.0057C67.7045 91.8434 67.2989 92.0868 67.2989 92.4113V93.2224C67.2989 93.628 66.8122 93.8714 66.4877 93.628L65.9198 93.1413C65.5954 92.898 65.1898 93.0602 65.1086 93.4658L64.9464 94.277C64.8653 94.6826 64.3786 94.8448 64.1352 94.5203L63.6485 93.9525C63.4052 93.7092 62.9184 93.7903 62.8373 94.1148L62.594 94.8448C62.4317 95.2504 61.945 95.2504 61.7017 94.9259L61.2961 94.277C61.1338 93.9525 60.6471 93.9525 60.4849 94.277L60.0793 94.9259C59.917 95.2504 59.3492 95.2504 59.187 94.8448L58.9436 94.1148C58.7814 93.7903 58.3758 93.7092 58.1324 93.9525L57.7268 94.4392C57.4835 94.7637 56.9968 94.6015 56.9156 94.1959L56.7534 93.3847C56.6723 93.0602 56.2667 92.898 55.9422 93.0602L55.3744 93.5469C55.0499 93.7903 54.5632 93.5469 54.5632 93.1413V92.3301C54.5632 91.9245 54.1576 91.7623 53.8331 91.9245L53.1842 92.3301C52.8597 92.4924 52.373 92.249 52.4541 91.8434L52.6163 91.0322C52.6975 90.7078 52.373 90.3833 51.9674 90.4644L51.2373 90.87C50.8317 91.0322 50.5073 90.6266 50.6695 90.221L50.994 89.491C51.1562 89.1665 50.8317 88.7609 50.5073 88.842L49.6961 89.0043C49.2905 89.0854 48.966 88.5987 49.2093 88.2742L49.6149 87.6252C49.7772 87.3008 49.6149 86.8952 49.2093 86.8952H48.3982C47.9926 86.8952 47.7492 86.4085 48.0737 86.084L48.6415 85.5161C48.8849 85.2728 48.7226 84.7861 48.3982 84.705L47.587 84.5427C47.1814 84.4616 47.1003 83.9749 47.4247 83.7315L48.0737 83.2448C48.3982 83.0015 48.317 82.5959 47.9926 82.4336L47.1814 82.1092C46.7758 81.9469 46.7758 81.4602 47.1003 81.2168L47.8303 80.8924C48.1548 80.7301 48.1548 80.2434 47.8303 80.0812L47.1814 79.6756C46.8569 79.4322 46.938 78.9455 47.2625 78.7833L47.9926 78.5399C48.317 78.4588 48.4793 77.9721 48.1548 77.7287L47.587 77.1609C47.2625 76.9175 47.4247 76.3497 47.8303 76.3497L48.6415 76.2686C49.0471 76.1875 49.2094 75.7819 48.966 75.5385L48.4793 74.8896C48.2359 74.5651 48.4793 74.0784 48.8849 74.1595L49.6961 74.2406C50.1017 74.2406 50.345 73.9161 50.1828 73.5106L49.8583 72.7805C49.6961 72.456 50.0205 71.9693 50.4261 72.1315L51.1562 72.2938C51.4807 72.3749 51.8052 72.0504 51.724 71.7259L51.4807 70.9959C51.3996 70.5903 51.724 70.2658 52.1296 70.428L52.8597 70.7525C53.1842 70.9148 53.5898 70.5903 53.5087 70.2658L53.4275 69.4546C53.3464 69.049 53.8331 68.8057 54.1576 68.9679L54.8066 69.3735C55.131 69.6168 55.5366 69.3735 55.5366 69.049L55.6177 68.2378C55.6177 67.8322 56.1045 67.67 56.4289 67.9134L56.9968 68.4812C57.2401 68.7245 57.7268 68.6434 57.808 68.2378L57.9702 67.5078C58.0513 67.1022 58.6191 67.021 58.7814 67.3455L59.2681 67.9945C59.5114 68.3189 59.917 68.2378 60.0793 67.9134L60.4038 67.1833C60.566 66.8588 61.1338 66.8588 61.2961 67.2644Z" fill="#3E445E"/>
<path d="M60.9717 91.6808C66.8854 91.6808 71.6794 86.8868 71.6794 80.9731C71.6794 75.0594 66.8854 70.2654 60.9717 70.2654C55.058 70.2654 50.264 75.0594 50.264 80.9731C50.264 86.8868 55.058 91.6808 60.9717 91.6808Z" fill="#DFE21F"/>
<path d="M67.8673 85.2716C68.6785 83.9737 69.1652 82.4324 69.1652 80.8101C69.1652 77.2408 66.8939 74.2394 63.7302 73.1038" stroke="#3E445E" stroke-width="1.4908" stroke-miterlimit="10" stroke-linecap="round" stroke-linejoin="round"/>
<path d="M53.4281 77.321C52.9413 78.3756 52.6169 79.5924 52.6169 80.8903C52.6169 84.2973 54.726 87.2175 57.6462 88.4343" stroke="#3E445E" stroke-width="1.4908" stroke-miterlimit="10" stroke-linecap="round" stroke-linejoin="round"/>
<g filter="url(#filter2_d_403_79)">
<g filter="url(#filter3_d_403_79)">
<path d="M83.766 125.994L41.0974 113.34C37.6905 112.366 35.8247 108.797 36.7981 105.471L56.1044 40.2514C57.0779 36.8444 60.6471 34.9787 63.973 35.9521L106.642 48.6066C110.048 49.5801 111.914 53.1493 110.941 56.4752L91.6345 121.695C90.7422 125.102 87.173 126.967 83.766 125.994Z" fill="url(#paint2_linear_403_79)"/>
</g>
<path d="M61.3773 50.5538L61.864 48.8503L63.6486 49.4181L65.0276 44.8755L66.0011 45.1188L62.9997 45.8489L63.5675 43.9021L66.1633 43.3342L67.6234 43.7398L65.7577 49.986L67.4612 50.4727L66.9745 52.1762L61.3773 50.5538Z" fill="#3E445E"/>
<path d="M64.9593 81.5176C66.9872 79.733 68.7719 77.6239 70.6376 75.6771C70.7187 75.5959 70.881 75.4337 70.9621 75.2715C72.7467 73.4057 74.6124 71.54 76.397 69.5932C78.5872 67.2407 80.7775 64.8883 82.9677 62.698C83.211 62.4547 83.4544 62.1302 83.6977 61.8057C85.0768 59.6155 87.4292 59.3722 89.6194 58.8855C90.9173 58.561 92.2152 58.2365 93.5131 57.9932C93.9998 57.912 94.4054 57.8309 94.6488 58.3987C94.4865 58.561 94.3243 58.8043 94.1621 58.9666C85.8068 67.3218 77.2893 75.8393 68.853 84.2757C68.6907 84.4379 68.4474 84.6001 68.2851 84.7624C67.0684 83.7078 66.0138 82.6533 64.9593 81.5176Z" fill="#EAEAEA"/>
<path d="M68.2857 84.7621C68.448 84.5999 68.6913 84.4377 68.8536 84.2754C77.2899 75.8391 85.8074 67.3216 94.2438 58.8852C94.406 58.723 94.5682 58.4796 94.7305 58.3174C95.3794 58.5607 95.2983 59.0475 95.2172 59.453C94.6494 61.8866 94.0815 64.2391 93.5137 66.6726C93.2703 67.8083 92.2969 68.4572 91.5668 69.1062C90.2689 70.1607 89.1333 71.4586 87.9165 72.5132C86.1319 74.0544 84.5095 75.8391 82.806 77.3803C79.6424 80.3006 76.5598 83.2209 73.4773 86.2223C72.8284 86.7901 72.1794 87.2768 71.6116 88.0069C70.3948 87.0335 69.3403 85.8978 68.2857 84.7621Z" fill="#C2C1C0"/>
<path d="M68.2855 84.7625C69.3401 85.8981 70.4757 87.0338 71.6114 88.0884C72.8282 89.3863 74.1261 90.603 75.3429 91.9009C76.4785 93.1177 76.7219 94.5779 76.0729 96.1191C75.424 97.6604 74.2072 98.5527 72.5037 98.5527C70.8002 98.5527 69.5834 97.7415 68.8534 96.2814C67.961 94.4967 68.61 92.3877 70.3135 91.252C70.8002 90.9275 70.8002 90.7653 70.3946 90.4408C69.8268 90.0352 69.5023 89.224 68.7722 88.9807C68.2044 88.0884 67.3121 87.4394 66.582 86.6282C65.7708 85.817 65.0408 84.8436 63.9862 84.1946C63.5806 83.3835 62.8506 82.8967 62.2016 82.2478C61.8771 81.9233 61.796 82.4912 61.7149 82.6534C60.0925 84.9247 56.8478 85.0058 55.2254 82.8156C54.0086 81.1932 54.252 78.8408 55.7932 77.5429C57.3345 76.1639 59.6058 76.1639 61.1471 77.624C62.445 78.8408 63.7429 80.1387 64.9596 81.3555C66.0142 82.6534 67.0687 83.7079 68.2855 84.7625Z" fill="url(#paint3_linear_403_79)"/>
<path d="M61.8768 95.8759C61.7957 96.1192 61.7145 96.3626 61.6334 96.687C61.1467 98.7961 59.1187 100.337 57.0097 100.175C54.9006 100.013 53.0348 98.2283 52.8726 96.1192C52.7103 93.8479 54.1705 91.8199 56.3607 91.3332C56.6041 91.2521 56.9285 91.171 57.1719 91.0898C58.4698 91.171 59.6055 91.6577 60.5789 92.4689C61.3901 93.5234 61.7957 94.6591 61.8768 95.8759Z" fill="url(#paint4_linear_403_79)"/>
<path d="M60.6605 92.3875C59.6871 91.5763 58.6325 91.1707 57.3346 91.0085C59.6059 88.7372 61.7961 86.547 64.0675 84.2756C65.0409 84.9246 65.771 85.898 66.5822 86.7092C66.2577 86.7903 66.0143 87.0337 65.8521 87.277C64.1486 88.9805 62.4451 90.684 60.6605 92.3875Z" fill="#616984"/>
<path d="M60.6602 92.3876C62.3637 90.6841 64.1483 88.9806 65.8518 87.2771C66.0952 87.0337 66.2574 86.7903 66.5819 86.7092C67.3119 87.5204 68.1231 88.0883 68.691 88.9806C66.4196 91.2519 64.2294 93.4421 61.9581 95.7134C61.9581 94.4155 61.5525 93.361 60.6602 92.3876Z" fill="#3E445E"/>
</g>
</g>
<g filter="url(#filter4_d_403_79)">
<circle cx="28.5" cy="20.5" r="18.5" fill="#EFAD2D"/>
<path d="M27.7149 27H26.1629L23.6189 23.832L21.1069 27H19.5229L22.8669 22.856L19.7149 18.952H21.2829L23.6189 21.912L25.9549 18.952H27.5389L24.4029 22.856L27.7149 27ZM36.6194 15.608V16.584L31.2754 27H29.8674L35.1794 16.712H29.0994V15.608H36.6194Z" fill="white"/>
</g>
<defs>
<filter id="filter0_d_403_79" x="13.0533" y="45.0051" width="73.5578" height="88.5361" filterUnits="userSpaceOnUse" color-interpolation-filters="sRGB">
<feFlood flood-opacity="0" result="BackgroundImageFix"/>
<feColorMatrix in="SourceAlpha" type="matrix" values="0 0 0 0 0 0 0 0 0 0 0 0 0 0 0 0 0 0 127 0" result="hardAlpha"/>
<feOffset dy="4"/>
<feGaussianBlur stdDeviation="2"/>
<feComposite in2="hardAlpha" operator="out"/>
<feColorMatrix type="matrix" values="0 0 0 0 0 0 0 0 0 0 0 0 0 0 0 0 0 0 0.25 0"/>
<feBlend mode="normal" in2="BackgroundImageFix" result="effect1_dropShadow_403_79"/>
<feBlend mode="normal" in="SourceGraphic" in2="effect1_dropShadow_403_79" result="shape"/>
</filter>
<filter id="filter1_d_403_79" x="8.17619" y="23.1736" width="105.431" height="126.439" filterUnits="userSpaceOnUse" color-interpolation-filters="sRGB">
<feFlood flood-opacity="0" result="BackgroundImageFix"/>
<feColorMatrix in="SourceAlpha" type="matrix" values="0 0 0 0 0 0 0 0 0 0 0 0 0 0 0 0 0 0 127 0" result="hardAlpha"/>
<feOffset dy="4"/>
<feGaussianBlur stdDeviation="13.5"/>
<feComposite in2="hardAlpha" operator="out"/>
<feColorMatrix type="matrix" values="0 0 0 0 0 0 0 0 0 0 0 0 0 0 0 0 0 0 0.15 0"/>
<feBlend mode="normal" in2="BackgroundImageFix" result="effect1_dropShadow_403_79"/>
<feBlend mode="normal" in="SourceGraphic" in2="effect1_dropShadow_403_79" result="shape"/>
</filter>
<filter id="filter2_d_403_79" x="32.5409" y="35.6948" width="82.6572" height="98.5564" filterUnits="userSpaceOnUse" color-interpolation-filters="sRGB">
<feFlood flood-opacity="0" result="BackgroundImageFix"/>
<feColorMatrix in="SourceAlpha" type="matrix" values="0 0 0 0 0 0 0 0 0 0 0 0 0 0 0 0 0 0 127 0" result="hardAlpha"/>
<feOffset dy="4"/>
<feGaussianBlur stdDeviation="2"/>
<feComposite in2="hardAlpha" operator="out"/>
<feColorMatrix type="matrix" values="0 0 0 0 0 0 0 0 0 0 0 0 0 0 0 0 0 0 0.25 0"/>
<feBlend mode="normal" in2="BackgroundImageFix" result="effect1_dropShadow_403_79"/>
<feBlend mode="normal" in="SourceGraphic" in2="effect1_dropShadow_403_79" result="shape"/>
</filter>
<filter id="filter3_d_403_79" x="19.5409" y="22.6948" width="108.657" height="124.556" filterUnits="userSpaceOnUse" color-interpolation-filters="sRGB">
<feFlood flood-opacity="0" result="BackgroundImageFix"/>
<feColorMatrix in="SourceAlpha" type="matrix" values="0 0 0 0 0 0 0 0 0 0 0 0 0 0 0 0 0 0 127 0" result="hardAlpha"/>
<feOffset dy="4"/>
<feGaussianBlur stdDeviation="8.5"/>
<feComposite in2="hardAlpha" operator="out"/>
<feColorMatrix type="matrix" values="0 0 0 0 0 0 0 0 0 0 0 0 0 0 0 0 0 0 0.15 0"/>
<feBlend mode="normal" in2="BackgroundImageFix" result="effect1_dropShadow_403_79"/>
<feBlend mode="normal" in="SourceGraphic" in2="effect1_dropShadow_403_79" result="shape"/>
</filter>
<filter id="filter4_d_403_79" x="0" y="0" width="57" height="57" filterUnits="userSpaceOnUse" color-interpolation-filters="sRGB">
<feFlood flood-opacity="0" result="BackgroundImageFix"/>
<feColorMatrix in="SourceAlpha" type="matrix" values="0 0 0 0 0 0 0 0 0 0 0 0 0 0 0 0 0 0 127 0" result="hardAlpha"/>
<feOffset dy="8"/>
<feGaussianBlur stdDeviation="5"/>
<feColorMatrix type="matrix" values="0 0 0 0 0 0 0 0 0 0 0 0 0 0 0 0 0 0 0.11 0"/>
<feBlend mode="normal" in2="BackgroundImageFix" result="effect1_dropShadow_403_79"/>
<feBlend mode="normal" in="SourceGraphic" in2="effect1_dropShadow_403_79" result="shape"/>
</filter>
<linearGradient id="paint0_linear_403_79" x1="107.21" y1="135.419" x2="-14.0393" y2="55.5139" gradientUnits="userSpaceOnUse">
<stop offset="0.260417" stop-color="#3D445E"/>
<stop offset="1" stop-color="#919BC1"/>
</linearGradient>
<linearGradient id="paint1_linear_403_79" x1="60.8918" y1="46.1736" x2="144.665" y2="205.094" gradientUnits="userSpaceOnUse">
<stop stop-color="white"/>
<stop offset="1" stop-color="#DFD7F1"/>
</linearGradient>
<linearGradient id="paint2_linear_403_79" x1="73.8695" y1="35.6948" x2="169.427" y2="246.187" gradientUnits="userSpaceOnUse">
<stop stop-color="white"/>
<stop offset="1" stop-color="#DFD7F1"/>
</linearGradient>
<linearGradient id="paint3_linear_403_79" x1="53.3504" y1="78.3159" x2="73.6249" y2="90.748" gradientUnits="userSpaceOnUse">
<stop offset="0.0111732" stop-color="#FFF952"/>
<stop offset="1" stop-color="#FFBF10"/>
</linearGradient>
<linearGradient id="paint4_linear_403_79" x1="52.408" y1="91.8319" x2="60.755" y2="96.9187" gradientUnits="userSpaceOnUse">
<stop offset="0.0111732" stop-color="#FFF952"/>
<stop offset="1" stop-color="#FFBF10"/>
</linearGradient>
</defs>
</svg>
