<svg width="72" height="72" viewBox="0 0 72 72" fill="none" xmlns="http://www.w3.org/2000/svg">
<rect width="72" height="72" rx="36" fill="#3D445E"/>
<path d="M49.6855 10.3999L44.5836 19.4137C44.2275 17.6115 43.7061 15.7823 43.0016 13.8584C42.8312 13.391 42.6455 12.9371 42.4497 12.4561C42.3581 12.2291 42.264 11.9941 42.1674 11.7536L42.0529 11.4672L38.1489 13.9476C37.0807 12.421 36.1524 11.2618 35.163 10.2081L34.9646 10L31.8566 13.953C30.7299 13.1586 29.5193 12.348 28.2553 11.7023L28.1001 11.6239L27.9501 11.7698C27.9272 11.7887 27.8941 11.8184 27.8687 11.8698C27.8407 11.9211 27.8127 11.9752 27.7898 12.0319C26.1672 15.8822 25.2592 19.4245 25.0099 22.8642C24.8497 25.0879 25.0684 26.9928 25.6814 28.6869C26.4495 30.8134 27.3625 32.3562 28.5554 33.5451C29.9949 34.9799 31.671 35.677 33.5251 35.6067C33.6421 35.604 33.7591 35.5932 33.8812 35.5824V38.3303L30.7579 43.8478C28.0162 40.7729 24.2622 38.868 19.3535 38.0493L19 37.9899L19.0585 38.3601C19.0941 38.5843 19.1246 38.8032 19.1577 39.0139C19.2238 39.4652 19.2849 39.8921 19.3713 40.3163C19.8266 42.5481 20.5845 44.653 21.6273 46.5714C22.5378 48.2439 23.5551 49.6057 24.7403 50.7297C25.1931 51.1594 25.6712 51.5593 26.1697 51.9375L22.0088 59.2869L21.8791 59.5193L24.1935 60.9973L51.8703 12.1103L52 11.8779L49.6855 10.3999ZM27.9501 44.0261C28.5732 44.5584 29.1429 45.1366 29.6617 45.7716L27.215 50.0948C26.7623 49.7408 26.3325 49.3625 25.923 48.9572C23.8832 46.9199 22.4844 44.2909 21.5408 40.7081C24.1045 41.4511 26.2053 42.54 27.9501 44.0261ZM36.5186 15.2337L35.0308 16.5415L33.5378 15.2365L35.0282 13.2262L36.5186 15.2337ZM28.975 14.5637C29.1047 14.6528 29.2345 14.7393 29.3642 14.8257C29.8347 15.1446 30.2798 15.4445 30.7249 15.7633C32.4874 17.0279 33.9295 18.3032 35.1325 19.6596C36.4194 21.1133 37.1951 22.367 37.6479 23.7315C38.2303 25.477 38.4516 26.9631 38.3473 28.4086C38.2532 29.6975 37.8666 30.7486 37.1621 31.624C36.6203 32.2968 35.9031 32.7913 34.9672 33.1371C33.5836 33.6478 32.317 33.5667 31.0987 32.8858C30.2086 32.3914 29.4608 31.6294 28.8097 30.5621C27.917 29.0976 27.3651 27.6548 27.1209 26.1471C26.9454 25.0663 26.9276 23.9179 27.0573 22.5372C27.299 20.0649 27.9068 17.5277 28.975 14.5637ZM39.6062 23.1452C39.095 21.5294 38.1794 19.9919 36.717 18.3005L36.5008 18.0546C37.8183 16.8414 39.3239 15.6958 41.0839 14.5637C41.1246 14.6852 41.1679 14.8068 41.2086 14.9284C41.379 15.4256 41.5392 15.8957 41.6892 16.3767C42.2768 18.2384 42.671 19.9514 42.8897 21.6158C42.9177 21.8266 42.9431 22.0428 42.9686 22.2643L40.3769 26.8442C40.2751 25.4662 39.9394 24.2043 39.6062 23.1452Z" fill="#F9F9F9"/>
<path d="M50.2802 38.15C50.0004 38.1878 49.7334 38.223 49.4663 38.2743C47.7368 38.6066 46.0302 39.1903 44.3923 40.0063C42.6934 40.8547 41.1979 41.9139 39.9465 43.1595C38.39 44.7077 37.1565 46.5748 36.1773 48.8661V42.9217L33.873 46.9909V48.7769C33.7916 48.5959 33.7102 48.4149 33.6263 48.2338L33.4177 47.7961L32.141 50.0523L32.1919 50.1792C32.5378 51.052 32.843 51.9815 33.1151 53.0082C32.4131 52.8002 31.7391 52.5678 31.1058 52.3138L30.9075 52.2328L29.8418 54.116L30.1216 54.2322C31.2813 54.7186 32.5378 55.1077 33.8552 55.3914C33.8679 55.3941 33.8806 55.3968 33.8883 55.3995C33.8883 55.4103 33.8883 55.4265 33.8883 55.4454C33.8832 56.5478 33.8832 57.6475 33.8832 58.75V60.3063H34.4605H35.6864C35.7322 60.3063 35.778 60.3036 35.8339 60.3009L36.162 60.2847V58.7013C36.162 57.607 36.162 56.5127 36.1595 55.4157C36.1595 55.4076 36.1595 55.3995 36.1595 55.3941C38.3519 54.9645 40.4527 54.1458 42.411 52.9596C44.5347 51.6762 46.2769 50.0009 47.5919 47.9825C49.245 45.4454 50.3387 42.5569 50.8423 39.3929C50.8779 39.1687 50.9008 38.9498 50.9262 38.7201C50.9364 38.6147 50.9491 38.5094 50.9618 38.4013L51.0025 38.0527L50.6744 38.0987C50.5421 38.1149 50.4099 38.1311 50.2802 38.15ZM48.4947 40.7142C46.8568 47.2476 43.0723 51.2654 36.9454 52.9785C37.7186 49.9712 38.8885 47.561 40.5162 45.6237C42.4568 43.3162 45.0002 41.7491 48.4947 40.7142Z" fill="#F9F9F9"/>
</svg>
