<svg width="40" height="40" viewBox="0 0 40 40" fill="none" xmlns="http://www.w3.org/2000/svg">
<path d="M16.3223 30.2941C25.6803 30.2941 30.8163 22.5465 30.8163 15.8001C30.8163 15.5824 30.8163 15.3648 30.8163 15.1472C31.8174 14.4508 32.6879 13.5367 33.3408 12.4921C32.4268 12.8838 31.4692 13.1885 30.4246 13.2756C31.4692 12.6662 32.2962 11.6651 32.6444 10.4464C31.6433 11.0122 30.5552 11.4475 29.4235 11.6651C28.5095 10.664 27.1602 10.0547 25.7238 10.0547C22.8947 10.0547 20.6314 12.318 20.6314 15.1472C20.6314 15.5389 20.6749 15.9306 20.7619 16.3224C16.54 16.1047 12.7968 14.1026 10.2723 11.0122C9.83702 11.7522 9.57586 12.6227 9.57586 13.5803C9.57586 15.3648 10.4899 16.8882 11.8392 17.8022C11.0122 17.7587 10.2287 17.5411 9.53234 17.1494V17.1929C9.53234 19.6738 11.2734 21.7195 13.6237 22.1983C13.1885 22.3289 12.7532 22.3724 12.2744 22.3724C11.9262 22.3724 11.6216 22.3289 11.3169 22.2854C11.9698 24.2875 13.8414 25.7674 16.0612 25.8109C14.3202 27.1602 12.1439 27.9872 9.74997 27.9872C9.35824 27.9872 8.92298 27.9437 8.53125 27.9002C10.7511 29.4236 13.4496 30.2941 16.3223 30.2941Z" fill="#3D445E"/>
<path d="M35.778 0H4.17845C1.8716 0 0 1.8716 0 4.17845V35.778C0 38.0849 1.8716 39.9565 4.17845 39.9565H35.778C38.0849 39.9565 39.9565 38.0849 39.9565 35.778V4.17845C40 1.8716 38.0849 0 35.778 0ZM37.3449 35.1687C37.3449 36.3439 36.3874 37.3449 35.1687 37.3449H4.78781C3.61262 37.3449 2.61153 36.3874 2.61153 35.1687V4.78781C2.61153 3.61262 3.5691 2.61153 4.78781 2.61153H35.1687C36.3439 2.61153 37.3449 3.5691 37.3449 4.78781V35.1687Z" fill="#3D445E"/>
</svg>
