<svg width="54" height="54" viewBox="0 0 54 54" fill="none" xmlns="http://www.w3.org/2000/svg">
<path d="M27.0007 0.333252C12.2807 0.333252 0.333984 12.2799 0.333984 26.9999C0.333984 41.7199 12.2807 53.6666 27.0007 53.6666C41.7207 53.6666 53.6673 41.7199 53.6673 26.9999C53.6673 12.2799 41.7207 0.333252 27.0007 0.333252ZM13.854 43.7466C15.0007 41.3466 21.9873 38.9999 27.0007 38.9999C32.014 38.9999 39.0273 41.3466 40.1473 43.7466C36.5207 46.6266 31.9607 48.3333 27.0007 48.3333C22.0407 48.3333 17.4807 46.6266 13.854 43.7466ZM43.9607 39.8799C40.1473 35.2399 30.894 33.6666 27.0007 33.6666C23.1073 33.6666 13.854 35.2399 10.0407 39.8799C7.32065 36.3066 5.66732 31.8533 5.66732 26.9999C5.66732 15.2399 15.2407 5.66659 27.0007 5.66659C38.7607 5.66659 48.334 15.2399 48.334 26.9999C48.334 31.8533 46.6807 36.3066 43.9607 39.8799ZM27.0007 10.9999C21.8273 10.9999 17.6673 15.1599 17.6673 20.3333C17.6673 25.5066 21.8273 29.6666 27.0007 29.6666C32.174 29.6666 36.334 25.5066 36.334 20.3333C36.334 15.1599 32.174 10.9999 27.0007 10.9999ZM27.0007 24.3333C24.7873 24.3333 23.0007 22.5466 23.0007 20.3333C23.0007 18.1199 24.7873 16.3333 27.0007 16.3333C29.214 16.3333 31.0007 18.1199 31.0007 20.3333C31.0007 22.5466 29.214 24.3333 27.0007 24.3333Z" fill="#3D445E"/>
</svg>
